<svg id="Ebene_1" data-name="Ebene 1" xmlns="http://www.w3.org/2000/svg" viewBox="0 0 536.11 89.94"><defs><style>.cls-1{fill:#919792;}</style></defs><title>Proventa_Logo_Horizontal_HKS92</title><path class="cls-1" d="M6.84,54.19V18H43.08Zm5.65-30.58v17l17-17Z" transform="translate(-6.82 -17.96)"/><path class="cls-1" d="M96.78,107.9h-90V60.17L49,18H96.78Zm-84.31-5.65H91.13V23.61H51.38L12.47,62.51Z" transform="translate(-6.82 -17.96)"/><path class="cls-1" d="M122.69,90.93V32.2h22.15a54,54,0,0,1,8.94.56A17.69,17.69,0,0,1,161,35.51a14.47,14.47,0,0,1,4.71,5.66,18.17,18.17,0,0,1,1.78,8,18.06,18.06,0,0,1-4.77,12.68q-4.77,5.19-17.23,5.19H130.46V90.93Zm7.77-30.8h15.19q7.53,0,10.69-2.81a10,10,0,0,0,3.17-7.89,10.56,10.56,0,0,0-1.87-6.31,8.68,8.68,0,0,0-4.9-3.47,33.78,33.78,0,0,0-7.26-.52h-15Z" transform="translate(-6.82 -17.96)"/><path class="cls-1" d="M174.67,90.93V32.2h26q7.86,0,11.94,1.58a13.11,13.11,0,0,1,6.53,5.59,16.69,16.69,0,0,1,2.44,8.86,14.74,14.74,0,0,1-4,10.53q-4.05,4.29-12.5,5.45a20.13,20.13,0,0,1,4.69,2.93A40.13,40.13,0,0,1,216.22,75l10.21,16h-9.77l-7.78-12.22q-3.4-5.28-5.6-8.09a17.47,17.47,0,0,0-3.95-3.92,11.71,11.71,0,0,0-3.55-1.57,23.92,23.92,0,0,0-4.32-.28h-9V90.93Zm7.77-32.81h16.71a25.16,25.16,0,0,0,8.33-1.1,8.8,8.8,0,0,0,4.57-3.53,9.52,9.52,0,0,0,1.56-5.26,8.75,8.75,0,0,0-3-6.85q-3-2.68-9.56-2.69H182.44Z" transform="translate(-6.82 -17.96)"/><path class="cls-1" d="M228.42,62.33q0-14.62,7.85-22.9t20.27-8.27a28.15,28.15,0,0,1,14.67,3.89,25.37,25.37,0,0,1,10,10.83,35.14,35.14,0,0,1,3.43,15.77,34.53,34.53,0,0,1-3.61,16,24.65,24.65,0,0,1-10.21,10.68,29.17,29.17,0,0,1-14.27,3.62,27.78,27.78,0,0,1-14.82-4A25.77,25.77,0,0,1,231.79,77,33.06,33.06,0,0,1,228.42,62.33Zm8,.12q0,10.62,5.71,16.72a19.92,19.92,0,0,0,28.77-.06q5.67-6.17,5.67-17.5a30,30,0,0,0-2.43-12.52,18.63,18.63,0,0,0-7.09-8.3,19.24,19.24,0,0,0-10.48-2.94,19.88,19.88,0,0,0-14.2,5.67Q236.44,49.19,236.43,62.45Z" transform="translate(-6.82 -17.96)"/><path class="cls-1" d="M307.4,90.93,284.65,32.2h8.41l15.26,42.67q1.85,5.13,3.09,9.61,1.36-4.8,3.16-9.61L330.44,32.2h7.93l-23,58.73Z" transform="translate(-6.82 -17.96)"/><path class="cls-1" d="M344.21,90.93V32.2h42.47v6.93H352v18h32.49V64H352V84H388v6.93Z" transform="translate(-6.82 -17.96)"/><path class="cls-1" d="M395.94,90.93V32.2h8l30.85,46.11V32.2h7.45V90.93h-8L403.39,44.78V90.93Z" transform="translate(-6.82 -17.96)"/><path class="cls-1" d="M468.11,90.93V39.13H448.76V32.2h46.55v6.93H475.88v51.8Z" transform="translate(-6.82 -17.96)"/><path class="cls-1" d="M488,90.93,510.53,32.2h8.37l24,58.73h-8.86l-6.85-17.79H502.68l-6.45,17.79Zm16.95-24.11h19.91L518.7,50.55q-2.81-7.41-4.17-12.18a74,74,0,0,1-3.16,11.22Z" transform="translate(-6.82 -17.96)"/></svg>