<?xml version="1.0" standalone="no"?>
<!DOCTYPE svg PUBLIC "-//W3C//DTD SVG 20010904//EN"
 "http://www.w3.org/TR/2001/REC-SVG-20010904/DTD/svg10.dtd">
<svg version="1.0" xmlns="http://www.w3.org/2000/svg"
 width="832.000000pt" height="832.000000pt" viewBox="0 0 832.000000 832.000000"
 preserveAspectRatio="xMidYMid meet">
<metadata>
Created by potrace 1.14, written by Peter Selinger 2001-2017
</metadata>
<g transform="translate(0.000000,832.000000) scale(0.100000,-0.100000)"
fill="#000000" stroke="none">
<path d="M3126 6443 c-1 -1 -40 -4 -86 -7 -111 -7 -141 -12 -208 -32 -131 -38
-265 -122 -402 -254 -58 -56 -419 -402 -509 -488 -157 -152 -431 -414 -482
-463 -31 -30 -148 -142 -260 -250 -112 -108 -224 -216 -249 -239 -535 -507
-697 -672 -780 -797 -38 -58 -70 -113 -70 -123 0 -9 -3 -20 -7 -24 -9 -9 -13
-32 -17 -94 -8 -151 141 -269 363 -288 42 -4 153 -6 246 -6 94 1 1178 3 2410
5 1232 2 2251 7 2265 10 14 3 41 8 60 11 83 13 199 62 316 135 24 15 108 88
187 163 78 74 160 150 182 169 21 19 54 48 73 65 33 31 33 31 10 35 -13 2
-1167 4 -2565 4 -1399 -1 -2543 1 -2543 3 0 3 74 75 394 383 67 64 177 170
246 236 69 66 155 149 192 184 36 35 153 147 259 249 106 102 214 205 240 230
25 25 138 133 250 241 288 276 290 278 334 307 l40 27 2113 1 c1161 0 2112 -1
2112 -2 0 -2 -177 -176 -261 -255 -106 -101 -248 -239 -252 -246 -3 -5 192 -8
432 -8 374 0 441 2 457 15 19 15 211 200 338 325 336 331 391 609 141 720 -77
34 -125 42 -310 51 -106 5 -4654 12 -4659 7z"/>
<path d="M3087 4943 c-1 -1 -31 -4 -67 -7 -36 -3 -74 -8 -85 -10 -116 -24
-186 -46 -180 -56 2 -3 -5 -7 -16 -7 -36 -3 -183 -96 -241 -154 -32 -31 -58
-55 -58 -53 0 2 -29 -24 -64 -59 -35 -34 -61 -66 -58 -71 3 -5 1 -6 -5 -3 -6
4 -38 -22 -72 -57 -33 -36 -61 -62 -61 -59 0 3 -14 -9 -30 -27 -17 -18 -28
-35 -26 -38 3 -2 124 -4 268 -3 145 1 1293 3 2552 4 1887 2 2292 0 2305 -11 9
-8 11 -11 5 -8 -7 3 -66 -47 -132 -112 -67 -64 -173 -166 -236 -226 -63 -60
-113 -114 -109 -119 3 -6 1 -7 -5 -3 -7 4 -12 2 -12 -3 0 -6 -6 -11 -13 -11
-8 0 -59 -44 -115 -97 -55 -54 -174 -168 -262 -253 -89 -85 -219 -210 -288
-277 -69 -68 -127 -123 -129 -123 -3 0 -84 -79 -375 -362 -66 -65 -122 -118
-124 -118 -3 0 -19 -15 -37 -33 -93 -94 -133 -105 -367 -102 -85 1 -161 -3
-167 -8 -7 -5 -13 -5 -13 -1 0 8 -195 11 -210 4 -3 -1 -9 -1 -15 0 -30 8 -392
5 -402 -3 -7 -5 -13 -5 -13 -1 0 8 -195 11 -210 4 -3 -1 -9 -1 -15 0 -29 8
-872 5 -882 -3 -8 -5 -13 -6 -13 -1 0 8 -195 11 -210 4 -3 -1 -9 -1 -15 0 -30
8 -232 5 -242 -3 -7 -5 -13 -5 -13 -1 0 8 -195 11 -210 4 -3 -1 -9 -1 -15 0
-30 8 -232 5 -242 -3 -7 -5 -13 -5 -13 -1 0 11 -195 12 -205 2 -4 -4 -17 -3
-29 1 -11 4 -205 6 -431 6 -225 -1 -413 0 -417 2 -6 3 76 86 279 281 34 33 59
63 55 67 -4 5 -2 5 4 2 6 -4 27 10 46 31 19 20 53 54 76 74 23 21 43 43 44 49
2 8 -60 12 -220 13 -122 0 -222 -3 -222 -7 0 -5 -5 -5 -12 -1 -15 10 -355 11
-394 2 -33 -9 -251 -212 -246 -230 1 -5 -1 -7 -6 -4 -10 6 -155 -133 -228
-219 -71 -83 -156 -222 -169 -275 -1 -3 -5 -18 -10 -35 -14 -49 -12 -118 5
-156 19 -46 69 -109 87 -109 7 0 13 -4 13 -8 0 -20 149 -59 265 -69 91 -9
4831 -7 4904 1 35 4 76 12 90 17 14 6 26 10 26 9 0 -5 91 24 99 32 6 4 18 8
28 8 9 0 21 8 27 18 5 9 12 16 15 15 12 -6 25 -2 38 9 7 7 36 28 63 47 28 19
60 45 72 58 12 13 25 23 28 23 3 0 58 52 123 115 226 221 372 361 372 358 0
-1 37 34 83 79 45 45 81 85 80 90 -2 4 1 7 6 5 6 -1 82 68 171 153 333 320
435 418 553 533 66 64 122 117 124 117 1 0 58 54 125 120 68 65 130 126 139
135 9 8 19 15 22 15 13 0 67 57 67 70 0 7 3 10 7 7 7 -8 73 54 254 238 134
136 135 137 169 188 14 20 28 37 31 37 3 0 11 16 19 35 8 19 17 35 21 35 4 0
10 10 14 23 4 12 8 24 10 27 2 6 12 32 21 58 22 58 9 183 -21 204 -5 4 -7 8
-3 8 13 0 -35 51 -71 76 -19 13 -38 21 -43 18 -4 -3 -8 -1 -8 4 0 12 -38 27
-120 48 -60 16 -258 17 -2473 18 -1325 1 -2409 0 -2410 -1z"/>
</g>
</svg>
