<?xml version="1.0" encoding="utf-8"?>
<!-- Generator: Adobe Illustrator 21.0.1, SVG Export Plug-In . SVG Version: 6.00 Build 0)  -->
<svg version="1.1" id="Ebene_1" xmlns="http://www.w3.org/2000/svg" xmlns:xlink="http://www.w3.org/1999/xlink" x="0px" y="0px"
	 viewBox="0 0 329.5 115.3" style="enable-background:new 0 0 329.5 115.3;" xml:space="preserve">
<style type="text/css">
	.st0{fill:#DD042D;}
</style>
<path class="st0" d="M47.3,26.5H29.7c-3.2,0-5.9,2.6-5.9,5.9h5.3v17.1c0.1,1.3,2,2.7,5.9,3c3.2,0.2,6.2-1,7-2.8V32.4
	c0.7,0.1,4.4,1,5.1,4.7c0,0.2,0.1,0.4,0.1,0.6l0,0l0,0c0,0.2,0,0.3,0,0.5v17.6l0,0h-4.5H42v-2.6c-0.8,1.2-2.4,2.3-3.7,2.6h-8.7
	c-3.6-0.2-5.8-2.6-5.9-5.9V32.4c-3.2,0-5.9,2.6-5.9,5.9v17.6c0,3.2,2.6,5.9,5.9,5.9h17.6c3.2,0,5.9-2.6,5.9-5.9
	c3.2,0,5.9-2.6,5.9-5.9V32.4C53.1,29.2,50.5,26.5,47.3,26.5z"/>
<path class="st0" d="M294,32.6c-3.3,0.1-5.3,0-7,2.6c-1.2-2-3.7-2.5-5.2-2.5V56h5.4l-0.1-16.7c0.1-1.9,3.2-3.3,6.9-3.1
	c3.9,0.2,5.8,1.7,5.9,2.9V56h5.2V38.4C304.6,34.3,303,32.3,294,32.6"/>
<path class="st0" d="M134.4,32.6c0.4,0.8,9.6,19.3,10.3,20.4c0.7,1.1,2.4,2.6,4.1,2.9c0.8,0.1,3.2,0.2,4,0
	c0.2-0.1,7.1-18.1,7.3-18.6c0.1-0.4,0.4-2.6-2-4.6c-3.1,7.8-5.9,15.5-7.8,20c-3.2-6.4-6.1-12.6-8.7-17c-1.6-2.6-3.9-3.1-4.4-3.1
	C137.2,32.6,134.4,32.6,134.4,32.6z"/>
<path class="st0" d="M107.6,32.7c-3.3,0.1-5.3,0-7,2.6c-1.2-2-3.7-2.5-5.2-2.5V56h5.4l-0.1-16.7c0.1-1.9,3.2-3.3,6.9-3.1
	c3.9,0.2,5.8,1.7,5.9,3V56h5.2V38.6C118.2,34.5,116.6,32.4,107.6,32.7"/>
<path class="st0" d="M206.4,32.7c-3.3,0.1-5.3,0-7,2.6c-1.2-2-3.7-2.5-5.2-2.5V56h5.3l-0.1-16.7c0.1-1.9,3.2-3.3,6.9-3.1
	c3.9,0.2,5.8,1.7,5.9,3V56h5.2V38.6C217.1,34.5,215.4,32.4,206.4,32.7"/>
<path class="st0" d="M130.3,30.2c0,0.5-0.4,0.9-0.9,0.9H126c-0.5,0-0.9-0.4-0.9-0.9v-3.4c0-0.5,0.4-0.9,0.9-0.9h3.4
	c0.5,0,0.9,0.4,0.9,0.9L130.3,30.2L130.3,30.2z"/>
<path class="st0" d="M230.5,32.9v-7h-2v1.3c0,3.2-2.6,5.8-5.8,5.8h-1v3.3h3.5V56h5.2V36.4h5.8v-3.5H230.5z"/>
<path class="st0" d="M270.3,49c0,1.9-1.6,3.5-3.5,3.5H261c-1.9,0-3.5-1.6-3.5-3.5v-9.3c0-1.9,1.6-3.5,3.5-3.5h5.8
	c1.9,0,3.5,1.6,3.5,3.5V49z M269.7,32.7h-11.6c-3.2,0-5.8,2.6-5.8,5.8v11.6c0,3.2,2.6,5.8,5.8,5.8h11.6c3.2,0,5.8-2.6,5.8-5.8V38.6
	C275.6,35.4,273,32.7,269.7,32.7"/>
<path class="st0" d="M173.3,36h5.8c1.9,0,3.5,1.6,3.5,3.5v1.8h-12.8v-1.8C169.8,37.6,171.4,36,173.3,36 M187.7,44.6L187.7,44.6h0.2
	v-6.2c0-3.2-2.6-5.8-5.8-5.8h-11.6c-3.2,0-5.8,2.6-5.8,5.8V50c0,3.2,2,6.2,11.1,6c7.3-0.1,11.9-0.6,12.2-5.6h-5.5
	c-0.4,0.7-1.8,2.3-6.6,2.1c-5.1-0.2-6-1.9-6-3.9v-4.2h17.8V44.6z"/>
<path class="st0" d="M130.3,56V38.5c0-3-2.3-5.6-5.2-5.9V56H130.3z"/>
<path class="st0" d="M83.6,32.6v17.1c-0.3,1.8-3.3,3.1-6.8,2.9c-3.9-0.2-5.8-1.7-5.9-3V32.7h-5.2v17.5c0.4,4.1,2.1,6.1,11.1,5.9
	c3.3-0.1,5.3,0,6.9-2.5V56h5.2V38.5C88.8,35.4,86.6,32.9,83.6,32.6"/>
<path class="st0" d="M246,30.2c0,0.5-0.4,0.9-0.9,0.9h-3.4c-0.5,0-0.9-0.4-0.9-0.9v-3.4c0-0.5,0.4-0.9,0.9-0.9h3.4
	c0.5,0,0.9,0.4,0.9,0.9V30.2z"/>
<path class="st0" d="M245.9,56V38.5c0-3-2.3-5.6-5.2-5.9V56H245.9z"/>
<path class="st0" d="M298.4,73.8c-2,0.1-3.2,0-4.2,1.6c-0.7-1.2-2.3-1.5-3.2-1.5v14h3.2V77.8c0.1-1.1,1.9-2,4.1-1.9
	c2.3,0.1,3.5,1,3.6,1.8v10.2h3.2V77.4C304.8,74.9,303.8,73.6,298.4,73.8"/>
<path class="st0" d="M267,77.7v0.4l0,0v5.6c0,1.2-0.9,2.1-2.1,2.1h-3.5c-1,0-1.9-0.7-2.1-1.7v-6.3c0.1-1.1,1.9-2,4.1-1.9
	C265.8,76.1,266.9,76.9,267,77.7 M270.1,77.2c0-0.1,0-0.1,0-0.2c-0.3-2.3-1.4-3.4-6.6-3.2c-2,0.1-3.2,0-4.2,1.6
	c-0.7-1.2-2.3-1.5-3.2-1.5v23.3h3.2V88c0.1,0,0.2,0,0.3,0h7c1.9,0,3.5-1.6,3.5-3.5V82l0,0v-4.5C270.2,77.3,270.1,77.3,270.1,77.2"/>
<path class="st0" d="M205.1,84.8v-0.4l0,0v-5.6c0-1.2-0.9-2.1-2.1-2.1h-3.5c-1,0-1.9,0.7-2.1,1.7v6.3c0.1,1.1,1.9,2,4.1,1.9
	C203.9,86.4,205,85.6,205.1,84.8 M208.2,85.2c0,0.1,0,0.1,0,0.2c-0.3,2.3-1.4,3.4-6.6,3.2c-2-0.1-3.2,0-4.2-1.6
	c-0.7,1.2-2.3,1.5-3.2,1.5V64.4c2.7,0.1,3.2,2.4,3.2,2.4v7.7c0.1,0,0.2,0,0.3,0h7c1.9,0,3.5,1.6,3.5,3.5v2.5l0,0V85
	C208.2,85.2,208.2,85.2,208.2,85.2"/>
<path class="st0" d="M249.5,83.6c0,1.2-0.9,2.1-2.1,2.1h-3.5c-1.2,0-2.1-0.9-2.1-2.1V78c0-1.2,0.9-2.1,2.1-2.1h3.5
	c1.2,0,2.1,0.9,2.1,2.1V83.6z M249.2,73.8h-7c-1.9,0-3.5,1.6-3.5,3.5v7c0,1.9,1.6,3.5,3.5,3.5h7c1.9,0,3.5-1.6,3.5-3.5v-7
	C252.7,75.4,251.1,73.8,249.2,73.8"/>
<path class="st0" d="M278.8,75.8h3.5c1.2,0,2.1,0.9,2.1,2.1V79h-7.7v-1.1C276.7,76.8,277.6,75.8,278.8,75.8 M287.5,81L287.5,81h0.1
	v-3.7c0-1.9-1.6-3.5-3.5-3.5h-7c-1.9,0-3.5,1.6-3.5,3.5v7c0,1.9,1.2,3.7,6.7,3.6c4.4-0.1,7.2-0.4,7.3-3.4h-3.3
	c-0.2,0.4-1.1,1.4-4,1.3c-3.1-0.1-3.6-1.2-3.6-2.3V81H287.5z"/>
<path class="st0" d="M216.8,76.6h3.5c1.2,0,2.1,0.9,2.1,2.1v1.1h-7.7v-1.1C214.7,77.5,215.7,76.6,216.8,76.6 M225.5,81.8L225.5,81.8
	h0.1v-3.7c0-1.9-1.6-3.5-3.5-3.5h-7c-1.9,0-3.5,1.6-3.5,3.5v7c0,1.9,1.2,3.7,6.7,3.6c4.4-0.1,7.2-0.4,7.3-3.4h-3.3
	c-0.2,0.4-1.1,1.4-4,1.3c-3.1-0.1-3.6-1.2-3.6-2.3v-2.5H225.5z"/>
<rect x="308.4" y="84.4" class="st0" width="3.2" height="3.5"/>
</svg>
