<?xml version="1.0" encoding="UTF-8" standalone="no"?>
<!-- Generator: Adobe Illustrator 21.0.0, SVG Export Plug-In . SVG Version: 6.00 Build 0)  -->

<svg
   version="1.1"
   x="0px"
   y="0px"
   width="170px"
   height="175px"
   viewBox="0 0 170 175"
   enable-background="new 0 0 170 175"
   xml:space="preserve"
   id="svg147"
   sodipodi:docname="logo-bmwi-funded.svg"
   inkscape:version="1.1.2 (1:1.1+202202050950+0a00cf5339)"
   xmlns:inkscape="http://www.inkscape.org/namespaces/inkscape"
   xmlns:sodipodi="http://sodipodi.sourceforge.net/DTD/sodipodi-0.dtd"
   xmlns="http://www.w3.org/2000/svg"
   xmlns:svg="http://www.w3.org/2000/svg"><defs
   id="defs151" /><sodipodi:namedview
   id="namedview149"
   pagecolor="#505050"
   bordercolor="#ffffff"
   borderopacity="1"
   inkscape:pageshadow="0"
   inkscape:pageopacity="0"
   inkscape:pagecheckerboard="1"
   showgrid="false"
   inkscape:zoom="3.6"
   inkscape:cx="113.61111"
   inkscape:cy="85.972222"
   inkscape:window-width="1920"
   inkscape:window-height="1020"
   inkscape:window-x="1920"
   inkscape:window-y="0"
   inkscape:window-maximized="1"
   inkscape:current-layer="Bildwortmarke" />
<g
   id="Hintergrund">
	<rect
   x="0"
   fill="#FFFFFF"
   width="170"
   height="175"
   id="rect2" />
</g>
<g
   id="Foerderzusatz">
	<g
   id="g35">
		<path
   d="M28.6,22.3c-0.2-0.1-0.7-0.3-1.3-0.3c-1.3,0-2.5,0.8-2.5,3c0,2.1,1,3.1,2.4,3.1c0.5,0,0.9-0.1,1.2-0.2v-2.1l-0.6-0.1    c-0.1,0-0.1-0.1-0.1-0.1c0-0.1,0.1-0.2,0.1-0.3h2.4c0,0,0,0.1,0,0.1c0,0.2-0.1,0.3-0.4,0.4l-0.2,0.1V28c-0.3,0.3-1.1,0.8-2.6,0.8    c-1.8,0-3.3-1.1-3.3-3.7c0-2.7,2-3.8,3.8-3.8c1.1,0,1.7,0.3,2,0.5c0,0.3,0.1,1,0.1,1c0,0.3-0.1,0.5-0.4,0.5c-0.1,0-0.2,0-0.2,0    L28.6,22.3z"
   id="path5" />
		<path
   d="M31.9,26.2c0,1.3,0.6,1.9,1.5,1.9c0.7,0,1-0.3,1.3-0.5c0.1,0.1,0.2,0.3,0.2,0.4c0,0.3-0.7,0.9-1.9,0.9    c-1.3,0-2.3-0.7-2.3-2.6s1.1-2.8,2.3-2.8c1.2,0,1.8,0.7,1.8,1.8c0,0.3-0.1,0.6-0.1,0.9H31.9z M33.7,25.7c0-0.1,0.1-0.3,0.1-0.5    c0-0.6-0.2-1.1-0.8-1.1c-0.6,0-1,0.5-1.1,1.5H33.7z"
   id="path7" />
		<path
   d="M38.7,24.2h-1.3v3.9l0.7,0.1c0.1,0,0.1,0.1,0.1,0.1c0,0.1-0.1,0.3-0.1,0.3h-2.5c0,0,0-0.1,0-0.1c0-0.2,0.1-0.3,0.3-0.3    l0.4-0.1v-3.9h-0.8c0,0,0-0.1,0-0.1c0-0.2,0.1-0.3,0.3-0.4l0.5-0.1v-0.1c0-1.7,1-2.5,1.9-2.5c0.5,0,0.7,0.2,0.7,0.6    c0,0.3-0.2,0.4-0.3,0.5c-0.1-0.1-0.4-0.3-0.7-0.3c-0.5,0-0.6,0.3-0.6,0.9c0,0.3,0,1,0,1h1.4L38.7,24.2z"
   id="path9" />
		<path
   d="M44.1,26.1c0,1.8-1.3,2.7-2.6,2.7c-1.3,0-2.4-0.8-2.4-2.6c0-1.8,1.3-2.7,2.6-2.7C43,23.5,44.1,24.3,44.1,26.1z M40.7,22.8    c-0.3,0-0.6-0.2-0.6-0.6c0-0.4,0.3-0.6,0.6-0.6c0.3,0,0.6,0.2,0.6,0.6C41.2,22.6,41,22.8,40.7,22.8z M40.3,26.2c0,1.4,0.6,2,1.3,2    c0.8,0,1.4-0.6,1.4-2s-0.6-2.1-1.4-2.1C40.8,24.2,40.3,24.8,40.3,26.2z M42.6,22.8c-0.3,0-0.6-0.2-0.6-0.6c0-0.4,0.2-0.6,0.6-0.6    c0.3,0,0.6,0.2,0.6,0.6C43.1,22.6,42.9,22.8,42.6,22.8z"
   id="path11" />
		<path
   d="M46.5,24.5L46.5,24.5c0.3-0.4,0.6-1,1.3-1c0.5,0,0.7,0.2,0.7,0.6c0,0.2-0.1,0.4-0.2,0.5c-0.1,0-0.3-0.2-0.7-0.2    c-0.6,0-0.9,0.2-1.1,0.5v3.2l0.8,0.1c0.1,0,0.1,0.1,0.1,0.1c0,0.1-0.1,0.3-0.1,0.3h-2.5c0,0,0-0.1,0-0.1c0-0.2,0.1-0.3,0.3-0.3    l0.4-0.1v-3.9l-0.7-0.1c0,0,0-0.1,0-0.1c0-0.2,0.1-0.3,0.4-0.3l1.4-0.1L46.5,24.5z"
   id="path13" />
		<path
   d="M53.5,28.1l0.8,0.1c0,0,0,0,0,0.1c0,0.2-0.1,0.3-0.4,0.3l-1.4,0.1v-0.7h0c-0.2,0.3-0.7,0.7-1.5,0.7c-1,0-2-0.7-2-2.5    c0-2,1.4-2.8,2.7-2.8c0.3,0,0.6,0.1,0.7,0.1v-1.8l-0.7-0.1c0,0,0-0.1,0-0.1c0-0.2,0.1-0.3,0.4-0.3l1.4-0.1V28.1z M52.4,24.5    c-0.2-0.1-0.4-0.3-0.9-0.3c-0.9,0-1.5,0.6-1.5,2c0,1.4,0.6,1.9,1.3,1.9c0.6,0,0.9-0.3,1.1-0.4V24.5z"
   id="path15" />
		<path
   d="M56,26.2c0,1.3,0.6,1.9,1.5,1.9c0.7,0,1-0.3,1.3-0.5c0.1,0.1,0.2,0.3,0.2,0.4c0,0.3-0.7,0.9-1.9,0.9    c-1.3,0-2.3-0.7-2.3-2.6s1.1-2.8,2.3-2.8c1.2,0,1.8,0.7,1.8,1.8c0,0.3-0.1,0.6-0.1,0.9H56z M57.8,25.7c0-0.1,0.1-0.3,0.1-0.5    c0-0.6-0.2-1.1-0.8-1.1c-0.6,0-1,0.5-1.1,1.5H57.8z"
   id="path17" />
		<path
   d="M61.4,24.5L61.4,24.5c0.3-0.4,0.6-1,1.3-1c0.5,0,0.7,0.2,0.7,0.6c0,0.2-0.1,0.4-0.2,0.5c-0.1,0-0.3-0.2-0.7-0.2    c-0.6,0-0.9,0.2-1.1,0.5v3.2l0.8,0.1c0.1,0,0.1,0.1,0.1,0.1c0,0.1-0.1,0.3-0.1,0.3h-2.5c0,0,0-0.1,0-0.1c0-0.2,0.1-0.3,0.3-0.3    l0.4-0.1v-3.9l-0.7-0.1c0,0,0-0.1,0-0.1c0-0.2,0.1-0.3,0.4-0.3l1.4-0.1L61.4,24.5z"
   id="path19" />
		<path
   d="M67,24.2h-1.4v3.1c0,0.5,0.1,0.9,0.7,0.9c0.4,0,0.7-0.2,0.8-0.3c0.1,0.1,0.1,0.2,0.1,0.3c0,0.1-0.4,0.6-1.3,0.6    c-1,0-1.3-0.6-1.3-1.4v-3.3h-0.8c0,0,0-0.1,0-0.1c0-0.2,0.1-0.3,0.3-0.4l0.5-0.1l0.2-1.4h0.8v1.4h1.6L67,24.2z"
   id="path21" />
		<path
   d="M74.4,28.1l0.8,0.1c0,0,0,0,0,0.1c0,0.2-0.1,0.3-0.4,0.3l-1.4,0.1v-0.7h0c-0.2,0.3-0.7,0.7-1.5,0.7c-1,0-2-0.7-2-2.5    c0-2,1.4-2.8,2.7-2.8c0.3,0,0.6,0.1,0.7,0.1v-1.8l-0.7-0.1c0,0,0-0.1,0-0.1c0-0.2,0.1-0.3,0.4-0.3l1.4-0.1V28.1z M73.3,24.5    c-0.2-0.1-0.4-0.3-0.9-0.3c-0.9,0-1.5,0.6-1.5,2c0,1.4,0.6,1.9,1.3,1.9c0.6,0,0.9-0.3,1.1-0.4V24.5z"
   id="path23" />
		<path
   d="M80.4,28.1l0.8,0.1c0,0,0,0,0,0.1c0,0.2-0.1,0.3-0.4,0.3l-1.4,0.1v-0.7h0c-0.2,0.2-0.6,0.8-1.6,0.8    c-1.1,0-1.6-0.7-1.6-1.9v-2.7l-0.7-0.1c0,0,0-0.1,0-0.1c0-0.2,0.1-0.3,0.4-0.3l1.4-0.1v3.3c0,1,0.5,1.2,1,1.2    c0.5,0,0.9-0.2,1.1-0.5v-3.3l-0.7-0.1c0,0,0-0.1,0-0.1c0-0.2,0.1-0.3,0.4-0.3l1.4-0.1V28.1z"
   id="path25" />
		<path
   d="M83.4,24.5L83.4,24.5c0.3-0.4,0.6-1,1.3-1c0.5,0,0.7,0.2,0.7,0.6c0,0.2-0.1,0.4-0.2,0.5c-0.1,0-0.3-0.2-0.7-0.2    c-0.6,0-0.9,0.2-1.1,0.5v3.2l0.8,0.1c0.1,0,0.1,0.1,0.1,0.1c0,0.1-0.1,0.3-0.1,0.3h-2.5c0,0,0-0.1,0-0.1c0-0.2,0.1-0.3,0.3-0.3    l0.4-0.1v-3.9l-0.7-0.1c0,0,0-0.1,0-0.1c0-0.2,0.1-0.3,0.4-0.3l1.4-0.1L83.4,24.5z"
   id="path27" />
		<path
   d="M88.3,24.2c-0.7,0-1.3,0.5-1.3,1.9c0,1.3,0.5,2.1,1.5,2.1c0.7,0,1-0.3,1.2-0.5c0.1,0.1,0.2,0.3,0.2,0.4    c0,0.3-0.6,0.9-1.7,0.9c-1.4,0-2.2-0.9-2.2-2.6c0-1.8,1.2-2.7,2.6-2.7c1.2,0,1.4,0.6,1.4,0.9c0,0.3-0.1,0.5-0.5,0.6    C89.2,24.7,89,24.2,88.3,24.2z"
   id="path29" />
		<path
   d="M92.2,24.3L92.2,24.3c0.2-0.3,0.7-0.8,1.6-0.8c1,0,1.6,0.6,1.6,1.8v2.8l0.6,0.1c0.1,0,0.1,0.1,0.1,0.1    c0,0.1-0.1,0.3-0.1,0.3h-2.4c0,0,0-0.1,0-0.1c0-0.2,0.1-0.3,0.3-0.3l0.3-0.1v-2.7c0-0.9-0.5-1.2-1-1.2c-0.7,0-1,0.3-1.2,0.5v3.3    l0.6,0.1c0.1,0,0.1,0.1,0.1,0.1c0,0.1-0.1,0.3-0.1,0.3h-2.4c0,0,0-0.1,0-0.1c0-0.2,0.1-0.3,0.3-0.3l0.4-0.1v-6.4l-0.7-0.1    c0,0,0-0.1,0-0.1c0-0.2,0.1-0.3,0.4-0.3l1.4-0.1V24.3z"
   id="path31" />
		<path
   d="M97.6,24.8c-0.4,0-0.7-0.3-0.7-0.6c0-0.4,0.3-0.7,0.7-0.7c0.4,0,0.7,0.3,0.7,0.7C98.2,24.6,97.9,24.8,97.6,24.8z     M97.6,28.9c-0.4,0-0.7-0.3-0.7-0.6c0-0.4,0.3-0.7,0.7-0.7c0.4,0,0.7,0.3,0.7,0.7C98.2,28.6,97.9,28.9,97.6,28.9z"
   id="path33" />
	</g>
	<g
   id="g131">
		<path
   d="M27.3,139.8c0,0.4,0.2,0.5,0.3,0.5c0.2,0,0.4-0.1,0.4-0.2c0.1,0.1,0.1,0.2,0.1,0.3c0,0.1-0.3,0.5-1,0.5    c-0.5,0-0.8-0.2-0.9-0.7h0c-0.1,0.2-0.5,0.8-1.4,0.8c-0.8,0-1.4-0.5-1.4-1.4c0-1.1,1.2-1.5,2.4-1.5h0.3v-0.5c0-1-0.3-1.3-0.9-1.3    c-0.2,0-0.5,0.1-0.5,0.1c-0.1,0.2-0.2,0.6-0.2,0.9c0,0-0.2,0-0.2,0c-0.4,0-0.6-0.2-0.6-0.5c0-0.7,0.9-1.1,1.8-1.1    c1.2,0,1.7,0.6,1.7,1.8V139.8z M26,138.6c-0.8,0-1.3,0.3-1.3,0.9c0,0.4,0.3,0.7,0.7,0.7s0.8-0.3,0.9-0.5v-1.2L26,138.6z"
   id="path37" />
		<path
   d="M33.3,140.3l0.8,0.1c0,0,0,0,0,0.1c0,0.2-0.1,0.3-0.4,0.3l-1.4,0.1v-0.7h0c-0.2,0.2-0.6,0.8-1.6,0.8    c-1.1,0-1.6-0.7-1.6-1.9v-2.7l-0.7-0.1c0,0,0-0.1,0-0.1c0-0.2,0.1-0.3,0.4-0.3l1.4-0.1v3.3c0,1,0.5,1.2,1,1.2    c0.5,0,0.9-0.2,1.1-0.5v-3.3l-0.7-0.1c0,0,0-0.1,0-0.1c0-0.2,0.1-0.3,0.4-0.3l1.4-0.1V140.3z"
   id="path39" />
		<path
   d="M37.6,136.4h-1.3v3.9l0.7,0.1c0.1,0,0.1,0.1,0.1,0.1c0,0.1-0.1,0.3-0.1,0.3h-2.5c0,0,0-0.1,0-0.1c0-0.2,0.1-0.3,0.3-0.3    l0.4-0.1v-3.9h-0.8c0,0,0-0.1,0-0.1c0-0.2,0.1-0.3,0.3-0.4l0.5-0.1v-0.1c0-1.7,1-2.5,1.9-2.5c0.5,0,0.7,0.2,0.7,0.6    c0,0.3-0.2,0.4-0.3,0.5c-0.1-0.1-0.4-0.3-0.7-0.3c-0.5,0-0.6,0.3-0.6,0.9c0,0.3,0,1,0,1h1.4L37.6,136.4z"
   id="path41" />
		<path
   d="M42.9,136.4H42c0.2,0.3,0.3,0.6,0.3,1c0,1.1-0.9,1.7-2.1,1.7c-0.2,0-0.3,0-0.5-0.1c-0.1,0.1-0.3,0.2-0.3,0.5    c0,0.3,0.2,0.4,0.5,0.4h1.2c1,0,1.5,0.4,1.5,1.2c0,1-1,2-2.8,2c-1.3,0-1.9-0.5-1.9-1.2c0-0.7,0.6-1.1,1-1.2v0    c-0.3-0.1-0.4-0.4-0.4-0.7c0-0.6,0.6-0.9,0.8-1v0c-0.6-0.3-1-0.8-1-1.6c0-1.1,0.9-1.7,2-1.7c0.3,0,0.6,0,0.8,0.1H43L42.9,136.4z     M39.9,140.8c-0.1,0-0.3,0-0.4,0c-0.3,0.2-0.5,0.4-0.5,0.8c0,0.5,0.3,0.9,1.1,0.9c1,0,1.6-0.5,1.6-1c0-0.4-0.2-0.6-0.8-0.6H39.9z     M39.4,137.4c0,0.8,0.4,1.2,0.9,1.2c0.6,0,1-0.3,1-1.2c0-0.7-0.4-1.1-1-1.1S39.4,136.6,39.4,137.4z"
   id="path43" />
		<path
   d="M45.1,136.7L45.1,136.7c0.3-0.4,0.6-1,1.3-1c0.5,0,0.7,0.2,0.7,0.6c0,0.2-0.1,0.4-0.2,0.5c-0.1,0-0.3-0.2-0.7-0.2    c-0.6,0-0.9,0.2-1.1,0.5v3.2l0.8,0.1c0.1,0,0.1,0.1,0.1,0.1c0,0.1-0.1,0.3-0.1,0.3h-2.5c0,0,0-0.1,0-0.1c0-0.2,0.1-0.3,0.3-0.3    l0.4-0.1v-3.9l-0.7-0.1c0,0,0-0.1,0-0.1c0-0.2,0.1-0.3,0.4-0.3l1.4-0.1L45.1,136.7z"
   id="path45" />
		<path
   d="M52.4,140.3l0.8,0.1c0,0,0,0,0,0.1c0,0.2-0.1,0.3-0.4,0.3l-1.4,0.1v-0.7h0c-0.2,0.2-0.6,0.8-1.6,0.8    c-1.1,0-1.6-0.7-1.6-1.9v-2.7l-0.7-0.1c0,0,0-0.1,0-0.1c0-0.2,0.1-0.3,0.4-0.3l1.4-0.1v3.3c0,1,0.5,1.2,1,1.2    c0.5,0,0.9-0.2,1.1-0.5v-3.3l-0.7-0.1c0,0,0-0.1,0-0.1c0-0.2,0.1-0.3,0.4-0.3l1.4-0.1V140.3z"
   id="path47" />
		<path
   d="M58.7,140.3l0.6,0.1c0.1,0,0.1,0.1,0.1,0.1c0,0.1-0.1,0.3-0.1,0.3H57c0,0,0-0.1,0-0.1c0-0.2,0.1-0.3,0.3-0.3l0.3-0.1v-2.7    c0-0.9-0.5-1.2-1-1.2c-0.6,0-1,0.3-1.2,0.5v3.4l0.6,0.1c0.1,0,0.1,0.1,0.1,0.1c0,0.1-0.1,0.3-0.1,0.3h-2.4c0,0,0-0.1,0-0.1    c0-0.2,0.1-0.3,0.3-0.3l0.4-0.1v-3.9l-0.7-0.1c0,0,0-0.1,0-0.1c0-0.2,0.1-0.3,0.4-0.3l1.4-0.1l-0.1,0.7h0c0.3-0.3,0.8-0.8,1.7-0.8    c1,0,1.6,0.7,1.6,1.8V140.3z"
   id="path49" />
		<path
   d="M64.5,140.3l0.8,0.1c0,0,0,0,0,0.1c0,0.2-0.1,0.3-0.4,0.3l-1.4,0.1v-0.7h0c-0.2,0.3-0.7,0.7-1.5,0.7c-1,0-2-0.7-2-2.5    c0-2,1.4-2.8,2.7-2.8c0.3,0,0.6,0.1,0.7,0.1v-1.8l-0.7-0.1c0,0,0-0.1,0-0.1c0-0.2,0.1-0.3,0.4-0.3l1.4-0.1V140.3z M63.4,136.6    c-0.2-0.1-0.4-0.3-0.9-0.3c-0.9,0-1.5,0.6-1.5,2c0,1.4,0.6,1.9,1.3,1.9c0.6,0,0.9-0.3,1.1-0.4V136.6z"
   id="path51" />
		<path
   d="M69.2,138.4c0,1.3,0.6,1.9,1.5,1.9c0.7,0,1-0.3,1.3-0.5c0.1,0.1,0.2,0.3,0.2,0.4c0,0.3-0.7,0.9-1.9,0.9    c-1.3,0-2.3-0.7-2.3-2.6c0-1.8,1.1-2.8,2.3-2.8c1.2,0,1.8,0.7,1.8,1.8c0,0.3-0.1,0.6-0.1,0.9H69.2z M71,137.8    c0-0.1,0.1-0.3,0.1-0.5c0-0.6-0.2-1.1-0.8-1.1c-0.6,0-1,0.5-1.1,1.5H71z"
   id="path53" />
		<path
   d="M74.7,140.3l0.6,0.1c0.1,0,0.1,0.1,0.1,0.1c0,0.1-0.1,0.3-0.1,0.3h-2.4c0,0,0-0.1,0-0.1c0-0.2,0.1-0.3,0.3-0.3l0.4-0.1    v-3.9l-0.7-0.1c0,0,0-0.1,0-0.1c0-0.2,0.1-0.3,0.4-0.3l1.4-0.1V140.3z M74.2,134.7c-0.4,0-0.7-0.3-0.7-0.7c0-0.4,0.3-0.7,0.7-0.7    c0.4,0,0.7,0.3,0.7,0.7C74.8,134.5,74.5,134.7,74.2,134.7z"
   id="path55" />
		<path
   d="M81,140.3l0.6,0.1c0.1,0,0.1,0.1,0.1,0.1c0,0.1-0.1,0.3-0.1,0.3h-2.4c0,0,0-0.1,0-0.1c0-0.2,0.1-0.3,0.3-0.3l0.3-0.1v-2.7    c0-0.9-0.5-1.2-1-1.2c-0.6,0-1,0.3-1.2,0.5v3.4l0.6,0.1c0.1,0,0.1,0.1,0.1,0.1c0,0.1-0.1,0.3-0.1,0.3H76c0,0,0-0.1,0-0.1    c0-0.2,0.1-0.3,0.3-0.3l0.4-0.1v-3.9l-0.7-0.1c0,0,0-0.1,0-0.1c0-0.2,0.1-0.3,0.4-0.3l1.4-0.1l-0.1,0.7h0c0.3-0.3,0.8-0.8,1.7-0.8    c1,0,1.6,0.7,1.6,1.8V140.3z"
   id="path57" />
		<path
   d="M83.4,138.4c0,1.3,0.6,1.9,1.5,1.9c0.7,0,1-0.3,1.3-0.5c0.1,0.1,0.2,0.3,0.2,0.4c0,0.3-0.7,0.9-1.9,0.9    c-1.3,0-2.3-0.7-2.3-2.6c0-1.8,1.1-2.8,2.3-2.8c1.2,0,1.8,0.7,1.8,1.8c0,0.3-0.1,0.6-0.1,0.9H83.4z M85.3,137.8    c0-0.1,0.1-0.3,0.1-0.5c0-0.6-0.2-1.1-0.8-1.1c-0.6,0-1,0.5-1.1,1.5H85.3z"
   id="path59" />
		<path
   d="M89.7,136.5c-0.1-0.1-0.4-0.2-0.7-0.2c-0.3,0-0.7,0.1-0.7,0.6c0,0.5,0.5,0.7,1,1c0.6,0.4,1.3,0.8,1.3,1.6    c0,0.9-0.7,1.5-1.9,1.5c-0.6,0-1.1-0.2-1.3-0.3c0-0.3-0.1-0.5-0.1-0.8c0-0.4,0.1-0.6,0.4-0.6c0.1,0,0.1,0,0.1,0l0.2,0.9    c0.1,0.1,0.4,0.2,0.7,0.2c0.5,0,0.8-0.2,0.8-0.6c0-0.5-0.5-0.7-1-1c-0.6-0.4-1.3-0.8-1.3-1.7c0-0.8,0.7-1.4,1.7-1.4    c0.6,0,1,0.2,1.2,0.4c0,0.1,0,0.4,0,0.6c0,0.4-0.1,0.6-0.5,0.6c-0.1,0-0.1,0-0.1,0L89.7,136.5z"
   id="path61" />
		<path
   d="M97.5,137.1L97.5,137.1c1,0.2,1.7,0.8,1.7,1.7c0,1.2-1,2-2.9,2h-2.7c0,0,0-0.1,0-0.1c0-0.2,0.1-0.3,0.4-0.4l0.4-0.1v-6.1    l-0.6-0.1c-0.1,0-0.1-0.1-0.1-0.1c0-0.1,0.1-0.2,0.1-0.3h2.5c1.9,0,2.8,0.7,2.8,1.8C99,136.5,98.4,136.9,97.5,137.1z M96.1,134.3    h-0.6v2.6h0.6c1.2,0,1.7-0.6,1.7-1.3C97.8,134.7,97.3,134.3,96.1,134.3z M96.3,137.5h-0.7v2.7h0.6c1.2,0,1.8-0.6,1.8-1.4    C98,138.1,97.4,137.5,96.3,137.5z"
   id="path63" />
		<path
   d="M101.2,138.4c0,1.3,0.6,1.9,1.5,1.9c0.7,0,1-0.3,1.3-0.5c0.1,0.1,0.2,0.3,0.2,0.4c0,0.3-0.7,0.9-1.9,0.9    c-1.3,0-2.3-0.7-2.3-2.6c0-1.8,1.1-2.8,2.3-2.8c1.2,0,1.8,0.7,1.8,1.8c0,0.3-0.1,0.6-0.1,0.9H101.2z M103.1,137.8    c0-0.1,0.1-0.3,0.1-0.5c0-0.6-0.2-1.1-0.8-1.1c-0.6,0-1,0.5-1.1,1.5H103.1z"
   id="path65" />
		<path
   d="M107.5,136.5c-0.1-0.1-0.4-0.2-0.7-0.2c-0.3,0-0.7,0.1-0.7,0.6c0,0.5,0.5,0.7,1,1c0.6,0.4,1.3,0.8,1.3,1.6    c0,0.9-0.7,1.5-1.9,1.5c-0.6,0-1.1-0.2-1.3-0.3c0-0.3-0.1-0.5-0.1-0.8c0-0.4,0.1-0.6,0.4-0.6c0.1,0,0.1,0,0.1,0l0.2,0.9    c0.1,0.1,0.4,0.2,0.7,0.2c0.5,0,0.8-0.2,0.8-0.6c0-0.5-0.5-0.7-1-1c-0.6-0.4-1.3-0.8-1.3-1.7c0-0.8,0.7-1.4,1.7-1.4    c0.6,0,1,0.2,1.2,0.4c0,0.1,0,0.4,0,0.6c0,0.4-0.1,0.6-0.5,0.6c-0.1,0-0.1,0-0.1,0L107.5,136.5z"
   id="path67" />
		<path
   d="M111.6,136.3c-0.7,0-1.3,0.5-1.3,1.9c0,1.3,0.5,2.1,1.5,2.1c0.7,0,1-0.3,1.2-0.5c0.1,0.1,0.2,0.3,0.2,0.4    c0,0.3-0.6,0.9-1.7,0.9c-1.4,0-2.2-0.9-2.2-2.6c0-1.8,1.2-2.7,2.6-2.7c1.2,0,1.4,0.6,1.4,0.9c0,0.3-0.1,0.5-0.5,0.6    C112.6,136.8,112.3,136.3,111.6,136.3z"
   id="path69" />
		<path
   d="M115.5,136.4L115.5,136.4c0.2-0.3,0.7-0.8,1.6-0.8c1,0,1.6,0.6,1.6,1.8v2.8l0.6,0.1c0.1,0,0.1,0.1,0.1,0.1    c0,0.1-0.1,0.3-0.1,0.3h-2.4c0,0,0-0.1,0-0.1c0-0.2,0.1-0.3,0.3-0.3l0.3-0.1v-2.7c0-0.9-0.5-1.2-1-1.2c-0.7,0-1,0.3-1.2,0.5v3.3    l0.6,0.1c0.1,0,0.1,0.1,0.1,0.1c0,0.1-0.1,0.3-0.1,0.3h-2.4c0,0,0-0.1,0-0.1c0-0.2,0.1-0.3,0.3-0.3l0.4-0.1v-6.4l-0.7-0.1    c0,0,0-0.1,0-0.1c0-0.2,0.1-0.3,0.4-0.3l1.4-0.1V136.4z"
   id="path71" />
		<path
   d="M121.7,140.3l0.6,0.1c0.1,0,0.1,0.1,0.1,0.1c0,0.1-0.1,0.3-0.1,0.3H120c0,0,0-0.1,0-0.1c0-0.2,0.1-0.3,0.3-0.3l0.4-0.1    v-6.4l-0.7-0.1c0,0,0-0.1,0-0.1c0-0.2,0.1-0.3,0.4-0.3l1.4-0.1V140.3z"
   id="path73" />
		<path
   d="M127.8,140.3l0.8,0.1c0,0,0,0,0,0.1c0,0.2-0.1,0.3-0.4,0.3l-1.4,0.1v-0.7h0c-0.2,0.2-0.6,0.8-1.6,0.8    c-1.1,0-1.6-0.7-1.6-1.9v-2.7l-0.7-0.1c0,0,0-0.1,0-0.1c0-0.2,0.1-0.3,0.4-0.3l1.4-0.1v3.3c0,1,0.5,1.2,1,1.2    c0.5,0,0.9-0.2,1.1-0.5v-3.3l-0.7-0.1c0,0,0-0.1,0-0.1c0-0.2,0.1-0.3,0.4-0.3l1.4-0.1V140.3z"
   id="path75" />
		<path
   d="M131.6,136.5c-0.1-0.1-0.4-0.2-0.7-0.2c-0.3,0-0.7,0.1-0.7,0.6c0,0.5,0.5,0.7,1,1c0.6,0.4,1.3,0.8,1.3,1.6    c0,0.9-0.7,1.5-1.9,1.5c-0.6,0-1.1-0.2-1.3-0.3c0-0.3-0.1-0.5-0.1-0.8c0-0.4,0.1-0.6,0.4-0.6c0.1,0,0.1,0,0.1,0l0.2,0.9    c0.1,0.1,0.4,0.2,0.7,0.2c0.5,0,0.8-0.2,0.8-0.6c0-0.5-0.5-0.7-1-1c-0.6-0.4-1.3-0.8-1.3-1.7c0-0.8,0.7-1.4,1.7-1.4    c0.6,0,1,0.2,1.2,0.4c0,0.1,0,0.4,0,0.6c0,0.4-0.1,0.6-0.5,0.6c-0.1,0-0.1,0-0.1,0L131.6,136.5z"
   id="path77" />
		<path
   d="M135.7,136.5c-0.1-0.1-0.4-0.2-0.7-0.2c-0.3,0-0.7,0.1-0.7,0.6c0,0.5,0.5,0.7,1,1c0.6,0.4,1.3,0.8,1.3,1.6    c0,0.9-0.7,1.5-1.9,1.5c-0.6,0-1.1-0.2-1.3-0.3c0-0.3-0.1-0.5-0.1-0.8c0-0.4,0.1-0.6,0.4-0.6c0.1,0,0.1,0,0.1,0l0.2,0.9    c0.1,0.1,0.4,0.2,0.7,0.2c0.5,0,0.8-0.2,0.8-0.6c0-0.5-0.5-0.7-1-1c-0.6-0.4-1.3-0.8-1.3-1.7c0-0.8,0.7-1.4,1.7-1.4    c0.6,0,1,0.2,1.2,0.4c0,0.1,0,0.4,0,0.6c0,0.4-0.1,0.6-0.5,0.6c-0.1,0-0.1,0-0.1,0L135.7,136.5z"
   id="path79" />
		<path
   d="M138.6,138.4c0,1.3,0.6,1.9,1.5,1.9c0.7,0,1-0.3,1.3-0.5c0.1,0.1,0.2,0.3,0.2,0.4c0,0.3-0.7,0.9-1.9,0.9    c-1.3,0-2.3-0.7-2.3-2.6c0-1.8,1.1-2.8,2.3-2.8c1.2,0,1.8,0.7,1.8,1.8c0,0.3-0.1,0.6-0.1,0.9H138.6z M140.4,137.8    c0-0.1,0.1-0.3,0.1-0.5c0-0.6-0.2-1.1-0.8-1.1c-0.6,0-1,0.5-1.1,1.5H140.4z"
   id="path81" />
		<path
   d="M144.8,136.5c-0.1-0.1-0.4-0.2-0.7-0.2c-0.3,0-0.7,0.1-0.7,0.6c0,0.5,0.5,0.7,1,1c0.6,0.4,1.3,0.8,1.3,1.6    c0,0.9-0.7,1.5-1.9,1.5c-0.6,0-1.1-0.2-1.3-0.3c0-0.3-0.1-0.5-0.1-0.8c0-0.4,0.1-0.6,0.4-0.6c0.1,0,0.1,0,0.1,0l0.2,0.9    c0.1,0.1,0.4,0.2,0.7,0.2c0.5,0,0.8-0.2,0.8-0.6c0-0.5-0.5-0.7-1-1c-0.6-0.4-1.3-0.8-1.3-1.7c0-0.8,0.7-1.4,1.7-1.4    c0.6,0,1,0.2,1.2,0.4c0,0.1,0,0.4,0,0.6c0,0.4-0.1,0.6-0.5,0.6c-0.1,0-0.1,0-0.1,0L144.8,136.5z"
   id="path83" />
		<path
   d="M28.2,152.3l0.8,0.1c0,0,0,0,0,0.1c0,0.2-0.1,0.3-0.4,0.3l-1.4,0.1v-0.7h0c-0.2,0.3-0.7,0.7-1.5,0.7c-1,0-2-0.7-2-2.5    c0-2,1.4-2.8,2.7-2.8c0.3,0,0.6,0.1,0.7,0.1v-1.8l-0.7-0.1c0,0,0-0.1,0-0.1c0-0.2,0.1-0.3,0.4-0.3l1.4-0.1V152.3z M27.1,148.6    c-0.2-0.1-0.4-0.3-0.9-0.3c-0.9,0-1.5,0.6-1.5,2c0,1.4,0.6,1.9,1.3,1.9c0.6,0,0.9-0.3,1.1-0.4V148.6z"
   id="path85" />
		<path
   d="M30.6,150.4c0,1.3,0.6,1.9,1.5,1.9c0.7,0,1-0.3,1.3-0.5c0.1,0.1,0.2,0.3,0.2,0.4c0,0.3-0.7,0.9-1.9,0.9    c-1.3,0-2.3-0.7-2.3-2.6s1.1-2.8,2.3-2.8c1.2,0,1.8,0.7,1.8,1.8c0,0.3-0.1,0.6-0.1,0.9H30.6z M32.5,149.8c0-0.1,0.1-0.3,0.1-0.5    c0-0.6-0.2-1.1-0.8-1.1c-0.6,0-1,0.5-1.1,1.5H32.5z"
   id="path87" />
		<path
   d="M36.9,148.5c-0.1-0.1-0.4-0.2-0.7-0.2c-0.3,0-0.7,0.1-0.7,0.6c0,0.5,0.5,0.7,1,1c0.6,0.4,1.3,0.8,1.3,1.6    c0,0.9-0.7,1.5-1.9,1.5c-0.6,0-1.1-0.2-1.3-0.3c0-0.3-0.1-0.5-0.1-0.8c0-0.4,0.1-0.6,0.4-0.6c0.1,0,0.1,0,0.1,0l0.2,0.9    c0.1,0.1,0.4,0.2,0.7,0.2c0.5,0,0.8-0.2,0.8-0.6c0-0.5-0.5-0.7-1-1c-0.6-0.4-1.3-0.8-1.3-1.7c0-0.8,0.7-1.4,1.7-1.4    c0.6,0,1,0.2,1.2,0.4c0,0.1,0,0.4,0,0.6c0,0.4-0.1,0.6-0.5,0.6c-0.1,0-0.1,0-0.1,0L36.9,148.5z"
   id="path89" />
		<path
   d="M43.2,152.9h-2.4c0,0,0-0.1,0-0.1c0-0.2,0.1-0.3,0.4-0.4l0.4-0.1v-6.1l-0.6-0.1c-0.1,0-0.1-0.1-0.1-0.1    c0-0.1,0.1-0.2,0.1-0.3h2.3c2.6,0,4.2,1,4.2,3.5C47.5,151.7,45.9,152.9,43.2,152.9z M43.2,146.3h-0.4v6h0.4c1.9,0,3.1-1,3.1-3.1    C46.2,147.2,45.1,146.3,43.2,146.3z"
   id="path91" />
		<path
   d="M49.5,150.4c0,1.3,0.6,1.9,1.5,1.9c0.7,0,1-0.3,1.3-0.5c0.1,0.1,0.2,0.3,0.2,0.4c0,0.3-0.7,0.9-1.9,0.9    c-1.3,0-2.3-0.7-2.3-2.6s1.1-2.8,2.3-2.8c1.2,0,1.8,0.7,1.8,1.8c0,0.3-0.1,0.6-0.1,0.9H49.5z M51.3,149.8c0-0.1,0.1-0.3,0.1-0.5    c0-0.6-0.2-1.1-0.8-1.1c-0.6,0-1,0.5-1.1,1.5H51.3z"
   id="path93" />
		<path
   d="M58,152.3l0.8,0.1c0,0,0,0,0,0.1c0,0.2-0.1,0.3-0.4,0.3l-1.4,0.1v-0.7h0c-0.2,0.2-0.6,0.8-1.6,0.8c-1.1,0-1.6-0.7-1.6-1.9    v-2.7l-0.7-0.1c0,0,0-0.1,0-0.1c0-0.2,0.1-0.3,0.4-0.3l1.4-0.1v3.3c0,1,0.5,1.2,1,1.2c0.5,0,0.9-0.2,1.1-0.5v-3.3l-0.7-0.1    c0,0,0-0.1,0-0.1c0-0.2,0.1-0.3,0.4-0.3l1.4-0.1V152.3z"
   id="path95" />
		<path
   d="M62.4,148.4H61v3.1c0,0.5,0.1,0.9,0.7,0.9c0.4,0,0.7-0.2,0.8-0.3c0.1,0.1,0.1,0.2,0.1,0.3c0,0.1-0.4,0.6-1.3,0.6    s-1.3-0.6-1.3-1.4v-3.3h-0.8c0,0,0-0.1,0-0.1c0-0.2,0.1-0.3,0.3-0.4l0.5-0.1l0.2-1.4H61v1.4h1.6L62.4,148.4z"
   id="path97" />
		<path
   d="M65.5,148.5c-0.1-0.1-0.4-0.2-0.7-0.2c-0.3,0-0.7,0.1-0.7,0.6c0,0.5,0.5,0.7,1,1c0.6,0.4,1.3,0.8,1.3,1.6    c0,0.9-0.7,1.5-1.9,1.5c-0.6,0-1.1-0.2-1.3-0.3c0-0.3-0.1-0.5-0.1-0.8c0-0.4,0.1-0.6,0.4-0.6c0.1,0,0.1,0,0.1,0l0.2,0.9    c0.1,0.1,0.4,0.2,0.7,0.2c0.5,0,0.8-0.2,0.8-0.6c0-0.5-0.5-0.7-1-1c-0.6-0.4-1.3-0.8-1.3-1.7c0-0.8,0.7-1.4,1.7-1.4    c0.6,0,1,0.2,1.2,0.4c0,0.1,0,0.4,0,0.6c0,0.4-0.1,0.6-0.5,0.6c-0.1,0-0.1,0-0.1,0L65.5,148.5z"
   id="path99" />
		<path
   d="M69.7,148.3c-0.7,0-1.3,0.5-1.3,1.9c0,1.3,0.5,2.1,1.5,2.1c0.7,0,1-0.3,1.2-0.5c0.1,0.1,0.2,0.3,0.2,0.4    c0,0.3-0.6,0.9-1.7,0.9c-1.4,0-2.2-0.9-2.2-2.6c0-1.8,1.2-2.7,2.6-2.7c1.2,0,1.4,0.6,1.4,0.9c0,0.3-0.1,0.5-0.5,0.6    C70.6,148.8,70.3,148.3,69.7,148.3z"
   id="path101" />
		<path
   d="M73.5,148.4L73.5,148.4c0.2-0.3,0.7-0.8,1.6-0.8c1,0,1.6,0.6,1.6,1.8v2.8l0.6,0.1c0.1,0,0.1,0.1,0.1,0.1    c0,0.1-0.1,0.3-0.1,0.3h-2.4c0,0,0-0.1,0-0.1c0-0.2,0.1-0.3,0.3-0.3l0.3-0.1v-2.7c0-0.9-0.5-1.2-1-1.2c-0.7,0-1,0.3-1.2,0.5v3.3    l0.6,0.1c0.1,0,0.1,0.1,0.1,0.1c0,0.1-0.1,0.3-0.1,0.3h-2.4c0,0,0-0.1,0-0.1c0-0.2,0.1-0.3,0.3-0.3l0.4-0.1v-6.4l-0.7-0.1    c0,0,0-0.1,0-0.1c0-0.2,0.1-0.3,0.4-0.3l1.4-0.1V148.4z"
   id="path103" />
		<path
   d="M79.2,150.4c0,1.3,0.6,1.9,1.5,1.9c0.7,0,1-0.3,1.3-0.5c0.1,0.1,0.2,0.3,0.2,0.4c0,0.3-0.7,0.9-1.9,0.9    c-1.3,0-2.3-0.7-2.3-2.6s1.1-2.8,2.3-2.8c1.2,0,1.8,0.7,1.8,1.8c0,0.3-0.1,0.6-0.1,0.9H79.2z M81.1,149.8c0-0.1,0.1-0.3,0.1-0.5    c0-0.6-0.2-1.1-0.8-1.1c-0.6,0-1,0.5-1.1,1.5H81.1z"
   id="path105" />
		<path
   d="M88,152.3l0.6,0.1c0.1,0,0.1,0.1,0.1,0.1c0,0.1-0.1,0.3-0.1,0.3h-2.4c0,0,0-0.1,0-0.1c0-0.2,0.1-0.3,0.3-0.3l0.3-0.1v-2.7    c0-0.9-0.5-1.2-1-1.2c-0.6,0-1,0.3-1.2,0.5v3.4l0.6,0.1c0.1,0,0.1,0.1,0.1,0.1c0,0.1-0.1,0.3-0.1,0.3H83c0,0,0-0.1,0-0.1    c0-0.2,0.1-0.3,0.3-0.3l0.4-0.1v-3.9l-0.7-0.1c0,0,0-0.1,0-0.1c0-0.2,0.1-0.3,0.4-0.3l1.4-0.1l-0.1,0.7h0c0.3-0.3,0.8-0.8,1.7-0.8    c1,0,1.6,0.7,1.6,1.8V152.3z"
   id="path107" />
		<path
   d="M95.4,149.1L95.4,149.1c1,0.2,1.7,0.8,1.7,1.7c0,1.2-1,2-2.9,2h-2.7c0,0,0-0.1,0-0.1c0-0.2,0.1-0.3,0.4-0.4l0.4-0.1v-6.1    l-0.6-0.1c-0.1,0-0.1-0.1-0.1-0.1c0-0.1,0.1-0.2,0.1-0.3h2.5c1.9,0,2.8,0.7,2.8,1.8C96.9,148.5,96.3,148.9,95.4,149.1z M94,146.3    h-0.6v2.6H94c1.2,0,1.7-0.6,1.7-1.3C95.7,146.7,95.2,146.3,94,146.3z M94.2,149.5h-0.7v2.7h0.6c1.2,0,1.8-0.6,1.8-1.4    C95.9,150.1,95.3,149.5,94.2,149.5z"
   id="path109" />
		<path
   d="M102.7,152.3l0.8,0.1c0,0,0,0,0,0.1c0,0.2-0.1,0.3-0.4,0.3l-1.4,0.1v-0.7h0c-0.2,0.2-0.6,0.8-1.6,0.8    c-1.1,0-1.6-0.7-1.6-1.9v-2.7l-0.7-0.1c0,0,0-0.1,0-0.1c0-0.2,0.1-0.3,0.4-0.3l1.4-0.1v3.3c0,1,0.5,1.2,1,1.2    c0.5,0,0.9-0.2,1.1-0.5v-3.3l-0.7-0.1c0,0,0-0.1,0-0.1c0-0.2,0.1-0.3,0.4-0.3l1.4-0.1V152.3z"
   id="path111" />
		<path
   d="M109,152.3l0.6,0.1c0.1,0,0.1,0.1,0.1,0.1c0,0.1-0.1,0.3-0.1,0.3h-2.4c0,0,0-0.1,0-0.1c0-0.2,0.1-0.3,0.3-0.3l0.3-0.1    v-2.7c0-0.9-0.5-1.2-1-1.2c-0.6,0-1,0.3-1.2,0.5v3.4l0.6,0.1c0.1,0,0.1,0.1,0.1,0.1c0,0.1-0.1,0.3-0.1,0.3H104c0,0,0-0.1,0-0.1    c0-0.2,0.1-0.3,0.3-0.3l0.4-0.1v-3.9l-0.7-0.1c0,0,0-0.1,0-0.1c0-0.2,0.1-0.3,0.4-0.3l1.4-0.1l-0.1,0.7h0c0.3-0.3,0.8-0.8,1.7-0.8    c1,0,1.6,0.7,1.6,1.8V152.3z"
   id="path113" />
		<path
   d="M114.9,152.3l0.8,0.1c0,0,0,0,0,0.1c0,0.2-0.1,0.3-0.4,0.3l-1.4,0.1v-0.7h0c-0.2,0.3-0.7,0.7-1.5,0.7c-1,0-2-0.7-2-2.5    c0-2,1.4-2.8,2.7-2.8c0.3,0,0.6,0.1,0.7,0.1v-1.8l-0.7-0.1c0,0,0-0.1,0-0.1c0-0.2,0.1-0.3,0.4-0.3l1.4-0.1V152.3z M113.8,148.6    c-0.2-0.1-0.4-0.3-0.9-0.3c-0.9,0-1.5,0.6-1.5,2c0,1.4,0.6,1.9,1.3,1.9c0.6,0,0.9-0.3,1.1-0.4V148.6z"
   id="path115" />
		<path
   d="M117.3,150.4c0,1.3,0.6,1.9,1.5,1.9c0.7,0,1-0.3,1.3-0.5c0.1,0.1,0.2,0.3,0.2,0.4c0,0.3-0.7,0.9-1.9,0.9    c-1.3,0-2.3-0.7-2.3-2.6s1.1-2.8,2.3-2.8c1.2,0,1.8,0.7,1.8,1.8c0,0.3-0.1,0.6-0.1,0.9H117.3z M119.2,149.8c0-0.1,0.1-0.3,0.1-0.5    c0-0.6-0.2-1.1-0.8-1.1c-0.6,0-1,0.5-1.1,1.5H119.2z"
   id="path117" />
		<path
   d="M123.6,148.5c-0.1-0.1-0.4-0.2-0.7-0.2c-0.3,0-0.7,0.1-0.7,0.6c0,0.5,0.5,0.7,1,1c0.6,0.4,1.3,0.8,1.3,1.6    c0,0.9-0.7,1.5-1.9,1.5c-0.6,0-1.1-0.2-1.3-0.3c0-0.3-0.1-0.5-0.1-0.8c0-0.4,0.1-0.6,0.4-0.6c0.1,0,0.1,0,0.1,0l0.2,0.9    c0.1,0.1,0.4,0.2,0.7,0.2c0.5,0,0.8-0.2,0.8-0.6c0-0.5-0.5-0.7-1-1c-0.6-0.4-1.3-0.8-1.3-1.7c0-0.8,0.7-1.4,1.7-1.4    c0.6,0,1,0.2,1.2,0.4c0,0.1,0,0.4,0,0.6c0,0.4-0.1,0.6-0.5,0.6c-0.1,0-0.1,0-0.1,0L123.6,148.5z"
   id="path119" />
		<path
   d="M128.3,148.4h-1.4v3.1c0,0.5,0.1,0.9,0.7,0.9c0.4,0,0.7-0.2,0.8-0.3c0.1,0.1,0.1,0.2,0.1,0.3c0,0.1-0.4,0.6-1.3,0.6    c-1,0-1.3-0.6-1.3-1.4v-3.3H125c0,0,0-0.1,0-0.1c0-0.2,0.1-0.3,0.3-0.4l0.5-0.1l0.2-1.4h0.8v1.4h1.6L128.3,148.4z"
   id="path121" />
		<path
   d="M132.7,151.8c0,0.4,0.2,0.5,0.3,0.5c0.2,0,0.4-0.1,0.4-0.2c0.1,0.1,0.1,0.2,0.1,0.3c0,0.1-0.3,0.5-1,0.5    c-0.5,0-0.8-0.2-0.9-0.7h0c-0.1,0.2-0.5,0.8-1.4,0.8c-0.8,0-1.4-0.5-1.4-1.4c0-1.1,1.2-1.5,2.4-1.5h0.3v-0.5c0-1-0.3-1.3-0.9-1.3    c-0.2,0-0.5,0.1-0.5,0.1c-0.1,0.2-0.2,0.6-0.2,0.9c0,0-0.2,0-0.2,0c-0.4,0-0.6-0.2-0.6-0.5c0-0.7,0.9-1.1,1.8-1.1    c1.2,0,1.7,0.6,1.7,1.8V151.8z M131.4,150.6c-0.8,0-1.3,0.3-1.3,0.9c0,0.4,0.3,0.7,0.7,0.7s0.8-0.3,0.9-0.5v-1.2L131.4,150.6z"
   id="path123" />
		<path
   d="M138.6,148.4h-0.9c0.2,0.3,0.3,0.6,0.3,1c0,1.1-0.9,1.7-2.1,1.7c-0.2,0-0.3,0-0.5-0.1c-0.1,0.1-0.3,0.2-0.3,0.5    c0,0.3,0.2,0.4,0.5,0.4h1.2c1,0,1.5,0.4,1.5,1.2c0,1-1,2-2.8,2c-1.3,0-1.9-0.5-1.9-1.2c0-0.7,0.6-1.1,1-1.2v0    c-0.3-0.1-0.4-0.4-0.4-0.7c0-0.6,0.6-0.9,0.8-1v0c-0.6-0.3-1-0.8-1-1.6c0-1.1,0.9-1.7,2-1.7c0.3,0,0.6,0,0.8,0.1h1.8L138.6,148.4z     M135.6,152.8c-0.1,0-0.3,0-0.4,0c-0.3,0.2-0.5,0.4-0.5,0.8c0,0.5,0.3,0.9,1.1,0.9c1,0,1.6-0.5,1.6-1c0-0.4-0.2-0.6-0.8-0.6H135.6    z M135.2,149.4c0,0.8,0.4,1.2,0.9,1.2c0.6,0,1-0.3,1-1.2c0-0.7-0.4-1.1-1-1.1S135.2,148.6,135.2,149.4z"
   id="path125" />
		<path
   d="M140.4,150.4c0,1.3,0.6,1.9,1.5,1.9c0.7,0,1-0.3,1.3-0.5c0.1,0.1,0.2,0.3,0.2,0.4c0,0.3-0.7,0.9-1.9,0.9    c-1.3,0-2.3-0.7-2.3-2.6s1.1-2.8,2.3-2.8c1.2,0,1.8,0.7,1.8,1.8c0,0.3-0.1,0.6-0.1,0.9H140.4z M142.2,149.8c0-0.1,0.1-0.3,0.1-0.5    c0-0.6-0.2-1.1-0.8-1.1c-0.6,0-1,0.5-1.1,1.5H142.2z"
   id="path127" />
		<path
   d="M146.6,148.5c-0.1-0.1-0.4-0.2-0.7-0.2c-0.3,0-0.7,0.1-0.7,0.6c0,0.5,0.5,0.7,1,1c0.6,0.4,1.3,0.8,1.3,1.6    c0,0.9-0.7,1.5-1.9,1.5c-0.6,0-1.1-0.2-1.3-0.3c0-0.3-0.1-0.5-0.1-0.8c0-0.4,0.1-0.6,0.4-0.6c0.1,0,0.1,0,0.1,0l0.2,0.9    c0.1,0.1,0.4,0.2,0.7,0.2c0.5,0,0.8-0.2,0.8-0.6c0-0.5-0.5-0.7-1-1c-0.6-0.4-1.3-0.8-1.3-1.7c0-0.8,0.7-1.4,1.7-1.4    c0.6,0,1,0.2,1.2,0.4c0,0.1,0,0.4,0,0.6c0,0.4-0.1,0.6-0.5,0.6c-0.1,0-0.1,0-0.1,0L146.6,148.5z"
   id="path129" />
	</g>
</g>
<g
   id="Bildwortmarke">
	<polygon
   fill="#FFCC00"
   points="54.5,91.5 56,91.5 56,111.5 52.5,111.5 52.5,91.5  "
   id="polygon134" />
	<polygon
   fill="#FF0000"
   points="54.5,71.5 56,71.5 56,91.5 52.5,91.5 52.5,71.5  "
   id="polygon136" />
	<g
   id="g140">
		<path
   d="M43.4,58.5c1,1.6,1.8,1.6,3,1.6c-1-0.8-1.7-1.8-2-2.3l-1.9-3c-0.2-0.9-0.7-1.8-1.4-2.4c0.2-0.1,0.4-0.2,0.6-0.3    c-1.2,0-2.4-0.6-3.1-0.6c-0.4,0-0.7,0.3-0.7,0.6c0,0.4,0.4,0.8,1.1,0.8c0.2,0,0.4,0,0.6-0.1c0.4,0.5,0.7,1,0.7,1.7    c0,1.3-1.6,2.3-3.1,2.3c-0.1,0-0.2,0-0.3,0c-0.1-0.3-0.6-0.9-0.6-1.5c0-1,0.7-1.9,0.7-2.9c0-0.6-0.3-1-0.4-1.2    c0.2-0.2,0.4-0.4,0.5-0.6c-0.1,0-0.2,0.1-0.4,0.1c-0.8,0-1.4-0.2-2-0.2c-0.3,0-0.4,0.1-0.4,0.2c0,0,0,0.1,0,0.1    c-0.1-0.1-0.2-0.1-0.4-0.1c-0.2,0-0.4-0.1-0.6-0.1c-0.7,0-1,0.3-1,0.6c0,0.2,0.2,0.6,0.4,0.9c0.3-0.1,0.6-0.2,0.8-0.2    c0.4,0,0.7,0.4,0.9,0.8c-0.3,0-0.3,0-0.6,0c-0.7,0-1.2-0.3-1.3-0.3c0,0,0,0,0,0c0,0.1,0.2,0.4,0.6,0.5c0.5,0.2,1.3,0.3,1.4,0.3    c0,0-0.1,0.3-0.3,0.3c0,0-0.1,0-0.1,0c-0.5-0.1-0.7-0.2-1.4-0.4c0,0,0,0,0,0c0,0.3,0.7,0.9,1.3,1.1c-0.5,0.7-1.2,1.4-1.5,2.4    c-0.1,0-0.2,0-0.3,0c-1.6,0-3.1-1-3.1-2.3c0-0.7,0.3-1.2,0.7-1.7c0.2,0,0.4,0.1,0.6,0.1c0.7,0,1.1-0.4,1.1-0.8    c0-0.3-0.3-0.6-0.7-0.6c-0.7,0-1.9,0.6-3.1,0.6c0.1,0.1,0.3,0.2,0.6,0.3c-0.7,0.6-1.2,1.5-1.4,2.4l-1.9,3c-0.3,0.5-1,1.5-2,2.3    c1.2,0,2,0,3-1.6l1-1.5c0.1,0.2,0.2,0.4,0.3,0.6l-1.9,3.1c-0.3,0.5-1,1.5-2,2.3c1.2,0,2,0,3-1.6l1.6-2.6c0.1,0.1,0.3,0.3,0.4,0.4    l-2.3,3.7c-0.3,0.5-1,1.5-2,2.2c1.2,0,2,0,3-1.6l2.3-3.6c0.1,0.1,0.3,0.2,0.5,0.3l-2.8,4.4c-0.3,0.5-1,1.5-2,2.2c1.2,0,2,0,3-1.6    l2.8-4.5c0.2,0.1,0.3,0.1,0.5,0.2l-3.2,5.1c-0.3,0.5-1,1.5-2,2.2c1.2,0,2,0,3-1.6l3.4-5.5c0,0,0.1,0,0.1,0    c0.1,0.3,0.2,0.6,0.2,0.8c0,1.7-1.1,3.2-2.5,4.4c0.1,0,0.2,0.1,0.4,0.1c0.3,0,0.5,0,0.6,0c-0.3,0.7-1,1.6-1.3,2.1    c-0.4-0.1-1.1-0.1-1.5-0.1c-0.4,0-0.5,0.3-0.5,0.5c0,0.4,0.2,0.7,0.4,0.9c0.1-0.2,0.2-0.5,1.1-0.5c0,0,0,0,0.1,0    c-0.2,0.3-1,0.9-1,1.4c0,0.3,0.4,0.8,0.8,0.8c0-0.1,0-0.2,0-0.3c0-0.4,0.3-0.9,0.6-1.2c0,0.1,0,0.1,0,0.2c0,0.9,0.1,1.4,0.7,1.4    c0.3,0,0.5-0.2,0.6-0.2c-0.4-0.4-0.4-0.6-0.4-1.2c0-0.1,0-0.3,0-0.5c0-0.1,0-0.3,0-0.4c0.2,0,0.3,0,0.5,0c0,0,0.8-0.1,1,0.4    c0.2-0.2,0.6-0.5,0.6-0.8c0-0.2-0.1-0.5-0.5-0.5c-0.2,0-0.7,0.1-1.1,0.1c0.1-0.3,0.6-1,1.1-1.6c0.1,0.2,0.2,0.4,0.4,0.6    c0-0.4,0.2-1.5,0.8-2.1c0.1,0.4,0.2,0.9,0.2,1.8c0,2.3-0.6,4-1.7,4.3c0.2,0.3,0.5,0.5,0.8,0.5c0.4,0,0.7-0.5,0.9-0.9    c0.1,0.3,0.5,1.2,0.8,1.2c0.3,0,0.7-0.8,0.8-1.2c0.2,0.5,0.5,0.9,0.9,0.9c0.3,0,0.7-0.2,0.8-0.5c-1.2-0.3-1.7-2-1.7-4.3    c0-1,0.1-1.4,0.1-1.8c0.6,0.7,0.8,1.8,0.8,2.1c0.2-0.2,0.3-0.4,0.4-0.6c0.4,0.5,1,1.3,1.1,1.6c-0.4,0-0.9-0.1-1.1-0.1    c-0.4,0-0.5,0.2-0.5,0.5c0,0.3,0.3,0.6,0.6,0.8c0.2-0.4,1-0.4,1-0.4c0.2,0,0.2,0,0.5,0c0,0.1,0,0.3,0,0.4c0,0.2,0,0.3,0,0.5    c0,0.5,0,0.8-0.4,1.2c0.1,0,0.3,0.2,0.6,0.2c0.6,0,0.7-0.4,0.7-1.4c0-0.1,0-0.1,0-0.2c0.3,0.3,0.6,0.8,0.6,1.2c0,0.1,0,0.2,0,0.3    c0.5,0,0.8-0.5,0.8-0.8c0-0.5-0.7-1.1-1-1.4c0,0,0.1,0,0.1,0c0.8,0,1,0.3,1.1,0.5c0.2-0.2,0.4-0.5,0.4-0.9c0-0.2,0-0.5-0.5-0.5    c-0.4,0-1.1,0.1-1.5,0.1c-0.3-0.5-1-1.4-1.3-2.1c0.1,0,0.3,0,0.6,0c0.1,0,0.3,0,0.4-0.1c-1.4-1.2-2.5-2.7-2.5-4.4    c0-0.3,0.1-0.6,0.2-0.8c0,0,0.1,0,0.1,0l3.4,5.5c1,1.6,1.8,1.6,3,1.6c-1-0.8-1.7-1.8-2-2.2l-3.2-5.1c0.2-0.1,0.3-0.1,0.5-0.2    l2.8,4.5c1,1.6,1.8,1.6,3,1.6c-1-0.8-1.7-1.7-2-2.2L39.5,60c0.2-0.1,0.3-0.2,0.5-0.3l2.3,3.6c1,1.6,1.8,1.6,3,1.6    c-1-0.8-1.7-1.7-2-2.2L41,59c0.1-0.1,0.3-0.2,0.4-0.4l1.6,2.6c1,1.6,1.8,1.6,3,1.6c-1-0.8-1.7-1.7-2-2.3l-1.9-3.1    c0.1-0.2,0.2-0.4,0.3-0.6L43.4,58.5z M28.1,54.9c0-1.1,0.8-2,1.1-2.3c0.1,0,0.1,0,0.2,0c-0.3,0.4-0.9,1-0.9,1.9    c0,1.7,1.8,3.1,3.8,3.1c0,0.1,0,0.3,0,0.4c0,0.2,0,0.5,0,0.7C30.1,58.8,28.1,56.9,28.1,54.9z M31.2,68.6L31.2,68.6L31.2,68.6    c0.7,0,1,0,1.2,0c0.1,0,0.2,0,0.3,0c0.2,0,0.3,0,0.3,0.2c0,0.1-0.2,0.4-0.3,0.5C32.4,69,32,69,31.6,69c-0.2,0-0.5,0-0.7,0.1l0,0    l0,0l0,0.1c0,0.1,0,0.3,0,0.5l0,0.2l0,0.3c0,0.5,0.1,0.9,0.3,1.1c0,0-0.1,0-0.2,0c-0.3,0-0.4-0.1-0.4-1.1c0-0.2,0-0.4,0-0.5l0-0.2    l0,0c-0.5,0.4-1,1.1-1.1,1.6c-0.2-0.1-0.3-0.3-0.3-0.5c0-0.3,0.4-0.7,0.9-1.2l0.3-0.3l0,0l-0.1,0c-0.1,0-0.3-0.1-0.5-0.1    c-0.5,0-0.9,0.1-1.1,0.3c-0.1-0.1-0.1-0.4-0.1-0.5c0-0.1,0-0.2,0.1-0.2c0,0,0.1,0,0.2,0h0c0.6,0,1.3,0.1,1.6,0.2l0,0l0,0    c0-0.1,1.2-1.6,1.5-2.4c0.1,0,0.1,0,0.2,0c0.2,0,0.3,0.2,0.4,0.4C31.8,67.5,31.3,68.2,31.2,68.6z M37.4,66.2c0.1,0,0.2,0,0.2,0    c0.3,0.8,1.4,2.3,1.5,2.4l0,0l0,0c0.3,0,1-0.2,1.6-0.2h0c0.1,0,0.1,0,0.2,0c0,0,0.1,0.1,0.1,0.2c0,0.1-0.1,0.4-0.1,0.5    c-0.2-0.2-0.6-0.3-1.1-0.3c-0.2,0-0.4,0-0.5,0.1l0,0l0,0l0.3,0.3c0.5,0.5,0.9,0.9,0.9,1.2c0,0.2-0.2,0.4-0.3,0.5    c0-0.5-0.5-1.2-1.1-1.6l0,0l0,0.2c0,0.1,0,0.3,0,0.5c0,1-0.1,1.1-0.4,1.1c-0.1,0-0.1,0-0.2,0c0.2-0.2,0.3-0.5,0.3-1.1l0-0.3l0-0.2    c0-0.2,0-0.4,0-0.5l0-0.1l-0.1,0c-0.2,0-0.5-0.1-0.7-0.1c-0.5,0-0.8,0-1,0.3c-0.2-0.1-0.3-0.3-0.3-0.5c0-0.2,0.1-0.2,0.3-0.2    c0.1,0,0.2,0,0.3,0c0.2,0,0.5,0.1,1.2,0.1h0l0,0c-0.2-0.5-0.6-1.1-1.3-2C37.1,66.4,37.1,66.2,37.4,66.2z M34.7,52.9    c-0.1-0.3-0.2-0.6-0.4-0.8c-0.2-0.2-0.5-0.5-0.9-0.5c-0.2,0-0.5,0.1-0.7,0.2c-0.1-0.1-0.2-0.4-0.2-0.6c0-0.1,0.2-0.3,0.7-0.3    c1,0,1.6,0.5,1.6,1.2C34.9,52.5,34.8,52.7,34.7,52.9z M35.2,51.9c0-0.2-0.1-0.4-0.2-0.6c0-0.2,0.1-0.4,0.4-0.2    c-0.2,0.2,0,0.5,0,0.5s0.4-0.2,0.3-0.4C36.1,51.3,35.7,52,35.2,51.9z M37.2,58.8c0-0.2,0-0.5,0-0.7c0-0.1,0-0.3,0-0.4    c2,0,3.7-1.5,3.7-3.1c0-0.8-0.5-1.5-0.9-1.9c0.1,0,0.1,0,0.2,0c0.3,0.3,1.1,1.2,1.1,2.3C41.4,56.9,39.4,58.8,37.2,58.8z"
   id="path138" />
	</g>
	<polygon
   points="56,51.5 56,71.5 54.5,71.5 52.5,71.5 52.5,51.5  "
   id="polygon142" />
	<g
   id="Name"
   transform="matrix(0.72294487,0,0,0.72294487,22.759189,51.066233)"><path
     d="m 61.77,4.59 a 3.41,3.41 0 0 1 -0.15,1 2.57,2.57 0 0 1 -0.4,0.77 2.3,2.3 0 0 1 -0.6,0.52 2.8,2.8 0 0 1 -0.69,0.29 v 0 a 2.26,2.26 0 0 1 0.83,0.31 2.6,2.6 0 0 1 0.67,0.57 2.55,2.55 0 0 1 0.46,0.82 2.84,2.84 0 0 1 0.17,1 3.06,3.06 0 0 1 -0.23,1.23 2.52,2.52 0 0 1 -0.71,1 3.53,3.53 0 0 1 -1.23,0.64 6.12,6.12 0 0 1 -1.76,0.23 H 55.81 V 1.66 H 58 a 6.24,6.24 0 0 1 1.72,0.21 3.1,3.1 0 0 1 1.18,0.58 2.14,2.14 0 0 1 0.66,0.91 3.23,3.23 0 0 1 0.21,1.23 z M 60.32,4.66 A 1.68,1.68 0 0 0 59.76,3.36 2.55,2.55 0 0 0 58,2.83 H 57.24 V 6.74 H 58 a 2.48,2.48 0 0 0 1.75,-0.56 2,2 0 0 0 0.57,-1.52 z m 0.21,5.23 A 1.84,1.84 0 0 0 59.93,8.43 2.54,2.54 0 0 0 58.21,7.9 h -1 v 4 H 58.1 A 2.84,2.84 0 0 0 60,11.36 1.92,1.92 0 0 0 60.54,9.87 Z m 8.82,3.17 h -1.21 v -0.9 0 a 1.86,1.86 0 0 1 -0.21,0.28 2.14,2.14 0 0 1 -0.42,0.37 3.54,3.54 0 0 1 -0.62,0.3 2.44,2.44 0 0 1 -0.8,0.13 2.82,2.82 0 0 1 -1,-0.15 1.86,1.86 0 0 1 -0.72,-0.51 2.58,2.58 0 0 1 -0.45,-0.89 5.25,5.25 0 0 1 -0.15,-1.36 V 5.15 h 1.33 v 5.08 a 2.39,2.39 0 0 0 0.33,1.43 1.2,1.2 0 0 0 1,0.42 1.68,1.68 0 0 0 1,-0.29 3.36,3.36 0 0 0 0.62,-0.57 v -6 h 1.33 z m 6.36,0 V 8 a 2.41,2.41 0 0 0 -0.34,-1.44 1.22,1.22 0 0 0 -1,-0.44 1.56,1.56 0 0 0 -1,0.3 A 3.1,3.1 0 0 0 72.75,7 v 6 H 71.39 V 5.15 h 1.22 V 6 6 A 1.46,1.46 0 0 1 72.82,5.72 1.88,1.88 0 0 1 73.25,5.35 3,3 0 0 1 73.87,5.05 2.16,2.16 0 0 1 74.7,5 a 2.82,2.82 0 0 1 1,0.15 1.67,1.67 0 0 1 0.72,0.51 2.44,2.44 0 0 1 0.46,0.89 4.79,4.79 0 0 1 0.17,1.36 V 13 Z m 3,-3.83 a 5.66,5.66 0 0 1 0.31,-2 3.66,3.66 0 0 1 0.81,-1.3 A 2.8,2.8 0 0 1 81,5.23 4.09,4.09 0 0 1 82.2,5 2.46,2.46 0 0 1 82.86,5.06 1.53,1.53 0 0 1 83.32,5.2 V 1.41 L 84.61,1.26 V 13 h -1.22 v -0.83 0 c 0,0.06 -0.1,0.15 -0.18,0.27 a 2.9,2.9 0 0 1 -0.36,0.34 2.13,2.13 0 0 1 -0.58,0.3 A 2.79,2.79 0 0 1 81.46,13.2 2.76,2.76 0 0 1 80.4,13 2.35,2.35 0 0 1 79.52,12.29 3.7,3.7 0 0 1 78.92,11.04 6.82,6.82 0 0 1 78.67,9.19 Z m 3.08,2.83 a 2.1,2.1 0 0 0 0.56,-0.08 2.14,2.14 0 0 0 0.43,-0.21 2.66,2.66 0 0 0 0.31,-0.26 2.11,2.11 0 0 0 0.19,-0.23 V 6.41 a 1.59,1.59 0 0 0 -0.42,-0.19 1.54,1.54 0 0 0 -0.6,-0.09 2.35,2.35 0 0 0 -0.87,0.16 1.58,1.58 0 0 0 -0.7,0.52 2.6,2.6 0 0 0 -0.47,0.94 5.14,5.14 0 0 0 -0.17,1.41 5.88,5.88 0 0 0 0.14,1.38 2.48,2.48 0 0 0 0.39,0.88 1.47,1.47 0 0 0 1.21,0.64 z m 9.93,-4.25 a 6.46,6.46 0 0 1 0,0.88 2.15,2.15 0 0 1 -0.06,0.65 h -4 a 3.52,3.52 0 0 0 0.6,2.06 1.88,1.88 0 0 0 1.54,0.66 2.57,2.57 0 0 0 0.62,-0.08 4.19,4.19 0 0 0 0.49,-0.2 l 0.34,-0.23 0.21,-0.18 0.49,0.93 -0.24,0.24 a 2.83,2.83 0 0 1 -0.45,0.32 4.12,4.12 0 0 1 -0.69,0.27 4.2,4.2 0 0 1 -1,0.11 3.83,3.83 0 0 1 -1.34,-0.24 2.62,2.62 0 0 1 -1,-0.77 3.62,3.62 0 0 1 -0.65,-1.32 6.53,6.53 0 0 1 -0.23,-1.91 6.19,6.19 0 0 1 0.24,-1.82 3.52,3.52 0 0 1 0.65,-1.26 2.49,2.49 0 0 1 1,-0.73 2.79,2.79 0 0 1 1.17,-0.19 2.26,2.26 0 0 1 1.67,0.71 3.19,3.19 0 0 1 0.64,2.1 z M 89.22,6 a 1.31,1.31 0 0 0 -1.14,0.6 3.21,3.21 0 0 0 -0.49,1.71 h 2.88 a 1,1 0 0 0 0,-0.24 V 7.76 A 2.09,2.09 0 0 0 90.14,6.49 1.09,1.09 0 0 0 89.22,6 Z m 7.68,0.71 a 3.64,3.64 0 0 0 -0.48,-0.4 1.44,1.44 0 0 0 -0.9,-0.26 1.19,1.19 0 0 0 -0.81,0.25 0.78,0.78 0 0 0 -0.28,0.59 1.07,1.07 0 0 0 0.26,0.74 3.9,3.9 0 0 0 0.78,0.61 l 0.49,0.3 a 4.76,4.76 0 0 1 1.27,1 A 2.13,2.13 0 0 1 97.69,11 2.15,2.15 0 0 1 97,12.57 2.52,2.52 0 0 1 95.13,13.21 3.28,3.28 0 0 1 93.66,12.88 2.6,2.6 0 0 1 93.21,12.6 l -0.3,-0.29 0.64,-1.06 0.24,0.23 c 0.11,0.09 0.22,0.18 0.34,0.26 a 3.55,3.55 0 0 0 0.44,0.21 2.25,2.25 0 0 0 0.58,0.08 1.39,1.39 0 0 0 0.9,-0.27 0.81,0.81 0 0 0 0.32,-0.64 1.51,1.51 0 0 0 -0.08,-0.48 1,1 0 0 0 -0.22,-0.37 2.17,2.17 0 0 0 -0.36,-0.32 L 95.22,9.66 94.72,9.35 a 4.84,4.84 0 0 1 -1.16,-1 2.12,2.12 0 0 1 -0.38,-1.35 2.08,2.08 0 0 1 0.17,-0.82 1.83,1.83 0 0 1 0.49,-0.64 2.34,2.34 0 0 1 0.73,-0.43 2.5,2.5 0 0 1 0.9,-0.15 2.63,2.63 0 0 1 0.79,0.09 2.35,2.35 0 0 1 0.57,0.23 2.14,2.14 0 0 1 0.39,0.28 2,2 0 0 1 0.26,0.24 z m 6.5,6.3 V 8 a 2.6,2.6 0 0 0 -0.28,-1.4 1,1 0 0 0 -0.9,-0.43 1.49,1.49 0 0 0 -0.59,0.09 1.51,1.51 0 0 0 -0.45,0.2 1.49,1.49 0 0 0 -0.35,0.27 c -0.09,0.1 -0.18,0.19 -0.24,0.27 v 6 H 99.25 V 5.15 h 1.22 V 6 6 c 0.06,-0.08 0.14,-0.19 0.25,-0.32 a 2.3,2.3 0 0 1 0.41,-0.36 2.62,2.62 0 0 1 0.58,-0.29 2.33,2.33 0 0 1 0.74,-0.11 2,2 0 0 1 1.91,1 2.1,2.1 0 0 1 0.31,-0.35 2.24,2.24 0 0 1 0.46,-0.35 2.55,2.55 0 0 1 0.59,-0.25 2.26,2.26 0 0 1 0.73,-0.1 c 1.6,0 2.4,0.93 2.4,2.8 V 13 h -1.33 V 8 a 2.21,2.21 0 0 0 -0.35,-1.4 1.24,1.24 0 0 0 -1,-0.43 1.54,1.54 0 0 0 -0.93,0.27 4.07,4.07 0 0 0 -0.58,0.52 V 13 Z m 8.8,0 h -1.33 V 5.15 h 1.33 z m -0.65,-9.8 a 0.86,0.86 0 0 1 -0.66,-0.27 1,1 0 0 1 -0.25,-0.69 0.89,0.89 0 0 1 0.25,-0.62 0.92,0.92 0 0 1 1.3,0 1,1 0 0 1 0.25,0.67 1,1 0 0 1 -0.25,0.69 0.84,0.84 0 0 1 -0.64,0.25 z m 7,9.8 V 8 a 2.41,2.41 0 0 0 -0.34,-1.44 1.22,1.22 0 0 0 -1,-0.44 1.56,1.56 0 0 0 -1,0.3 3.1,3.1 0 0 0 -0.62,0.58 v 6 h -1.33 V 5.15 h 1.21 V 6 6 a 1.46,1.46 0 0 1 0.21,-0.28 1.88,1.88 0 0 1 0.43,-0.37 3,3 0 0 1 0.62,-0.3 2.16,2.16 0 0 1 0.83,-0.13 2.82,2.82 0 0 1 1,0.15 1.67,1.67 0 0 1 0.72,0.51 2.31,2.31 0 0 1 0.47,0.89 5.17,5.17 0 0 1 0.16,1.36 V 13 Z m 4.65,0 h -1.33 V 5.15 h 1.33 z m -0.65,-9.8 a 0.86,0.86 0 0 1 -0.66,-0.27 1,1 0 0 1 -0.25,-0.69 0.9,0.9 0 0 1 1.55,-0.67 1,1 0 0 1 0.24,0.67 1,1 0 0 1 -0.24,0.69 0.87,0.87 0 0 1 -0.63,0.27 z m 6.1,3.5 a 3.64,3.64 0 0 0 -0.48,-0.4 1.44,1.44 0 0 0 -0.9,-0.26 1.19,1.19 0 0 0 -0.81,0.25 0.78,0.78 0 0 0 -0.28,0.59 1.07,1.07 0 0 0 0.26,0.74 3.9,3.9 0 0 0 0.78,0.61 l 0.49,0.3 a 4.76,4.76 0 0 1 1.27,1 2.13,2.13 0 0 1 0.46,1.42 2.15,2.15 0 0 1 -0.65,1.58 2.61,2.61 0 0 1 -1.87,0.64 3.28,3.28 0 0 1 -1.47,-0.33 2.43,2.43 0 0 1 -0.46,-0.22 l -0.3,-0.29 0.64,-1.06 0.24,0.23 c 0.11,0.09 0.22,0.18 0.34,0.26 a 3.55,3.55 0 0 0 0.44,0.21 2.25,2.25 0 0 0 0.58,0.08 1.39,1.39 0 0 0 0.9,-0.27 0.81,0.81 0 0 0 0.32,-0.64 1.51,1.51 0 0 0 -0.08,-0.48 1,1 0 0 0 -0.22,-0.37 2.17,2.17 0 0 0 -0.36,-0.32 l -0.5,-0.35 -0.5,-0.31 a 4.84,4.84 0 0 1 -1.16,-1 A 2,2 0 0 1 125,7 a 2.08,2.08 0 0 1 0.17,-0.82 1.83,1.83 0 0 1 0.49,-0.64 2.34,2.34 0 0 1 0.73,-0.43 2.5,2.5 0 0 1 0.9,-0.15 2.63,2.63 0 0 1 0.79,0.09 2.35,2.35 0 0 1 0.57,0.23 2.14,2.14 0 0 1 0.39,0.28 2,2 0 0 1 0.26,0.24 z m 5.73,-0.51 h -1.73 v 4.43 a 2.15,2.15 0 0 0 0.21,1.14 0.86,0.86 0 0 0 0.73,0.31 1.75,1.75 0 0 0 0.51,-0.08 l 0.31,-0.15 0.18,1.07 a 2.38,2.38 0 0 1 -0.39,0.2 2.18,2.18 0 0 1 -0.84,0.14 2,2 0 0 1 -1.53,-0.57 2.82,2.82 0 0 1 -0.51,-1.88 V 6.23 h -1 V 5.34 l 1,-0.19 0.14,-2.21 h 1.19 v 2.21 h 1.89 z m 6.46,1.58 v 0.88 a 2.18,2.18 0 0 1 -0.06,0.65 h -4 a 3.67,3.67 0 0 0 0.6,2.06 1.88,1.88 0 0 0 1.54,0.66 2.72,2.72 0 0 0 0.63,-0.08 2.55,2.55 0 0 0 0.48,-0.2 l 0.35,-0.23 0.21,-0.18 0.49,0.93 -0.25,0.24 a 2.36,2.36 0 0 1 -0.44,0.32 4.12,4.12 0 0 1 -0.69,0.27 4.2,4.2 0 0 1 -1,0.11 3.88,3.88 0 0 1 -1.35,-0.24 2.62,2.62 0 0 1 -1,-0.77 3.88,3.88 0 0 1 -0.65,-1.32 7.29,7.29 0 0 1 -0.23,-1.88 6.19,6.19 0 0 1 0.24,-1.82 3.69,3.69 0 0 1 0.65,-1.26 2.59,2.59 0 0 1 1,-0.73 2.79,2.79 0 0 1 1.17,-0.19 2.23,2.23 0 0 1 1.77,0.71 3.15,3.15 0 0 1 0.55,2.15 z M 138.34,6 a 1.33,1.33 0 0 0 -1.13,0.6 3.22,3.22 0 0 0 -0.5,1.71 h 2.88 V 7.76 a 2.09,2.09 0 0 0 -0.33,-1.27 1.12,1.12 0 0 0 -0.91,-0.46 z m 7.75,0.28 a 0.6,0.6 0 0 0 -0.21,-0.08 1.72,1.72 0 0 0 -1.44,0.29 2,2 0 0 0 -0.51,0.73 V 13 H 142.6 V 5.15 h 1.22 v 1.07 0 a 2.43,2.43 0 0 1 0.22,-0.46 1.13,1.13 0 0 1 0.33,-0.39 1.08,1.08 0 0 1 0.46,-0.27 1.8,1.8 0 0 1 0.65,-0.1 1.19,1.19 0 0 1 0.46,0 l 0.27,0.08 z m 2.65,6.72 h -1.33 V 5.15 h 1.33 z m -0.66,-9.8 a 0.84,0.84 0 0 1 -0.65,-0.27 1,1 0 0 1 -0.25,-0.69 0.92,0.92 0 0 1 0.25,-0.67 0.92,0.92 0 0 1 1.3,0 1,1 0 0 1 0.24,0.67 1,1 0 0 1 -0.24,0.69 0.91,0.91 0 0 1 -0.64,0.27 z m 8.23,9.8 h -1.21 v -0.88 0 a 1.86,1.86 0 0 1 -0.21,0.28 2.14,2.14 0 0 1 -0.42,0.37 3.54,3.54 0 0 1 -0.62,0.3 2.44,2.44 0 0 1 -0.8,0.13 3.09,3.09 0 0 1 -1,-0.15 1.86,1.86 0 0 1 -0.72,-0.51 2.5,2.5 0 0 1 -0.45,-0.89 5.22,5.22 0 0 1 -0.16,-1.36 V 5.15 h 1.34 v 5.08 a 2.34,2.34 0 0 0 0.32,1.41 1.19,1.19 0 0 0 1,0.42 1.68,1.68 0 0 0 1,-0.29 2.85,2.85 0 0 0 0.63,-0.57 v -6 h 1.33 z m 6.19,0 V 8 a 2.6,2.6 0 0 0 -0.28,-1.4 1,1 0 0 0 -0.9,-0.43 1.49,1.49 0 0 0 -0.59,0.09 1.51,1.51 0 0 0 -0.45,0.2 2.17,2.17 0 0 0 -0.29,0.24 1.55,1.55 0 0 0 -0.24,0.27 V 13 h -1.34 V 5.15 h 1.22 V 6 6 c 0.06,-0.08 0.14,-0.19 0.25,-0.32 a 2.3,2.3 0 0 1 0.41,-0.36 2.62,2.62 0 0 1 0.58,-0.29 2.08,2.08 0 0 1 0.74,-0.11 2,2 0 0 1 1.91,1 1.73,1.73 0 0 1 0.31,-0.35 2.24,2.24 0 0 1 0.46,-0.35 2.55,2.55 0 0 1 0.59,-0.25 2.26,2.26 0 0 1 0.73,-0.1 c 1.6,0 2.4,0.93 2.4,2.8 V 13 h -1.33 V 8 a 2.21,2.21 0 0 0 -0.35,-1.4 1.24,1.24 0 0 0 -1,-0.43 1.54,1.54 0 0 0 -0.93,0.27 3.54,3.54 0 0 0 -0.58,0.52 1.1,1.1 0 0 0 0.05,0.39 1.3,1.3 0 0 1 0,0.44 V 13 Z M 58.86,22.83 h -1.62 v 6.83 H 55.91 V 22.83 H 55 v -0.89 l 1,-0.18 v -1.58 a 3,3 0 0 1 0.18,-1.11 2.05,2.05 0 0 1 0.48,-0.75 1.71,1.71 0 0 1 0.69,-0.43 2.38,2.38 0 0 1 0.84,-0.13 2,2 0 0 1 0.72,0.11 2.87,2.87 0 0 1 0.4,0.18 L 59,19.16 a 1,1 0 0 0 -0.28,-0.14 1,1 0 0 0 -0.45,-0.08 0.87,0.87 0 0 0 -0.72,0.3 1.77,1.77 0 0 0 -0.25,1.08 v 1.42 H 59 Z m 6.84,6.83 h -1.22 v -0.89 0 a 1.94,1.94 0 0 1 -0.21,0.29 3.62,3.62 0 0 1 -0.42,0.36 2.37,2.37 0 0 1 -0.62,0.3 2.46,2.46 0 0 1 -0.81,0.14 3,3 0 0 1 -0.94,-0.16 1.74,1.74 0 0 1 -0.72,-0.5 2.19,2.19 0 0 1 -0.45,-0.9 4.82,4.82 0 0 1 -0.16,-1.36 v -5.2 h 1.34 v 5.08 a 2.34,2.34 0 0 0 0.32,1.41 1.19,1.19 0 0 0 1,0.42 1.55,1.55 0 0 0 1,-0.29 3.72,3.72 0 0 0 0.63,-0.56 v -6.06 h 1.33 z M 62.43,19.47 a 0.88,0.88 0 0 1 -0.23,0.61 0.83,0.83 0 0 1 -0.56,0.23 0.79,0.79 0 0 1 -0.56,-0.23 0.83,0.83 0 0 1 -0.23,-0.61 0.81,0.81 0 0 1 0.23,-0.61 0.75,0.75 0 0 1 0.56,-0.23 0.79,0.79 0 0 1 0.56,0.23 0.81,0.81 0 0 1 0.23,0.61 z m 2.53,0 a 0.88,0.88 0 0 1 -0.23,0.61 0.81,0.81 0 0 1 -1.12,0 0.88,0.88 0 0 1 -0.23,-0.61 0.81,0.81 0 0 1 0.23,-0.61 0.79,0.79 0 0 1 1.12,0 0.83,0.83 0 0 1 0.26,0.61 z m 6.25,3.44 A 0.6,0.6 0 0 0 71,22.83 a 1.71,1.71 0 0 0 -1.42,0.28 1.93,1.93 0 0 0 -0.51,0.74 v 5.81 h -1.33 v -7.9 H 69 v 1.07 0 a 2.35,2.35 0 0 1 0.22,-0.45 1.29,1.29 0 0 1 0.33,-0.4 1.6,1.6 0 0 1 0.45,-0.32 1.8,1.8 0 0 1 0.65,-0.1 1.44,1.44 0 0 1 0.46,0.05 l 0.27,0.08 z M 87,18.28 84.25,29.66 H 83 l -1.72,-7.14 c -0.13,-0.5 -0.23,-1 -0.32,-1.39 a 8.62,8.62 0 0 1 -0.15,-1 v 0 a 4.9,4.9 0 0 1 -0.13,1 c -0.09,0.42 -0.19,0.87 -0.31,1.36 l -1.82,7.17 h -1.3 L 74.55,18.3 h 1.53 l 1.42,6.92 c 0.11,0.52 0.21,1 0.29,1.48 a 9.37,9.37 0 0 1 0.14,1.08 v 0 a 8.12,8.12 0 0 1 0.17,-1.1 l 0.34,-1.5 1.68,-6.88 h 1.37 l 1.64,6.92 c 0.12,0.52 0.23,1 0.33,1.48 a 6.39,6.39 0 0 1 0.16,1.08 v 0 a 8.53,8.53 0 0 1 0.22,-1.12 c 0.08,-0.49 0.18,-1 0.29,-1.52 l 1.43,-6.85 z m 2.59,11.38 h -1.34 v -7.9 h 1.33 z M 88.93,19.85 A 1,1 0 0 1 88.27,19.59 1,1 0 0 1 88,18.9 a 1,1 0 0 1 0.24,-0.68 0.87,0.87 0 0 1 0.66,-0.26 0.82,0.82 0 0 1 0.64,0.26 0.94,0.94 0 0 1 0.25,0.68 1,1 0 0 1 -0.25,0.69 0.88,0.88 0 0 1 -0.64,0.24 z m 6.17,3.08 a 0.6,0.6 0 0 0 -0.21,-0.08 1.74,1.74 0 0 0 -1.43,0.28 2,2 0 0 0 -0.5,0.74 v 5.79 h -1.34 v -7.9 h 1.22 v 1.07 0 a 3.1,3.1 0 0 1 0.21,-0.45 1.6,1.6 0 0 1 0.33,-0.4 1.47,1.47 0 0 1 0.47,-0.27 1.61,1.61 0 0 1 0.65,-0.1 1.63,1.63 0 0 1 0.49,0.05 l 0.28,0.08 z m 4.69,-0.08 h -1.74 v 4.37 a 2.1,2.1 0 0 0 0.22,1.15 0.83,0.83 0 0 0 0.72,0.29 1.75,1.75 0 0 0 0.51,-0.08 l 0.31,-0.15 0.19,1.07 a 2.42,2.42 0 0 1 -0.39,0.21 2.18,2.18 0 0 1 -0.84,0.14 2,2 0 0 1 -1.53,-0.57 2.83,2.83 0 0 1 -0.51,-1.89 v -4.56 h -1 v -0.89 l 1,-0.2 0.15,-2.21 h 1.18 v 2.21 H 100 Z m 4.92,0.51 a 3.72,3.72 0 0 0 -0.48,-0.41 1.45,1.45 0 0 0 -0.9,-0.25 1.18,1.18 0 0 0 -0.81,0.24 0.81,0.81 0 0 0 -0.28,0.6 1.11,1.11 0 0 0 0.26,0.73 3.61,3.61 0 0 0 0.78,0.62 l 0.49,0.29 a 4.76,4.76 0 0 1 1.27,1 2.32,2.32 0 0 1 -0.19,3 2.56,2.56 0 0 1 -1.87,0.65 4,4 0 0 1 -0.84,-0.1 c -0.21,-0.07 -0.43,-0.14 -0.63,-0.23 a 2.66,2.66 0 0 1 -0.45,-0.29 c -0.12,-0.11 -0.22,-0.2 -0.3,-0.29 l 0.64,-1.05 0.24,0.23 0.34,0.25 a 2.53,2.53 0 0 0 0.44,0.21 2.27,2.27 0 0 0 0.58,0.1 1.38,1.38 0 0 0 0.9,-0.26 0.82,0.82 0 0 0 0.32,-0.64 1.57,1.57 0 0 0 -0.08,-0.49 1,1 0 0 0 -0.22,-0.37 2.11,2.11 0 0 0 -0.36,-0.31 l -0.49,-0.33 -0.5,-0.31 a 4.84,4.84 0 0 1 -1.16,-1 2.12,2.12 0 0 1 -0.41,-1.35 1.88,1.88 0 0 1 0.18,-0.81 1.69,1.69 0 0 1 0.48,-0.64 2.07,2.07 0 0 1 0.73,-0.43 2.31,2.31 0 0 1 0.9,-0.16 2.63,2.63 0 0 1 0.79,0.09 2.35,2.35 0 0 1 0.57,0.23 2.14,2.14 0 0 1 0.39,0.28 l 0.26,0.24 z m 6.75,-0.07 -0.16,-0.15 a 2.34,2.34 0 0 0 -0.27,-0.2 1.92,1.92 0 0 0 -0.39,-0.17 1.58,1.58 0 0 0 -0.53,-0.07 2,2 0 0 0 -0.8,0.15 1.67,1.67 0 0 0 -0.64,0.51 2.72,2.72 0 0 0 -0.43,0.89 5,5 0 0 0 -0.16,1.34 6.66,6.66 0 0 0 0.14,1.47 3.23,3.23 0 0 0 0.39,0.94 1.48,1.48 0 0 0 0.6,0.51 2,2 0 0 0 0.79,0.15 1.68,1.68 0 0 0 0.93,-0.21 4,4 0 0 0 0.46,-0.35 l 0.54,0.92 -0.24,0.24 a 1.56,1.56 0 0 1 -0.4,0.27 3.1,3.1 0 0 1 -0.6,0.23 3.75,3.75 0 0 1 -0.82,0.09 3.66,3.66 0 0 1 -1.23,-0.22 2.45,2.45 0 0 1 -1,-0.71 3.35,3.35 0 0 1 -0.64,-1.26 6.46,6.46 0 0 1 -0.25,-2 5.19,5.19 0 0 1 0.3,-1.92 3.71,3.71 0 0 1 0.77,-1.28 2.91,2.91 0 0 1 1.06,-0.71 3.43,3.43 0 0 1 1.18,-0.22 3,3 0 0 1 0.78,0.08 3.1,3.1 0 0 1 0.58,0.21 1.66,1.66 0 0 1 0.39,0.26 l 0.26,0.24 z m 6.27,6.37 v -5.11 a 2.34,2.34 0 0 0 -0.34,-1.44 1.21,1.21 0 0 0 -1,-0.43 1.68,1.68 0 0 0 -1,0.29 3.1,3.1 0 0 0 -0.62,0.58 v 6.11 h -1.33 V 18 l 1.33,-0.14 v 4.69 0 a 1.39,1.39 0 0 1 0.21,-0.27 1.7,1.7 0 0 1 0.38,-0.33 2.86,2.86 0 0 1 1.47,-0.42 2.08,2.08 0 0 1 1.64,0.68 3.24,3.24 0 0 1 0.61,2.24 v 5.21 z m 2.86,-2 a 2.4,2.4 0 0 1 0.26,-1.15 2.13,2.13 0 0 1 0.71,-0.75 2.9,2.9 0 0 1 1,-0.41 6,6 0 0 1 1.27,-0.12 h 0.41 v -0.76 a 2,2 0 0 0 -0.35,-1.38 1.25,1.25 0 0 0 -1,-0.38 1.76,1.76 0 0 0 -1,0.25 4.61,4.61 0 0 0 -0.63,0.46 l -0.56,-0.89 a 3.17,3.17 0 0 1 0.34,-0.3 2.6,2.6 0 0 1 0.5,-0.31 3.27,3.27 0 0 1 1.53,-0.35 2.38,2.38 0 0 1 1.84,0.68 3.13,3.13 0 0 1 0.63,2.17 V 29 a 5,5 0 0 0 0.07,0.65 h -1.27 v -0.85 0 a 1.38,1.38 0 0 1 -0.2,0.33 1.56,1.56 0 0 1 -0.33,0.35 2.2,2.2 0 0 1 -0.47,0.27 1.84,1.84 0 0 1 -0.66,0.12 2.12,2.12 0 0 1 -0.83,-0.17 2,2 0 0 1 -0.68,-0.46 2.13,2.13 0 0 1 -0.44,-0.7 2.39,2.39 0 0 1 -0.15,-0.88 z m 2.41,1 a 1.62,1.62 0 0 0 0.49,-0.08 1.65,1.65 0 0 0 0.37,-0.2 1.24,1.24 0 0 0 0.26,-0.25 l 0.19,-0.24 v -1.71 h -0.42 a 2.94,2.94 0 0 0 -1.45,0.33 1,1 0 0 0 -0.5,0.95 1.4,1.4 0 0 0 0.28,0.92 1,1 0 0 0 0.78,0.28 z m 8,-5.87 h -1.61 v 6.87 H 128 v -6.83 h -1 v -0.89 l 1,-0.18 v -1.58 a 3,3 0 0 1 0.18,-1.11 2.32,2.32 0 0 1 0.47,-0.75 1.71,1.71 0 0 1 0.7,-0.43 2.36,2.36 0 0 1 0.83,-0.13 2,2 0 0 1 0.73,0.11 2.76,2.76 0 0 1 0.39,0.18 l -0.3,1.11 a 1,1 0 0 0 -0.28,-0.14 1,1 0 0 0 -0.44,-0.08 0.87,0.87 0 0 0 -0.72,0.3 1.7,1.7 0 0 0 -0.25,1.08 v 1.42 h 1.78 z m 4.69,0 h -1.79 v 4.37 a 2.2,2.2 0 0 0 0.22,1.15 0.84,0.84 0 0 0 0.72,0.3 1.75,1.75 0 0 0 0.51,-0.08 l 0.31,-0.15 0.19,1.07 -0.4,0.21 a 2.18,2.18 0 0 1 -0.84,0.14 2,2 0 0 1 -1.53,-0.57 2.83,2.83 0 0 1 -0.51,-1.89 v -4.51 h -0.95 v -0.89 l 0.95,-0.2 0.15,-2.21 h 1.18 v 2.21 h 1.9 z M 61.06,46.23 h -1.22 v -0.89 0 a 1.42,1.42 0 0 1 -0.21,0.29 1.82,1.82 0 0 1 -0.42,0.36 2.77,2.77 0 0 1 -0.62,0.31 2.45,2.45 0 0 1 -0.81,0.13 2.73,2.73 0 0 1 -0.94,-0.16 1.74,1.74 0 0 1 -0.72,-0.5 2.34,2.34 0 0 1 -0.45,-0.89 4.82,4.82 0 0 1 -0.16,-1.36 v -5.19 h 1.33 v 5.09 a 2.34,2.34 0 0 0 0.33,1.41 1.19,1.19 0 0 0 1,0.42 1.68,1.68 0 0 0 1,-0.29 3.42,3.42 0 0 0 0.63,-0.57 v -6.06 h 1.33 z m 6.35,0 v -5.08 a 2.4,2.4 0 0 0 -0.33,-1.44 1.22,1.22 0 0 0 -1,-0.44 1.56,1.56 0 0 0 -1,0.3 4.27,4.27 0 0 0 -0.63,0.57 v 6.09 H 63.1 v -7.9 h 1.22 v 0.89 0 a 1.58,1.58 0 0 1 0.22,-0.29 2.36,2.36 0 0 1 0.42,-0.36 3.64,3.64 0 0 1 0.63,-0.3 2.08,2.08 0 0 1 0.82,-0.13 2.82,2.82 0 0 1 1,0.15 1.71,1.71 0 0 1 0.72,0.5 2.48,2.48 0 0 1 0.46,0.9 4.79,4.79 0 0 1 0.17,1.36 v 5.18 z m 3,-3.83 a 5.45,5.45 0 0 1 0.32,-2 3.63,3.63 0 0 1 0.8,-1.3 2.8,2.8 0 0 1 1.12,-0.7 3.8,3.8 0 0 1 1.25,-0.2 3.64,3.64 0 0 1 0.66,0 2.44,2.44 0 0 1 0.46,0.14 V 34.6 l 1.33,-0.15 V 46.23 H 75.1 v -0.84 0 a 1.59,1.59 0 0 1 -0.18,0.27 1.71,1.71 0 0 1 -0.36,0.35 2.39,2.39 0 0 1 -0.57,0.3 2.79,2.79 0 0 1 -0.81,0.12 2.55,2.55 0 0 1 -1.06,-0.22 2.35,2.35 0 0 1 -0.88,-0.71 3.45,3.45 0 0 1 -0.6,-1.25 6.47,6.47 0 0 1 -0.27,-1.85 z m 3.13,2.85 a 1.77,1.77 0 0 0 0.56,-0.09 1.64,1.64 0 0 0 0.69,-0.5 1.37,1.37 0 0 0 0.19,-0.23 V 39.6 a 1.62,1.62 0 0 0 -0.42,-0.2 1.74,1.74 0 0 0 -0.6,-0.08 2.12,2.12 0 0 0 -0.86,0.16 1.51,1.51 0 0 0 -0.7,0.52 2.48,2.48 0 0 0 -0.47,0.93 4.85,4.85 0 0 0 -0.17,1.42 5.27,5.27 0 0 0 0.14,1.37 2.61,2.61 0 0 0 0.38,0.89 1.47,1.47 0 0 0 1.22,0.64 z m 12.11,-4.83 3.85,5.81 h -1.8 l -3.29,-5.16 h -0.85 v 5.16 H 82.12 V 34.88 h 1.44 v 5 h 0.87 l 3.17,-5 h 1.6 z m 6.21,4 a 1.18,1.18 0 0 0 0.14,0.69 0.59,0.59 0 0 0 0.48,0.2 h 0.31 l 0.19,-0.07 0.11,1 -0.36,0.13 A 2.81,2.81 0 0 1 92.02,46.45 1.56,1.56 0 0 1 90.93,46 2,2 0 0 1 90.52,44.53 v -9.9 l 1.34,-0.15 z m 3.76,1.84 h -1.37 v -7.9 h 1.33 z M 95,36.46 a 0.86,0.86 0 0 1 -0.66,-0.27 1,1 0 0 1 -0.25,-0.69 0.9,0.9 0 0 1 1.55,-0.67 1,1 0 0 1 0.25,0.67 1,1 0 0 1 -0.25,0.69 0.86,0.86 0 0 1 -0.68,0.24 z m 6.84,9.8 v -5.11 a 2.6,2.6 0 0 0 -0.28,-1.4 1,1 0 0 0 -0.9,-0.43 2,2 0 0 0 -0.59,0.08 1.85,1.85 0 0 0 -0.45,0.21 1.49,1.49 0 0 0 -0.35,0.27 l -0.24,0.26 v 6.09 h -1.4 v -7.9 h 1.21 v 0.89 0 a 1.91,1.91 0 0 1 0.24,-0.32 2,2 0 0 1 0.41,-0.36 2.1,2.1 0 0 1 0.58,-0.29 2.08,2.08 0 0 1 0.74,-0.11 2,2 0 0 1 1.91,1 2.1,2.1 0 0 1 0.31,-0.35 1.93,1.93 0 0 1 0.46,-0.35 2.63,2.63 0 0 1 0.6,-0.25 2.2,2.2 0 0 1 0.72,-0.1 q 2.4,0 2.4,2.79 v 5.3 h -1.33 v -5.03 a 2.21,2.21 0 0 0 -0.35,-1.4 1.21,1.21 0 0 0 -1,-0.43 1.54,1.54 0 0 0 -0.93,0.27 3.54,3.54 0 0 0 -0.58,0.52 v 6.12 z m 7,-2 a 2.16,2.16 0 0 1 1,-1.91 3.35,3.35 0 0 1 1,-0.41 6,6 0 0 1 1.27,-0.12 h 0.41 v -0.76 a 2,2 0 0 0 -0.35,-1.38 1.25,1.25 0 0 0 -1,-0.38 1.69,1.69 0 0 0 -1,0.26 4.53,4.53 0 0 0 -0.63,0.45 l -0.56,-0.89 a 3.17,3.17 0 0 1 0.34,-0.3 3.76,3.76 0 0 1 0.5,-0.31 2.75,2.75 0 0 1 0.68,-0.24 3,3 0 0 1 0.85,-0.1 2.4,2.4 0 0 1 1.85,0.67 3.12,3.12 0 0 1 0.62,2.17 v 4.61 a 1.46,1.46 0 0 0 0.07,0.65 h -1.27 v -0.87 0 a 1.68,1.68 0 0 1 -0.2,0.34 1.52,1.52 0 0 1 -0.33,0.34 2,2 0 0 1 -0.47,0.28 2.12,2.12 0 0 1 -0.66,0.11 2.15,2.15 0 0 1 -0.83,-0.16 2,2 0 0 1 -0.68,-0.47 2.19,2.19 0 0 1 -0.44,-0.69 2.28,2.28 0 0 1 -0.2,-0.92 z m 2.39,1.06 a 1.36,1.36 0 0 0 0.49,-0.08 1.62,1.62 0 0 0 0.37,-0.19 2.23,2.23 0 0 0 0.27,-0.26 l 0.18,-0.24 v -1.77 h -0.42 a 3.18,3.18 0 0 0 -1.45,0.33 1,1 0 0 0 -0.49,1 1.36,1.36 0 0 0 0.27,0.91 1,1 0 0 0 0.75,0.27 z m 8,-5.36 a 3.64,3.64 0 0 0 -0.48,-0.4 1.42,1.42 0 0 0 -0.91,-0.26 1.06,1.06 0 0 0 -0.8,0.25 0.74,0.74 0 0 0 -0.28,0.59 1,1 0 0 0 0.25,0.73 3.61,3.61 0 0 0 0.78,0.62 l 0.5,0.3 a 4.35,4.35 0 0 1 1.26,1 2.14,2.14 0 0 1 0.47,1.42 2.19,2.19 0 0 1 -0.65,1.58 2.61,2.61 0 0 1 -1.87,0.64 3.39,3.39 0 0 1 -0.84,-0.1 4.88,4.88 0 0 1 -0.64,-0.23 2.66,2.66 0 0 1 -0.45,-0.29 3.83,3.83 0 0 1 -0.29,-0.28 l 0.64,-1.06 0.24,0.23 a 2.1,2.1 0 0 0 0.33,0.26 2.28,2.28 0 0 0 0.45,0.2 1.84,1.84 0 0 0 0.57,0.09 1.4,1.4 0 0 0 0.91,-0.27 0.81,0.81 0 0 0 0.31,-0.64 1.61,1.61 0 0 0 -0.07,-0.49 1.25,1.25 0 0 0 -0.22,-0.37 1.85,1.85 0 0 0 -0.37,-0.31 l -0.49,-0.33 -0.49,-0.31 a 4.84,4.84 0 0 1 -1.16,-1 2.12,2.12 0 0 1 -0.42,-1.35 1.75,1.75 0 0 1 0.17,-0.82 2,2 0 0 1 0.48,-0.64 2.39,2.39 0 0 1 0.74,-0.43 2.73,2.73 0 0 1 0.89,-0.15 2.63,2.63 0 0 1 0.79,0.09 2,2 0 0 1 0.57,0.23 1.8,1.8 0 0 1 0.4,0.28 1.88,1.88 0 0 1 0.25,0.24 z m 6.79,-0.1 -0.15,-0.14 a 1.31,1.31 0 0 0 -0.28,-0.2 1.36,1.36 0 0 0 -0.39,-0.17 1.59,1.59 0 0 0 -0.53,-0.08 1.85,1.85 0 0 0 -0.8,0.16 1.64,1.64 0 0 0 -0.64,0.5 2.67,2.67 0 0 0 -0.43,0.9 5.06,5.06 0 0 0 -0.15,1.34 6.51,6.51 0 0 0 0.14,1.46 2.68,2.68 0 0 0 0.39,1 1.56,1.56 0 0 0 0.6,0.51 2.09,2.09 0 0 0 0.78,0.16 1.78,1.78 0 0 0 0.93,-0.22 5.3,5.3 0 0 0 0.45,-0.34 l 0.54,0.92 -0.24,0.24 a 2.8,2.8 0 0 1 -0.4,0.27 2.54,2.54 0 0 1 -0.6,0.22 3.74,3.74 0 0 1 -2,-0.12 2.55,2.55 0 0 1 -1,-0.71 3.68,3.68 0 0 1 -0.68,-1.28 6.77,6.77 0 0 1 -0.24,-2 5.72,5.72 0 0 1 0.29,-1.93 3.47,3.47 0 0 1 0.78,-1.27 2.72,2.72 0 0 1 1.06,-0.71 3.12,3.12 0 0 1 1.17,-0.22 3,3 0 0 1 0.79,0.08 2.27,2.27 0 0 1 0.57,0.2 1.76,1.76 0 0 1 0.4,0.27 1.88,1.88 0 0 1 0.25,0.24 z m 6.27,6.37 v -5.08 a 2.34,2.34 0 0 0 -0.34,-1.44 1.18,1.18 0 0 0 -1,-0.44 1.56,1.56 0 0 0 -1,0.3 4.27,4.27 0 0 0 -0.63,0.57 v 6.09 H 128 V 34.6 l 1.33,-0.15 v 4.69 0 a 2.56,2.56 0 0 1 0.2,-0.26 1.75,1.75 0 0 1 0.39,-0.33 2.46,2.46 0 0 1 1.43,-0.41 2.1,2.1 0 0 1 1.65,0.67 3.36,3.36 0 0 1 0.6,2.24 v 5.18 z m 8.85,0 h -1.24 v -0.89 0 a 1.42,1.42 0 0 1 -0.21,0.29 1.82,1.82 0 0 1 -0.42,0.36 2.77,2.77 0 0 1 -0.62,0.31 2.44,2.44 0 0 1 -0.8,0.13 2.79,2.79 0 0 1 -0.95,-0.16 1.62,1.62 0 0 1 -0.71,-0.5 2.52,2.52 0 0 1 -0.46,-0.89 5.25,5.25 0 0 1 -0.15,-1.36 v -5.19 h 1.33 v 5.09 a 2.41,2.41 0 0 0 0.32,1.41 1.2,1.2 0 0 0 1,0.42 1.68,1.68 0 0 0 1,-0.29 3.36,3.36 0 0 0 0.62,-0.57 v -6.06 h 1.33 z m 5.42,-6.81 h -1.76 v 4.38 a 2.15,2.15 0 0 0 0.21,1.14 0.88,0.88 0 0 0 0.73,0.31 1.48,1.48 0 0 0 0.51,-0.09 l 0.31,-0.14 0.18,1.06 a 1.47,1.47 0 0 1 -0.39,0.21 2.18,2.18 0 0 1 -0.84,0.14 2,2 0 0 1 -1.52,-0.57 2.82,2.82 0 0 1 -0.51,-1.88 v -4.56 h -1 v -0.89 l 1,-0.2 0.15,-2.2 h 1.18 v 2.2 h 1.89 z m 5.92,-0.23 -3.19,5.87 h 3.41 l -0.12,1.13 h -5 v -0.85 l 3.29,-5.93 h -3.11 v -1.08 h 4.74 z"
     transform="translate(0.01,-0.66)"
     id="path1288" /></g>
</g>
</svg>
