<?xml version="1.0" encoding="UTF-8" standalone="no"?>
<svg
   width="887.57013"
   height="326.0062"
   viewBox="0 0 887.57013 326.0062"
   version="1.1"
   xml:space="preserve"
   style="clip-rule:evenodd;fill-rule:evenodd;stroke-linejoin:round;stroke-miterlimit:2"
   id="svg32"
   sodipodi:docname="logo-syself.svg"
   inkscape:version="1.1.2 (1:1.1+202202050950+0a00cf5339)"
   xmlns:inkscape="http://www.inkscape.org/namespaces/inkscape"
   xmlns:sodipodi="http://sodipodi.sourceforge.net/DTD/sodipodi-0.dtd"
   xmlns="http://www.w3.org/2000/svg"
   xmlns:svg="http://www.w3.org/2000/svg"
   xmlns:serif="http://www.serif.com/"><sodipodi:namedview
   id="namedview34"
   pagecolor="#505050"
   bordercolor="#ffffff"
   borderopacity="1"
   inkscape:pageshadow="0"
   inkscape:pageopacity="0"
   inkscape:pagecheckerboard="1"
   showgrid="false"
   fit-margin-top="0"
   fit-margin-left="0"
   fit-margin-right="0"
   fit-margin-bottom="0"
   inkscape:zoom="0.4921875"
   inkscape:cx="442.92063"
   inkscape:cy="171.68254"
   inkscape:window-width="1920"
   inkscape:window-height="1056"
   inkscape:window-x="0"
   inkscape:window-y="0"
   inkscape:window-maximized="1"
   inkscape:current-layer="svg32" />
    <g
   id="Layer-1"
   serif:id="Layer 1"
   transform="translate(-196.43088,-213.2039)">
        <g
   transform="matrix(925.458,22.8508,22.8508,-925.458,152.146,365.824)"
   id="g4">
            <path
   d="M 0.082,0.101 C 0.072,0.095 0.064,0.086 0.058,0.076 0.052,0.066 0.05,0.054 0.05,0.041 0.05,0.029 0.053,0.019 0.057,0.012 0.061,0.004 0.068,-0.003 0.078,-0.008 0.087,-0.013 0.1,-0.018 0.116,-0.021 0.13,-0.024 0.14,-0.028 0.145,-0.032 0.151,-0.036 0.154,-0.041 0.154,-0.048 0.154,-0.056 0.151,-0.062 0.145,-0.066 0.139,-0.071 0.131,-0.073 0.119,-0.073 0.098,-0.074 0.079,-0.067 0.061,-0.053 L 0.05,-0.087 C 0.058,-0.095 0.068,-0.101 0.081,-0.105 0.093,-0.109 0.106,-0.11 0.12,-0.11 c 0.023,0 0.041,0.007 0.054,0.019 0.013,0.012 0.019,0.028 0.018,0.048 0,0.017 -0.006,0.03 -0.016,0.039 C 0.166,0.006 0.149,0.013 0.126,0.019 0.116,0.021 0.108,0.023 0.103,0.025 0.098,0.028 0.094,0.031 0.091,0.034 0.089,0.037 0.088,0.041 0.088,0.046 0.088,0.054 0.09,0.061 0.096,0.066 0.102,0.071 0.11,0.073 0.12,0.073 0.139,0.074 0.156,0.067 0.173,0.053 L 0.184,0.087 C 0.177,0.094 0.168,0.1 0.156,0.104 0.144,0.109 0.132,0.11 0.119,0.11 0.105,0.11 0.093,0.107 0.082,0.101 Z"
   style="fill:url(#_Linear1);fill-rule:nonzero"
   id="path2" />
        </g>
        <g
   transform="matrix(925.458,22.8508,22.8508,-925.458,150.765,421.756)"
   id="g8">
            <path
   d="M 0.34,0.111 0.309,0.011 0.274,0.11 0.234,0.109 0.29,-0.035 0.287,-0.045 C 0.284,-0.054 0.279,-0.061 0.273,-0.066 0.268,-0.07 0.259,-0.074 0.247,-0.078 l 0.01,-0.034 c 0.016,0.003 0.029,0.009 0.04,0.018 0.01,0.01 0.019,0.024 0.026,0.044 l 0.054,0.162 z"
   style="fill:url(#_Linear2);fill-rule:nonzero"
   id="path6" />
        </g>
        <g
   transform="matrix(548.832,0,0,-548.832,535.169,376.207)"
   id="g12">
            <path
   d="M 0.059,0.297 C 0.027,0.297 0,0.27 0,0.237 v -0.474 c 0,-0.033 0.027,-0.06 0.059,-0.06 H 0.941 C 0.973,-0.297 1,-0.27 1,-0.237 V 0.237 C 1,0.27 0.973,0.297 0.941,0.297 Z M 0.792,0.072 h 0.039 v 0.016 c 0,0.032 0.006,0.058 0.02,0.076 0.013,0.018 0.032,0.027 0.057,0.027 0.015,0 0.026,-0.003 0.035,-0.007 V 0.124 C 0.936,0.126 0.929,0.127 0.923,0.127 0.914,0.127 0.906,0.124 0.901,0.118 0.895,0.111 0.892,0.1 0.892,0.086 V 0.072 H 0.935 V 0.014 H 0.892 V -0.187 H 0.831 V 0.014 H 0.792 Z M 0.635,0.188 H 0.697 V -0.187 H 0.635 Z M 0.363,-0.155 c -0.02,0.024 -0.03,0.057 -0.03,0.098 0,0.026 0.004,0.05 0.013,0.07 0.008,0.021 0.02,0.037 0.036,0.048 0.015,0.011 0.033,0.017 0.052,0.017 0.029,0 0.052,-0.012 0.069,-0.035 C 0.52,0.019 0.529,-0.013 0.529,-0.053 V -0.064 H 0.392 c 0.001,-0.024 0.007,-0.041 0.015,-0.053 0.009,-0.011 0.023,-0.016 0.04,-0.016 0.011,0 0.022,0.002 0.032,0.007 0.011,0.004 0.021,0.01 0.03,0.019 L 0.525,-0.159 C 0.515,-0.169 0.503,-0.177 0.488,-0.182 0.474,-0.188 0.459,-0.191 0.445,-0.191 c -0.035,0 -0.063,0.012 -0.082,0.036 z M 0.174,-0.13 c 0.006,0.004 0.009,0.01 0.009,0.018 0,0.006 -0.002,0.011 -0.006,0.015 -0.004,0.004 -0.012,0.007 -0.022,0.01 l -0.034,0.009 c -0.019,0.006 -0.034,0.014 -0.043,0.026 -0.01,0.012 -0.015,0.028 -0.015,0.048 0,0.016 0.004,0.03 0.012,0.042 0.007,0.013 0.018,0.023 0.031,0.03 0.013,0.007 0.029,0.01 0.046,0.01 0.015,0 0.029,-0.003 0.043,-0.008 C 0.209,0.064 0.222,0.056 0.233,0.046 L 0.216,-0.005 C 0.205,0.004 0.195,0.011 0.184,0.016 0.172,0.02 0.162,0.023 0.152,0.023 0.141,0.023 0.134,0.02 0.128,0.016 0.122,0.012 0.119,0.006 0.119,-0.002 c 0,-0.006 0.002,-0.011 0.005,-0.014 0.004,-0.004 0.01,-0.007 0.019,-0.009 l 0.034,-0.01 c 0.021,-0.006 0.037,-0.015 0.046,-0.027 0.01,-0.013 0.014,-0.029 0.014,-0.049 0,-0.025 -0.007,-0.044 -0.023,-0.058 -0.016,-0.014 -0.037,-0.022 -0.065,-0.022 -0.039,0 -0.07,0.011 -0.092,0.032 l 0.016,0.053 c 0.011,-0.009 0.023,-0.017 0.036,-0.022 0.013,-0.005 0.027,-0.008 0.041,-0.008 0.01,0 0.019,0.002 0.024,0.006 z M 0.408,0.011 C 0.4,0.003 0.396,-0.009 0.394,-0.026 H 0.476 C 0.472,0.008 0.459,0.024 0.436,0.024 0.424,0.024 0.415,0.02 0.408,0.011 Z"
   style="fill:url(#_Linear3);fill-rule:nonzero"
   id="path10" />
        </g>
    </g>
    <defs
   id="defs30">
        <linearGradient
   id="_Linear1"
   x1="0"
   y1="0"
   x2="1"
   y2="0"
   gradientUnits="userSpaceOnUse"
   gradientTransform="matrix(1,0,0,-1,0,1.49683e-5)"><stop
     offset="0"
     style="stop-color:rgb(227,120,148);stop-opacity:1"
     id="stop15" /><stop
     offset="1"
     style="stop-color:rgb(212,135,68);stop-opacity:1"
     id="stop17" /></linearGradient>
        <linearGradient
   id="_Linear2"
   x1="0"
   y1="0"
   x2="1"
   y2="0"
   gradientUnits="userSpaceOnUse"
   gradientTransform="scale(1,-1)"><stop
     offset="0"
     style="stop-color:rgb(227,120,148);stop-opacity:1"
     id="stop20" /><stop
     offset="1"
     style="stop-color:rgb(212,135,68);stop-opacity:1"
     id="stop22" /></linearGradient>
        <linearGradient
   id="_Linear3"
   x1="0"
   y1="0"
   x2="1"
   y2="0"
   gradientUnits="userSpaceOnUse"
   gradientTransform="matrix(1,0,0,-1,0,-2.89134e-6)"><stop
     offset="0"
     style="stop-color:rgb(227,120,148);stop-opacity:1"
     id="stop25" /><stop
     offset="1"
     style="stop-color:rgb(212,135,68);stop-opacity:1"
     id="stop27" /></linearGradient>
    </defs>
</svg>
