<?xml version="1.0" encoding="UTF-8" standalone="no"?>
<!-- Created with Inkscape (http://www.inkscape.org/) -->

<svg
   width="87.833199mm"
   height="77.916618mm"
   viewBox="0 0 87.8332 77.916618"
   version="1.1"
   id="svg1610"
   inkscape:version="1.1 (c68e22c387, 2021-05-23)"
   sodipodi:docname="logo-gaiax-inverse.svg"
   xmlns:inkscape="http://www.inkscape.org/namespaces/inkscape"
   xmlns:sodipodi="http://sodipodi.sourceforge.net/DTD/sodipodi-0.dtd"
   xmlns="http://www.w3.org/2000/svg"
   xmlns:svg="http://www.w3.org/2000/svg">
  <sodipodi:namedview
     id="namedview1612"
     pagecolor="#505050"
     bordercolor="#ffffff"
     borderopacity="1"
     inkscape:pageshadow="0"
     inkscape:pageopacity="0"
     inkscape:pagecheckerboard="1"
     inkscape:document-units="mm"
     showgrid="false"
     fit-margin-top="0"
     fit-margin-left="0"
     fit-margin-right="0"
     fit-margin-bottom="0"
     lock-margins="true"
     inkscape:showpageshadow="false"
     showborder="false"
     inkscape:zoom="0.70199214"
     inkscape:cx="141.73948"
     inkscape:cy="238.60666"
     inkscape:window-width="1680"
     inkscape:window-height="997"
     inkscape:window-x="1592"
     inkscape:window-y="-8"
     inkscape:window-maximized="1"
     inkscape:current-layer="layer1" />
  <defs
     id="defs1607" />
  <g
     inkscape:label="Ebene 1"
     inkscape:groupmode="layer"
     id="layer1"
     transform="translate(-98.552944,-116.32595)">
    <path
       d="M 98.552944,194.24257 H 186.38614 V 116.32595 H 98.552944 Z"
       style="fill:#000094;fill-opacity:1;fill-rule:nonzero;stroke:none;stroke-width:0.352778"
       id="path61" />
    <g
       id="g87"
       transform="matrix(0.35277777,0,0,-0.35277777,141.45189,164.94385)">
      <path
         d="m 0,0 h -4.899 c -0.479,0 -0.883,-0.403 -0.883,-0.882 0,-0.504 0.396,-0.913 0.883,-0.913 H 0 c 0.504,0 0.884,0.391 0.884,0.913 C 0.884,-0.388 0.496,0 0,0"
         style="fill:#ffffff;fill-opacity:1;fill-rule:nonzero;stroke:none"
         id="path89" />
    </g>
    <g
       id="g91"
       transform="matrix(0.35277777,0,0,-0.35277777,150.60813,142.65997)">
      <path
         d="m 0,0 c -0.242,0 -0.485,0.092 -0.67,0.277 l -2.876,2.876 c -0.369,0.37 -0.369,0.969 0,1.339 0.37,0.369 0.969,0.369 1.339,0 L 0.67,1.616 C 1.039,1.246 1.039,0.646 0.67,0.277 0.485,0.092 0.242,0 0,0"
         style="fill:#ffffff;fill-opacity:1;fill-rule:nonzero;stroke:none"
         id="path93" />
    </g>
    <g
       id="g95"
       transform="matrix(0.35277777,0,0,-0.35277777,167.43972,142.65997)">
      <path
         d="m 0,0 c -0.242,0 -0.485,0.092 -0.67,0.277 -0.369,0.369 -0.369,0.969 0,1.339 l 2.877,2.876 c 0.37,0.369 0.969,0.369 1.339,0 0.369,-0.37 0.369,-0.969 0,-1.339 L 0.67,0.277 C 0.485,0.092 0.242,0 0,0"
         style="fill:#ffffff;fill-opacity:1;fill-rule:nonzero;stroke:none"
         id="path97" />
    </g>
    <g
       id="g99"
       transform="matrix(0.35277777,0,0,-0.35277777,149.5934,160.50633)">
      <path
         d="m 0,0 c -0.242,0 -0.485,0.092 -0.67,0.277 -0.369,0.369 -0.369,0.969 0,1.339 l 2.877,2.876 c 0.369,0.369 0.969,0.369 1.339,0 0.369,-0.369 0.369,-0.969 0,-1.339 L 0.67,0.277 C 0.485,0.092 0.242,0 0,0"
         style="fill:#ffffff;fill-opacity:1;fill-rule:nonzero;stroke:none"
         id="path101" />
    </g>
    <g
       id="g103"
       transform="matrix(0.35277777,0,0,-0.35277777,168.45448,160.50633)">
      <path
         d="m 0,0 c -0.242,0 -0.485,0.092 -0.67,0.277 l -2.876,2.876 c -0.369,0.37 -0.369,0.97 0,1.339 0.37,0.369 0.969,0.369 1.339,0 L 0.67,1.616 C 1.039,1.246 1.039,0.646 0.67,0.277 0.485,0.092 0.242,0 0,0"
         style="fill:#ffffff;fill-opacity:1;fill-rule:nonzero;stroke:none"
         id="path105" />
    </g>
    <g
       id="g107"
       transform="matrix(0.35277777,0,0,-0.35277777,154.10426,142.8759)">
      <path
         d="m 0,0 c -0.321,0 -0.635,0.164 -0.812,0.46 l -2.093,3.488 c -0.269,0.448 -0.124,1.029 0.324,1.298 0.446,0.271 1.029,0.124 1.299,-0.324 L 0.811,1.434 C 1.08,0.986 0.935,0.405 0.486,0.136 0.334,0.044 0.166,0 0,0"
         style="fill:#ffffff;fill-opacity:1;fill-rule:nonzero;stroke:none"
         id="path109" />
    </g>
    <g
       id="g111"
       transform="matrix(0.35277777,0,0,-0.35277777,157.419,143.05272)">
      <path
         d="M 0,0 C -0.442,0 -0.837,0.312 -0.928,0.761 L -1.725,4.75 c -0.102,0.513 0.23,1.012 0.742,1.114 0.517,0.1 1.012,-0.231 1.114,-0.743 L 0.929,1.132 C 1.031,0.62 0.699,0.121 0.186,0.018 0.124,0.006 0.061,0 0,0"
         style="fill:#ffffff;fill-opacity:1;fill-rule:nonzero;stroke:none"
         id="path113" />
    </g>
    <g
       id="g115"
       transform="matrix(0.35277777,0,0,-0.35277777,157.49604,146.49209)">
      <path
         d="m 0,0 c -0.396,0 -0.765,0.251 -0.898,0.648 l -1.286,3.859 c -0.166,0.496 0.102,1.032 0.598,1.197 0.496,0.165 1.032,-0.103 1.197,-0.598 L 0.898,1.246 C 1.063,0.75 0.795,0.214 0.299,0.049 0.2,0.016 0.099,0 0,0"
         style="fill:#ffffff;fill-opacity:1;fill-rule:nonzero;stroke:none"
         id="path117" />
    </g>
    <g
       id="g119"
       transform="matrix(0.35277777,0,0,-0.35277777,163.94358,142.8759)">
      <path
         d="M 0,0 C -0.166,0 -0.334,0.044 -0.486,0.136 -0.935,0.405 -1.08,0.986 -0.811,1.434 L 1.282,4.922 C 1.552,5.369 2.134,5.515 2.581,5.246 3.029,4.977 3.174,4.396 2.905,3.948 L 0.812,0.46 C 0.635,0.164 0.321,0 0,0"
         style="fill:#ffffff;fill-opacity:1;fill-rule:nonzero;stroke:none"
         id="path121" />
    </g>
    <g
       id="g123"
       transform="matrix(0.35277777,0,0,-0.35277777,160.62888,143.05272)">
      <path
         d="M 0,0 C -0.061,0 -0.124,0.006 -0.186,0.018 -0.699,0.121 -1.031,0.62 -0.929,1.132 l 0.797,3.989 C -0.028,5.633 0.472,5.962 0.983,5.864 1.495,5.762 1.827,5.263 1.725,4.75 L 0.928,0.761 C 0.837,0.312 0.442,0 0,0"
         style="fill:#ffffff;fill-opacity:1;fill-rule:nonzero;stroke:none"
         id="path125" />
    </g>
    <g
       id="g127"
       transform="matrix(0.35277777,0,0,-0.35277777,160.5518,146.49209)">
      <path
         d="M 0,0 C -0.099,0 -0.2,0.016 -0.299,0.049 -0.795,0.214 -1.063,0.75 -0.898,1.246 l 1.287,3.86 C 0.555,5.601 1.091,5.87 1.586,5.704 2.082,5.539 2.35,5.003 2.184,4.507 L 0.898,0.648 C 0.765,0.251 0.396,0 0,0"
         style="fill:#ffffff;fill-opacity:1;fill-rule:nonzero;stroke:none"
         id="path129" />
    </g>
    <g
       id="g131"
       transform="matrix(0.35277777,0,0,-0.35277777,153.36537,160.50657)">
      <path
         d="M 0,0 C -0.166,0 -0.334,0.044 -0.486,0.136 -0.935,0.404 -1.08,0.986 -0.811,1.434 L 1.282,4.922 C 1.551,5.369 2.134,5.515 2.581,5.247 3.029,4.978 3.174,4.396 2.905,3.949 L 0.812,0.46 C 0.635,0.164 0.321,0 0,0"
         style="fill:#ffffff;fill-opacity:1;fill-rule:nonzero;stroke:none"
         id="path133" />
    </g>
    <g
       id="g135"
       transform="matrix(0.35277777,0,0,-0.35277777,157.13804,160.50657)">
      <path
         d="M 0,0 C -0.061,0 -0.124,0.006 -0.186,0.018 -0.699,0.121 -1.031,0.62 -0.929,1.133 l 0.798,3.989 C -0.028,5.634 0.472,5.967 0.983,5.865 1.495,5.762 1.827,5.264 1.725,4.751 L 0.928,0.761 C 0.837,0.312 0.442,0 0,0"
         style="fill:#ffffff;fill-opacity:1;fill-rule:nonzero;stroke:none"
         id="path137" />
    </g>
    <g
       id="g139"
       transform="matrix(0.35277777,0,0,-0.35277777,157.04216,157.0213)">
      <path
         d="M 0,0 C -0.099,0 -0.2,0.016 -0.299,0.049 -0.796,0.214 -1.063,0.75 -0.898,1.246 L 0.389,5.105 C 0.555,5.601 1.091,5.871 1.586,5.704 2.082,5.539 2.35,5.002 2.184,4.507 L 0.898,0.648 C 0.766,0.251 0.396,0 0,0"
         style="fill:#ffffff;fill-opacity:1;fill-rule:nonzero;stroke:none"
         id="path141" />
    </g>
    <g
       id="g143"
       transform="matrix(0.35277777,0,0,-0.35277777,164.68251,160.50657)">
      <path
         d="m 0,0 c -0.321,0 -0.635,0.164 -0.812,0.46 l -2.093,3.489 c -0.269,0.447 -0.124,1.029 0.324,1.298 0.446,0.27 1.029,0.124 1.299,-0.325 L 0.811,1.434 C 1.08,0.986 0.935,0.404 0.486,0.136 0.334,0.044 0.166,0 0,0"
         style="fill:#ffffff;fill-opacity:1;fill-rule:nonzero;stroke:none"
         id="path145" />
    </g>
    <g
       id="g147"
       transform="matrix(0.35277777,0,0,-0.35277777,160.90977,160.50657)">
      <path
         d="m 0,0 c -0.442,0 -0.837,0.312 -0.928,0.761 l -0.797,3.99 c -0.102,0.513 0.23,1.011 0.743,1.114 0.516,0.104 1.011,-0.231 1.114,-0.743 L 0.929,1.133 C 1.031,0.62 0.699,0.121 0.186,0.018 0.124,0.006 0.061,0 0,0"
         style="fill:#ffffff;fill-opacity:1;fill-rule:nonzero;stroke:none"
         id="path149" />
    </g>
    <g
       id="g151"
       transform="matrix(0.35277777,0,0,-0.35277777,161.00569,157.0213)">
      <path
         d="M 0,0 C -0.397,0 -0.766,0.251 -0.898,0.648 L -2.184,4.507 C -2.35,5.002 -2.082,5.539 -1.586,5.704 -1.09,5.87 -0.554,5.601 -0.389,5.105 L 0.898,1.246 C 1.063,0.75 0.796,0.214 0.299,0.049 0.2,0.016 0.099,0 0,0"
         style="fill:#ffffff;fill-opacity:1;fill-rule:nonzero;stroke:none"
         id="path153" />
    </g>
    <g
       id="g155"
       transform="matrix(0.35277777,0,0,-0.35277777,164.96922,157.02109)">
      <path
         d="m 0,0 c -0.242,0 -0.485,0.092 -0.67,0.277 l -2.876,2.876 c -0.369,0.37 -0.369,0.97 0,1.339 0.37,0.369 0.969,0.369 1.339,0 L 0.67,1.616 C 1.039,1.246 1.039,0.646 0.67,0.277 0.485,0.092 0.242,0 0,0"
         style="fill:#ffffff;fill-opacity:1;fill-rule:nonzero;stroke:none"
         id="path157" />
    </g>
    <g
       id="g159"
       transform="matrix(0.35277777,0,0,-0.35277777,167.22424,146.15586)">
      <path
         d="m 0,0 c -0.321,0 -0.635,0.164 -0.812,0.46 -0.269,0.449 -0.124,1.03 0.325,1.298 L 3,3.851 C 3.446,4.121 4.029,3.975 4.299,3.526 4.568,3.078 4.422,2.496 3.974,2.228 L 0.486,0.136 C 0.334,0.044 0.166,0 0,0"
         style="fill:#ffffff;fill-opacity:1;fill-rule:nonzero;stroke:none"
         id="path161" />
    </g>
    <g
       id="g163"
       transform="matrix(0.35277777,0,0,-0.35277777,167.04697,149.47133)">
      <path
         d="m 0,0 c -0.442,0 -0.837,0.312 -0.928,0.761 -0.102,0.513 0.23,1.012 0.743,1.114 L 3.804,2.673 C 4.32,2.773 4.816,2.442 4.918,1.93 5.02,1.417 4.688,0.919 4.175,0.816 L 0.186,0.019 C 0.124,0.006 0.061,0 0,0"
         style="fill:#ffffff;fill-opacity:1;fill-rule:nonzero;stroke:none"
         id="path165" />
    </g>
    <g
       id="g167"
       transform="matrix(0.35277777,0,0,-0.35277777,163.60788,149.54792)">
      <path
         d="m 0,0 c -0.397,0 -0.766,0.251 -0.898,0.648 -0.165,0.496 0.103,1.032 0.599,1.197 L 3.56,3.131 C 4.057,3.294 4.592,3.028 4.757,2.532 4.922,2.036 4.654,1.5 4.158,1.335 L 0.299,0.049 C 0.2,0.016 0.099,0 0,0"
         style="fill:#ffffff;fill-opacity:1;fill-rule:nonzero;stroke:none"
         id="path169" />
    </g>
    <g
       id="g171"
       transform="matrix(0.35277777,0,0,-0.35277777,168.45424,156.73436)">
      <path
         d="M 0,0 C -0.166,0 -0.334,0.044 -0.486,0.136 L -3.974,2.229 C -4.422,2.498 -4.568,3.079 -4.298,3.527 -4.029,3.975 -3.446,4.12 -3,3.851 L 0.487,1.758 C 0.936,1.489 1.081,0.908 0.812,0.46 0.635,0.164 0.321,0 0,0"
         style="fill:#ffffff;fill-opacity:1;fill-rule:nonzero;stroke:none"
         id="path173" />
    </g>
    <g
       id="g175"
       transform="matrix(0.35277777,0,0,-0.35277777,168.45473,152.96214)">
      <path
         d="m 0,0 c -0.061,0 -0.124,0.006 -0.186,0.018 l -3.989,0.799 c -0.513,0.103 -0.845,0.602 -0.743,1.114 0.102,0.511 0.6,0.841 1.114,0.743 L 0.185,1.875 C 0.698,1.773 1.03,1.273 0.928,0.761 0.837,0.312 0.442,0 0,0"
         style="fill:#ffffff;fill-opacity:1;fill-rule:nonzero;stroke:none"
         id="path177" />
    </g>
    <g
       id="g179"
       transform="matrix(0.35277777,0,0,-0.35277777,164.96922,153.05778)">
      <path
         d="m 0,0 c -0.099,0 -0.2,0.016 -0.299,0.049 l -3.859,1.287 c -0.497,0.165 -0.764,0.701 -0.599,1.197 0.165,0.495 0.701,0.766 1.197,0.598 L 0.299,1.844 C 0.796,1.68 1.063,1.143 0.898,0.648 0.765,0.251 0.396,0 0,0"
         style="fill:#ffffff;fill-opacity:1;fill-rule:nonzero;stroke:none"
         id="path181" />
    </g>
    <g
       id="g183"
       transform="matrix(0.35277777,0,0,-0.35277777,150.82357,146.15586)">
      <path
         d="M 0,0 C -0.166,0 -0.333,0.044 -0.486,0.136 L -3.974,2.228 C -4.422,2.496 -4.568,3.078 -4.298,3.526 -4.029,3.975 -3.447,4.119 -3,3.851 L 0.488,1.758 C 0.936,1.49 1.081,0.909 0.812,0.46 0.635,0.164 0.321,0 0,0"
         style="fill:#ffffff;fill-opacity:1;fill-rule:nonzero;stroke:none"
         id="path185" />
    </g>
    <g
       id="g187"
       transform="matrix(0.35277777,0,0,-0.35277777,151.00087,149.47133)">
      <path
         d="m 0,0 c -0.061,0 -0.124,0.006 -0.186,0.019 l -3.989,0.797 c -0.513,0.103 -0.845,0.601 -0.743,1.114 0.103,0.512 0.599,0.842 1.114,0.743 L 0.185,1.875 C 0.698,1.773 1.03,1.274 0.928,0.761 0.837,0.312 0.442,0 0,0"
         style="fill:#ffffff;fill-opacity:1;fill-rule:nonzero;stroke:none"
         id="path189" />
    </g>
    <g
       id="g191"
       transform="matrix(0.35277777,0,0,-0.35277777,154.44,149.54792)">
      <path
         d="M 0,0 C -0.099,0 -0.2,0.016 -0.299,0.049 L -4.158,1.335 C -4.654,1.5 -4.922,2.036 -4.757,2.532 -4.592,3.028 -4.055,3.295 -3.56,3.131 L 0.299,1.845 C 0.795,1.68 1.063,1.144 0.898,0.648 0.765,0.251 0.396,0 0,0"
         style="fill:#ffffff;fill-opacity:1;fill-rule:nonzero;stroke:none"
         id="path193" />
    </g>
    <g
       id="g195"
       transform="matrix(0.35277777,0,0,-0.35277777,149.59361,156.73436)">
      <path
         d="m 0,0 c -0.321,0 -0.635,0.164 -0.812,0.46 -0.269,0.448 -0.124,1.029 0.325,1.298 L 3,3.851 C 3.445,4.122 4.029,3.976 4.299,3.527 4.568,3.079 4.422,2.498 3.974,2.229 L 0.486,0.136 C 0.334,0.044 0.166,0 0,0"
         style="fill:#ffffff;fill-opacity:1;fill-rule:nonzero;stroke:none"
         id="path197" />
    </g>
    <g
       id="g199"
       transform="matrix(0.35277777,0,0,-0.35277777,149.59315,152.96214)">
      <path
         d="m 0,0 c -0.442,0 -0.837,0.312 -0.928,0.761 -0.102,0.512 0.23,1.012 0.743,1.114 L 3.804,2.674 C 4.318,2.773 4.815,2.442 4.918,1.931 5.02,1.419 4.688,0.92 4.175,0.817 L 0.186,0.018 C 0.124,0.006 0.061,0 0,0"
         style="fill:#ffffff;fill-opacity:1;fill-rule:nonzero;stroke:none"
         id="path201" />
    </g>
    <g
       id="g203"
       transform="matrix(0.35277777,0,0,-0.35277777,153.07863,153.05778)">
      <path
         d="m 0,0 c -0.396,0 -0.766,0.251 -0.898,0.648 -0.165,0.495 0.102,1.032 0.599,1.196 L 3.56,3.131 C 4.058,3.298 4.591,3.028 4.757,2.533 4.922,2.037 4.655,1.501 4.158,1.336 L 0.299,0.049 C 0.2,0.016 0.099,0 0,0"
         style="fill:#ffffff;fill-opacity:1;fill-rule:nonzero;stroke:none"
         id="path205" />
    </g>
    <g
       id="g207"
       transform="matrix(0.35277777,0,0,-0.35277777,157.78349,150.16937)">
      <path
         d="m 0,0 c -0.485,0 -0.969,0.185 -1.339,0.555 l -2.876,2.876 c -0.739,0.74 -0.739,1.938 0,2.677 0.74,0.74 1.938,0.74 2.677,0 L 1.339,3.232 C 2.078,2.492 2.078,1.294 1.339,0.555 0.969,0.185 0.485,0 0,0"
         style="fill:#ffffff;fill-opacity:1;fill-rule:nonzero;stroke:none"
         id="path209" />
    </g>
    <g
       id="g211"
       transform="matrix(0.35277777,0,0,-0.35277777,160.26439,150.16937)">
      <path
         d="m 0,0 c -0.485,0 -0.969,0.185 -1.339,0.555 -0.739,0.739 -0.739,1.937 0,2.677 l 2.877,2.876 c 0.739,0.74 1.938,0.74 2.677,0 0.739,-0.739 0.739,-1.937 0,-2.677 L 1.339,0.555 C 0.969,0.185 0.485,0 0,0"
         style="fill:#ffffff;fill-opacity:1;fill-rule:nonzero;stroke:none"
         id="path213" />
    </g>
    <g
       id="g215"
       transform="matrix(0.35277777,0,0,-0.35277777,156.76872,153.6648)">
      <path
         d="m 0,0 c -0.485,0 -0.969,0.185 -1.339,0.555 -0.739,0.739 -0.739,1.937 0,2.677 l 2.877,2.876 c 0.739,0.74 1.937,0.74 2.677,0 0.739,-0.739 0.739,-1.937 0,-2.677 L 1.339,0.555 C 0.969,0.185 0.485,0 0,0"
         style="fill:#ffffff;fill-opacity:1;fill-rule:nonzero;stroke:none"
         id="path217" />
    </g>
    <g
       id="g219"
       transform="matrix(0.35277777,0,0,-0.35277777,161.27912,153.6648)">
      <path
         d="m 0,0 c -0.485,0 -0.969,0.185 -1.339,0.555 l -2.876,2.876 c -0.74,0.74 -0.74,1.938 0,2.677 0.739,0.74 1.938,0.74 2.677,0 L 1.339,3.232 C 2.078,2.492 2.078,1.294 1.339,0.555 0.969,0.185 0.485,0 0,0"
         style="fill:#ffffff;fill-opacity:1;fill-rule:nonzero;stroke:none"
         id="path221" />
    </g>
    <g
       id="g223"
       transform="matrix(0.35277777,0,0,-0.35277777,145.00517,165.23732)">
      <path
         d="m 0,0 6.525,6.525 c 0.369,0.369 0.369,0.969 0,1.338 -0.37,0.369 -0.97,0.369 -1.34,0 L -1.339,1.339 -7.864,7.863 c -0.368,0.369 -0.968,0.369 -1.338,0 -0.369,-0.369 -0.369,-0.969 0,-1.338 L -2.678,0 -9.202,-6.524 c -0.369,-0.37 -0.369,-0.97 0,-1.34 0.185,-0.184 0.427,-0.276 0.669,-0.276 0.243,0 0.485,0.092 0.669,0.276 l 6.525,6.525 6.524,-6.525 c 0.185,-0.184 0.428,-0.276 0.67,-0.276 0.242,0 0.485,0.092 0.67,0.276 0.369,0.37 0.369,0.97 0,1.34 z"
         style="fill:#ffffff;fill-opacity:1;fill-rule:nonzero;stroke:none"
         id="path225" />
    </g>
    <g
       id="g227"
       transform="matrix(0.35277777,0,0,-0.35277777,153.07863,157.02109)">
      <path
         d="m 0,0 c -0.242,0 -0.485,0.092 -0.67,0.277 -0.369,0.369 -0.369,0.969 0,1.339 l 2.877,2.876 c 0.37,0.369 0.969,0.369 1.339,0 0.369,-0.369 0.369,-0.969 0,-1.339 L 0.67,0.277 C 0.485,0.092 0.242,0 0,0"
         style="fill:#ffffff;fill-opacity:1;fill-rule:nonzero;stroke:none"
         id="path229" />
    </g>
    <g
       id="g231"
       transform="matrix(0.35277777,0,0,-0.35277777,154.09339,146.14499)">
      <path
         d="m 0,0 c -0.242,0 -0.485,0.092 -0.67,0.277 l -2.876,2.876 c -0.369,0.37 -0.369,0.97 0,1.339 0.37,0.369 0.969,0.369 1.339,0 L 0.67,1.616 C 1.039,1.246 1.039,0.646 0.67,0.277 0.485,0.092 0.242,0 0,0"
         style="fill:#ffffff;fill-opacity:1;fill-rule:nonzero;stroke:none"
         id="path233" />
    </g>
    <g
       id="g235"
       transform="matrix(0.35277777,0,0,-0.35277777,163.95449,146.14499)">
      <path
         d="m 0,0 c -0.242,0 -0.485,0.092 -0.67,0.277 -0.369,0.369 -0.369,0.969 0,1.339 l 2.877,2.876 c 0.369,0.369 0.969,0.369 1.339,0 0.369,-0.369 0.369,-0.969 0,-1.339 L 0.67,0.277 C 0.485,0.092 0.242,0 0,0"
         style="fill:#ffffff;fill-opacity:1;fill-rule:nonzero;stroke:none"
         id="path237" />
    </g>
    <g
       id="g239"
       transform="matrix(0.35277777,0,0,-0.35277777,128.05279,162.43754)">
      <path
         d="M 0,0 C -0.551,0 -0.981,-0.43 -0.981,-0.981 V -2.649 C -2.41,-0.979 -4.476,0 -6.622,0 c -4.194,0 -7.606,-3.597 -7.606,-8.017 0,-4.423 3.412,-8.02 7.606,-8.02 2.135,0 4.201,0.991 5.641,2.678 v -1.697 c 0,-0.531 0.449,-0.981 0.981,-0.981 0.532,0 0.981,0.45 0.981,0.981 V -0.981 C 0.981,-0.43 0.551,0 0,0 m -0.981,-8.017 c 0,-3.341 -2.531,-6.057 -5.641,-6.057 -3.112,0 -5.644,2.716 -5.644,6.057 0,3.356 2.532,6.086 5.644,6.086 3.11,0 5.641,-2.73 5.641,-6.086"
         style="fill:#ffffff;fill-opacity:1;fill-rule:nonzero;stroke:none"
         id="path241" />
    </g>
    <g
       id="g243"
       transform="matrix(0.35277777,0,0,-0.35277777,130.68595,160.48459)">
      <path
         d="m 0,0 c -0.532,0 -0.981,-0.45 -0.981,-0.981 v -0.733 c 0,-0.566 0.449,-1.045 0.981,-1.045 0.559,0 1.014,0.469 1.014,1.045 v 0.733 C 1.014,-0.44 0.559,0 0,0"
         style="fill:#ffffff;fill-opacity:1;fill-rule:nonzero;stroke:none"
         id="path245" />
    </g>
    <g
       id="g247"
       transform="matrix(0.35277777,0,0,-0.35277777,130.68595,162.43754)">
      <path
         d="m 0,0 c -0.551,0 -0.981,-0.43 -0.981,-0.981 v -14.075 c 0,-0.531 0.449,-0.981 0.981,-0.981 0.559,0 1.014,0.44 1.014,0.981 V -0.981 C 1.014,-0.421 0.578,0 0,0"
         style="fill:#ffffff;fill-opacity:1;fill-rule:nonzero;stroke:none"
         id="path249" />
    </g>
    <g
       id="g251"
       transform="matrix(0.35277777,0,0,-0.35277777,137.67692,162.43754)">
      <path
         d="M 0,0 C -0.551,0 -0.981,-0.43 -0.981,-0.981 V -2.649 C -2.41,-0.979 -4.476,0 -6.622,0 c -4.194,0 -7.606,-3.597 -7.606,-8.017 0,-4.423 3.412,-8.02 7.606,-8.02 2.135,0 4.201,0.991 5.641,2.678 v -1.697 c 0,-0.531 0.449,-0.981 0.981,-0.981 0.532,0 0.982,0.45 0.982,0.981 V -0.981 C 0.982,-0.43 0.551,0 0,0 m -0.981,-8.017 c 0,-3.341 -2.531,-6.057 -5.641,-6.057 -3.112,0 -5.643,2.716 -5.643,6.057 0,3.356 2.531,6.086 5.643,6.086 3.11,0 5.641,-2.73 5.641,-6.086"
         style="fill:#ffffff;fill-opacity:1;fill-rule:nonzero;stroke:none"
         id="path253" />
    </g>
    <g
       id="g255"
       transform="matrix(0.35277777,0,0,-0.35277777,121.14744,162.43754)">
      <path
         d="M 0,0 C -0.558,0 -1.013,-0.44 -1.013,-0.981 V -2.639 C -2.417,-0.975 -4.47,0 -6.624,0 c -4.158,0 -7.541,-3.57 -7.541,-7.955 0,-4.404 3.383,-7.987 7.541,-7.987 2.17,0 4.224,0.974 5.611,2.632 v -1.269 c 0,-3.127 -2.465,-5.578 -5.611,-5.578 -0.794,0 -1.516,0.155 -2.273,0.489 -0.76,0.335 -1.352,0.748 -1.85,1.287 -0.166,0.212 -0.398,0.338 -0.654,0.357 -0.257,0.006 -0.533,-0.081 -0.733,-0.273 -0.41,-0.342 -0.384,-0.956 -0.094,-1.385 0.682,-0.688 1.428,-1.243 2.177,-1.617 l 0.09,-0.068 c 0.054,-0.025 0.109,-0.046 0.165,-0.066 l 0.191,-0.083 c 0.065,-0.033 0.13,-0.064 0.201,-0.093 0.863,-0.341 1.78,-0.516 2.721,-0.516 0.517,0 1.043,0.053 1.569,0.159 l 0.067,0.012 c 0.51,0.112 0.952,0.25 1.385,0.43 0.399,0.173 0.792,0.384 1.167,0.63 0.113,0.074 0.219,0.158 0.325,0.241 l 0.141,0.11 c 0.179,0.14 0.356,0.278 0.522,0.431 0.186,0.17 0.357,0.353 0.529,0.545 0.052,0.058 0.142,0.172 0.142,0.172 1.168,1.39 1.785,3.056 1.785,4.816 V -0.981 C 0.949,-0.458 0.506,0 0,0 m -1.013,-7.955 c 0,-3.339 -2.518,-6.056 -5.611,-6.056 -3.076,0 -5.578,2.717 -5.578,6.056 0,3.304 2.502,5.993 5.578,5.993 3.093,0 5.611,-2.689 5.611,-5.993"
         style="fill:#ffffff;fill-opacity:1;fill-rule:nonzero;stroke:none"
         id="path257" />
    </g>
  </g>
</svg>
