<?xml version="1.0" encoding="UTF-8" standalone="no"?>
<!-- Created with Inkscape (http://www.inkscape.org/) -->
<svg
   xmlns:svg="http://www.w3.org/2000/svg"
   xmlns="http://www.w3.org/2000/svg"
   version="1.0"
   width="426"
   height="229"
   viewBox="-0.043 -0.492 426 229"
   id="svg2"
   xml:space="preserve">
	<defs
   id="defs4">
	</defs>
	<g
   transform="matrix(0.9530279,0,0,0.9124508,10,10.000005)"
   id="g6">
		<path
   d="M 128.3,75.485 L 128.3,71.47 C 128.3,31.574 108.206,0 65.439,0 C 22.1,0 0,30.997 0,72.33 C 0,111.939 24.971,142.938 66.017,142.938 C 92.136,142.938 115.67,129.446 128.3,106.197 L 106.485,93.857 C 96.729,109.932 86.107,119.974 66.304,119.974 C 41.618,119.974 26.12,98.449 25.833,75.485 L 128.3,75.485 M 27.27,55.972 C 30.425,36.738 45.349,22.39 65.439,22.39 C 86.107,22.39 99.309,35.882 102.465,55.973 L 27.27,55.973 L 27.27,55.972 z "
   style="fill:#1a171b;fill-rule:evenodd"
   id="path8" />
		<path
   d="M 262.096,8.897 C 251.768,2.871 238.57,0 226.508,0 C 185.18,0 153.033,30.712 153.033,72.33 C 153.033,112.511 185.467,142.938 225.073,142.938 C 238.57,142.938 250.334,140.352 262.095,134.038 L 262.095,101.033 C 252.341,111.939 240.283,118.825 225.363,118.825 C 198.094,118.825 178.865,98.735 178.865,71.186 C 178.865,46.5 198.378,24.111 223.633,24.111 C 239.14,24.111 251.767,30.425 262.095,42.195 L 262.095,8.897"
   style="fill:#1a171b;fill-rule:evenodd"
   id="path10" />
		<path
   d="M 354.033,0 C 313.851,0 282.281,30.997 282.281,71.471 C 282.281,111.939 313.851,142.939 354.033,142.939 C 394.22,142.939 425.785,111.939 425.785,71.471 C 425.785,30.997 394.22,0 354.033,0 M 354.033,24.683 C 379.578,24.683 399.961,45.923 399.961,71.471 C 399.961,96.728 379.578,118.256 354.033,118.256 C 328.488,118.256 308.11,96.728 308.11,71.471 C 308.11,45.923 328.488,24.683 354.033,24.683 z "
   style="fill:#1a171b;fill-rule:evenodd"
   id="path12" />
		<rect
   width="39.176998"
   height="39.171001"
   x="48.367001"
   y="189.272"
   style="fill:#e2001a"
   id="rect14" /> 
		<rect
   width="39.176998"
   height="39.171001"
   x="193.30901"
   y="189.272"
   style="fill:#c5c6c8"
   id="rect16" /> 
		<rect
   width="39.171001"
   height="39.171001"
   x="338.25299"
   y="189.272"
   style="fill:#1a171b"
   id="rect18" /> 
	</g>
</svg>