<?xml version="1.0" encoding="UTF-8" standalone="no"?>
<!-- Created with Inkscape (http://www.inkscape.org/) -->

<svg
   width="72.00013mm"
   height="48.947407mm"
   viewBox="0 0 72.00013 48.947407"
   version="1.1"
   id="svg894"
   inkscape:version="1.1 (c68e22c387, 2021-05-23)"
   sodipodi:docname="logo-gaiax.svg"
   xmlns:inkscape="http://www.inkscape.org/namespaces/inkscape"
   xmlns:sodipodi="http://sodipodi.sourceforge.net/DTD/sodipodi-0.dtd"
   xmlns="http://www.w3.org/2000/svg"
   xmlns:svg="http://www.w3.org/2000/svg">
  <sodipodi:namedview
     id="namedview896"
     pagecolor="#505050"
     bordercolor="#ffffff"
     borderopacity="1"
     inkscape:pageshadow="0"
     inkscape:pageopacity="0"
     inkscape:pagecheckerboard="1"
     inkscape:document-units="mm"
     showgrid="false"
     fit-margin-top="10"
     fit-margin-left="10"
     fit-margin-right="10"
     fit-margin-bottom="10"
     lock-margins="true"
     inkscape:zoom="1.4039843"
     inkscape:cx="65.17167"
     inkscape:cy="-67.308446"
     inkscape:window-width="1680"
     inkscape:window-height="997"
     inkscape:window-x="1592"
     inkscape:window-y="-8"
     inkscape:window-maximized="1"
     inkscape:current-layer="layer1" />
  <defs
     id="defs891" />
  <g
     inkscape:label="Ebene 1"
     inkscape:groupmode="layer"
     id="layer1"
     transform="translate(-43.526584,-84.451429)">
    <g
       id="g259"
       transform="matrix(0.35277777,0,0,-0.35277777,78.514115,118.12822)">
      <path
         d="m 0,0 h -4.832 c -0.49,0 -0.905,-0.415 -0.905,-0.905 0,-0.515 0.406,-0.935 0.905,-0.935 H 0 c 0.517,0 0.906,0.402 0.906,0.935 C 0.906,-0.397 0.509,0 0,0"
         style="fill:#000094;fill-opacity:1;fill-rule:nonzero;stroke:none"
         id="path261" />
    </g>
    <g
       id="g263"
       transform="matrix(0.35277777,0,0,-0.35277777,87.54445,96.212294)">
      <path
         d="m 0,0 c -0.276,0 -0.551,0.105 -0.762,0.315 l -2.837,2.837 c -0.421,0.421 -0.421,1.103 0,1.524 0.421,0.42 1.102,0.42 1.524,0 L 0.762,1.839 c 0.42,-0.421 0.42,-1.103 0,-1.524 C 0.551,0.105 0.275,0 0,0"
         style="fill:#000094;fill-opacity:1;fill-rule:nonzero;stroke:none"
         id="path265" />
    </g>
    <g
       id="g267"
       transform="matrix(0.35277777,0,0,-0.35277777,104.14568,96.212294)">
      <path
         d="m 0,0 c -0.276,0 -0.551,0.105 -0.762,0.315 -0.42,0.421 -0.42,1.103 0,1.524 l 2.837,2.837 c 0.422,0.42 1.102,0.42 1.524,0 0.421,-0.421 0.421,-1.103 0,-1.524 L 0.762,0.315 C 0.551,0.105 0.276,0 0,0"
         style="fill:#000094;fill-opacity:1;fill-rule:nonzero;stroke:none"
         id="path269" />
    </g>
    <g
       id="g271"
       transform="matrix(0.35277777,0,0,-0.35277777,86.543549,113.81414)">
      <path
         d="m 0,0 c -0.275,0 -0.551,0.105 -0.762,0.315 -0.42,0.421 -0.42,1.103 0,1.524 l 2.837,2.836 c 0.422,0.42 1.103,0.42 1.524,0 0.421,-0.42 0.42,-1.102 0,-1.523 L 0.762,0.315 C 0.551,0.105 0.276,0 0,0"
         style="fill:#000094;fill-opacity:1;fill-rule:nonzero;stroke:none"
         id="path273" />
    </g>
    <g
       id="g275"
       transform="matrix(0.35277777,0,0,-0.35277777,105.14654,113.81414)">
      <path
         d="m 0,0 c -0.276,0 -0.551,0.105 -0.762,0.315 l -2.837,2.837 c -0.42,0.421 -0.421,1.103 0,1.523 0.422,0.42 1.102,0.42 1.524,0 L 0.762,1.839 c 0.42,-0.421 0.42,-1.103 0,-1.524 C 0.551,0.105 0.275,0 0,0"
         style="fill:#000094;fill-opacity:1;fill-rule:nonzero;stroke:none"
         id="path277" />
    </g>
    <g
       id="g279"
       transform="matrix(0.35277777,0,0,-0.35277777,90.992959,96.425019)">
      <path
         d="m 0,0 c -0.366,0 -0.723,0.186 -0.925,0.523 l -2.064,3.44 c -0.307,0.51 -0.141,1.172 0.369,1.477 0.511,0.308 1.172,0.14 1.477,-0.368 L 0.922,1.632 C 1.228,1.121 1.063,0.46 0.553,0.154 0.379,0.049 0.188,0 0,0"
         style="fill:#000094;fill-opacity:1;fill-rule:nonzero;stroke:none"
         id="path281" />
    </g>
    <g
       id="g283"
       transform="matrix(0.35277777,0,0,-0.35277777,94.261833,96.599432)">
      <path
         d="M 0,0 C -0.503,0 -0.952,0.354 -1.055,0.866 L -1.842,4.8 c -0.117,0.584 0.262,1.151 0.845,1.268 0.582,0.114 1.15,-0.261 1.268,-0.845 L 1.057,1.289 C 1.174,0.705 0.795,0.138 0.213,0.021 0.141,0.007 0.07,0 0,0"
         style="fill:#000094;fill-opacity:1;fill-rule:nonzero;stroke:none"
         id="path285" />
    </g>
    <g
       id="g287"
       transform="matrix(0.35277777,0,0,-0.35277777,94.338033,99.991708)">
      <path
         d="m 0,0 c -0.451,0 -0.871,0.285 -1.022,0.737 l -1.269,3.807 c -0.187,0.563 0.117,1.173 0.682,1.362 0.563,0.189 1.173,-0.117 1.362,-0.682 L 1.022,1.418 C 1.21,0.854 0.905,0.244 0.34,0.055 0.228,0.018 0.113,0 0,0"
         style="fill:#000094;fill-opacity:1;fill-rule:nonzero;stroke:none"
         id="path289" />
    </g>
    <g
       id="g291"
       transform="matrix(0.35277777,0,0,-0.35277777,100.69717,96.425019)">
      <path
         d="m 0,0 c -0.188,0 -0.38,0.049 -0.553,0.154 -0.51,0.306 -0.675,0.967 -0.369,1.478 l 2.065,3.44 C 1.449,5.58 2.11,5.748 2.62,5.44 3.13,5.135 3.296,4.473 2.989,3.963 L 0.924,0.523 C 0.723,0.186 0.366,0 0,0"
         style="fill:#000094;fill-opacity:1;fill-rule:nonzero;stroke:none"
         id="path293" />
    </g>
    <g
       id="g295"
       transform="matrix(0.35277777,0,0,-0.35277777,97.42826,96.599432)">
      <path
         d="m 0,0 c -0.07,0 -0.141,0.007 -0.213,0.021 -0.583,0.117 -0.961,0.684 -0.845,1.268 l 0.787,3.934 C -0.154,5.807 0.411,6.181 0.997,6.068 1.58,5.951 1.958,5.384 1.842,4.8 L 1.055,0.866 C 0.952,0.354 0.502,0 0,0"
         style="fill:#000094;fill-opacity:1;fill-rule:nonzero;stroke:none"
         id="path297" />
    </g>
    <g
       id="g299"
       transform="matrix(0.35277777,0,0,-0.35277777,97.352025,99.991708)">
      <path
         d="M 0,0 C -0.113,0 -0.228,0.018 -0.34,0.055 -0.905,0.244 -1.21,0.854 -1.022,1.418 L 0.247,5.224 C 0.436,5.789 1.043,6.095 1.609,5.906 2.174,5.717 2.478,5.107 2.291,4.544 L 1.022,0.737 C 0.871,0.285 0.451,0 0,0"
         style="fill:#000094;fill-opacity:1;fill-rule:nonzero;stroke:none"
         id="path301" />
    </g>
    <g
       id="g303"
       transform="matrix(0.35277777,0,0,-0.35277777,90.263661,113.81414)">
      <path
         d="m 0,0 c -0.188,0 -0.379,0.049 -0.553,0.154 -0.51,0.306 -0.675,0.967 -0.369,1.478 l 2.065,3.44 C 1.449,5.58 2.11,5.748 2.62,5.44 3.13,5.135 3.296,4.473 2.989,3.963 L 0.925,0.523 C 0.723,0.186 0.366,0 0,0"
         style="fill:#000094;fill-opacity:1;fill-rule:nonzero;stroke:none"
         id="path305" />
    </g>
    <g
       id="g307"
       transform="matrix(0.35277777,0,0,-0.35277777,93.98522,113.81414)">
      <path
         d="m 0,0 c -0.07,0 -0.141,0.007 -0.213,0.021 -0.582,0.117 -0.961,0.684 -0.845,1.268 l 0.787,3.934 C -0.154,5.806 0.413,6.186 0.997,6.068 1.58,5.951 1.958,5.384 1.842,4.8 L 1.055,0.866 C 0.952,0.354 0.502,0 0,0"
         style="fill:#000094;fill-opacity:1;fill-rule:nonzero;stroke:none"
         id="path309" />
    </g>
    <g
       id="g311"
       transform="matrix(0.35277777,0,0,-0.35277777,93.890393,110.37682)">
      <path
         d="M 0,0 C -0.113,0 -0.228,0.018 -0.34,0.055 -0.905,0.244 -1.21,0.854 -1.022,1.417 L 0.247,5.224 C 0.436,5.789 1.043,6.096 1.609,5.905 2.174,5.717 2.478,5.107 2.291,4.543 L 1.022,0.737 C 0.871,0.285 0.451,0 0,0"
         style="fill:#000094;fill-opacity:1;fill-rule:nonzero;stroke:none"
         id="path313" />
    </g>
    <g
       id="g315"
       transform="matrix(0.35277777,0,0,-0.35277777,101.4264,113.81414)">
      <path
         d="m 0,0 c -0.366,0 -0.723,0.186 -0.925,0.523 l -2.064,3.44 c -0.307,0.51 -0.141,1.172 0.369,1.477 0.512,0.308 1.173,0.14 1.477,-0.368 L 0.922,1.632 C 1.228,1.121 1.063,0.46 0.553,0.154 0.38,0.049 0.188,0 0,0"
         style="fill:#000094;fill-opacity:1;fill-rule:nonzero;stroke:none"
         id="path317" />
    </g>
    <g
       id="g319"
       transform="matrix(0.35277777,0,0,-0.35277777,97.704838,113.81414)">
      <path
         d="M 0,0 C -0.502,0 -0.952,0.354 -1.055,0.866 L -1.842,4.8 C -1.958,5.384 -1.58,5.951 -0.997,6.068 -0.412,6.187 0.154,5.806 0.271,5.223 L 1.058,1.289 C 1.174,0.705 0.796,0.138 0.213,0.021 0.141,0.007 0.07,0 0,0"
         style="fill:#000094;fill-opacity:1;fill-rule:nonzero;stroke:none"
         id="path321" />
    </g>
    <g
       id="g323"
       transform="matrix(0.35277777,0,0,-0.35277777,97.799665,110.37682)">
      <path
         d="m 0,0 c -0.451,0 -0.871,0.285 -1.022,0.737 l -1.269,3.806 c -0.188,0.564 0.117,1.174 0.682,1.362 0.563,0.191 1.173,-0.116 1.362,-0.681 L 1.022,1.417 C 1.21,0.854 0.905,0.244 0.34,0.055 0.228,0.018 0.113,0 0,0"
         style="fill:#000094;fill-opacity:1;fill-rule:nonzero;stroke:none"
         id="path325" />
    </g>
    <g
       id="g327"
       transform="matrix(0.35277777,0,0,-0.35277777,101.70894,110.37682)">
      <path
         d="m 0,0 c -0.275,0 -0.551,0.105 -0.762,0.315 l -2.837,2.837 c -0.421,0.421 -0.421,1.103 0,1.524 0.422,0.42 1.102,0.42 1.524,0 L 0.762,1.839 C 1.183,1.418 1.183,0.736 0.762,0.315 0.551,0.105 0.276,0 0,0"
         style="fill:#000094;fill-opacity:1;fill-rule:nonzero;stroke:none"
         id="path329" />
    </g>
    <g
       id="g331"
       transform="matrix(0.35277777,0,0,-0.35277777,103.93338,99.660062)">
      <path
         d="m 0,0 c -0.366,0 -0.723,0.186 -0.925,0.523 -0.306,0.51 -0.141,1.171 0.37,1.478 l 3.44,2.064 C 3.395,4.369 4.057,4.204 4.363,3.695 4.669,3.185 4.503,2.524 3.993,2.217 L 0.552,0.153 C 0.38,0.049 0.188,0 0,0"
         style="fill:#000094;fill-opacity:1;fill-rule:nonzero;stroke:none"
         id="path333" />
    </g>
    <g
       id="g335"
       transform="matrix(0.35277777,0,0,-0.35277777,103.75805,102.93017)">
      <path
         d="m 0,0 c -0.502,0 -0.952,0.354 -1.055,0.866 -0.117,0.583 0.262,1.151 0.845,1.267 L 3.724,2.92 C 4.307,3.038 4.874,2.659 4.992,2.075 5.109,1.492 4.73,0.925 4.147,0.808 L 0.213,0.021 C 0.141,0.007 0.07,0 0,0"
         style="fill:#000094;fill-opacity:1;fill-rule:nonzero;stroke:none"
         id="path337" />
    </g>
    <g
       id="g339"
       transform="matrix(0.35277777,0,0,-0.35277777,100.36623,103.00566)">
      <path
         d="M 0,0 C -0.451,0 -0.871,0.285 -1.022,0.737 -1.21,1.301 -0.905,1.911 -0.34,2.099 L 3.466,3.367 C 4.03,3.557 4.64,3.25 4.828,2.686 5.016,2.122 4.711,1.511 4.146,1.324 L 0.34,0.055 C 0.228,0.017 0.113,0 0,0"
         style="fill:#000094;fill-opacity:1;fill-rule:nonzero;stroke:none"
         id="path341" />
    </g>
    <g
       id="g343"
       transform="matrix(0.35277777,0,0,-0.35277777,105.14605,110.09357)">
      <path
         d="m 0,0 c -0.188,0 -0.38,0.049 -0.552,0.153 l -3.441,2.064 c -0.51,0.307 -0.676,0.968 -0.37,1.478 0.307,0.51 0.97,0.676 1.478,0.37 L 0.555,2.001 C 1.066,1.694 1.231,1.033 0.925,0.523 0.723,0.186 0.366,0 0,0"
         style="fill:#000094;fill-opacity:1;fill-rule:nonzero;stroke:none"
         id="path345" />
    </g>
    <g
       id="g347"
       transform="matrix(0.35277777,0,0,-0.35277777,105.147,106.37321)">
      <path
         d="m 0,0 c -0.07,0 -0.141,0.007 -0.213,0.021 l -3.934,0.787 c -0.584,0.117 -0.962,0.685 -0.845,1.268 0.118,0.583 0.681,0.958 1.268,0.845 L 0.21,2.133 C 0.794,2.017 1.172,1.449 1.055,0.866 0.952,0.354 0.502,0 0,0"
         style="fill:#000094;fill-opacity:1;fill-rule:nonzero;stroke:none"
         id="path349" />
    </g>
    <g
       id="g351"
       transform="matrix(0.35277777,0,0,-0.35277777,101.70894,106.46754)">
      <path
         d="m 0,0 c -0.113,0 -0.228,0.017 -0.34,0.055 l -3.806,1.269 c -0.565,0.189 -0.87,0.799 -0.682,1.362 0.188,0.565 0.798,0.872 1.362,0.682 L 0.34,2.099 C 0.905,1.911 1.21,1.301 1.022,0.737 0.871,0.285 0.451,0 0,0"
         style="fill:#000094;fill-opacity:1;fill-rule:nonzero;stroke:none"
         id="path353" />
    </g>
    <g
       id="g355"
       transform="matrix(0.35277777,0,0,-0.35277777,87.756681,99.660062)">
      <path
         d="m 0,0 c -0.188,0 -0.379,0.049 -0.552,0.153 l -3.441,2.064 c -0.51,0.307 -0.676,0.968 -0.37,1.478 0.306,0.509 0.971,0.674 1.478,0.37 L 0.555,2.001 C 1.066,1.694 1.231,1.033 0.925,0.523 0.723,0.186 0.366,0 0,0"
         style="fill:#000094;fill-opacity:1;fill-rule:nonzero;stroke:none"
         id="path357" />
    </g>
    <g
       id="g359"
       transform="matrix(0.35277777,0,0,-0.35277777,87.932047,102.93017)">
      <path
         d="m 0,0 c -0.07,0 -0.141,0.007 -0.213,0.021 l -3.934,0.787 c -0.583,0.117 -0.962,0.684 -0.845,1.267 0.117,0.584 0.681,0.962 1.268,0.845 L 0.21,2.133 C 0.793,2.017 1.172,1.449 1.055,0.866 0.952,0.354 0.502,0 0,0"
         style="fill:#000094;fill-opacity:1;fill-rule:nonzero;stroke:none"
         id="path361" />
    </g>
    <g
       id="g363"
       transform="matrix(0.35277777,0,0,-0.35277777,91.323829,103.00566)">
      <path
         d="m 0,0 c -0.113,0 -0.228,0.017 -0.34,0.055 l -3.806,1.269 c -0.565,0.187 -0.87,0.798 -0.682,1.362 0.188,0.564 0.798,0.871 1.362,0.681 L 0.34,2.099 C 0.905,1.911 1.21,1.301 1.022,0.737 0.871,0.286 0.451,0 0,0"
         style="fill:#000094;fill-opacity:1;fill-rule:nonzero;stroke:none"
         id="path365" />
    </g>
    <g
       id="g367"
       transform="matrix(0.35277777,0,0,-0.35277777,86.544043,110.09357)">
      <path
         d="m 0,0 c -0.366,0 -0.723,0.186 -0.925,0.523 -0.306,0.51 -0.141,1.171 0.37,1.478 l 3.44,2.064 C 3.394,4.371 4.057,4.205 4.363,3.695 4.668,3.185 4.503,2.524 3.992,2.217 L 0.552,0.153 C 0.38,0.049 0.188,0 0,0"
         style="fill:#000094;fill-opacity:1;fill-rule:nonzero;stroke:none"
         id="path369" />
    </g>
    <g
       id="g371"
       transform="matrix(0.35277777,0,0,-0.35277777,86.543091,106.37321)">
      <path
         d="m 0,0 c -0.502,0 -0.952,0.354 -1.055,0.866 -0.117,0.583 0.261,1.151 0.845,1.267 L 3.724,2.921 C 4.307,3.034 4.875,2.659 4.992,2.076 5.109,1.493 4.731,0.925 4.147,0.808 L 0.213,0.021 C 0.141,0.007 0.07,0 0,0"
         style="fill:#000094;fill-opacity:1;fill-rule:nonzero;stroke:none"
         id="path373" />
    </g>
    <g
       id="g375"
       transform="matrix(0.35277777,0,0,-0.35277777,89.981122,106.46754)">
      <path
         d="M 0,0 C -0.451,0 -0.871,0.285 -1.022,0.737 -1.21,1.301 -0.905,1.911 -0.34,2.099 L 3.466,3.368 C 4.028,3.558 4.639,3.251 4.828,2.686 5.016,2.123 4.711,1.513 4.147,1.324 L 0.34,0.055 C 0.228,0.017 0.113,0 0,0"
         style="fill:#000094;fill-opacity:1;fill-rule:nonzero;stroke:none"
         id="path377" />
    </g>
    <g
       id="g379"
       transform="matrix(0.35277777,0,0,-0.35277777,94.62156,103.66942)">
      <path
         d="M 0,0 C -0.551,0 -1.103,0.211 -1.523,0.631 L -4.36,3.468 c -0.841,0.841 -0.841,2.205 0,3.046 0.84,0.842 2.206,0.842 3.046,0 L 1.523,3.677 C 2.364,2.836 2.364,1.472 1.523,0.631 1.103,0.211 0.551,0 0,0"
         style="fill:#000094;fill-opacity:1;fill-rule:nonzero;stroke:none"
         id="path381" />
    </g>
    <g
       id="g383"
       transform="matrix(0.35277777,0,0,-0.35277777,97.068533,103.66942)">
      <path
         d="m 0,0 c -0.551,0 -1.103,0.211 -1.523,0.631 -0.841,0.841 -0.841,2.205 0,3.046 l 2.837,2.837 c 0.84,0.842 2.206,0.842 3.046,0 0.841,-0.841 0.841,-2.205 0,-3.046 L 1.523,0.631 C 1.103,0.211 0.551,0 0,0"
         style="fill:#000094;fill-opacity:1;fill-rule:nonzero;stroke:none"
         id="path385" />
    </g>
    <g
       id="g387"
       transform="matrix(0.35277777,0,0,-0.35277777,93.620695,107.11701)">
      <path
         d="m 0,0 c -0.551,0 -1.103,0.211 -1.523,0.631 -0.841,0.841 -0.841,2.205 0,3.046 l 2.837,2.837 c 0.84,0.842 2.206,0.842 3.046,0 0.841,-0.841 0.841,-2.205 0,-3.045 L 1.523,0.631 C 1.103,0.211 0.551,0 0,0"
         style="fill:#000094;fill-opacity:1;fill-rule:nonzero;stroke:none"
         id="path389" />
    </g>
    <g
       id="g391"
       transform="matrix(0.35277777,0,0,-0.35277777,98.069363,107.11701)">
      <path
         d="M 0,0 C -0.551,0 -1.103,0.211 -1.523,0.631 L -4.36,3.469 c -0.841,0.84 -0.841,2.204 0,3.045 0.84,0.842 2.206,0.842 3.046,0 L 1.523,3.677 C 2.364,2.836 2.364,1.472 1.523,0.631 1.103,0.211 0.551,0 0,0"
         style="fill:#000094;fill-opacity:1;fill-rule:nonzero;stroke:none"
         id="path393" />
    </g>
    <g
       id="g395"
       transform="matrix(0.35277777,0,0,-0.35277777,82.0898,118.42992)">
      <path
         d="m 0,0 6.334,6.333 c 0.42,0.421 0.42,1.103 0,1.524 -0.422,0.42 -1.103,0.42 -1.524,0 L -1.524,1.523 -7.857,7.857 c -0.422,0.42 -1.102,0.42 -1.524,0 -0.42,-0.421 -0.42,-1.103 0,-1.524 L -3.047,0 -9.381,-6.334 c -0.42,-0.42 -0.42,-1.102 0,-1.523 0.211,-0.21 0.487,-0.315 0.762,-0.315 0.276,0 0.551,0.105 0.762,0.315 l 6.333,6.333 6.334,-6.333 c 0.211,-0.21 0.486,-0.315 0.762,-0.315 0.275,0 0.551,0.105 0.762,0.315 0.42,0.421 0.42,1.103 0,1.523 z"
         style="fill:#000094;fill-opacity:1;fill-rule:nonzero;stroke:none"
         id="path397" />
    </g>
    <g
       id="g399"
       transform="matrix(0.35277777,0,0,-0.35277777,89.981122,110.37682)">
      <path
         d="m 0,0 c -0.275,0 -0.551,0.105 -0.762,0.315 -0.42,0.421 -0.42,1.103 0,1.524 l 2.837,2.837 c 0.422,0.42 1.102,0.42 1.524,0 0.421,-0.421 0.421,-1.103 0,-1.524 L 0.762,0.315 C 0.551,0.105 0.275,0 0,0"
         style="fill:#000094;fill-opacity:1;fill-rule:nonzero;stroke:none"
         id="path401" />
    </g>
    <g
       id="g403"
       transform="matrix(0.35277777,0,0,-0.35277777,90.981987,99.649619)">
      <path
         d="m 0,0 c -0.275,0 -0.551,0.105 -0.762,0.315 l -2.837,2.837 c -0.421,0.421 -0.421,1.103 0,1.524 0.422,0.42 1.102,0.42 1.524,0 L 0.762,1.839 c 0.42,-0.421 0.42,-1.103 0,-1.524 C 0.551,0.105 0.275,0 0,0"
         style="fill:#000094;fill-opacity:1;fill-rule:nonzero;stroke:none"
         id="path405" />
    </g>
    <g
       id="g407"
       transform="matrix(0.35277777,0,0,-0.35277777,100.70811,99.649619)">
      <path
         d="m 0,0 c -0.276,0 -0.551,0.105 -0.762,0.315 -0.421,0.421 -0.421,1.103 0,1.524 l 2.837,2.837 c 0.422,0.42 1.102,0.42 1.524,0 0.421,-0.421 0.421,-1.103 0,-1.524 L 0.762,0.315 C 0.551,0.105 0.276,0 0,0"
         style="fill:#000094;fill-opacity:1;fill-rule:nonzero;stroke:none"
         id="path409" />
    </g>
    <g
       id="g411"
       transform="matrix(0.35277777,0,0,-0.35277777,65.298496,115.63596)">
      <path
         d="M 0,0 C -0.594,0 -1.06,-0.465 -1.06,-1.06 V -2.461 C -2.488,-0.894 -4.469,0 -6.532,0 c -4.187,0 -7.593,-3.589 -7.593,-8 0,-4.412 3.406,-8.001 7.593,-8.001 2.053,0 4.033,0.904 5.472,2.489 v -1.43 c 0,-0.574 0.485,-1.059 1.06,-1.059 0.575,0 1.06,0.485 1.06,1.059 V -1.06 C 1.06,-0.465 0.594,0 0,0 m -6.532,-13.882 c -3.018,0 -5.474,2.638 -5.474,5.882 0,3.259 2.456,5.911 5.474,5.911 3.018,0 5.472,-2.652 5.472,-5.911 0,-3.244 -2.454,-5.882 -5.472,-5.882"
         style="fill:#000094;fill-opacity:1;fill-rule:nonzero;stroke:none"
         id="path413" />
    </g>
    <g
       id="g415"
       transform="matrix(0.35277777,0,0,-0.35277777,67.895575,113.70979)">
      <path
         d="m 0,0 c -0.575,0 -1.06,-0.485 -1.06,-1.06 v -0.722 c 0,-0.609 0.485,-1.123 1.06,-1.123 0.602,0 1.092,0.504 1.092,1.123 V -1.06 C 1.092,-0.475 0.602,0 0,0"
         style="fill:#000094;fill-opacity:1;fill-rule:nonzero;stroke:none"
         id="path417" />
    </g>
    <g
       id="g419"
       transform="matrix(0.35277777,0,0,-0.35277777,67.895575,115.63596)">
      <path
         d="m 0,0 c -0.594,0 -1.06,-0.465 -1.06,-1.06 v -13.882 c 0,-0.574 0.485,-1.059 1.06,-1.059 0.602,0 1.092,0.475 1.092,1.059 V -1.06 C 1.092,-0.455 0.623,0 0,0"
         style="fill:#000094;fill-opacity:1;fill-rule:nonzero;stroke:none"
         id="path421" />
    </g>
    <g
       id="g423"
       transform="matrix(0.35277777,0,0,-0.35277777,74.790934,115.63596)">
      <path
         d="M 0,0 C -0.594,0 -1.06,-0.465 -1.06,-1.06 V -2.461 C -2.488,-0.894 -4.469,0 -6.532,0 c -4.187,0 -7.593,-3.589 -7.593,-8 0,-4.412 3.406,-8.001 7.593,-8.001 2.053,0 4.033,0.904 5.472,2.489 v -1.43 c 0,-0.574 0.485,-1.059 1.06,-1.059 0.575,0 1.06,0.485 1.06,1.059 V -1.06 C 1.06,-0.465 0.594,0 0,0 m -1.06,-8 c 0,-3.244 -2.454,-5.882 -5.472,-5.882 -3.019,0 -5.474,2.638 -5.474,5.882 0,3.259 2.455,5.911 5.474,5.911 3.018,0 5.472,-2.652 5.472,-5.911"
         style="fill:#000094;fill-opacity:1;fill-rule:nonzero;stroke:none"
         id="path425" />
    </g>
    <g
       id="g427"
       transform="matrix(0.35277777,0,0,-0.35277777,58.487698,115.63596)">
      <path
         d="M 0,0 C -0.602,0 -1.091,-0.475 -1.091,-1.06 V -2.449 C -2.497,-0.889 -4.467,0 -6.534,0 c -4.152,0 -7.529,-3.561 -7.529,-7.939 0,-4.394 3.377,-7.968 7.529,-7.968 2.082,0 4.051,0.886 5.443,2.44 v -1.004 c 0,-3.033 -2.391,-5.41 -5.443,-5.41 -0.77,0 -1.471,0.151 -2.204,0.474 -0.739,0.326 -1.309,0.723 -1.79,1.243 -0.179,0.227 -0.431,0.365 -0.715,0.387 -0.009,0 -0.017,0 -0.025,0 -0.291,0 -0.568,-0.107 -0.758,-0.291 -0.465,-0.387 -0.404,-1.055 -0.1,-1.501 0.677,-0.683 1.428,-1.241 2.157,-1.604 l 0.105,-0.076 c 0.056,-0.026 0.114,-0.049 0.165,-0.067 l 0.184,-0.08 c 0.066,-0.033 0.133,-0.065 0.206,-0.095 0.863,-0.342 1.777,-0.514 2.717,-0.514 0.521,0 1.048,0.053 1.563,0.158 l 0.071,0.012 c 0.507,0.111 0.946,0.248 1.383,0.429 0.4,0.174 0.792,0.385 1.163,0.63 0.109,0.069 0.211,0.15 0.31,0.227 l 0.157,0.123 c 0.174,0.135 0.353,0.275 0.521,0.43 0.164,0.15 0.331,0.323 0.527,0.543 0.053,0.058 0.143,0.172 0.143,0.172 1.166,1.389 1.782,3.052 1.782,4.81 V -1.06 C 1.028,-0.495 0.548,0 0,0 m -1.091,-7.939 c 0,-3.242 -2.442,-5.88 -5.443,-5.88 -2.983,0 -5.41,2.638 -5.41,5.88 0,3.209 2.427,5.82 5.41,5.82 3.001,0 5.443,-2.611 5.443,-5.82"
         style="fill:#000094;fill-opacity:1;fill-rule:nonzero;stroke:none"
         id="path429" />
    </g>
  </g>
</svg>
