<?xml version="1.0" encoding="utf-8"?>
<!-- Generator: Adobe Illustrator 26.0.3, SVG Export Plug-In . SVG Version: 6.00 Build 0)  -->
<svg version="1.1" id="Logo_PlusServer" xmlns="http://www.w3.org/2000/svg" xmlns:xlink="http://www.w3.org/1999/xlink" x="0px"
	 y="0px" viewBox="0 0 567.9 99.2" style="enable-background:new 0 0 567.9 99.2;" xml:space="preserve">
<style type="text/css">
	.st0{fill:#010869;}
</style>
<path class="st0" d="M554.4,41.4c1.7,2,3.1,4.4,4,6.9h9.5c-1.3-3.9-3.1-7.6-5.4-11c-2.2-3.3-5.3-5.8-9.1-7.1c-2.4-0.7-4.9-1-7.3-0.9
	c-4.9,0-9.7,1.4-13.8,3.9c-1.4,0.9-2.7,1.9-4,3v-6.9l-8.8,3v45.9h8.8v-32c8-7.1,14-8.6,18.3-8.6C549.6,37.5,552.5,38.9,554.4,41.4z"
	/>
<path class="st0" d="M341.2,64c-0.1,0.5-0.2,1.1-0.3,1.6l0,0c-0.2,0.6-0.6,1.1-1,1.5l0,0c-0.6,0.6-1.2,1.2-2,1.5c-1,0.5-2,0.8-3.1,1
	c-1.6,0.3-3.2,0.5-4.8,0.5c-1.9,0.1-4.2,0.1-6.8,0.1c-3.5,0-6.5-0.1-8.9-0.2c-2.1-0.1-4.1-0.3-6.1-0.6c-1.4-0.2-2.7-0.6-4-1.1
	c-0.9-0.4-1.7-0.9-2.4-1.6l0,0c-1.1-1.2-1.9-2.6-2.3-4.2c-0.5-2.1-0.9-4.3-1-6.4h52.2v-0.7c-0.1-2.8-0.2-5.1-0.4-7.1
	c-0.1-1.8-0.4-3.5-0.8-5.2c-0.3-1.4-0.8-2.8-1.5-4.1c-0.6-1.2-1.4-2.3-2.3-3.3l0,0c-1.1-1.2-2.4-2.3-3.8-3.1
	c-1.6-0.9-3.4-1.6-5.2-1.9c-2.4-0.5-4.8-0.8-7.3-1c-2.9-0.2-6.3-0.3-10.4-0.3c-2.9,0-5.3,0-7.5,0.1s-4,0.3-5.7,0.5
	c-1.5,0.2-2.9,0.5-4.4,0.9c-1.2,0.3-2.3,0.8-3.4,1.4l0,0c-3.2,1.7-5.7,4.5-7,7.9c-1.5,3.5-2.2,8.1-2.2,13.8
	c-0.1,4.1,0.5,8.3,1.7,12.2c0.9,3,2.8,5.7,5.2,7.7l0,0c1.2,0.9,2.5,1.6,3.9,2.1c1.8,0.6,3.7,1.1,5.6,1.4c2.6,0.4,5.2,0.7,7.8,0.8
	c3,0.1,6.5,0.2,10.6,0.2c4,0,8.1-0.2,12.1-0.8c2.9-0.4,5.7-1.2,8.2-2.6c2-1.1,3.7-2.8,4.8-4.9c0.9-1.9,1.4-3.9,1.5-6L341.2,64z
	 M300,43c0.6-1.5,1.7-2.7,3.1-3.5c1.9-1,3.9-1.6,6-1.9c3.3-0.4,6.6-0.6,9.9-0.5c3.7,0,7.4,0.1,11.1,0.5c2.4,0.2,4.7,0.9,6.8,1.9
	c1.5,0.8,2.6,2,3.3,3.5c0.6,1.7,0.9,3.4,0.9,5.2h-42.3C298.9,46.5,299.3,44.7,300,43L300,43z"/>
<polygon class="st0" points="439.2,29.9 419.6,85.4 409.3,56.1 400,56.1 415.1,99.2 424.1,99.2 448.6,29.9 "/>
<path class="st0" d="M393.2,41.4c1.7,2,3.1,4.4,4,6.9h9.5c-1.3-3.9-3.1-7.6-5.4-11c-2.2-3.3-5.3-5.8-9.1-7.1c-2.4-0.7-4.9-1-7.3-0.9
	c-4.9,0-9.7,1.4-13.9,3.9c-1.4,0.9-2.8,1.9-4,3v-6.9l-8.8,3v45.9h8.8v-32c8-7.1,13.9-8.6,18.3-8.6C388.3,37.5,391.2,38.9,393.2,41.4
	z"/>
<path class="st0" d="M502.5,64c-0.1,0.5-0.2,1.1-0.3,1.6l0,0c-0.2,0.6-0.6,1.1-1,1.5l0,0c-0.6,0.6-1.3,1.2-2,1.5c-1,0.5-2,0.8-3.1,1
	c-1.6,0.3-3.2,0.5-4.8,0.5c-1.9,0.1-4.2,0.1-6.8,0.1c-3.5,0-6.5-0.1-8.9-0.2c-2.1-0.1-4.1-0.3-6.2-0.6c-1.4-0.2-2.7-0.6-4-1.1
	c-0.9-0.4-1.7-0.9-2.4-1.6l0,0c-1.1-1.2-1.9-2.6-2.3-4.2c-0.5-2.1-0.8-4.3-0.9-6.4h52.2v-0.7c-0.1-2.8-0.2-5.1-0.4-7.1
	c-0.1-1.8-0.4-3.5-0.8-5.2c-0.3-1.4-0.8-2.8-1.5-4.1c-0.6-1.2-1.4-2.3-2.3-3.3l0,0c-1.1-1.2-2.4-2.3-3.8-3.1
	c-1.6-0.9-3.4-1.6-5.2-1.9c-2.4-0.5-4.8-0.8-7.3-1c-2.9-0.2-6.3-0.3-10.4-0.3c-2.8,0-5.3,0-7.5,0.1s-4,0.3-5.7,0.5
	c-1.5,0.2-2.9,0.5-4.4,0.9c-1.2,0.3-2.3,0.8-3.4,1.4l0,0c-3.2,1.7-5.7,4.5-7,7.9c-1.5,3.5-2.2,8.1-2.2,13.8
	c-0.2,4.1,0.4,8.3,1.5,12.3c0.9,3,2.8,5.7,5.2,7.7l0,0c1.2,0.9,2.5,1.6,4,2.1c1.8,0.6,3.7,1.1,5.6,1.4c2.6,0.4,5.2,0.7,7.8,0.8
	c3,0.1,6.5,0.2,10.6,0.2c4,0,8.1-0.2,12.1-0.8c2.9-0.4,5.7-1.2,8.2-2.6c2-1.1,3.7-2.8,4.7-4.9c0.9-1.9,1.4-3.9,1.5-6L502.5,64z
	 M461.2,43c0.6-1.5,1.7-2.7,3.1-3.5c1.9-1,3.9-1.6,6-1.9c3.3-0.4,6.6-0.6,9.9-0.5c3.7,0,7.5,0.1,11.2,0.5c2.4,0.2,4.7,0.9,6.8,1.9
	c1.5,0.8,2.6,2,3.3,3.5c0.6,1.7,0.9,3.4,0.9,5.2H460C460.2,46.5,460.6,44.7,461.2,43L461.2,43z"/>
<path class="st0" d="M279,53.2c-2.5-2.3-6.6-3.4-12-3.6l0,0c-1.2-0.1-2.9-0.1-5-0.1s-4.2-0.1-6.4-0.1c-2.2-0.1-4.2-0.1-6.1-0.1h-4.1
	H243c-1.8,0-3.3-0.1-4.6-0.2c-1.4-0.1-2.7-0.4-4-0.8c-0.8-0.3-1.4-0.8-1.8-1.5c-0.4-0.9-0.6-1.9-0.5-2.8c0-1,0.1-1.9,0.5-2.8
	c0.3-0.7,0.7-1.3,1.4-1.7l0,0c0.8-0.6,2.8-1.2,5.8-1.6c4.1-0.4,8.3-0.6,12.5-0.6c4.2-0.1,8.5,0.1,12.7,0.6c2.9,0.4,4.7,1.2,5.5,2
	l0,0c0.4,0.4,0.8,1,0.9,1.6c0.1,0.2,0.1,0.5,0.1,0.7h9.5c0-0.3,0-0.5,0-0.7c-0.1-0.8-0.2-1.6-0.3-2.4c-0.1-0.7-0.4-1.4-0.7-2
	c-0.3-0.6-0.7-1.1-1.1-1.6l0,0l0,0c-1-1.2-2.1-2.1-3.4-2.9c-1.6-0.9-3.3-1.5-5.1-1.9c-2.4-0.5-4.9-0.8-7.4-1
	c-2.9-0.2-6.3-0.3-10.2-0.3c-5.3-0.1-10.7,0.2-16,0.7c-3.8,0.5-6.6,1.2-8.5,2.4l0,0c-3.5,2.3-5.3,6.2-5.3,11.3
	c-0.1,2.1,0.3,4.2,0.9,6.1c0.6,1.7,1.7,3.2,3.1,4.2c1.6,1.2,3.5,2,5.5,2.3c2.6,0.5,5.3,0.8,8,0.8l0,0l10.6,0.1c2.6,0,4.7,0,6.1,0
	h5.6c4.2,0,7.1,0.5,8.6,1.4c0.8,0.4,1.4,1.1,1.7,1.9c0.4,1,0.6,2.1,0.6,3.2c0,2.1-0.6,3.5-1.8,4.4l0,0l0,0c-0.5,0.5-1.1,0.8-1.8,1
	c-1,0.3-2.1,0.5-3.2,0.6c-1.4,0.2-3.1,0.3-5.2,0.4s-4.8,0.1-8,0.1c-5.3,0-9.5-0.1-12.5-0.2c-2.2,0-4.4-0.3-6.5-1
	c-1.1-0.3-2-1.2-2.4-2.2c-0.3-1-0.4-1.9-0.5-2.9h-9.5c0,2.1,0.3,4.2,1,6.2c0.7,1.8,2,3.4,3.6,4.5l0,0c1.1,0.8,2.2,1.4,3.5,1.8
	c1.7,0.5,3.4,0.9,5.1,1.1c2.1,0.3,4.5,0.5,7.4,0.6s6.3,0.1,10.3,0.1c6.7,0,11.9-0.2,15.6-0.6c3.7-0.4,6.4-1,8.3-2
	c2-1,3.5-2.6,4.5-4.6c1-2.3,1.5-4.8,1.4-7.3C282.7,59.1,281.5,55.5,279,53.2z"/>
<path class="st0" d="M212.1,53.2c-2.5-2.3-6.6-3.4-12-3.6l0,0c-1.2-0.1-2.9-0.1-5-0.1s-4.2-0.1-6.4-0.1s-4.2-0.1-6.1-0.1h-4.1h-2.3
	c-1.8,0-3.3-0.1-4.6-0.2c-1.4-0.1-2.7-0.4-4-0.8c-0.8-0.3-1.4-0.8-1.8-1.5c-0.4-0.9-0.6-1.9-0.5-2.8c0-1,0.1-1.9,0.5-2.8
	c0.3-0.7,0.7-1.3,1.3-1.7l0,0c0.8-0.6,2.8-1.2,5.9-1.6c4.1-0.4,8.3-0.6,12.4-0.6c4.2-0.1,8.5,0.1,12.7,0.6c2.9,0.4,4.7,1.2,5.5,2
	l0,0c0.4,0.4,0.8,1,0.9,1.6c0,0.2,0.1,0.5,0.1,0.7h9.5c0-0.3,0-0.5,0-0.7c-0.1-0.8-0.2-1.6-0.3-2.4c-0.1-0.7-0.4-1.4-0.8-2
	c-0.3-0.5-0.7-1.1-1.1-1.6l0,0l0,0c-1-1.2-2.1-2.1-3.4-2.9c-1.6-0.9-3.3-1.5-5.1-1.9c-2.4-0.5-4.9-0.8-7.4-1
	c-2.9-0.2-6.3-0.3-10.2-0.3c-5.4-0.1-10.7,0.2-16,0.7c-3.8,0.5-6.6,1.2-8.5,2.4l0,0c-3.5,2.3-5.3,6.2-5.3,11.3
	c0,2.1,0.3,4.2,0.9,6.1c0.6,1.7,1.7,3.2,3.1,4.2c1.6,1.2,3.5,2,5.5,2.3c2.6,0.5,5.3,0.8,8,0.8l0,0l10.6,0.1c2.6,0,4.7,0,6.1,0h5.6
	c4.2,0,7.1,0.5,8.6,1.4c0.8,0.4,1.4,1.1,1.7,1.9c0.4,1,0.6,2.1,0.6,3.2c0,2.1-0.6,3.5-1.8,4.4l0,0l0,0c-0.5,0.4-1.1,0.8-1.8,1
	c-1,0.3-2.1,0.5-3.2,0.6c-1.4,0.2-3.1,0.3-5.3,0.4s-4.8,0.1-8,0.1c-5.3,0-9.5-0.1-12.5-0.2c-2.2,0-4.4-0.3-6.5-1
	c-1.1-0.3-2-1.2-2.4-2.2c-0.3-1-0.4-1.9-0.5-2.9h-9.5c0,2.1,0.3,4.2,1,6.2c0.7,1.8,2,3.4,3.6,4.5l0,0c1.1,0.8,2.2,1.4,3.5,1.8
	c1.7,0.5,3.4,0.9,5.1,1.1c2.1,0.3,4.5,0.5,7.4,0.6s6.3,0.1,10.3,0.1c6.7,0,11.9-0.2,15.6-0.6s6.4-1,8.3-2c1.9-1,3.5-2.6,4.5-4.5
	c1-2.3,1.5-4.8,1.4-7.3C215.9,59.1,214.7,55.5,212.1,53.2z"/>
<path class="st0" d="M138.5,29.9v23.6c0.1,2.5-0.1,5.1-0.5,7.6c-0.3,1.5-0.9,2.9-1.9,4.1l0,0l0,0c-1.7,2-4,3.4-6.6,4
	c-4.2,0.9-8.6,1.4-12.9,1.3c-3.3,0.1-6.7-0.2-10-0.7c-1.9-0.3-3.7-1.1-5.2-2.2c-0.6-0.5-1.1-1.1-1.5-1.8c-0.4-0.8-0.8-1.6-1-2.5
	c-0.3-1.2-0.5-2.4-0.5-3.7c-0.1-1.5-0.1-3.3-0.1-5.5V29.9h-8.9v26.3c0,2.4,0.1,4.5,0.3,6.4c0.1,1.6,0.4,3.2,0.8,4.8
	c0.3,1.3,0.8,2.5,1.5,3.6c0.6,1,1.4,1.9,2.2,2.6l0,0c2.3,1.9,5,3.1,7.9,3.6c4.5,0.8,9.1,1.1,13.7,1c3.7,0,6.8-0.1,9.3-0.4
	c2.2-0.2,4.4-0.6,6.6-1.2c1.7-0.5,3.2-1.3,4.6-2.4c0.9-0.8,1.6-1.6,2.3-2.5v6h8.9V29.9H138.5z"/>
<polygon class="st0" points="71.5,3 71.5,78.2 80.3,78.2 80.3,0 "/>
<path class="st0" d="M60.5,40.6l-0.7,0.3L60.5,40.6c-1.2-3.2-3.5-5.9-6.4-7.7c-1.1-0.7-2.4-1.3-3.6-1.8c-1.5-0.5-3.1-0.9-4.7-1.1
	c-1.8-0.3-3.9-0.5-6.3-0.6s-5.2-0.1-8.5-0.1c-3.7,0-6.8,0.1-9.3,0.2c-2.2,0.1-4.3,0.4-6.4,1c-1.6,0.4-3.1,1.2-4.4,2.2
	c-0.7,0.6-1.4,1.4-2,2.1v-5.6l-8.9,3v66.9l8.9-3.1V72.9c0.7,0.8,1.4,1.5,2.2,2.1c1.3,0.9,2.8,1.6,4.3,2c2,0.5,4,0.8,6.1,1
	c2.4,0.2,5.3,0.3,8.7,0.3s6.1,0,8.5-0.1s4.6-0.3,6.4-0.5c1.6-0.2,3.2-0.5,4.8-1c1.2-0.4,2.4-0.9,3.5-1.5c3.1-1.8,5.6-4.6,6.9-7.9
	c1.4-3.4,2.1-7.9,2.1-13.4S61.7,43.8,60.5,40.6z M13.1,39.7c0.7-0.5,1.5-0.9,2.4-1.2c1.2-0.4,2.5-0.7,3.8-0.8
	c1.5-0.2,3.4-0.4,5.6-0.5s4.8-0.1,7.9-0.1c3.6-0.1,7.1,0.2,10.7,0.6c2.2,0.2,4.2,1.1,6,2.4c1.5,1.3,2.5,3.1,2.9,5
	c0.6,2.9,0.9,5.8,0.8,8.8c0.1,3.1-0.2,6.1-1,9.1c-0.6,1.9-1.7,3.6-3.3,4.7c-0.8,0.5-1.6,1-2.5,1.3c-1.2,0.4-2.4,0.7-3.6,0.8
	c-1.4,0.2-3.2,0.4-5.3,0.5s-4.5,0.1-7.4,0.1c-3.7,0.1-7.5-0.2-11.2-0.6c-2.3-0.2-4.5-1.1-6.3-2.4c-1.5-1.3-2.6-3-2.9-5
	c-0.6-3-0.9-6-0.8-9c-0.1-3,0.2-6,1-8.8C10.3,42.6,11.4,40.9,13.1,39.7L13.1,39.7z"/>
</svg>
