<?xml version="1.0" encoding="UTF-8"?><svg id="Ebene_1" xmlns="http://www.w3.org/2000/svg" viewBox="0 0 549 228"><defs><style>.cls-1{fill:#003056;}.cls-2{fill:#ffcb00;}</style></defs><path class="cls-2" d="M398.13,24.84c3.98,0,7.21,3.33,7.21,7.29v34.21c0,3.96-3.24,7.12-7.21,7.12h-34.27c-3.97,0-7.21-3.16-7.21-7.12V32.08c0-3.96,3.24-7.25,7.21-7.25h34.27"/><path class="cls-1" d="M336.02,156.41c3.97,0,7.22,3.24,7.22,7.2v34.18c0,3.96-3.25,7.19-7.22,7.19H204.52c-3.97,0-7.41-3.29-7.41-7.26V73.46c0-50,40.8-48.62,45.9-48.62h93.01c3.97,0,7.22,3.35,7.22,7.31v34.19c0,3.96-3.25,7.12-7.22,7.12h-79.34s-9.5-.39-9.5,9.36v10.46h85.17c3.97,0,7.22,3.24,7.22,7.2v27.03c0,3.96-3.25,7.19-7.22,7.19h-85.17l-.03,21.72h88.88"/><path class="cls-1" d="M469.94,93.58s9.57,.61,9.57-9.13v-11.01s-53.39,.01-53.39,.01c-3.97,0-7.22-3.16-7.22-7.12V32.1c0-3.96,3.25-7.26,7.22-7.26h96.04c3.97-.01,7.22,3.22,7.22,7.18l.13,52.91c0,50.01-41.64,49.81-45.87,49.81h-78.27v63.01c-.01,3.96-3.25,7.24-7.22,7.24h-34.23c-3.97,0-7.2-3.27-7.2-7.24V100.57c0-3.97,3.24-7.3,7.2-7.3l106.02,.31"/><path class="cls-1" d="M134.23,134.69H35.87c-3.97,0-7.21-3.23-7.21-7.19l-.2-51.85c0-50.02,41.6-50.84,45.84-50.84h104.57c3.96,0,7.21,3.29,7.21,7.25v34.26c0,3.96-3.25,7.07-7.21,7.07H88.01s-9.51,0-9.51,10.8v9.07h98.37c3.97,0,7.21,3.24,7.21,7.2l.2,53.68c0,50.01-41.6,50.85-45.84,50.85H33.86c-3.97,0-7.21-3.3-7.21-7.26v-34.26c0-3.97,3.25-7.06,7.21-7.06H124.72s9.51,0,9.51-10.81v-10.91"/></svg>