<?xml version="1.0" standalone="no"?>
<!DOCTYPE svg PUBLIC "-//W3C//DTD SVG 20010904//EN" "http://www.w3.org/TR/2001/REC-SVG-20010904/DTD/svg10.dtd">
<!-- Created using Karbon, part of Calligra: http://www.calligra.org/karbon -->
<svg xmlns="http://www.w3.org/2000/svg" xmlns:xlink="http://www.w3.org/1999/xlink" width="113.386pt" height="99.2128pt">
<defs/>
<g id="Hintergrund">
  <rect id="shape0" transform="translate(5.31497, 3.89764)" fill="#ffffff" width="106.58286180800pt" height="95.52772454600pt"/>
 </g><g id="Foerderzusatz">
  <g id="group0" transform="translate(9.15767, 7.70492)" fill="none">
   <path id="shape1" transform="translate(0.625, 0.925)" fill="#000000" d="M4.9 1C4.7 0.9 4.2 0.7 3.6 0.7C2.3 0.7 1.1 1.5 1.1 3.7C1.1 5.8 2.1 6.8 3.5 6.8C4 6.8 4.4 6.7 4.7 6.6L4.7 4.5L4.1 4.4C4 4.4 4 4.3 4 4.3C4 4.2 4.1 4.1 4.1 4L6.5 4C6.5 4 6.5 4.1 6.5 4.1C6.5 4.3 6.4 4.4 6.1 4.5L5.9 4.6L5.9 6.7C5.6 7 4.8 7.5 3.3 7.5C1.5 7.5 0 6.4 0 3.8C0 1.1 2 0 3.8 0C4.9 0 5.5 0.3 5.8 0.5C5.8 0.8 5.9 1.5 5.9 1.5C5.9 1.8 5.8 2 5.5 2C5.4 2 5.3 2 5.3 2Z"/>
   <path id="shape2" transform="translate(7.625, 3.125)" fill="#000000" d="M1.2 2.7C1.2 4 1.8 4.6 2.7 4.6C3.4 4.6 3.7 4.3 4 4.1C4.1 4.2 4.2 4.4 4.2 4.5C4.2 4.8 3.5 5.4 2.3 5.4C1 5.4 0 4.7 0 2.8C0 0.9 1.1 0 2.3 0C3.5 0 4.1 0.7 4.1 1.8C4.1 2.1 4 2.4 4 2.7ZM3 2.2C3 2.1 3.1 1.9 3.1 1.7C3.1 1.1 2.9 0.6 2.3 0.6C1.7 0.6 1.3 1.1 1.2 2.1L3 2.1Z"/>
   <path id="shape3" transform="translate(12.425, 0.625)" fill="#000000" d="M3.2 3.2L1.9 3.2L1.9 7.1L2.6 7.2C2.7 7.2 2.7 7.3 2.7 7.3C2.7 7.4 2.6 7.6 2.6 7.6L0.1 7.6C0.1 7.6 0.1 7.5 0.1 7.5C0.1 7.3 0.2 7.2 0.4 7.2L0.8 7.1L0.8 3.2L0 3.2C0 3.2 0 3.1 0 3.1C0 2.9 0.1 2.8 0.3 2.7L0.8 2.6L0.8 2.5C0.8 0.8 1.8 0 2.7 0C3.2 0 3.4 0.2 3.4 0.6C3.4 0.9 3.2 1 3.1 1.1C3 1 2.7 0.8 2.4 0.8C1.9 0.8 1.8 1.1 1.8 1.7C1.8 2 1.8 2.7 1.8 2.7L3.2 2.7Z"/>
   <path id="shape4" transform="translate(16.025, 1.225)" fill="#000000" d="M5 4.5C5 6.3 3.7 7.2 2.4 7.2C1.1 7.2 0 6.4 0 4.6C0 2.8 1.3 1.9 2.6 1.9C3.9 1.9 5 2.7 5 4.5ZM1.6 1.2C1.3 1.2 1 1 1 0.6C1 0.2 1.3 0 1.6 0C1.9 0 2.2 0.2 2.2 0.6C2.1 1 1.9 1.2 1.6 1.2ZM1.2 4.6C1.2 6 1.8 6.6 2.5 6.6C3.3 6.6 3.9 6 3.9 4.6C3.9 3.2 3.3 2.5 2.5 2.5C1.7 2.6 1.2 3.2 1.2 4.6ZM3.5 1.2C3.2 1.2 2.9 1 2.9 0.6C2.9 0.2 3.1 0 3.5 0C3.8 0 4.1 0.2 4.1 0.6C4 1 3.8 1.2 3.5 1.2Z"/>
   <path id="shape5" transform="translate(21.725, 3.125)" fill="#000000" d="M1.7 1L1.7 1C2 0.6 2.3 0 3 0C3.5 0 3.7 0.2 3.7 0.6C3.7 0.8 3.6 1 3.5 1.1C3.4 1.1 3.2 0.9 2.8 0.9C2.2 0.9 1.9 1.1 1.7 1.4L1.7 4.6L2.5 4.7C2.6 4.7 2.6 4.8 2.6 4.8C2.6 4.9 2.5 5.1 2.5 5.1L7.10543e-15 5.1C7.10543e-15 5.1 7.10543e-15 5 7.10543e-15 5C7.10543e-15 4.8 0.1 4.7 0.3 4.7L0.7 4.6L0.7 0.7L0 0.6C0 0.6 0 0.5 0 0.5C0 0.3 0.1 0.2 0.4 0.2L1.8 0.1Z"/>
   <path id="shape6" transform="translate(25.925, 0.725)" fill="#000000" d="M4.5 7L5.3 7.1C5.3 7.1 5.3 7.1 5.3 7.2C5.3 7.4 5.2 7.5 4.9 7.5L3.5 7.6L3.5 6.9L3.5 6.9C3.3 7.2 2.8 7.6 2 7.6C1 7.6 0 6.9 0 5.1C0 3.1 1.4 2.3 2.7 2.3C3 2.3 3.3 2.4 3.4 2.4L3.4 0.6L2.7 0.5C2.7 0.5 2.7 0.4 2.7 0.4C2.7 0.2 2.8 0.1 3.1 0.1L4.5 0ZM3.4 3.4C3.2 3.3 3 3.1 2.5 3.1C1.6 3.1 1 3.7 1 5.1C1 6.5 1.6 7 2.3 7C2.9 7 3.2 6.7 3.4 6.6Z"/>
   <path id="shape7" transform="translate(31.725, 3.125)" fill="#000000" d="M1.2 2.7C1.2 4 1.8 4.6 2.7 4.6C3.4 4.6 3.7 4.3 4 4.1C4.1 4.2 4.2 4.4 4.2 4.5C4.2 4.8 3.5 5.4 2.3 5.4C1 5.4 0 4.7 0 2.8C0 0.9 1.1 0 2.3 0C3.5 0 4.1 0.7 4.1 1.8C4.1 2.1 4 2.4 4 2.7ZM3 2.2C3 2.1 3.1 1.9 3.1 1.7C3.1 1.1 2.9 0.6 2.3 0.6C1.7 0.6 1.3 1.1 1.2 2.1L3 2.1Z"/>
   <path id="shape8" transform="translate(36.625, 3.125)" fill="#000000" d="M1.7 1L1.7 1C2 0.6 2.3 0 3 0C3.5 0 3.7 0.2 3.7 0.6C3.7 0.8 3.6 1 3.5 1.1C3.4 1.1 3.2 0.9 2.8 0.9C2.2 0.9 1.9 1.1 1.7 1.4L1.7 4.6L2.5 4.7C2.6 4.7 2.6 4.8 2.6 4.8C2.6 4.9 2.5 5.1 2.5 5.1L7.10543e-15 5.1C7.10543e-15 5.1 7.10543e-15 5 7.10543e-15 5C7.10543e-15 4.8 0.1 4.7 0.3 4.7L0.7 4.6L0.7 0.7L0 0.6C0 0.6 0 0.5 0 0.5C0 0.3 0.1 0.2 0.4 0.2L1.8 0.1Z"/>
   <path id="shape9" transform="translate(40.725, 1.725)" fill="#000000" d="M3.2 2.1L1.8 2.1L1.8 5.2C1.8 5.7 1.9 6.1 2.5 6.1C2.9 6.1 3.2 5.9 3.3 5.8C3.4 5.9 3.4 6 3.4 6.1C3.4 6.2 3 6.7 2.1 6.7C1.1 6.7 0.8 6.1 0.8 5.3L0.8 2L0 2C0 2 0 1.9 0 1.9C0 1.7 0.1 1.6 0.3 1.5L0.8 1.4L1 0L1.8 0L1.8 1.4L3.4 1.4Z"/>
   <path id="shape10" transform="translate(46.825, 0.725)" fill="#000000" d="M4.5 7L5.3 7.1C5.3 7.1 5.3 7.1 5.3 7.2C5.3 7.4 5.2 7.5 4.9 7.5L3.5 7.6L3.5 6.9L3.5 6.9C3.3 7.2 2.8 7.6 2 7.6C1 7.6 0 6.9 0 5.1C0 3.1 1.4 2.3 2.7 2.3C3 2.3 3.3 2.4 3.4 2.4L3.4 0.6L2.7 0.5C2.7 0.5 2.7 0.4 2.7 0.4C2.7 0.2 2.8 0.1 3.1 0.1L4.5 0ZM3.4 3.4C3.2 3.3 3 3.1 2.5 3.1C1.6 3.1 1 3.7 1 5.1C1 6.5 1.6 7 2.3 7C2.9 7 3.2 6.7 3.4 6.6Z"/>
   <path id="shape11" transform="translate(52.425, 3.225)" fill="#000000" d="M4.9 4.5L5.7 4.6C5.7 4.6 5.7 4.6 5.7 4.7C5.7 4.9 5.6 5 5.3 5L3.9 5.1L3.9 4.4L3.9 4.4C3.7 4.6 3.3 5.2 2.3 5.2C1.2 5.2 0.7 4.5 0.7 3.3L0.7 0.6L0 0.5C0 0.5 0 0.4 0 0.4C0 0.2 0.1 0.1 0.4 0.1L1.8 0L1.8 3.3C1.8 4.3 2.3 4.5 2.8 4.5C3.3 4.5 3.7 4.3 3.9 4L3.9 0.7L3.2 0.6C3.2 0.6 3.2 0.5 3.2 0.5C3.2 0.3 3.3 0.2 3.6 0.2L5 0.1L5 4.5Z"/>
   <path id="shape12" transform="translate(58.625, 3.125)" fill="#000000" d="M1.7 1L1.7 1C2 0.6 2.3 0 3 0C3.5 0 3.7 0.2 3.7 0.6C3.7 0.8 3.6 1 3.5 1.1C3.4 1.1 3.2 0.9 2.8 0.9C2.2 0.9 1.9 1.1 1.7 1.4L1.7 4.6L2.5 4.7C2.6 4.7 2.6 4.8 2.6 4.8C2.6 4.9 2.5 5.1 2.5 5.1L0 5.1C0 5.1 0 5 0 5C0 4.8 0.1 4.7 0.3 4.7L0.7 4.6L0.7 0.7L0 0.6C0 0.6 0 0.5 0 0.5C0 0.3 0.1 0.2 0.4 0.2L1.8 0.1Z"/>
   <path id="shape13" transform="translate(62.925, 3.325)" fill="#000000" d="M2.3 0.5C1.6 0.5 1 1 1 2.4C1 3.7 1.5 4.5 2.5 4.5C3.2 4.5 3.5 4.2 3.7 4C3.8 4.1 3.9 4.3 3.9 4.4C3.9 4.7 3.3 5.3 2.2 5.3C0.8 5.3 0 4.4 0 2.7C0 0.9 1.2 0 2.6 0C3.8 0 4 0.6 4 0.9C4 1.2 3.9 1.4 3.5 1.5C3.2 1 3 0.5 2.3 0.5Z"/>
   <path id="shape14" transform="translate(67.125, 0.625)" fill="#000000" d="M2 3.3L2 3.3C2.2 3 2.7 2.5 3.6 2.5C4.6 2.5 5.2 3.1 5.2 4.3L5.2 7.1L5.8 7.2C5.9 7.2 5.9 7.3 5.9 7.3C5.9 7.4 5.8 7.6 5.8 7.6L3.4 7.6C3.4 7.6 3.4 7.5 3.4 7.5C3.4 7.3 3.5 7.2 3.7 7.2L4 7.1L4 4.4C4 3.5 3.5 3.2 3 3.2C2.3 3.2 2 3.5 1.8 3.7L1.8 7L2.4 7.1C2.5 7.1 2.5 7.2 2.5 7.2C2.5 7.3 2.4 7.5 2.4 7.5L0 7.5C0 7.5 0 7.4 0 7.4C0 7.2 0.1 7.1 0.3 7.1L0.7 7L0.7 0.6L0 0.5C0 0.5 0 0.4 0 0.4C0 0.2 0.1 0.1 0.4 0.1L1.8 0L1.8 3.3Z"/>
   <path id="shape15" transform="translate(73.825, 3.125)" fill="#000000" d="M0.7 1.3C0.3 1.3 0 1 0 0.7C0 0.3 0.3 0 0.7 0C1.1 0 1.4 0.3 1.4 0.7C1.3 1.1 1 1.3 0.7 1.3ZM0.7 5.4C0.3 5.4 0 5.1 0 4.8C0 4.4 0.3 4.1 0.7 4.1C1.1 4.1 1.4 4.4 1.4 4.8C1.3 5.1 1 5.4 0.7 5.4Z"/>
  </g>
  <g id="group1" transform="translate(8.85767, 94.8065)" fill="none">
   <path id="shape16" transform="translate(0.625, 3.22341)" fill="#000000" d="M3.9 4.1C3.9 4.5 4.1 4.6 4.2 4.6C4.4 4.6 4.6 4.5 4.6 4.4C4.7 4.5 4.7 4.6 4.7 4.7C4.7 4.8 4.4 5.2 3.7 5.2C3.2 5.2 2.9 5 2.8 4.5L2.8 4.5C2.7 4.7 2.3 5.3 1.4 5.3C0.6 5.3 0 4.8 0 3.9C0 2.8 1.2 2.4 2.4 2.4L2.7 2.4L2.7 1.9C2.7 0.9 2.4 0.6 1.8 0.6C1.6 0.6 1.3 0.7 1.3 0.7C1.2 0.9 1.1 1.3 1.1 1.6C1.1 1.6 0.9 1.6 0.9 1.6C0.5 1.6 0.3 1.4 0.3 1.1C0.3 0.4 1.2 0 2.1 0C3.3 0 3.8 0.6 3.8 1.8L3.8 4.1ZM2.6 2.9C1.8 2.9 1.3 3.2 1.3 3.8C1.3 4.2 1.6 4.5 2 4.5C2.4 4.5 2.8 4.2 2.9 4L2.9 2.8Z"/>
   <path id="shape17" transform="translate(5.625, 3.32341)" fill="#000000" d="M4.9 4.5L5.7 4.6C5.7 4.6 5.7 4.6 5.7 4.7C5.7 4.9 5.6 5 5.3 5L3.9 5.1L3.9 4.4L3.9 4.4C3.7 4.6 3.3 5.2 2.3 5.2C1.2 5.2 0.7 4.5 0.7 3.3L0.7 0.6L0 0.5C0 0.5 0 0.4 0 0.4C0 0.2 0.1 0.1 0.4 0.1L1.8 0L1.8 3.3C1.8 4.3 2.3 4.5 2.8 4.5C3.3 4.5 3.7 4.3 3.9 4L3.9 0.7L3.2 0.6C3.2 0.6 3.2 0.5 3.2 0.5C3.2 0.3 3.3 0.2 3.6 0.2L5 0.1L5 4.5Z"/>
   <path id="shape18" transform="translate(11.625, 0.723412)" fill="#000000" d="M3.2 3.2L1.9 3.2L1.9 7.1L2.6 7.2C2.7 7.2 2.7 7.3 2.7 7.3C2.7 7.4 2.6 7.6 2.6 7.6L0.1 7.6C0.1 7.6 0.1 7.5 0.1 7.5C0.1 7.3 0.2 7.2 0.4 7.2L0.8 7.1L0.8 3.2L0 3.2C0 3.2 0 3.1 0 3.1C0 2.9 0.1 2.8 0.3 2.7L0.8 2.6L0.8 2.5C0.8 0.8 1.8 0 2.7 0C3.2 0 3.4 0.2 3.4 0.6C3.4 0.9 3.2 1 3.1 1.1C3 1 2.7 0.8 2.4 0.8C1.9 0.8 1.8 1.1 1.8 1.7C1.8 2 1.8 2.7 1.8 2.7L3.2 2.7Z"/>
   <path id="shape19" transform="translate(15.125, 3.22341)" fill="#000000" d="M5 0.7L4.1 0.7C4.3 1 4.4 1.3 4.4 1.7C4.4 2.8 3.5 3.4 2.3 3.4C2.1 3.4 2 3.4 1.8 3.3C1.7 3.4 1.5 3.5 1.5 3.8C1.5 4.1 1.7 4.2 2 4.2L3.2 4.2C4.2 4.2 4.7 4.6 4.7 5.4C4.7 6.4 3.7 7.4 1.9 7.4C0.6 7.4 0 6.9 0 6.2C0 5.5 0.6 5.1 1 5L1 5C0.7 4.9 0.6 4.6 0.6 4.3C0.6 3.7 1.2 3.4 1.4 3.3L1.4 3.3C0.8 3 0.4 2.5 0.4 1.7C0.4 0.6 1.3 0 2.4 0C2.7 0 3 0 3.2 0.1L5.1 0.1ZM2 5.1C1.9 5.1 1.7 5.1 1.6 5.1C1.3 5.3 1.1 5.5 1.1 5.9C1.1 6.4 1.4 6.8 2.2 6.8C3.2 6.8 3.8 6.3 3.8 5.8C3.8 5.4 3.6 5.2 3 5.2L2 5.2ZM1.5 1.7C1.5 2.5 1.9 2.9 2.4 2.9C3 2.9 3.4 2.6 3.4 1.7C3.4 1 3 0.6 2.4 0.6C1.8 0.6 1.5 0.9 1.5 1.7Z"/>
   <path id="shape20" transform="translate(20.625, 3.22341)" fill="#000000" d="M1.7 1L1.7 1C2 0.6 2.3 0 3 0C3.5 0 3.7 0.2 3.7 0.6C3.7 0.8 3.6 1 3.5 1.1C3.4 1.1 3.2 0.9 2.8 0.9C2.2 0.9 1.9 1.1 1.7 1.4L1.7 4.6L2.5 4.7C2.6 4.7 2.6 4.8 2.6 4.8C2.6 4.9 2.5 5.1 2.5 5.1L7.10543e-15 5.1C7.10543e-15 5.1 7.10543e-15 5 7.10543e-15 5C7.10543e-15 4.8 0.1 4.7 0.3 4.7L0.7 4.6L0.7 0.7L0 0.6C0 0.6 0 0.5 0 0.5C0 0.3 0.1 0.2 0.4 0.2L1.8 0.1Z"/>
   <path id="shape21" transform="translate(24.725, 3.32341)" fill="#000000" d="M4.9 4.5L5.7 4.6C5.7 4.6 5.7 4.6 5.7 4.7C5.7 4.9 5.6 5 5.3 5L3.9 5.1L3.9 4.4L3.9 4.4C3.7 4.6 3.3 5.2 2.3 5.2C1.2 5.2 0.7 4.5 0.7 3.3L0.7 0.6L0 0.5C0 0.5 0 0.4 0 0.4C0 0.2 0.1 0.1 0.4 0.1L1.8 0L1.8 3.3C1.8 4.3 2.3 4.5 2.8 4.5C3.3 4.5 3.7 4.3 3.9 4L3.9 0.7L3.2 0.6C3.2 0.6 3.2 0.5 3.2 0.5C3.2 0.3 3.3 0.2 3.6 0.2L5 0.1L5 4.5Z"/>
   <path id="shape22" transform="translate(30.825, 3.22341)" fill="#000000" d="M5.1 4.6L5.7 4.7C5.8 4.7 5.8 4.8 5.8 4.8C5.8 4.9 5.7 5.1 5.7 5.1L3.4 5.1C3.4 5.1 3.4 5 3.4 5C3.4 4.8 3.5 4.7 3.7 4.7L4 4.6L4 1.9C4 1 3.5 0.7 3 0.7C2.4 0.7 2 1 1.8 1.2L1.8 4.6L2.4 4.7C2.5 4.7 2.5 4.8 2.5 4.8C2.5 4.9 2.4 5.1 2.4 5.1L7.10543e-15 5.1C7.10543e-15 5.1 7.10543e-15 5 7.10543e-15 5C7.10543e-15 4.8 0.1 4.7 0.3 4.7L0.7 4.6L0.7 0.7L0 0.6C0 0.6 0 0.5 0 0.5C0 0.3 0.1 0.2 0.4 0.2L1.8 0.1L1.7 0.8L1.7 0.8C2 0.5 2.5 0 3.4 0C4.4 0 5 0.7 5 1.8L5 4.6Z"/>
   <path id="shape23" transform="translate(37.225, 0.823412)" fill="#000000" d="M4.5 7L5.3 7.1C5.3 7.1 5.3 7.1 5.3 7.2C5.3 7.4 5.2 7.5 4.9 7.5L3.5 7.6L3.5 6.9L3.5 6.9C3.3 7.2 2.8 7.6 2 7.6C1 7.6 0 6.9 0 5.1C0 3.1 1.4 2.3 2.7 2.3C3 2.3 3.3 2.4 3.4 2.4L3.4 0.6L2.7 0.5C2.7 0.5 2.7 0.4 2.7 0.4C2.7 0.2 2.8 0.1 3.1 0.1L4.5 0ZM3.4 3.3C3.2 3.2 3 3 2.5 3C1.6 3 1 3.6 1 5C1 6.4 1.6 6.9 2.3 6.9C2.9 6.9 3.2 6.6 3.4 6.5Z"/>
   <path id="shape24" transform="translate(45.225, 3.22341)" fill="#000000" d="M1.2 2.7C1.2 4 1.8 4.6 2.7 4.6C3.4 4.6 3.7 4.3 4 4.1C4.1 4.2 4.2 4.4 4.2 4.5C4.2 4.8 3.5 5.4 2.3 5.4C1 5.4 0 4.7 0 2.8C0 1 1.1 0 2.3 0C3.5 0 4.1 0.7 4.1 1.8C4.1 2.1 4 2.4 4 2.7ZM3 2.1C3 2 3.1 1.8 3.1 1.6C3.1 1 2.9 0.5 2.3 0.5C1.7 0.5 1.3 1 1.2 2L3 2Z"/>
   <path id="shape25" transform="translate(50.125, 0.823412)" fill="#000000" d="M1.8 7L2.4 7.1C2.5 7.1 2.5 7.2 2.5 7.2C2.5 7.3 2.4 7.5 2.4 7.5L0 7.5C0 7.5 0 7.4 0 7.4C0 7.2 0.1 7.1 0.3 7.1L0.7 7L0.7 3.1L0 3C0 3 0 2.9 0 2.9C0 2.7 0.1 2.6 0.4 2.6L1.8 2.5ZM1.3 1.4C0.9 1.4 0.6 1.1 0.6 0.7C0.6 0.3 0.9 0 1.3 0C1.7 0 2 0.3 2 0.7C1.9 1.2 1.6 1.4 1.3 1.4Z"/>
   <path id="shape26" transform="translate(53.225, 3.22341)" fill="#000000" d="M5 4.6L5.6 4.7C5.7 4.7 5.7 4.8 5.7 4.8C5.7 4.9 5.6 5.1 5.6 5.1L3.2 5.1C3.2 5.1 3.2 5 3.2 5C3.2 4.8 3.3 4.7 3.5 4.7L3.8 4.6L3.8 1.9C3.8 1 3.3 0.7 2.8 0.7C2.2 0.7 1.8 1 1.6 1.2L1.6 4.6L2.2 4.7C2.3 4.7 2.3 4.8 2.3 4.8C2.3 4.9 2.2 5.1 2.2 5.1L0 5.1C0 5.1 0 5 0 5C0 4.8 0.1 4.7 0.3 4.7L0.7 4.6L0.7 0.7L0 0.6C0 0.6 0 0.5 0 0.5C0 0.3 0.1 0.2 0.4 0.2L1.8 0.1L1.7 0.8L1.7 0.8C2 0.5 2.5 0 3.4 0C4.4 0 5 0.7 5 1.8Z"/>
   <path id="shape27" transform="translate(59.425, 3.22341)" fill="#000000" d="M1.2 2.7C1.2 4 1.8 4.6 2.7 4.6C3.4 4.6 3.7 4.3 4 4.1C4.1 4.2 4.2 4.4 4.2 4.5C4.2 4.8 3.5 5.4 2.3 5.4C1 5.4 0 4.7 0 2.8C0 1 1.1 0 2.3 0C3.5 0 4.1 0.7 4.1 1.8C4.1 2.1 4 2.4 4 2.7ZM3.1 2.1C3.1 2 3.2 1.8 3.2 1.6C3.2 1 3 0.5 2.4 0.5C1.8 0.5 1.4 1 1.3 2L3.1 2Z"/>
   <path id="shape28" transform="translate(64.425, 3.22341)" fill="#000000" d="M2.5 0.8C2.4 0.7 2.1 0.6 1.8 0.6C1.5 0.6 1.1 0.7 1.1 1.2C1.1 1.7 1.6 1.9 2.1 2.2C2.7 2.6 3.4 3 3.4 3.8C3.4 4.7 2.7 5.3 1.5 5.3C0.9 5.3 0.4 5.1 0.2 5C0.2 4.7 0.1 4.5 0.1 4.2C0.1 3.8 0.2 3.6 0.5 3.6C0.6 3.6 0.6 3.6 0.6 3.6L0.8 4.5C0.9 4.6 1.2 4.7 1.5 4.7C2 4.7 2.3 4.5 2.3 4.1C2.3 3.6 1.8 3.4 1.3 3.1C0.7 2.7 0 2.3 0 1.4C0 0.6 0.7 0 1.7 0C2.3 0 2.7 0.2 2.9 0.4C2.9 0.5 2.9 0.8 2.9 1C2.9 1.4 2.8 1.6 2.4 1.6C2.3 1.6 2.3 1.6 2.3 1.6Z"/>
   <path id="shape29" transform="translate(70.825, 1.12341)" fill="#000000" d="M3.9 3.5L3.9 3.5C4.9 3.7 5.6 4.3 5.6 5.2C5.6 6.4 4.6 7.2 2.7 7.2L0 7.2C0 7.2 0 7.1 0 7.1C0 6.9 0.1 6.8 0.4 6.7L0.8 6.6L0.8 0.5L0.2 0.4C0.1 0.4 0.1 0.3 0.1 0.3C0.1 0.2 0.2 0.1 0.2 0L2.7 0C4.6 0 5.5 0.7 5.5 1.8C5.4 2.9 4.8 3.3 3.9 3.5ZM2.5 0.7L1.9 0.7L1.9 3.3L2.5 3.3C3.7 3.3 4.2 2.7 4.2 2C4.2 1.1 3.7 0.7 2.5 0.7ZM2.7 3.9L2 3.9L2 6.6L2.6 6.6C3.8 6.6 4.4 6 4.4 5.2C4.4 4.5 3.8 3.9 2.7 3.9Z"/>
   <path id="shape30" transform="translate(77.225, 3.22341)" fill="#000000" d="M1.2 2.7C1.2 4 1.8 4.6 2.7 4.6C3.4 4.6 3.7 4.3 4 4.1C4.1 4.2 4.2 4.4 4.2 4.5C4.2 4.8 3.5 5.4 2.3 5.4C1 5.4 0 4.7 0 2.8C0 1 1.1 0 2.3 0C3.5 0 4.1 0.7 4.1 1.8C4.1 2.1 4 2.4 4 2.7ZM3.1 2.1C3.1 2 3.2 1.8 3.2 1.6C3.2 1 3 0.5 2.4 0.5C1.8 0.5 1.4 1 1.3 2L3.1 2Z"/>
   <path id="shape31" transform="translate(82.225, 3.22341)" fill="#000000" d="M2.5 0.8C2.4 0.7 2.1 0.6 1.8 0.6C1.5 0.6 1.1 0.7 1.1 1.2C1.1 1.7 1.6 1.9 2.1 2.2C2.7 2.6 3.4 3 3.4 3.8C3.4 4.7 2.7 5.3 1.5 5.3C0.9 5.3 0.4 5.1 0.2 5C0.2 4.7 0.1 4.5 0.1 4.2C0.1 3.8 0.2 3.6 0.5 3.6C0.6 3.6 0.6 3.6 0.6 3.6L0.8 4.5C0.9 4.6 1.2 4.7 1.5 4.7C2 4.7 2.3 4.5 2.3 4.1C2.3 3.6 1.8 3.4 1.3 3.1C0.7 2.7 0 2.3 0 1.4C0 0.6 0.7 0 1.7 0C2.3 0 2.7 0.2 2.9 0.4C2.9 0.5 2.9 0.8 2.9 1C2.9 1.4 2.8 1.6 2.4 1.6C2.3 1.6 2.3 1.6 2.3 1.6Z"/>
   <path id="shape32" transform="translate(86.525, 3.32341)" fill="#000000" d="M2.3 0.5C1.6 0.5 1 1 1 2.4C1 3.7 1.5 4.5 2.5 4.5C3.2 4.5 3.5 4.2 3.7 4C3.8 4.1 3.9 4.3 3.9 4.4C3.9 4.7 3.3 5.3 2.2 5.3C0.8 5.3 0 4.4 0 2.7C0 0.9 1.2 0 2.6 0C3.8 0 4 0.6 4 0.9C4 1.2 3.9 1.4 3.5 1.5C3.3 1 3 0.5 2.3 0.5Z"/>
   <path id="shape33" transform="translate(90.725, 0.623412)" fill="#000000" d="M2 3.3L2 3.3C2.2 3 2.7 2.5 3.6 2.5C4.6 2.5 5.2 3.1 5.2 4.3L5.2 7.1L5.8 7.2C5.9 7.2 5.9 7.3 5.9 7.3C5.9 7.4 5.8 7.6 5.8 7.6L3.4 7.6C3.4 7.6 3.4 7.5 3.4 7.5C3.4 7.3 3.5 7.2 3.7 7.2L4 7.1L4 4.4C4 3.5 3.5 3.2 3 3.2C2.3 3.2 2 3.5 1.8 3.7L1.8 7L2.4 7.1C2.5 7.1 2.5 7.2 2.5 7.2C2.5 7.3 2.4 7.5 2.4 7.5L0 7.5C0 7.5 0 7.4 0 7.4C0 7.2 0.1 7.1 0.3 7.1L0.7 7L0.7 0.6L0 0.5C0 0.5 0 0.4 0 0.4C0 0.2 0.1 0.1 0.4 0.1L1.8 0L1.8 3.3Z"/>
   <path id="shape34" transform="translate(97.225, 0.823412)" fill="#000000" d="M1.7 7L2.3 7.1C2.4 7.1 2.4 7.2 2.4 7.2C2.4 7.3 2.3 7.5 2.3 7.5L0 7.5C0 7.5 0 7.4 0 7.4C0 7.2 0.1 7.1 0.3 7.1L0.7 7L0.7 0.6L0 0.5C0 0.5 0 0.4 0 0.4C0 0.2 0.1 0.1 0.4 0.1L1.8 0L1.8 7Z"/>
   <path id="shape35" transform="translate(100.125, 3.32341)" fill="#000000" d="M4.9 4.5L5.7 4.6C5.7 4.6 5.7 4.6 5.7 4.7C5.7 4.9 5.6 5 5.3 5L3.9 5.1L3.9 4.4L3.9 4.4C3.7 4.6 3.3 5.2 2.3 5.2C1.2 5.2 0.7 4.5 0.7 3.3L0.7 0.6L0 0.5C0 0.5 0 0.4 0 0.4C0 0.2 0.1 0.1 0.4 0.1L1.8 0L1.8 3.3C1.8 4.3 2.3 4.5 2.8 4.5C3.3 4.5 3.7 4.3 3.9 4L3.9 0.7L3.2 0.6C3.2 0.6 3.2 0.5 3.2 0.5C3.2 0.3 3.3 0.2 3.6 0.2L5 0.1L5 4.5Z"/>
   <path id="shape36" transform="translate(106.325, 3.22341)" fill="#000000" d="M2.5 0.8C2.4 0.7 2.1 0.6 1.8 0.6C1.5 0.6 1.1 0.7 1.1 1.2C1.1 1.7 1.6 1.9 2.1 2.2C2.7 2.6 3.4 3 3.4 3.8C3.4 4.7 2.7 5.3 1.5 5.3C0.9 5.3 0.4 5.1 0.2 5C0.2 4.7 0.1 4.5 0.1 4.2C0.1 3.8 0.2 3.6 0.5 3.6C0.6 3.6 0.6 3.6 0.6 3.6L0.8 4.5C0.9 4.6 1.2 4.7 1.5 4.7C2 4.7 2.3 4.5 2.3 4.1C2.3 3.6 1.8 3.4 1.3 3.1C0.7 2.7 0 2.3 0 1.4C0 0.6 0.7 0 1.7 0C2.3 0 2.7 0.2 2.9 0.4C2.9 0.5 2.9 0.8 2.9 1C2.9 1.4 2.8 1.6 2.4 1.6C2.3 1.6 2.3 1.6 2.3 1.6Z"/>
   <path id="shape37" transform="translate(110.425, 3.22341)" fill="#000000" d="M2.5 0.8C2.4 0.7 2.1 0.6 1.8 0.6C1.5 0.6 1.1 0.7 1.1 1.2C1.1 1.7 1.6 1.9 2.1 2.2C2.7 2.6 3.4 3 3.4 3.8C3.4 4.7 2.7 5.3 1.5 5.3C0.9 5.3 0.4 5.1 0.2 5C0.2 4.7 0.1 4.5 0.1 4.2C0.1 3.8 0.2 3.6 0.5 3.6C0.6 3.6 0.6 3.6 0.6 3.6L0.8 4.5C0.9 4.6 1.2 4.7 1.5 4.7C2 4.7 2.3 4.5 2.3 4.1C2.3 3.6 1.8 3.4 1.3 3.1C0.7 2.7 0 2.3 0 1.4C0 0.6 0.7 0 1.7 0C2.3 0 2.7 0.2 2.9 0.4C2.9 0.5 2.9 0.8 2.9 1C2.9 1.4 2.8 1.6 2.4 1.6C2.3 1.6 2.3 1.6 2.3 1.6Z"/>
   <path id="shape38" transform="translate(114.625, 3.22341)" fill="#000000" d="M1.2 2.7C1.2 4 1.8 4.6 2.7 4.6C3.4 4.6 3.7 4.3 4 4.1C4.1 4.2 4.2 4.4 4.2 4.5C4.2 4.8 3.5 5.4 2.3 5.4C1 5.4 0 4.7 0 2.8C0 1 1.1 0 2.3 0C3.5 0 4.1 0.7 4.1 1.8C4.1 2.1 4 2.4 4 2.7ZM3 2.1C3 2 3.1 1.8 3.1 1.6C3.1 1 2.9 0.5 2.3 0.5C1.7 0.5 1.3 1 1.2 2L3 2Z"/>
   <path id="shape39" transform="translate(119.525, 3.22341)" fill="#000000" d="M2.5 0.8C2.4 0.7 2.1 0.6 1.8 0.6C1.5 0.6 1.1 0.7 1.1 1.2C1.1 1.7 1.6 1.9 2.1 2.2C2.7 2.6 3.4 3 3.4 3.8C3.4 4.7 2.7 5.3 1.5 5.3C0.9 5.3 0.4 5.1 0.2 5C0.2 4.7 0.1 4.5 0.1 4.2C0.1 3.8 0.2 3.6 0.5 3.6C0.6 3.6 0.6 3.6 0.6 3.6L0.8 4.5C0.9 4.6 1.2 4.7 1.5 4.7C2 4.7 2.3 4.5 2.3 4.1C2.3 3.6 1.8 3.4 1.3 3.1C0.7 2.7 0 2.3 0 1.4C0 0.6 0.7 0 1.7 0C2.3 0 2.7 0.2 2.9 0.4C2.9 0.5 2.9 0.8 2.9 1C2.9 1.4 2.8 1.6 2.4 1.6C2.3 1.6 2.3 1.6 2.3 1.6Z"/>
   <path id="shape40" transform="translate(0.925, 12.8234)" fill="#000000" d="M4.5 7L5.3 7.1C5.3 7.1 5.3 7.1 5.3 7.2C5.3 7.4 5.2 7.5 4.9 7.5L3.5 7.6L3.5 6.9L3.5 6.9C3.3 7.2 2.8 7.6 2 7.6C1 7.6 0 6.9 0 5.1C0 3.1 1.4 2.3 2.7 2.3C3 2.3 3.3 2.4 3.4 2.4L3.4 0.6L2.7 0.5C2.7 0.5 2.7 0.4 2.7 0.4C2.7 0.2 2.8 0.1 3.1 0.1L4.5 0ZM3.4 3.3C3.2 3.2 3 3 2.5 3C1.6 3 1 3.6 1 5C1 6.4 1.6 6.9 2.3 6.9C2.9 6.9 3.2 6.6 3.4 6.5Z"/>
   <path id="shape41" transform="translate(6.625, 15.2234)" fill="#000000" d="M1.2 2.7C1.2 4 1.8 4.6 2.7 4.6C3.4 4.6 3.7 4.3 4 4.1C4.1 4.2 4.2 4.4 4.2 4.5C4.2 4.8 3.5 5.4 2.3 5.4C1 5.4 0 4.7 0 2.8C0 0.9 1.1 0 2.3 0C3.5 0 4.1 0.7 4.1 1.8C4.1 2.1 4 2.4 4 2.7ZM3.1 2.1C3.1 2 3.2 1.8 3.2 1.6C3.2 1 3 0.5 2.4 0.5C1.8 0.5 1.4 1 1.3 2L3.1 2Z"/>
   <path id="shape42" transform="translate(11.625, 15.2234)" fill="#000000" d="M2.5 0.8C2.4 0.7 2.1 0.6 1.8 0.6C1.5 0.6 1.1 0.7 1.1 1.2C1.1 1.7 1.6 1.9 2.1 2.2C2.7 2.6 3.4 3 3.4 3.8C3.4 4.7 2.7 5.3 1.5 5.3C0.9 5.3 0.4 5.1 0.2 5C0.2 4.7 0.1 4.5 0.1 4.2C0.1 3.8 0.2 3.6 0.5 3.6C0.6 3.6 0.6 3.6 0.6 3.6L0.8 4.5C0.9 4.6 1.2 4.7 1.5 4.7C2 4.7 2.3 4.5 2.3 4.1C2.3 3.6 1.8 3.4 1.3 3.1C0.7 2.7 0 2.3 0 1.4C0 0.6 0.7 0 1.7 0C2.3 0 2.7 0.2 2.9 0.4C2.9 0.5 2.9 0.8 2.9 1C2.9 1.4 2.8 1.6 2.4 1.6C2.3 1.6 2.3 1.6 2.3 1.6Z"/>
   <path id="shape43" transform="translate(18.025, 13.2234)" fill="#000000" d="M2.4 7.2L0 7.2C0 7.2 0 7.1 0 7.1C0 6.9 0.1 6.8 0.4 6.7L0.8 6.6L0.8 0.5L0.2 0.4C0.1 0.4 0.1 0.3 0.1 0.3C0.1 0.2 0.2 0.1 0.2 0L2.5 0C5.1 0 6.7 1 6.7 3.5C6.7 6 5.1 7.2 2.4 7.2ZM2.4 0.6L2 0.6L2 6.6L2.4 6.6C4.3 6.6 5.5 5.6 5.5 3.5C5.4 1.5 4.3 0.6 2.4 0.6Z"/>
   <path id="shape44" transform="translate(25.525, 15.2234)" fill="#000000" d="M1.2 2.7C1.2 4 1.8 4.6 2.7 4.6C3.4 4.6 3.7 4.3 4 4.1C4.1 4.2 4.2 4.4 4.2 4.5C4.2 4.8 3.5 5.4 2.3 5.4C1 5.4 0 4.7 0 2.8C0 0.9 1.1 0 2.3 0C3.5 0 4.1 0.7 4.1 1.8C4.1 2.1 4 2.4 4 2.7ZM3 2.1C3 2 3.1 1.8 3.1 1.6C3.1 1 2.9 0.5 2.3 0.5C1.7 0.5 1.3 1 1.2 2L3 2Z"/>
   <path id="shape45" transform="translate(30.325, 15.3234)" fill="#000000" d="M4.9 4.5L5.7 4.6C5.7 4.6 5.7 4.6 5.7 4.7C5.7 4.9 5.6 5 5.3 5L3.9 5.1L3.9 4.4L3.9 4.4C3.7 4.6 3.3 5.2 2.3 5.2C1.2 5.2 0.7 4.5 0.7 3.3L0.7 0.6L0 0.5C0 0.5 0 0.4 0 0.4C0 0.2 0.1 0.1 0.4 0.1L1.8 0L1.8 3.3C1.8 4.3 2.3 4.5 2.8 4.5C3.3 4.5 3.7 4.3 3.9 4L3.9 0.7L3.2 0.6C3.2 0.6 3.2 0.5 3.2 0.5C3.2 0.3 3.3 0.2 3.6 0.2L5 0.1L5 4.5Z"/>
   <path id="shape46" transform="translate(36.425, 13.8234)" fill="#000000" d="M3.2 2.1L1.8 2.1L1.8 5.2C1.8 5.7 1.9 6.1 2.5 6.1C2.9 6.1 3.2 5.9 3.3 5.8C3.4 5.9 3.4 6 3.4 6.1C3.4 6.2 3 6.7 2.1 6.7C1.2 6.7 0.8 6.1 0.8 5.3L0.8 2L0 2C0 2 0 1.9 0 1.9C0 1.7 0.1 1.6 0.3 1.5L0.8 1.4L1 0L1.8 0L1.8 1.4L3.4 1.4Z"/>
   <path id="shape47" transform="translate(40.225, 15.2234)" fill="#000000" d="M2.5 0.8C2.4 0.7 2.1 0.6 1.8 0.6C1.5 0.6 1.1 0.7 1.1 1.2C1.1 1.7 1.6 1.9 2.1 2.2C2.7 2.6 3.4 3 3.4 3.8C3.4 4.7 2.7 5.3 1.5 5.3C0.9 5.3 0.4 5.1 0.2 5C0.2 4.7 0.1 4.5 0.1 4.2C0.1 3.8 0.2 3.6 0.5 3.6C0.6 3.6 0.6 3.6 0.6 3.6L0.8 4.5C0.9 4.6 1.2 4.7 1.5 4.7C2 4.7 2.3 4.5 2.3 4.1C2.3 3.6 1.8 3.4 1.3 3.1C0.7 2.7 0 2.3 0 1.4C0 0.6 0.7 0 1.7 0C2.3 0 2.7 0.2 2.9 0.4C2.9 0.5 2.9 0.8 2.9 1C2.9 1.4 2.8 1.6 2.4 1.6C2.3 1.6 2.3 1.6 2.3 1.6Z"/>
   <path id="shape48" transform="translate(44.625, 15.3234)" fill="#000000" d="M2.3 0.5C1.6 0.5 1 1 1 2.4C1 3.7 1.5 4.5 2.5 4.5C3.2 4.5 3.5 4.2 3.7 4C3.8 4.1 3.9 4.3 3.9 4.4C3.9 4.7 3.3 5.3 2.2 5.3C0.8 5.3 0 4.4 0 2.7C0 0.9 1.2 0 2.6 0C3.8 0 4 0.6 4 0.9C4 1.2 3.9 1.4 3.5 1.5C3.2 1 2.9 0.5 2.3 0.5Z"/>
   <path id="shape49" transform="translate(48.725, 12.6234)" fill="#000000" d="M2 3.3L2 3.3C2.2 3 2.7 2.5 3.6 2.5C4.6 2.5 5.2 3.1 5.2 4.3L5.2 7.1L5.8 7.2C5.9 7.2 5.9 7.3 5.9 7.3C5.9 7.4 5.8 7.6 5.8 7.6L3.4 7.6C3.4 7.6 3.4 7.5 3.4 7.5C3.4 7.3 3.5 7.2 3.7 7.2L4 7.1L4 4.4C4 3.5 3.5 3.2 3 3.2C2.3 3.2 2 3.5 1.8 3.7L1.8 7L2.4 7.1C2.5 7.1 2.5 7.2 2.5 7.2C2.5 7.3 2.4 7.5 2.4 7.5L0 7.5C0 7.5 0 7.4 0 7.4C0 7.2 0.1 7.1 0.3 7.1L0.7 7L0.7 0.6L0 0.5C0 0.5 0 0.4 0 0.4C0 0.2 0.1 0.1 0.4 0.1L1.8 0L1.8 3.3Z"/>
   <path id="shape50" transform="translate(55.225, 15.2234)" fill="#000000" d="M1.2 2.7C1.2 4 1.8 4.6 2.7 4.6C3.4 4.6 3.7 4.3 4 4.1C4.1 4.2 4.2 4.4 4.2 4.5C4.2 4.8 3.5 5.4 2.3 5.4C1 5.4 0 4.7 0 2.8C0 0.9 1.1 0 2.3 0C3.5 0 4.1 0.7 4.1 1.8C4.1 2.1 4 2.4 4 2.7ZM3.1 2.1C3.1 2 3.2 1.8 3.2 1.6C3.2 1 3 0.5 2.4 0.5C1.8 0.5 1.4 1 1.3 2L3.1 2Z"/>
   <path id="shape51" transform="translate(60.225, 15.2234)" fill="#000000" d="M5 4.6L5.6 4.7C5.7 4.7 5.7 4.8 5.7 4.8C5.7 4.9 5.6 5.1 5.6 5.1L3.2 5.1C3.2 5.1 3.2 5 3.2 5C3.2 4.8 3.3 4.7 3.5 4.7L3.8 4.6L3.8 1.9C3.8 1 3.3 0.7 2.8 0.7C2.2 0.7 1.8 1 1.6 1.2L1.6 4.6L2.2 4.7C2.3 4.7 2.3 4.8 2.3 4.8C2.3 4.9 2.2 5.1 2.2 5.1L0 5.1C0 5.1 0 5 0 5C0 4.8 0.1 4.7 0.3 4.7L0.7 4.6L0.7 0.7L0 0.6C0 0.6 0 0.5 0 0.5C0 0.3 0.1 0.2 0.4 0.2L1.8 0.1L1.7 0.8L1.7 0.8C2 0.5 2.5 0 3.4 0C4.4 0 5 0.7 5 1.8Z"/>
   <path id="shape52" transform="translate(68.725, 13.1234)" fill="#000000" d="M3.9 3.5L3.9 3.5C4.9 3.7 5.6 4.3 5.6 5.2C5.6 6.4 4.6 7.2 2.7 7.2L0 7.2C0 7.2 0 7.1 0 7.1C0 6.9 0.1 6.8 0.4 6.7L0.8 6.6L0.8 0.5L0.2 0.4C0.1 0.4 0.1 0.3 0.1 0.3C0.1 0.2 0.2 0.1 0.2 0L2.7 0C4.6 0 5.5 0.7 5.5 1.8C5.4 2.9 4.8 3.3 3.9 3.5ZM2.5 0.7L1.9 0.7L1.9 3.3L2.5 3.3C3.7 3.3 4.2 2.7 4.2 2C4.2 1.1 3.7 0.7 2.5 0.7ZM2.7 3.9L2 3.9L2 6.6L2.6 6.6C3.8 6.6 4.4 6 4.4 5.2C4.4 4.5 3.8 3.9 2.7 3.9Z"/>
   <path id="shape53" transform="translate(75.025, 15.3234)" fill="#000000" d="M4.9 4.5L5.7 4.6C5.7 4.6 5.7 4.6 5.7 4.7C5.7 4.9 5.6 5 5.3 5L3.9 5.1L3.9 4.4L3.9 4.4C3.7 4.6 3.3 5.2 2.3 5.2C1.2 5.2 0.7 4.5 0.7 3.3L0.7 0.6L0 0.5C0 0.5 0 0.4 0 0.4C0 0.2 0.1 0.1 0.4 0.1L1.8 0L1.8 3.3C1.8 4.3 2.3 4.5 2.8 4.5C3.3 4.5 3.7 4.3 3.9 4L3.9 0.7L3.2 0.6C3.2 0.6 3.2 0.5 3.2 0.5C3.2 0.3 3.3 0.2 3.6 0.2L5 0.1L5 4.5Z"/>
   <path id="shape54" transform="translate(81.225, 15.2234)" fill="#000000" d="M5 4.6L5.6 4.7C5.7 4.7 5.7 4.8 5.7 4.8C5.7 4.9 5.6 5.1 5.6 5.1L3.2 5.1C3.2 5.1 3.2 5 3.2 5C3.2 4.8 3.3 4.7 3.5 4.7L3.8 4.6L3.8 1.9C3.8 1 3.3 0.7 2.8 0.7C2.2 0.7 1.8 1 1.6 1.2L1.6 4.6L2.2 4.7C2.3 4.7 2.3 4.8 2.3 4.8C2.3 4.9 2.2 5.1 2.2 5.1L0 5.1C0 5.1 0 5 0 5C0 4.8 0.1 4.7 0.3 4.7L0.7 4.6L0.7 0.7L0 0.6C0 0.6 0 0.5 0 0.5C0 0.3 0.1 0.2 0.4 0.2L1.8 0.1L1.7 0.8L1.7 0.8C2 0.5 2.5 0 3.4 0C4.4 0 5 0.7 5 1.8Z"/>
   <path id="shape55" transform="translate(87.625, 12.8234)" fill="#000000" d="M4.5 7L5.3 7.1C5.3 7.1 5.3 7.1 5.3 7.2C5.3 7.4 5.2 7.5 4.9 7.5L3.5 7.6L3.5 6.9L3.5 6.9C3.3 7.2 2.8 7.6 2 7.6C1 7.6 0 6.9 0 5.1C0 3.1 1.4 2.3 2.7 2.3C3 2.3 3.3 2.4 3.4 2.4L3.4 0.6L2.7 0.5C2.7 0.5 2.7 0.4 2.7 0.4C2.7 0.2 2.8 0.1 3.1 0.1L4.5 0ZM3.4 3.3C3.2 3.2 3 3 2.5 3C1.6 3 1 3.6 1 5C1 6.4 1.6 6.9 2.3 6.9C2.9 6.9 3.2 6.6 3.4 6.5Z"/>
   <path id="shape56" transform="translate(93.325, 15.2234)" fill="#000000" d="M1.2 2.7C1.2 4 1.8 4.6 2.7 4.6C3.4 4.6 3.7 4.3 4 4.1C4.1 4.2 4.2 4.4 4.2 4.5C4.2 4.8 3.5 5.4 2.3 5.4C1 5.4 0 4.7 0 2.8C0 0.9 1.1 0 2.3 0C3.5 0 4.1 0.7 4.1 1.8C4.1 2.1 4 2.4 4 2.7ZM3.1 2.1C3.1 2 3.2 1.8 3.2 1.6C3.2 1 3 0.5 2.4 0.5C1.8 0.5 1.4 1 1.3 2L3.1 2Z"/>
   <path id="shape57" transform="translate(98.325, 15.2234)" fill="#000000" d="M2.5 0.8C2.4 0.7 2.1 0.6 1.8 0.6C1.5 0.6 1.1 0.7 1.1 1.2C1.1 1.7 1.6 1.9 2.1 2.2C2.7 2.6 3.4 3 3.4 3.8C3.4 4.7 2.7 5.3 1.5 5.3C0.9 5.3 0.4 5.1 0.2 5C0.2 4.7 0.1 4.5 0.1 4.2C0.1 3.8 0.2 3.6 0.5 3.6C0.6 3.6 0.6 3.6 0.6 3.6L0.8 4.5C0.9 4.6 1.2 4.7 1.5 4.7C2 4.7 2.3 4.5 2.3 4.1C2.3 3.6 1.8 3.4 1.3 3.1C0.7 2.7 0 2.3 0 1.4C0 0.6 0.7 0 1.7 0C2.3 0 2.7 0.2 2.9 0.4C2.9 0.5 2.9 0.8 2.9 1C2.9 1.4 2.8 1.6 2.4 1.6C2.3 1.6 2.3 1.6 2.3 1.6Z"/>
   <path id="shape58" transform="translate(102.225, 13.8234)" fill="#000000" d="M3.3 2.1L1.9 2.1L1.9 5.2C1.9 5.7 2 6.1 2.6 6.1C3 6.1 3.3 5.9 3.4 5.8C3.5 5.9 3.5 6 3.5 6.1C3.5 6.2 3.1 6.7 2.2 6.7C1.2 6.7 0.9 6.1 0.9 5.3L0.9 2L0 2C0 2 0 1.9 0 1.9C0 1.7 0.1 1.6 0.3 1.5L0.8 1.4L1 0L1.8 0L1.8 1.4L3.4 1.4Z"/>
   <path id="shape59" transform="translate(106.025, 15.2234)" fill="#000000" d="M3.9 4.1C3.9 4.5 4.1 4.6 4.2 4.6C4.4 4.6 4.6 4.5 4.6 4.4C4.7 4.5 4.7 4.6 4.7 4.7C4.7 4.8 4.4 5.2 3.7 5.2C3.2 5.2 2.9 5 2.8 4.5L2.8 4.5C2.7 4.7 2.3 5.3 1.4 5.3C0.6 5.3 0 4.8 0 3.9C0 2.8 1.2 2.4 2.4 2.4L2.7 2.4L2.7 1.9C2.7 0.9 2.4 0.6 1.8 0.6C1.6 0.6 1.3 0.7 1.3 0.7C1.2 0.9 1.1 1.3 1.1 1.6C1.1 1.6 0.9 1.6 0.9 1.6C0.5 1.6 0.3 1.4 0.3 1.1C0.3 0.4 1.2 0 2.1 0C3.3 0 3.8 0.6 3.8 1.8L3.8 4.1ZM2.6 2.9C1.8 2.9 1.3 3.2 1.3 3.8C1.3 4.2 1.6 4.5 2 4.5C2.4 4.5 2.8 4.2 2.9 4L2.9 2.8Z"/>
   <path id="shape60" transform="translate(110.825, 15.2234)" fill="#000000" d="M5 0.7L4.1 0.7C4.3 1 4.4 1.3 4.4 1.7C4.4 2.8 3.5 3.4 2.3 3.4C2.1 3.4 2 3.4 1.8 3.3C1.7 3.4 1.5 3.5 1.5 3.8C1.5 4.1 1.7 4.2 2 4.2L3.2 4.2C4.2 4.2 4.7 4.6 4.7 5.4C4.7 6.4 3.7 7.4 1.9 7.4C0.6 7.4 0 6.9 0 6.2C0 5.5 0.6 5.1 1 5L1 5C0.7 4.9 0.6 4.6 0.6 4.3C0.6 3.7 1.2 3.4 1.4 3.3L1.4 3.3C0.8 3 0.4 2.5 0.4 1.7C0.4 0.6 1.3 0 2.4 0C2.7 0 3 0 3.2 0.1L5 0.1ZM2 5.1C1.9 5.1 1.7 5.1 1.6 5.1C1.3 5.3 1.1 5.5 1.1 5.9C1.1 6.4 1.4 6.8 2.2 6.8C3.2 6.8 3.8 6.3 3.8 5.8C3.8 5.4 3.6 5.2 3 5.2L2 5.2ZM1.6 1.7C1.6 2.5 2 2.9 2.5 2.9C3.1 2.9 3.5 2.6 3.5 1.7C3.5 1 3.1 0.6 2.5 0.6C1.9 0.6 1.6 0.9 1.6 1.7Z"/>
   <path id="shape61" transform="translate(116.425, 15.2234)" fill="#000000" d="M1.2 2.7C1.2 4 1.8 4.6 2.7 4.6C3.4 4.6 3.7 4.3 4 4.1C4.1 4.2 4.2 4.4 4.2 4.5C4.2 4.8 3.5 5.4 2.3 5.4C1 5.4 0 4.7 0 2.8C0 0.9 1.1 0 2.3 0C3.5 0 4.1 0.7 4.1 1.8C4.1 2.1 4 2.4 4 2.7ZM3 2.1C3 2 3.1 1.8 3.1 1.6C3.1 1 2.9 0.5 2.3 0.5C1.7 0.5 1.3 1 1.2 2L3 2Z"/>
   <path id="shape62" transform="translate(121.325, 15.2234)" fill="#000000" d="M2.5 0.8C2.4 0.7 2.1 0.6 1.8 0.6C1.5 0.6 1.1 0.7 1.1 1.2C1.1 1.7 1.6 1.9 2.1 2.2C2.7 2.6 3.4 3 3.4 3.8C3.4 4.7 2.7 5.3 1.5 5.3C0.9 5.3 0.4 5.1 0.2 5C0.2 4.7 0.1 4.5 0.1 4.2C0.1 3.8 0.2 3.6 0.5 3.6C0.6 3.6 0.6 3.6 0.6 3.6L0.8 4.5C0.9 4.6 1.2 4.7 1.5 4.7C2 4.7 2.3 4.5 2.3 4.1C2.3 3.6 1.8 3.4 1.3 3.1C0.7 2.7 0 2.3 0 1.4C0 0.6 0.7 0 1.7 0C2.3 0 2.7 0.2 2.9 0.4C2.9 0.5 2.9 0.8 2.9 1C2.9 1.4 2.8 1.6 2.4 1.6C2.3 1.6 2.3 1.6 2.3 1.6Z"/>
  </g>
 </g><g id="Bildwortmarke">
  <path id="shape63" transform="translate(38.6221, 67.291)" fill="#ffcc00" d="M2.00156 0L3.50272 0L3.50272 20.0058L0 20.0058L0 0Z"/>
  <path id="shape64" transform="translate(38.6221, 47.2852)" fill="#ff0000" d="M2.00156 0L3.50272 0L3.50272 20.0058L0 20.0058L0 0Z"/>
  <g id="group2" transform="translate(8.70579, 25.6476)" fill="none">
   <path id="shape65" transform="translate(0.393376, 0.631496)" fill="#000000" d="M20.4159 8.00232C21.4167 9.60279 22.2173 9.60279 23.4182 9.60279C22.4174 8.80255 21.7169 7.80226 21.4167 7.30212L19.5152 4.30125C19.315 3.40099 18.8146 2.50073 18.1141 1.90055C18.3142 1.80052 18.5144 1.70049 18.7145 1.60046C17.5136 1.60046 16.3127 1.00029 15.6121 1.00029C15.2118 1.00029 14.9116 1.30038 14.9116 1.60046C14.9116 2.00058 15.3119 2.4007 16.0124 2.4007C16.2126 2.4007 16.4128 2.4007 16.6129 2.30067C17.0132 2.80081 17.3135 3.30096 17.3135 4.00116C17.3135 5.30154 15.7122 6.30183 14.211 6.30183C14.111 6.30183 14.0109 6.30183 13.9108 6.30183C13.8107 6.00174 13.3103 5.40157 13.3103 4.80139C13.3103 3.8011 14.0109 2.90084 14.0109 1.90055C14.0109 1.30038 13.7107 0.900261 13.6106 0.700203C13.8107 0.500145 14.0109 0.300087 14.111 0.100029C14.0109 0.100029 13.9108 0.200058 13.7107 0.200058C12.91 0.200058 12.3096 0 11.7091 0C11.4089 0 11.3088 0.100029 11.3088 0.200058C11.3088 0.200058 11.3088 0.300087 11.3088 0.300087C11.2087 0.200058 11.1086 0.200058 10.9085 0.200058C10.7083 0.200058 10.5082 0.100029 10.308 0.100029C9.60747 0.100029 9.30724 0.400116 9.30724 0.700203C9.30724 0.900261 9.50739 1.30038 9.70755 1.60046C10.0078 1.50044 10.308 1.40041 10.5082 1.40041C10.9085 1.40041 11.2087 1.80052 11.4089 2.20064C11.1086 2.20064 11.1086 2.20064 10.8084 2.20064C10.1079 2.20064 9.60747 1.90055 9.50739 1.90055C9.50739 1.90055 9.50739 1.90055 9.50739 1.90055C9.50739 2.00058 9.70755 2.30067 10.1079 2.4007C10.6082 2.60075 11.4089 2.70078 11.5089 2.70078C11.5089 2.70078 11.4089 3.00087 11.2087 3.00087C11.2087 3.00087 11.1086 3.00087 11.1086 3.00087C10.6082 2.90084 10.4081 2.80081 9.70755 2.60075C9.70755 2.60075 9.70755 2.60075 9.70755 2.60075C9.70755 2.90084 10.4081 3.50102 11.0086 3.70107C10.5082 4.40128 9.80762 5.10148 9.50739 6.10177C9.40731 6.10177 9.30724 6.10177 9.20716 6.10177C7.60591 6.10177 6.10475 5.10148 6.10475 3.8011C6.10475 3.1009 6.40498 2.60075 6.80529 2.10061C7.00545 2.10061 7.2056 2.20064 7.40576 2.20064C8.1063 2.20064 8.50661 1.80052 8.50661 1.40041C8.50661 1.10032 8.20638 0.800232 7.80607 0.800232C7.10552 0.800232 5.90459 1.40041 4.70366 1.40041C4.80373 1.50044 5.00389 1.60046 5.30412 1.70049C4.60358 2.30067 4.10319 3.20093 3.90303 4.10119L2.00156 7.10206C1.70132 7.60221 1.00078 8.6025 0 9.40273C1.20093 9.40273 2.00156 9.40273 3.00233 7.80226L4.00311 6.30183C4.10319 6.50189 4.20327 6.70195 4.30335 6.902L2.40187 10.0029C2.10163 10.503 1.40109 11.5033 0.400311 12.3036C1.60124 12.3036 2.40187 12.3036 3.40265 10.7031L5.00389 8.10235C5.10397 8.20238 5.30412 8.40244 5.4042 8.50247L3.10241 12.2035C2.80218 12.7037 2.10163 13.704 1.10086 14.4042C2.30179 14.4042 3.10241 14.4042 4.10319 12.8037L6.40498 9.20267C6.50506 9.3027 6.70521 9.40273 6.90537 9.50276L4.10319 13.904C3.80296 14.4042 3.10241 15.4045 2.10163 16.1047C3.30257 16.1047 4.10319 16.1047 5.10397 14.5042L7.90615 10.0029C8.1063 10.1029 8.20638 10.1029 8.40654 10.203L5.20405 15.3044C4.90381 15.8046 4.20327 16.8049 3.20249 17.5051C4.40342 17.5051 5.20405 17.5051 6.20482 15.9046L9.60747 10.403C9.60747 10.403 9.70755 10.403 9.70755 10.403C9.80762 10.7031 9.9077 11.0032 9.9077 11.2033C9.9077 12.9037 8.80685 14.4042 7.40576 15.6045C7.50584 15.6045 7.60591 15.7046 7.80607 15.7046C8.1063 15.7046 8.30646 15.7046 8.40654 15.7046C8.1063 16.4048 7.40576 17.305 7.10552 17.8052C6.70521 17.7051 6.00467 17.7051 5.60436 17.7051C5.20405 17.7051 5.10397 18.0052 5.10397 18.2053C5.10397 18.6054 5.30412 18.9055 5.50428 19.1055C5.60436 18.9055 5.70443 18.6054 6.60514 18.6054C6.60514 18.6054 6.60514 18.6054 6.70521 18.6054C6.50506 18.9055 5.70443 19.5057 5.70443 20.0058C5.70443 20.3059 6.10475 20.806 6.50506 20.806C6.50506 20.706 6.50506 20.606 6.50506 20.506C6.50506 20.1058 6.80529 19.6057 7.10552 19.3056C7.10552 19.4056 7.10552 19.4056 7.10552 19.5057C7.10552 20.4059 7.2056 20.9061 7.80607 20.9061C8.1063 20.9061 8.30646 20.706 8.40654 20.706C8.00622 20.3059 8.00622 20.1058 8.00622 19.5057C8.00622 19.4056 8.00622 19.2056 8.00622 19.0055C8.00622 18.9055 8.00622 18.7054 8.00622 18.6054C8.20638 18.6054 8.30646 18.6054 8.50661 18.6054C8.50661 18.6054 9.30724 18.5054 9.50739 19.0055C9.70755 18.8055 10.1079 18.5054 10.1079 18.2053C10.1079 18.0052 10.0078 17.7051 9.60747 17.7051C9.40731 17.7051 8.90692 17.8052 8.50661 17.8052C8.60669 17.5051 9.10708 16.8049 9.60747 16.2047C9.70755 16.4048 9.80762 16.6048 10.0078 16.8049C10.0078 16.4048 10.2079 15.3044 10.8084 14.7043C10.9085 15.1044 11.0086 15.6045 11.0086 16.5048C11.0086 18.8055 10.4081 20.506 9.30724 20.806C9.50739 21.1061 9.80762 21.3062 10.1079 21.3062C10.5082 21.3062 10.8084 20.806 11.0086 20.4059C11.1086 20.706 11.5089 21.6063 11.8092 21.6063C12.1094 21.6063 12.5097 20.806 12.6098 20.4059C12.81 20.9061 13.1102 21.3062 13.5105 21.3062C13.8107 21.3062 14.211 21.1061 14.3111 20.806C13.1102 20.506 12.6098 18.8055 12.6098 16.5048C12.6098 15.5045 12.7099 15.1044 12.7099 14.7043C13.3103 15.4045 13.5105 16.5048 13.5105 16.8049C13.7107 16.6048 13.8107 16.4048 13.9108 16.2047C14.3111 16.7048 14.9116 17.5051 15.0117 17.8052C14.6114 17.8052 14.111 17.7051 13.9108 17.7051C13.5105 17.7051 13.4104 17.9052 13.4104 18.2053C13.4104 18.5054 13.7107 18.8055 14.0109 19.0055C14.211 18.6054 15.0117 18.6054 15.0117 18.6054C15.2118 18.6054 15.2118 18.6054 15.5121 18.6054C15.5121 18.7054 15.5121 18.9055 15.5121 19.0055C15.5121 19.2056 15.5121 19.3056 15.5121 19.5057C15.5121 20.0058 15.5121 20.3059 15.1117 20.706C15.2118 20.706 15.412 20.9061 15.7122 20.9061C16.3127 20.9061 16.4128 20.506 16.4128 19.5057C16.4128 19.4056 16.4128 19.4056 16.4128 19.3056C16.713 19.6057 17.0132 20.1058 17.0132 20.506C17.0132 20.606 17.0132 20.706 17.0132 20.806C17.5136 20.806 17.8138 20.3059 17.8138 20.0058C17.8138 19.5057 17.1133 18.9055 16.8131 18.6054C16.8131 18.6054 16.9131 18.6054 16.9131 18.6054C17.7138 18.6054 17.9139 18.9055 18.014 19.1055C18.2142 18.9055 18.4143 18.6054 18.4143 18.2053C18.4143 18.0052 18.4143 17.7051 17.9139 17.7051C17.5136 17.7051 16.8131 17.8052 16.4128 17.8052C16.1125 17.305 15.412 16.4048 15.1117 15.7046C15.2118 15.7046 15.412 15.7046 15.7122 15.7046C15.8123 15.7046 16.0124 15.7046 16.1125 15.6045C14.7114 14.4042 13.6106 12.9037 13.6106 11.2033C13.6106 10.9032 13.7107 10.6031 13.8107 10.403C13.8107 10.403 13.9108 10.403 13.9108 10.403L17.3135 15.9046C18.3142 17.5051 19.1149 17.5051 20.3158 17.5051C19.315 16.7048 18.6145 15.7046 18.3142 15.3044L15.1117 10.203C15.3119 10.1029 15.412 10.1029 15.6121 10.0029L18.4143 14.5042C19.4151 16.1047 20.2157 16.1047 21.4167 16.1047C20.4159 15.3044 19.7153 14.4042 19.4151 13.904L16.5128 9.50276C16.713 9.40273 16.8131 9.3027 17.0132 9.20267L19.315 12.8037C20.3158 14.4042 21.1164 14.4042 22.3174 14.4042C21.3166 13.6039 20.616 12.7037 20.3158 12.2035L18.014 8.50247C18.1141 8.40244 18.3142 8.30241 18.4143 8.10235L20.0156 10.7031C21.0163 12.3036 21.817 12.3036 23.0179 12.3036C22.0171 11.5033 21.3166 10.6031 21.0163 10.0029L19.1149 6.902C19.2149 6.70195 19.315 6.50189 19.4151 6.30183ZM5.10397 4.40128C5.10397 3.30096 5.90459 2.4007 6.20482 2.10061C6.3049 2.10061 6.3049 2.10061 6.40498 2.10061C6.10475 2.50073 5.50428 3.1009 5.50428 4.00116C5.50428 5.70165 7.30568 7.10206 9.30724 7.10206C9.30724 7.20209 9.30724 7.40215 9.30724 7.50218C9.30724 7.70224 9.30724 8.00232 9.30724 8.20238C7.10552 8.30241 5.10397 6.40186 5.10397 4.40128ZM8.20638 18.1053L8.20638 18.1053L8.20638 18.1053C8.90692 18.1053 9.20716 18.1053 9.40731 18.1053C9.50739 18.1053 9.60747 18.1053 9.70755 18.1053C9.9077 18.1053 10.0078 18.1053 10.0078 18.3053C10.0078 18.4053 9.80762 18.7054 9.70755 18.8055C9.40731 18.5054 9.007 18.5054 8.60669 18.5054C8.40654 18.5054 8.1063 18.5054 7.90615 18.6054L7.90615 18.6054L7.90615 18.6054L7.90615 18.7054C7.90615 18.8055 7.90615 19.0055 7.90615 19.2056L7.90615 19.4056L7.90615 19.7057C7.90615 20.2059 8.00622 20.606 8.20638 20.806C8.20638 20.806 8.1063 20.806 8.00622 20.806C7.70599 20.806 7.60591 20.706 7.60591 19.7057C7.60591 19.5057 7.60591 19.3056 7.60591 19.2056L7.60591 19.0055L7.60591 19.0055C7.10552 19.4056 6.60514 20.1058 6.50506 20.606C6.3049 20.506 6.20482 20.3059 6.20482 20.1058C6.20482 19.8057 6.60514 19.4056 7.10552 18.9055L7.40576 18.6054L7.40576 18.6054L7.30568 18.6054C7.2056 18.6054 7.00545 18.5054 6.80529 18.5054C6.3049 18.5054 5.90459 18.6054 5.70443 18.8055C5.60436 18.7054 5.60436 18.4053 5.60436 18.3053C5.60436 18.2053 5.60436 18.1053 5.70443 18.1053C5.70443 18.1053 5.80451 18.1053 5.90459 18.1053L5.90459 18.1053C6.50506 18.1053 7.2056 18.2053 7.50584 18.3053L7.50584 18.3053L7.50584 18.3053C7.50584 18.2053 8.70677 16.7048 9.007 15.9046C9.10708 15.9046 9.10708 15.9046 9.20716 15.9046C9.40731 15.9046 9.50739 16.1047 9.60747 16.3047C8.80685 17.0049 8.30646 17.7051 8.20638 18.1053ZM14.4112 15.7046C14.5113 15.7046 14.6114 15.7046 14.6114 15.7046C14.9116 16.5048 16.0124 18.0052 16.1125 18.1053L16.1125 18.1053L16.1125 18.1053C16.4128 18.1053 17.1133 17.9052 17.7138 17.9052L17.7138 17.9052C17.8138 17.9052 17.8138 17.9052 17.9139 17.9052C17.9139 17.9052 18.014 18.0052 18.014 18.1053C18.014 18.2053 17.9139 18.5054 17.9139 18.6054C17.7138 18.4053 17.3135 18.3053 16.8131 18.3053C16.6129 18.3053 16.4128 18.3053 16.3127 18.4053L16.3127 18.4053L16.3127 18.4053L16.6129 18.7054C17.1133 19.2056 17.5136 19.6057 17.5136 19.9058C17.5136 20.1058 17.3135 20.3059 17.2134 20.4059C17.2134 19.9058 16.713 19.2056 16.1125 18.8055L16.1125 18.8055L16.1125 19.0055C16.1125 19.1055 16.1125 19.3056 16.1125 19.5057C16.1125 20.506 16.0124 20.606 15.7122 20.606C15.6121 20.606 15.6121 20.606 15.5121 20.606C15.7122 20.4059 15.8123 20.1058 15.8123 19.5057L15.8123 19.2056L15.8123 19.0055C15.8123 18.8055 15.8123 18.6054 15.8123 18.5054L15.8123 18.4053L15.7122 18.4053C15.5121 18.4053 15.2118 18.3053 15.0117 18.3053C14.5113 18.3053 14.211 18.3053 14.0109 18.6054C13.8107 18.5054 13.7107 18.3053 13.7107 18.1053C13.7107 17.9052 13.8107 17.9052 14.0109 17.9052C14.111 17.9052 14.211 17.9052 14.3111 17.9052C14.5113 17.9052 14.8115 18.0052 15.5121 18.0052L15.5121 18.0052L15.5121 18.0052C15.3119 17.5051 14.9116 16.9049 14.211 16.0046C14.111 15.9046 14.111 15.7046 14.4112 15.7046ZM11.7091 2.4007C11.609 2.10061 11.5089 1.80052 11.3088 1.60046C11.1086 1.40041 10.8084 1.10032 10.4081 1.10032C10.2079 1.10032 9.9077 1.20035 9.70755 1.30038C9.60747 1.20035 9.50739 0.900261 9.50739 0.700203C9.50739 0.600174 9.70755 0.400116 10.2079 0.400116C11.2087 0.400116 11.8092 0.900261 11.8092 1.60046C11.9093 2.00058 11.8092 2.20064 11.7091 2.4007ZM12.2095 1.40041C12.2095 1.20035 12.1094 1.00029 12.0093 0.800232C12.0093 0.600174 12.1094 0.400116 12.4096 0.600174C12.2095 0.800232 12.4096 1.10032 12.4096 1.10032C12.4096 1.10032 12.81 0.900261 12.7099 0.700203C13.1102 0.800232 12.7099 1.50044 12.2095 1.40041ZM14.211 8.30241C14.211 8.10235 14.211 7.80226 14.211 7.60221C14.211 7.50218 14.211 7.30212 14.211 7.20209C16.2126 7.20209 17.9139 5.70165 17.9139 4.10119C17.9139 3.30096 17.4135 2.60075 17.0132 2.20064C17.1133 2.20064 17.1133 2.20064 17.2134 2.20064C17.5136 2.50073 18.3142 3.40099 18.3142 4.50131C18.4143 6.40186 16.4128 8.30241 14.211 8.30241Z"/>
  </g>
  <path id="shape66" transform="translate(38.6221, 27.2794)" fill="#000000" d="M3.50272 0L3.50272 20.0058L2.00156 20.0058L0 20.0058L0 0Z"/>
  <path id="shape67" transform="translate(48.8301, 26.7793)" fill="#000000" d="M5.00389 2.4007C5.00389 2.70078 5.00389 2.90084 4.90381 3.1009C4.80373 3.30096 4.70366 3.50102 4.60358 3.70107C4.5035 3.90113 4.30335 4.00116 4.20327 4.10119C4.00311 4.20122 3.90303 4.30125 3.70288 4.30125L3.70288 4.30125C3.90303 4.30125 4.10319 4.40128 4.30335 4.50131C4.5035 4.60134 4.60358 4.70136 4.80373 4.90142C4.90381 5.10148 5.00389 5.30154 5.10397 5.5016C5.20405 5.70165 5.20405 6.00174 5.20405 6.2018C5.20405 6.50189 5.10397 6.80197 5.00389 7.10206C4.90381 7.40215 4.70366 7.60221 4.5035 7.80226C4.30335 8.00232 4.00311 8.20238 3.6028 8.30241C3.20249 8.40244 2.80218 8.50247 2.30179 8.50247L0.600467 8.50247L0.600467 0.300087L2.30179 0.300087C2.80218 0.300087 3.20249 0.300087 3.50272 0.400116C3.80296 0.500145 4.10319 0.600174 4.40342 0.800232C4.70366 1.00029 4.80373 1.20035 4.90381 1.50044C5.00389 1.80052 5.00389 2.10061 5.00389 2.4007ZM4.00311 2.4007C4.00311 2.00058 3.90303 1.70049 3.6028 1.50044C3.30257 1.30038 2.90226 1.10032 2.30179 1.10032L1.8014 1.10032L1.8014 4.00116L2.30179 4.00116C2.90226 4.00116 3.30257 3.90113 3.6028 3.60105C3.90303 3.30096 4.00311 2.90084 4.00311 2.4007ZM4.20327 6.2018C4.20327 5.80168 4.10319 5.40157 3.80296 5.10148C3.50272 4.80139 3.10241 4.70136 2.60202 4.70136L1.90148 4.70136L1.90148 7.60221L2.50195 7.60221C3.10241 7.60221 3.6028 7.50218 3.80296 7.20209C4.00311 7.10206 4.20327 6.70195 4.20327 6.2018ZM10.5082 8.50247L9.60747 8.50247L9.60747 7.90229L9.60747 7.90229C9.60747 7.90229 9.50739 8.00232 9.40731 8.10235C9.30724 8.20238 9.20716 8.30241 9.10708 8.40244C9.007 8.50247 8.80685 8.6025 8.70677 8.6025C8.60669 8.6025 8.30646 8.70253 8.1063 8.70253C7.80607 8.70253 7.60591 8.70253 7.40576 8.6025C7.2056 8.50247 7.00545 8.40244 6.90537 8.20238C6.80529 8.00232 6.60514 7.80226 6.60514 7.60221C6.50506 7.30212 6.50506 7.00203 6.50506 6.60192L6.50506 2.90084L7.50584 2.90084L7.50584 6.60192C7.50584 7.10206 7.60591 7.40215 7.70599 7.60221C7.90615 7.80226 8.1063 7.90229 8.40654 7.90229C8.70677 7.90229 8.90692 7.80226 9.10708 7.70224C9.30724 7.60221 9.40731 7.40215 9.60747 7.30212L9.60747 2.90084L10.6082 2.90084L10.6082 8.50247ZM15.1117 8.50247L15.1117 4.80139C15.1117 4.30125 15.0117 4.00116 14.9116 3.8011C14.7114 3.60105 14.5113 3.50102 14.211 3.50102C13.9108 3.50102 13.7107 3.60105 13.5105 3.70107C13.3103 3.8011 13.2103 4.00116 13.0101 4.10119L13.0101 8.50247L12.0093 8.50247L12.0093 2.80081L12.91 2.80081L12.91 3.40099L12.91 3.40099C12.91 3.40099 13.0101 3.30096 13.1102 3.20093C13.2103 3.1009 13.3103 3.00087 13.4104 2.90084C13.5105 2.80081 13.7107 2.70078 13.9108 2.70078C14.111 2.70078 14.3111 2.60075 14.5113 2.60075C14.8115 2.60075 15.0117 2.60075 15.2118 2.70078C15.412 2.80081 15.6121 2.90084 15.7122 3.1009C15.8123 3.30096 16.0124 3.50102 16.0124 3.70107C16.1125 4.00116 16.1125 4.30125 16.1125 4.70136L16.1125 8.40244L15.1117 8.40244ZM17.3135 5.80168C17.3135 5.20151 17.4135 4.70136 17.5136 4.30125C17.7138 3.90113 17.8138 3.60105 18.1141 3.40099C18.3142 3.20093 18.6145 3.00087 18.9147 2.90084C19.2149 2.80081 19.5152 2.80081 19.8154 2.80081C20.0156 2.80081 20.1156 2.80081 20.3158 2.80081C20.4159 2.80081 20.5159 2.90084 20.616 2.90084L20.616 0.200058L21.6168 0.100029L21.6168 8.6025L20.7161 8.6025L20.7161 8.00232L20.7161 8.00232C20.7161 8.00232 20.616 8.10235 20.616 8.20238C20.5159 8.30241 20.4159 8.40244 20.3158 8.40244C20.2157 8.50247 20.1156 8.6025 19.9155 8.6025C19.7153 8.70253 19.5152 8.70253 19.315 8.70253C19.0148 8.70253 18.8146 8.6025 18.5144 8.50247C18.3142 8.40244 18.014 8.20238 17.9139 8.00232C17.7138 7.80226 17.6137 7.50218 17.5136 7.10206C17.3135 6.70195 17.3135 6.30183 17.3135 5.80168ZM19.5152 7.80226C19.7153 7.80226 19.8154 7.80226 19.9155 7.70224C20.0156 7.70224 20.1156 7.60221 20.2157 7.60221C20.3158 7.50218 20.4159 7.50218 20.4159 7.40215C20.5159 7.30212 20.5159 7.30212 20.5159 7.20209L20.5159 3.70107C20.4159 3.60105 20.3158 3.60105 20.2157 3.60105C20.1156 3.60105 19.9155 3.50102 19.8154 3.50102C19.6152 3.50102 19.4151 3.50102 19.2149 3.60105C19.0148 3.70107 18.8146 3.8011 18.7145 4.00116C18.6145 4.20122 18.4143 4.40128 18.4143 4.70136C18.3142 5.00145 18.3142 5.30154 18.3142 5.70165C18.3142 6.10177 18.3142 6.40186 18.4143 6.70195C18.5144 7.00203 18.6145 7.20209 18.7145 7.30212C18.8146 7.50218 19.0148 7.60221 19.1149 7.70224C19.2149 7.80226 19.4151 7.80226 19.5152 7.80226ZM26.7208 4.70136C26.7208 4.90142 26.7208 5.20151 26.7208 5.30154C26.7208 5.5016 26.7208 5.60163 26.7208 5.80168L23.8185 5.80168C23.8185 6.50189 24.0187 7.00203 24.2188 7.30212C24.5191 7.60221 24.8193 7.80226 25.3197 7.80226C25.5198 7.80226 25.6199 7.80226 25.8201 7.70224C25.9202 7.70224 26.1203 7.60221 26.2204 7.60221C26.3205 7.50218 26.4205 7.50218 26.4205 7.40215C26.5206 7.30212 26.5206 7.30212 26.5206 7.30212L26.9209 8.00232C26.9209 8.00232 26.8209 8.10235 26.7208 8.20238C26.6207 8.30241 26.5206 8.40244 26.4205 8.40244C26.3205 8.50247 26.1203 8.50247 25.9202 8.6025C25.72 8.70253 25.5198 8.70253 25.2196 8.70253C24.8193 8.70253 24.5191 8.6025 24.2188 8.50247C23.9186 8.40244 23.7184 8.20238 23.5183 7.90229C23.3181 7.60221 23.118 7.30212 23.0179 6.902C22.9178 6.50189 22.8177 6.10177 22.8177 5.5016C22.8177 5.00145 22.9178 4.60134 23.0179 4.20122C23.118 3.8011 23.3181 3.50102 23.5183 3.30096C23.7184 3.1009 23.9186 2.90084 24.2188 2.80081C24.5191 2.70078 24.7192 2.60075 25.0195 2.60075C25.5198 2.60075 26.0202 2.80081 26.3205 3.1009C26.6207 3.50102 26.7208 4.10119 26.7208 4.70136ZM24.9194 3.50102C24.6191 3.50102 24.3189 3.60105 24.1188 3.90113C23.9186 4.20122 23.8185 4.60134 23.7184 5.10148L25.8201 5.10148C25.8201 5.10148 25.8201 5.00145 25.8201 4.90142C25.8201 4.80139 25.8201 4.70136 25.8201 4.70136C25.8201 4.30125 25.72 4.00116 25.6199 3.8011C25.4198 3.60105 25.2196 3.50102 24.9194 3.50102ZM30.5237 4.00116C30.4237 3.90113 30.3236 3.8011 30.2235 3.70107C30.0233 3.60105 29.8232 3.50102 29.523 3.50102C29.2227 3.50102 29.1226 3.60105 28.9225 3.70107C28.8224 3.8011 28.7223 4.00116 28.7223 4.10119C28.7223 4.30125 28.8224 4.50131 28.9225 4.60134C29.0226 4.70136 29.2227 4.90142 29.523 5.00145L29.9233 5.20151C30.3236 5.40157 30.6238 5.70165 30.824 5.90171C31.0241 6.2018 31.1242 6.50189 31.1242 6.902C31.1242 7.40215 30.924 7.70224 30.6238 8.00232C30.3236 8.30241 29.8232 8.50247 29.2227 8.50247C29.0226 8.50247 28.8224 8.50247 28.6223 8.40244C28.4221 8.40244 28.322 8.30241 28.1219 8.20238C28.0218 8.10235 27.9217 8.10235 27.8216 8.00232C27.7216 7.90229 27.6215 7.90229 27.6215 7.80226L28.1219 7.00203C28.1219 7.00203 28.2219 7.10206 28.322 7.20209C28.4221 7.30212 28.4221 7.30212 28.5222 7.40215C28.6223 7.50218 28.7223 7.50218 28.8224 7.50218C28.9225 7.50218 29.1226 7.60221 29.2227 7.60221C29.523 7.60221 29.7231 7.50218 29.9233 7.40215C30.1234 7.30212 30.1234 7.10206 30.1234 6.902C30.1234 6.80197 30.1234 6.60192 30.0233 6.50189C30.0233 6.40186 29.9233 6.30183 29.8232 6.2018C29.7231 6.10177 29.623 6.00174 29.523 6.00174C29.4229 5.90171 29.3228 5.80168 29.1226 5.80168L28.7223 5.60163C28.322 5.40157 28.1219 5.10148 27.9217 4.90142C27.7216 4.60134 27.6215 4.30125 27.6215 3.90113C27.6215 3.70107 27.6215 3.50102 27.7216 3.30096C27.8216 3.1009 27.9217 3.00087 28.1219 2.80081C28.322 2.70078 28.4221 2.60075 28.6223 2.50073C28.8224 2.4007 29.0226 2.4007 29.2227 2.4007C29.4229 2.4007 29.623 2.4007 29.8232 2.50073C30.0233 2.50073 30.1234 2.60075 30.2235 2.70078C30.3236 2.80081 30.4237 2.80081 30.5237 2.90084C30.6238 3.00087 30.6238 3.00087 30.7239 3.1009ZM35.2274 8.50247L35.2274 4.80139C35.2274 4.30125 35.1273 4.00116 35.0272 3.8011C34.9272 3.60105 34.6269 3.50102 34.3267 3.50102C34.1265 3.50102 34.0265 3.50102 33.9264 3.60105C33.8263 3.60105 33.7262 3.70107 33.6261 3.70107C33.5261 3.8011 33.426 3.8011 33.426 3.90113C33.3259 4.00116 33.3259 4.00116 33.2258 4.10119L33.2258 8.50247L32.2251 8.50247L32.2251 2.80081L33.1258 2.80081L33.1258 3.40099L33.1258 3.40099C33.1258 3.30096 33.2258 3.30096 33.3259 3.20093C33.426 3.1009 33.5261 3.00087 33.6261 2.90084C33.7262 2.80081 33.9264 2.70078 34.0265 2.70078C34.1265 2.70078 34.3267 2.60075 34.5268 2.60075C35.2274 2.60075 35.6277 2.90084 35.9279 3.40099C36.028 3.30096 36.028 3.20093 36.1281 3.1009C36.2282 3.00087 36.3282 2.90084 36.4283 2.90084C36.5284 2.80081 36.7286 2.80081 36.8286 2.70078C36.9287 2.60075 37.1289 2.60075 37.329 2.60075C38.53 2.60075 39.0303 3.30096 39.0303 4.60134L39.0303 8.40244L38.0296 8.40244L38.0296 4.70136C38.0296 4.20122 37.9295 3.90113 37.8294 3.70107C37.6293 3.50102 37.4291 3.40099 37.1289 3.40099C36.8286 3.40099 36.6285 3.50102 36.4283 3.60105C36.2282 3.70107 36.1281 3.90113 36.028 4.00116C36.028 4.10119 36.028 4.20122 36.028 4.30125C36.028 4.40128 36.028 4.50131 36.028 4.60134L36.028 8.40244L35.2274 8.40244ZM41.5323 8.50247L40.5315 8.50247L40.5315 2.80081L41.5323 2.80081ZM41.0319 1.40041C40.8317 1.40041 40.6316 1.30038 40.5315 1.20035C40.4314 1.10032 40.3314 0.900261 40.3314 0.700203C40.3314 0.500145 40.4314 0.300087 40.5315 0.200058C40.6316 0.100029 40.8317 0 41.0319 0C41.2321 0 41.3321 0.100029 41.5323 0.200058C41.6324 0.300087 41.7324 0.500145 41.7324 0.700203C41.7324 0.900261 41.6324 1.10032 41.5323 1.20035C41.4322 1.40041 41.2321 1.40041 41.0319 1.40041ZM46.1359 8.50247L46.1359 4.80139C46.1359 4.30125 46.0358 4.00116 45.9357 3.8011C45.7356 3.60105 45.5354 3.50102 45.2352 3.50102C44.9349 3.50102 44.7348 3.60105 44.5346 3.70107C44.3345 3.8011 44.2344 4.00116 44.0342 4.10119L44.0342 8.50247L43.0335 8.50247L43.0335 2.80081L43.9342 2.80081L43.9342 3.40099L43.9342 3.40099C43.9342 3.40099 44.0342 3.30096 44.1343 3.20093C44.2344 3.1009 44.3345 3.00087 44.4345 2.90084C44.5346 2.80081 44.7348 2.70078 44.9349 2.70078C45.1351 2.70078 45.3352 2.60075 45.5354 2.60075C45.8356 2.60075 46.0358 2.60075 46.2359 2.70078C46.4361 2.80081 46.6363 2.90084 46.7363 3.1009C46.8364 3.30096 47.0366 3.50102 47.0366 3.70107C47.1366 4.00116 47.1366 4.30125 47.1366 4.70136L47.1366 8.40244L46.1359 8.40244ZM49.5385 8.50247L48.5377 8.50247L48.5377 2.80081L49.5385 2.80081ZM49.0381 1.40041C48.838 1.40041 48.6378 1.30038 48.5377 1.20035C48.4377 1.10032 48.3376 0.900261 48.3376 0.700203C48.3376 0.500145 48.4377 0.300087 48.5377 0.200058C48.6378 0.100029 48.838 0 49.0381 0C49.2383 0 49.3384 0.100029 49.5385 0.200058C49.6386 0.300087 49.7387 0.500145 49.7387 0.700203C49.7387 0.900261 49.6386 1.10032 49.5385 1.20035C49.4384 1.40041 49.2383 1.40041 49.0381 1.40041ZM53.4415 4.00116C53.3415 3.90113 53.2414 3.8011 53.1413 3.70107C52.9412 3.60105 52.741 3.50102 52.4408 3.50102C52.1405 3.50102 52.0405 3.60105 51.8403 3.70107C51.7402 3.8011 51.6401 4.00116 51.6401 4.10119C51.6401 4.30125 51.7402 4.50131 51.8403 4.60134C51.9404 4.70136 52.1405 4.90142 52.4408 5.00145L52.8411 5.20151C53.2414 5.40157 53.5416 5.70165 53.7418 5.90171C53.9419 6.2018 54.042 6.50189 54.042 6.902C54.042 7.40215 53.8419 7.70224 53.5416 8.00232C53.2414 8.30241 52.741 8.50247 52.1405 8.50247C51.9404 8.50247 51.7402 8.50247 51.5401 8.40244C51.3399 8.30241 51.2398 8.30241 51.0397 8.20238C50.9396 8.10235 50.8395 8.10235 50.7394 8.00232C50.6394 7.90229 50.5393 7.90229 50.5393 7.80226L51.0397 7.00203C51.0397 7.00203 51.1398 7.10206 51.2398 7.20209C51.3399 7.30212 51.3399 7.30212 51.44 7.40215C51.5401 7.50218 51.6401 7.50218 51.7402 7.50218C51.8403 7.50218 52.0405 7.60221 52.1405 7.60221C52.4408 7.60221 52.6409 7.50218 52.8411 7.40215C53.0412 7.30212 53.0412 7.10206 53.0412 6.902C53.0412 6.80197 53.0412 6.60192 52.9412 6.50189C52.9412 6.40186 52.8411 6.30183 52.741 6.2018C52.6409 6.10177 52.5408 6.00174 52.4408 6.00174C52.3407 5.90171 52.2406 5.80168 52.0405 5.80168L51.6401 5.60163C51.2398 5.40157 51.0397 5.10148 50.8395 4.90142C50.6394 4.60134 50.5393 4.30125 50.5393 3.90113C50.5393 3.70107 50.5393 3.50102 50.6394 3.30096C50.7394 3.1009 50.8395 3.00087 51.0397 2.80081C51.2398 2.70078 51.3399 2.60075 51.5401 2.50073C51.7402 2.4007 51.9404 2.4007 52.1405 2.4007C52.3407 2.4007 52.5408 2.4007 52.741 2.50073C52.9412 2.50073 53.0412 2.60075 53.1413 2.70078C53.2414 2.80081 53.3415 2.80081 53.4415 2.90084C53.5416 3.00087 53.5416 3.00087 53.6417 3.1009ZM57.6448 3.60105L56.3438 3.60105L56.3438 6.80197C56.3438 7.20209 56.4439 7.50218 56.544 7.60221C56.644 7.70224 56.8442 7.80226 57.0443 7.80226C57.1444 7.80226 57.3446 7.80226 57.4447 7.70224C57.5447 7.70224 57.6448 7.60221 57.6448 7.60221L57.7449 8.40244C57.7449 8.40244 57.6448 8.50247 57.4447 8.50247C57.2445 8.6025 57.0443 8.6025 56.8442 8.6025C56.3438 8.6025 55.9435 8.50247 55.7433 8.20238C55.5432 7.90229 55.343 7.50218 55.343 6.80197L55.343 3.50102L54.6425 3.50102L54.6425 3.00087L55.343 2.90084L55.4431 1.30038L56.3438 1.30038L56.3438 2.90084L57.7449 2.90084ZM62.2484 4.70136C62.2484 4.90142 62.2484 5.20151 62.2484 5.30154C62.2484 5.5016 62.2484 5.60163 62.2484 5.80168L59.3461 5.80168C59.3461 6.50189 59.5463 7.00203 59.7464 7.30212C60.0467 7.60221 60.3469 7.80226 60.8473 7.80226C61.0475 7.80226 61.1475 7.80226 61.3477 7.70224C61.4478 7.70224 61.6479 7.60221 61.748 7.60221C61.8481 7.50218 61.9482 7.50218 61.9482 7.40215C62.0482 7.30212 62.0482 7.30212 62.0482 7.30212L62.4486 8.00232C62.4486 8.00232 62.3485 8.10235 62.2484 8.20238C62.1483 8.30241 62.0482 8.40244 61.9482 8.40244C61.8481 8.50247 61.6479 8.50247 61.4478 8.6025C61.2476 8.70253 61.0475 8.70253 60.7472 8.70253C60.3469 8.70253 60.0467 8.6025 59.7464 8.50247C59.4462 8.40244 59.2461 8.20238 59.0459 7.90229C58.8457 7.70224 58.6456 7.30212 58.5455 6.902C58.4454 6.50189 58.3454 6.10177 58.3454 5.5016C58.3454 5.00145 58.4454 4.60134 58.5455 4.20122C58.6456 3.8011 58.8457 3.50102 59.0459 3.30096C59.2461 3.1009 59.4462 2.90084 59.7464 2.80081C60.0467 2.70078 60.2468 2.60075 60.5471 2.60075C61.0475 2.60075 61.5478 2.80081 61.8481 3.1009C62.1483 3.40099 62.2484 4.10119 62.2484 4.70136ZM60.447 3.50102C60.1468 3.50102 59.8465 3.60105 59.6464 3.90113C59.4462 4.20122 59.3461 4.60134 59.2461 5.10148L61.3477 5.10148C61.3477 5.10148 61.3477 5.00145 61.3477 4.90142C61.3477 4.80139 61.3477 4.70136 61.3477 4.70136C61.3477 4.30125 61.2476 4.00116 61.1475 3.8011C61.0475 3.60105 60.7472 3.50102 60.447 3.50102ZM66.0514 3.70107C66.0514 3.70107 65.9513 3.70107 65.8512 3.60105C65.7511 3.50102 65.651 3.60105 65.551 3.60105C65.2507 3.60105 65.0506 3.70107 64.8504 3.8011C64.6503 4.00116 64.5502 4.10119 64.4501 4.30125L64.4501 8.50247L63.4493 8.50247L63.4493 2.80081L64.35 2.80081L64.35 3.60105L64.35 3.60105C64.35 3.50102 64.4501 3.40099 64.5502 3.30096C64.6503 3.20093 64.6503 3.1009 64.7503 3.00087C64.8504 2.90084 64.9505 2.90084 65.0506 2.80081C65.1507 2.80081 65.3508 2.70078 65.551 2.70078C65.651 2.70078 65.7511 2.70078 65.8512 2.70078C65.9513 2.70078 65.9513 2.70078 66.0514 2.80081ZM68.0529 8.50247L67.0521 8.50247L67.0521 2.80081L68.0529 2.80081ZM67.5525 1.40041C67.3524 1.40041 67.1522 1.30038 67.0521 1.20035C66.9521 1.10032 66.852 0.900261 66.852 0.700203C66.852 0.500145 66.9521 0.300087 67.0521 0.200058C67.1522 0.100029 67.3524 0 67.5525 0C67.7527 0 67.8528 0.100029 68.0529 0.200058C68.153 0.300087 68.2531 0.500145 68.2531 0.700203C68.2531 0.900261 68.153 1.10032 68.0529 1.20035C67.8528 1.40041 67.7527 1.40041 67.5525 1.40041ZM73.4571 8.50247L72.5564 8.50247L72.5564 7.90229L72.5564 7.90229C72.5564 7.90229 72.4563 8.00232 72.3563 8.10235C72.2562 8.20238 72.1561 8.30241 72.056 8.40244C71.9559 8.50247 71.7558 8.6025 71.6557 8.6025C71.5556 8.6025 71.2554 8.70253 71.0552 8.70253C70.755 8.70253 70.5549 8.70253 70.3547 8.6025C70.1545 8.50247 69.9544 8.40244 69.8543 8.20238C69.7542 8.00232 69.5541 7.80226 69.5541 7.60221C69.454 7.30212 69.454 7.00203 69.454 6.60192L69.454 2.90084L70.4548 2.90084L70.4548 6.60192C70.4548 7.10206 70.5549 7.40215 70.6549 7.60221C70.8551 7.80226 71.0552 7.90229 71.3555 7.90229C71.6557 7.90229 71.8559 7.80226 72.056 7.70224C72.2562 7.60221 72.3563 7.40215 72.5564 7.30212L72.5564 2.90084L73.5572 2.90084L73.5572 8.50247ZM77.9606 8.50247L77.9606 4.80139C77.9606 4.30125 77.8605 4.00116 77.7605 3.8011C77.6604 3.60105 77.3601 3.50102 77.0599 3.50102C76.8598 3.50102 76.7597 3.50102 76.6596 3.60105C76.5595 3.60105 76.4594 3.70107 76.3594 3.70107C76.2593 3.8011 76.1592 3.8011 76.1592 3.90113C76.0591 4.00116 76.0591 4.00116 75.9591 4.10119L75.9591 8.50247L74.9583 8.50247L74.9583 2.80081L75.859 2.80081L75.859 3.40099L75.859 3.40099C75.859 3.30096 75.9591 3.30096 76.0591 3.20093C76.1592 3.1009 76.2593 3.00087 76.3594 2.90084C76.4594 2.80081 76.6596 2.70078 76.7597 2.70078C76.8598 2.70078 77.0599 2.60075 77.2601 2.60075C77.9606 2.60075 78.3609 2.90084 78.6612 3.40099C78.7612 3.30096 78.7612 3.20093 78.8613 3.1009C78.9614 3.00087 79.0615 2.90084 79.1615 2.90084C79.2616 2.80081 79.4618 2.80081 79.5619 2.70078C79.762 2.70078 79.8621 2.60075 80.0622 2.60075C81.2632 2.60075 81.7636 3.30096 81.7636 4.60134L81.7636 8.40244L80.7628 8.40244L80.7628 4.70136C80.7628 4.20122 80.6627 3.90113 80.5626 3.70107C80.3625 3.50102 80.1623 3.40099 79.8621 3.40099C79.5619 3.40099 79.3617 3.50102 79.1615 3.60105C78.9614 3.70107 78.8613 3.90113 78.7612 4.00116C78.7612 4.10119 78.7612 4.20122 78.7612 4.30125C78.7612 4.40128 78.7612 4.50131 78.7612 4.60134L78.7612 8.40244L77.9606 8.40244ZM2.90226 15.6045L1.70132 15.6045L1.70132 20.506L0.700545 20.506L0.700545 15.6045L0 15.6045L0 15.0044L0.700545 14.9043L0.700545 13.804C0.700545 13.5039 0.700545 13.2038 0.800622 13.0038C0.9007 12.8037 1.00078 12.6037 1.10086 12.5036C1.20093 12.4036 1.40109 12.3036 1.60124 12.2035C1.8014 12.1035 2.00156 12.1035 2.20171 12.1035C2.40187 12.1035 2.60202 12.1035 2.7021 12.2035C2.80218 12.3036 2.90226 12.3036 3.00233 12.3036L2.80218 13.1038C2.80218 13.1038 2.7021 13.0038 2.60202 13.0038C2.50195 13.0038 2.40187 12.9037 2.30179 12.9037C2.10163 12.9037 1.90148 13.0038 1.8014 13.1038C1.70132 13.2038 1.60124 13.5039 1.60124 13.904L1.60124 14.9043L2.90226 14.9043ZM7.90615 20.506L7.00545 20.506L7.00545 19.9058L7.00545 19.9058C7.00545 19.9058 6.90537 20.0058 6.80529 20.1058C6.70521 20.2059 6.60514 20.3059 6.50506 20.4059C6.40498 20.506 6.20482 20.606 6.10475 20.606C6.00467 20.606 5.70443 20.706 5.50428 20.706C5.20405 20.706 5.00389 20.706 4.80373 20.606C4.60358 20.506 4.40342 20.4059 4.30335 20.2059C4.20327 20.0058 4.00311 19.8057 4.00311 19.6057C3.90303 19.3056 3.90303 19.0055 3.90303 18.6054L3.90303 14.9043L4.90381 14.9043L4.90381 18.6054C4.90381 19.1055 5.00389 19.4056 5.10397 19.6057C5.30412 19.8057 5.50428 19.9058 5.80451 19.9058C6.10475 19.9058 6.3049 19.8057 6.50506 19.7057C6.70521 19.6057 6.80529 19.4056 7.00545 19.3056L7.00545 14.9043L8.00622 14.9043L8.00622 20.506ZM5.50428 13.2038C5.50428 13.4039 5.4042 13.5039 5.30412 13.6039C5.20405 13.704 5.10397 13.804 4.90381 13.804C4.70366 13.804 4.60358 13.704 4.5035 13.6039C4.40342 13.5039 4.30335 13.3039 4.30335 13.2038C4.30335 13.0038 4.40342 12.9037 4.5035 12.8037C4.60358 12.7037 4.70366 12.6037 4.90381 12.6037C5.10397 12.6037 5.20405 12.7037 5.30412 12.8037C5.50428 12.8037 5.50428 13.0038 5.50428 13.2038ZM7.40576 13.2038C7.40576 13.4039 7.30568 13.5039 7.2056 13.6039C7.10552 13.704 7.00545 13.804 6.80529 13.804C6.60514 13.804 6.50506 13.704 6.40498 13.6039C6.3049 13.5039 6.20482 13.3039 6.20482 13.2038C6.20482 13.0038 6.3049 12.9037 6.40498 12.8037C6.50506 12.7037 6.60514 12.6037 6.80529 12.6037C7.00545 12.6037 7.10552 12.7037 7.2056 12.8037C7.30568 12.8037 7.40576 13.0038 7.40576 13.2038ZM11.9093 15.7046C11.9093 15.7046 11.8092 15.7046 11.7091 15.6045C11.609 15.6045 11.5089 15.6045 11.4089 15.6045C11.1086 15.6045 10.9085 15.7046 10.7083 15.8046C10.5082 16.0046 10.4081 16.1047 10.308 16.3047L10.308 20.506L9.30724 20.506L9.30724 14.8043L10.2079 14.8043L10.2079 15.6045L10.2079 15.6045C10.2079 15.5045 10.308 15.4045 10.4081 15.3044C10.5082 15.2044 10.5082 15.1044 10.6082 15.0044C10.7083 14.9043 10.8084 14.9043 10.9085 14.8043C11.0086 14.8043 11.2087 14.7043 11.4089 14.7043C11.5089 14.7043 11.609 14.7043 11.7091 14.7043C11.8092 14.7043 11.8092 14.7043 11.9093 14.8043ZM23.3181 12.3036L21.3166 20.506L20.4159 20.506L19.2149 15.3044C19.1149 14.9043 19.0148 14.6042 19.0148 14.3042C19.0148 14.0041 18.9147 13.704 18.9147 13.6039L18.9147 13.6039C18.9147 13.804 18.9147 14.0041 18.8146 14.3042C18.7145 14.6042 18.7145 14.9043 18.6145 15.3044L17.3135 20.506L16.4128 20.506L14.4112 12.3036L15.5121 12.3036L16.5128 17.305C16.6129 17.7051 16.6129 18.0052 16.713 18.4053C16.8131 18.7054 16.8131 19.0055 16.8131 19.2056L16.8131 19.2056C16.8131 19.0055 16.8131 18.8055 16.9131 18.4053C17.0132 18.1053 17.1133 17.7051 17.1133 17.305L18.3142 12.3036L19.315 12.3036L20.5159 17.305C20.616 17.7051 20.7161 18.0052 20.7161 18.4053C20.8162 18.7054 20.8162 19.0055 20.8162 19.2056L20.8162 19.2056C20.8162 19.0055 20.8162 18.7054 20.9163 18.4053C21.0163 18.0052 21.0163 17.7051 21.1164 17.305L22.1172 12.3036ZM25.2196 20.506L24.2188 20.506L24.2188 14.8043L25.2196 14.8043ZM24.7192 13.4039C24.5191 13.4039 24.3189 13.3039 24.2188 13.2038C24.1188 13.1038 24.0187 12.9037 24.0187 12.7037C24.0187 12.5036 24.1188 12.3036 24.2188 12.2035C24.3189 12.1035 24.5191 12.0035 24.7192 12.0035C24.9194 12.0035 25.0195 12.1035 25.2196 12.2035C25.4198 12.3036 25.4198 12.5036 25.4198 12.7037C25.4198 12.9037 25.3197 13.1038 25.2196 13.2038C25.1195 13.3039 24.9194 13.4039 24.7192 13.4039ZM29.1226 15.7046C29.1226 15.7046 29.0226 15.7046 28.9225 15.6045C28.8224 15.6045 28.7223 15.6045 28.6223 15.6045C28.322 15.6045 28.1219 15.7046 27.9217 15.8046C27.7216 16.0046 27.6215 16.1047 27.5214 16.3047L27.5214 20.506L26.5206 20.506L26.5206 14.8043L27.4213 14.8043L27.4213 15.6045L27.4213 15.6045C27.4213 15.5045 27.5214 15.4045 27.6215 15.3044C27.7216 15.2044 27.7216 15.1044 27.8216 15.0044C27.9217 14.9043 28.0218 14.9043 28.1219 14.8043C28.2219 14.8043 28.4221 14.7043 28.6223 14.7043C28.7223 14.7043 28.8224 14.7043 28.9225 14.7043C29.0226 14.7043 29.0226 14.7043 29.1226 14.8043ZM32.5253 15.6045L31.3244 15.6045L31.3244 18.8055C31.3244 19.2056 31.4244 19.5057 31.5245 19.6057C31.6246 19.7057 31.8247 19.8057 32.0249 19.8057C32.125 19.8057 32.3251 19.8057 32.4252 19.7057C32.5253 19.7057 32.6254 19.6057 32.6254 19.6057L32.7254 20.4059C32.7254 20.4059 32.6254 20.506 32.4252 20.506C32.2251 20.606 32.0249 20.606 31.8247 20.606C31.3244 20.606 30.924 20.506 30.7239 20.2059C30.4237 20.0058 30.3236 19.5057 30.3236 18.9055L30.3236 15.6045L29.623 15.6045L29.623 15.0044L30.3236 14.9043L30.4237 13.3039L31.3244 13.3039L31.3244 14.9043L32.7254 14.9043ZM36.1281 16.0046C36.028 15.9046 35.9279 15.8046 35.8279 15.7046C35.6277 15.6045 35.4275 15.5045 35.1273 15.5045C34.8271 15.5045 34.727 15.6045 34.5268 15.7046C34.4268 15.8046 34.3267 16.0046 34.3267 16.1047C34.3267 16.3047 34.4268 16.5048 34.5268 16.6048C34.6269 16.7048 34.8271 16.9049 35.1273 17.0049L35.5276 17.205C35.9279 17.4051 36.2282 17.7051 36.4283 17.9052C36.6285 18.2053 36.7286 18.5054 36.7286 18.9055C36.7286 19.4056 36.5284 19.7057 36.2282 20.0058C35.9279 20.3059 35.4275 20.506 34.8271 20.506C34.6269 20.506 34.4268 20.506 34.2266 20.4059C34.0265 20.4059 33.9264 20.3059 33.7262 20.2059C33.6261 20.1058 33.5261 20.1058 33.426 20.0058C33.3259 19.9058 33.2258 19.9058 33.2258 19.8057L33.7262 19.0055C33.7262 19.0055 33.8263 19.1055 33.9264 19.2056C34.0265 19.3056 34.0265 19.3056 34.1265 19.4056C34.2266 19.5057 34.3267 19.5057 34.4268 19.5057C34.5268 19.5057 34.727 19.6057 34.8271 19.6057C35.1273 19.6057 35.3275 19.5057 35.5276 19.4056C35.7278 19.3056 35.7278 19.1055 35.7278 18.9055C35.7278 18.8055 35.7278 18.6054 35.6277 18.5054C35.6277 18.4053 35.5276 18.3053 35.4275 18.2053C35.3275 18.1053 35.2274 18.0052 35.1273 18.0052C35.0272 17.9052 34.9272 17.8052 34.727 17.8052L34.3267 17.6051C33.9264 17.4051 33.7262 17.105 33.5261 16.9049C33.3259 16.6048 33.2258 16.3047 33.2258 15.9046C33.2258 15.7046 33.2258 15.5045 33.3259 15.3044C33.426 15.1044 33.5261 15.0044 33.7262 14.8043C33.9264 14.7043 34.0265 14.6042 34.2266 14.5042C34.4268 14.4042 34.6269 14.4042 34.8271 14.4042C35.0272 14.4042 35.2274 14.4042 35.4275 14.5042C35.6277 14.5042 35.7278 14.6042 35.8279 14.7043C36.2282 15.0044 36.3282 15.0044 36.3282 15.1044C36.4283 15.2044 36.4283 15.2044 36.5284 15.3044ZM41.0319 15.9046C41.0319 15.9046 40.9318 15.8046 40.9318 15.8046C40.8317 15.8046 40.8317 15.7046 40.7317 15.7046C40.6316 15.7046 40.5315 15.6045 40.4314 15.6045C40.3314 15.6045 40.2313 15.5045 40.0311 15.5045C39.831 15.5045 39.6308 15.5045 39.4307 15.6045C39.2305 15.7046 39.1304 15.8046 38.9303 16.0046C38.8302 16.2047 38.7301 16.4048 38.63 16.6048C38.53 16.9049 38.53 17.205 38.53 17.6051C38.53 18.0052 38.53 18.4053 38.63 18.7054C38.7301 19.0055 38.8302 19.2056 38.9303 19.4056C39.0303 19.6057 39.2305 19.7057 39.3306 19.8057C39.5307 19.9058 39.7309 19.9058 39.931 19.9058C40.2313 19.9058 40.4314 19.8057 40.6316 19.7057C40.8317 19.6057 40.9318 19.5057 40.9318 19.5057L41.3321 20.2059C41.3321 20.2059 41.2321 20.3059 41.132 20.4059C41.0319 20.506 40.9318 20.506 40.8317 20.606C40.7317 20.706 40.5315 20.706 40.4314 20.806C40.2313 20.806 40.0311 20.9061 39.831 20.9061C39.5307 20.9061 39.2305 20.806 38.9303 20.706C38.63 20.606 38.4299 20.4059 38.2297 20.2059C38.0296 20.0058 37.8294 19.7057 37.7293 19.3056C37.6293 18.9055 37.5292 18.4053 37.5292 17.9052C37.5292 17.4051 37.6293 16.9049 37.7293 16.5048C37.8294 16.1047 38.0296 15.8046 38.3298 15.6045C38.53 15.4045 38.8302 15.2044 39.1304 15.1044C39.4307 15.0044 39.7309 14.9043 40.0311 14.9043C40.2313 14.9043 40.4314 14.9043 40.6316 15.0044C40.8317 15.0044 40.9318 15.1044 41.0319 15.1044C41.132 15.2044 41.2321 15.2044 41.3321 15.3044C41.4322 15.4045 41.4322 15.4045 41.5323 15.5045ZM45.5354 20.506L45.5354 16.8049C45.5354 16.3047 45.4353 16.0046 45.3352 15.8046C45.1351 15.6045 44.9349 15.5045 44.6347 15.5045C44.3345 15.5045 44.1343 15.6045 43.9342 15.7046C43.734 15.8046 43.6339 16.0046 43.4338 16.1047L43.4338 20.506L42.433 20.506L42.433 12.1035L43.4338 12.0035L43.4338 15.4045L43.4338 15.4045C43.4338 15.4045 43.5338 15.3044 43.5338 15.2044C43.6339 15.1044 43.734 15.0044 43.8341 15.0044C43.9342 14.9043 44.1343 14.9043 44.2344 14.8043C44.4345 14.7043 44.6347 14.7043 44.8349 14.7043C45.3352 14.7043 45.7356 14.9043 46.0358 15.2044C46.336 15.5045 46.4361 16.1047 46.4361 16.8049L46.4361 20.506ZM47.637 19.1055C47.637 18.8055 47.7371 18.5054 47.8372 18.3053C47.9373 18.1053 48.1374 17.9052 48.3376 17.8052C48.5377 17.7051 48.838 17.6051 49.1382 17.5051C49.4384 17.4051 49.7387 17.4051 50.0389 17.4051L50.3391 17.4051L50.3391 16.9049C50.3391 16.4048 50.2391 16.1047 50.0389 15.9046C49.8387 15.7046 49.6386 15.6045 49.3384 15.6045C49.0381 15.6045 48.838 15.7046 48.6378 15.8046C48.4377 15.9046 48.3376 16.0046 48.1374 16.1047L47.7371 15.5045C47.8372 15.4045 47.8372 15.4045 47.9373 15.3044C48.0373 15.2044 48.1374 15.1044 48.3376 15.1044C48.4377 15.0044 48.6378 15.0044 48.838 14.9043C49.0381 14.9043 49.2383 14.8043 49.4384 14.8043C50.0389 14.8043 50.4392 15.0044 50.7394 15.3044C51.0397 15.6045 51.2398 16.1047 51.2398 16.9049L51.2398 19.5057C51.2398 19.7057 51.2398 20.0058 51.2398 20.2059C51.2398 20.4059 51.2398 20.606 51.2398 20.706L50.3391 20.706L50.3391 20.1058L50.3391 20.1058C50.3391 20.2059 50.2391 20.3059 50.2391 20.3059C50.139 20.4059 50.139 20.506 50.0389 20.506C49.9388 20.606 49.8387 20.606 49.7387 20.706C49.6386 20.806 49.4384 20.806 49.2383 20.806C49.0381 20.806 48.838 20.806 48.6378 20.706C48.4377 20.606 48.3376 20.506 48.1374 20.4059C48.0373 20.3059 47.9373 20.1058 47.8372 19.9058C47.637 19.5057 47.637 19.3056 47.637 19.1055ZM49.3384 19.9058C49.4384 19.9058 49.6386 19.9058 49.7387 19.8057C49.8387 19.8057 49.9388 19.7057 50.0389 19.7057C50.139 19.6057 50.139 19.6057 50.2391 19.5057C50.3391 19.4056 50.3391 19.4056 50.3391 19.3056L50.3391 18.0052L50.0389 18.0052C49.5385 18.0052 49.2383 18.1053 49.0381 18.2053C48.838 18.3053 48.6378 18.6054 48.6378 18.9055C48.6378 19.2056 48.7379 19.4056 48.838 19.6057C48.938 19.8057 49.1382 19.9058 49.3384 19.9058ZM55.1429 15.6045L53.9419 15.6045L53.9419 20.506L52.9412 20.506L52.9412 15.6045L52.2406 15.6045L52.2406 15.0044L52.9412 14.9043L52.9412 13.804C52.9412 13.5039 52.9412 13.2038 53.0412 13.0038C53.1413 12.8037 53.2414 12.6037 53.3415 12.5036C53.4415 12.4036 53.6417 12.3036 53.8419 12.2035C54.042 12.1035 54.2422 12.1035 54.4423 12.1035C54.6425 12.1035 54.8426 12.1035 54.9427 12.2035C55.0428 12.3036 55.1429 12.3036 55.2429 12.3036L55.0428 13.1038C55.0428 13.1038 54.9427 13.0038 54.8426 13.0038C54.7426 13.0038 54.6425 12.9037 54.5424 12.9037C54.3422 12.9037 54.1421 13.0038 54.042 13.1038C53.9419 13.2038 53.8419 13.5039 53.8419 13.904L53.8419 14.9043L55.1429 14.9043ZM58.5455 15.6045L57.3446 15.6045L57.3446 18.8055C57.3446 19.2056 57.4447 19.5057 57.5447 19.6057C57.6448 19.7057 57.845 19.8057 58.0451 19.8057C58.1452 19.8057 58.3454 19.8057 58.4454 19.7057C58.5455 19.7057 58.6456 19.6057 58.6456 19.6057L58.7457 20.4059C58.7457 20.4059 58.6456 20.506 58.4454 20.506C58.2453 20.606 58.0451 20.606 57.845 20.606C57.3446 20.606 56.9443 20.506 56.7441 20.2059C56.544 19.9058 56.3438 19.5057 56.3438 18.8055L56.3438 15.5045L55.6433 15.5045L55.6433 15.0044L56.3438 14.9043L56.4439 13.3039L57.3446 13.3039L57.3446 14.9043L58.7457 14.9043ZM4.5035 32.5094L3.6028 32.5094L3.6028 31.9093L3.6028 31.9093C3.6028 31.9093 3.50272 32.0093 3.40265 32.1093C3.30257 32.2093 3.20249 32.3094 3.10241 32.4094C3.00233 32.5094 2.80218 32.6095 2.7021 32.6095C2.60202 32.6095 2.30179 32.7095 2.10163 32.7095C1.8014 32.7095 1.60124 32.7095 1.40109 32.6095C1.20093 32.5094 1.00078 32.4094 0.9007 32.2093C0.800622 32.0093 0.600467 31.8092 0.600467 31.6092C0.500389 31.3091 0.500389 31.009 0.500389 30.6089L0.500389 26.9078L1.50117 26.9078L1.50117 30.6089C1.50117 31.109 1.60124 31.4091 1.70132 31.6092C1.90148 31.8092 2.10163 31.9093 2.40187 31.9093C2.7021 31.9093 2.90226 31.8092 3.10241 31.7092C3.30257 31.6092 3.40265 31.4091 3.6028 31.3091L3.6028 26.9078L4.60358 26.9078L4.60358 32.5094ZM9.10708 32.5094L9.10708 28.8084C9.10708 28.3082 9.007 28.0081 8.90692 27.8081C8.70677 27.608 8.50661 27.508 8.20638 27.508C7.90615 27.508 7.70599 27.608 7.50584 27.708C7.30568 27.8081 7.2056 28.0081 7.00545 28.1082L7.00545 32.5094L6.00467 32.5094L6.00467 26.8078L6.90537 26.8078L6.90537 27.408L6.90537 27.408C6.90537 27.408 7.00545 27.3079 7.10552 27.2079C7.2056 27.1079 7.30568 27.0078 7.40576 26.9078C7.50584 26.8078 7.70599 26.7078 7.90615 26.7078C8.1063 26.7078 8.30646 26.6077 8.50661 26.6077C8.80685 26.6077 9.007 26.6077 9.20716 26.7078C9.40731 26.8078 9.60747 26.9078 9.70755 27.1079C9.80762 27.3079 10.0078 27.508 10.0078 27.708C10.1079 28.0081 10.1079 28.3082 10.1079 28.7083L10.1079 32.4094L9.10708 32.4094ZM11.3088 29.8087C11.3088 29.2085 11.4089 28.7083 11.5089 28.3082C11.7091 27.9081 11.8092 27.608 12.1094 27.408C12.3096 27.2079 12.6098 27.0078 12.91 26.9078C13.2103 26.8078 13.5105 26.8078 13.8107 26.8078C14.0109 26.8078 14.111 26.8078 14.3111 26.8078C14.4112 26.8078 14.5113 26.9078 14.6114 26.9078L14.6114 24.207L15.6121 24.107L15.6121 32.6095L14.7114 32.6095L14.7114 32.0093L14.7114 32.0093C14.7114 32.0093 14.6114 32.1093 14.6114 32.2093C14.6114 32.3094 14.4112 32.4094 14.3111 32.4094C14.211 32.5094 14.111 32.6095 13.9108 32.6095C13.7107 32.7095 13.5105 32.7095 13.3103 32.7095C13.0101 32.7095 12.81 32.6095 12.5097 32.5094C12.3096 32.4094 12.0093 32.2093 11.9093 32.0093C11.7091 31.8092 11.609 31.5091 11.5089 31.109C11.3088 30.7089 11.3088 30.3088 11.3088 29.8087ZM13.5105 31.8092C13.7107 31.8092 13.8107 31.8092 13.9108 31.7092C14.0109 31.7092 14.111 31.6092 14.211 31.6092C14.3111 31.5091 14.4112 31.5091 14.4112 31.4091C14.4112 31.3091 14.5113 31.3091 14.5113 31.2091L14.5113 27.708C14.4112 27.608 14.3111 27.608 14.211 27.608C14.111 27.608 13.9108 27.508 13.8107 27.508C13.6106 27.508 13.4104 27.508 13.2103 27.608C13.0101 27.708 12.81 27.8081 12.7099 28.0081C12.6098 28.2082 12.4096 28.4082 12.4096 28.7083C12.3096 29.0084 12.3096 29.3085 12.3096 29.7086C12.3096 30.1087 12.3096 30.4088 12.4096 30.7089C12.5097 31.009 12.6098 31.2091 12.7099 31.3091C12.81 31.5091 13.0101 31.6092 13.1102 31.7092C13.2103 31.8092 13.4104 31.8092 13.5105 31.8092ZM23.7184 25.1073L20.8162 25.1073L20.8162 28.0081L23.5183 28.0081L23.5183 28.8084L20.8162 28.8084L20.8162 31.7092L24.0187 31.7092L23.9186 32.6095L19.7153 32.6095L19.7153 24.4071L23.7184 24.4071ZM28.322 32.5094L28.322 28.8084C28.322 28.3082 28.2219 28.0081 28.1219 27.8081C27.9217 27.608 27.7216 27.508 27.4213 27.508C27.1211 27.508 26.9209 27.608 26.7208 27.708C26.5206 27.8081 26.4205 28.0081 26.2204 28.1082L26.2204 32.5094L25.2196 32.5094L25.2196 26.8078L26.1203 26.8078L26.1203 27.408L26.1203 27.408C26.1203 27.408 26.2204 27.3079 26.3205 27.2079C26.4205 27.1079 26.5206 27.0078 26.6207 26.9078C26.7208 26.8078 26.9209 26.7078 27.1211 26.7078C27.3212 26.7078 27.5214 26.6077 27.7216 26.6077C28.0218 26.6077 28.2219 26.6077 28.4221 26.7078C28.6223 26.8078 28.8224 26.9078 28.9225 27.1079C29.0226 27.3079 29.2227 27.508 29.2227 27.708C29.3228 28.0081 29.3228 28.3082 29.3228 28.7083L29.3228 32.4094L28.322 32.4094ZM34.4268 28.7083C34.4268 28.9084 34.4268 29.2085 34.4268 29.3085C34.4268 29.5086 34.4268 29.6086 34.4268 29.8087L31.5245 29.8087C31.5245 30.5089 31.7247 31.009 31.9248 31.3091C32.2251 31.6092 32.5253 31.8092 33.0257 31.8092C33.2258 31.8092 33.3259 31.8092 33.5261 31.7092C33.6261 31.7092 33.8263 31.6092 33.9264 31.6092C34.0265 31.5091 34.1265 31.5091 34.1265 31.4091C34.2266 31.3091 34.2266 31.3091 34.2266 31.3091L34.6269 32.0093C34.6269 32.0093 34.5268 32.1093 34.4268 32.2093C34.3267 32.3094 34.2266 32.4094 34.1265 32.4094C34.0265 32.5094 33.8263 32.5094 33.6261 32.6095C33.426 32.7095 33.2258 32.7095 32.9256 32.7095C32.5253 32.7095 32.2251 32.6095 31.9248 32.5094C31.6246 32.4094 31.4244 32.2093 31.2243 31.9093C31.0241 31.7092 30.824 31.3091 30.7239 30.909C30.6238 30.5089 30.5237 30.1087 30.5237 29.5086C30.5237 29.0084 30.6238 28.6083 30.7239 28.2082C30.824 27.8081 31.0241 27.508 31.2243 27.3079C31.4244 27.1079 31.6246 26.9078 31.9248 26.8078C32.2251 26.7078 32.4252 26.6077 32.7254 26.6077C33.2258 26.6077 33.7262 26.8078 34.0265 27.1079C34.2266 27.508 34.4268 28.1082 34.4268 28.7083ZM32.6254 27.508C32.3251 27.508 32.0249 27.608 31.8247 27.9081C31.6246 28.2082 31.5245 28.6083 31.4244 29.1084L33.5261 29.1084C33.5261 29.1084 33.5261 29.0084 33.5261 28.9084C33.5261 28.8084 33.5261 28.7083 33.5261 28.7083C33.5261 28.3082 33.426 28.0081 33.3259 27.8081C33.1258 27.608 32.9256 27.508 32.6254 27.508ZM38.2297 27.708C38.2297 27.708 38.1296 27.708 38.0296 27.608C37.9295 27.608 37.8294 27.608 37.7293 27.608C37.4291 27.608 37.2289 27.708 37.0288 27.8081C36.8286 28.0081 36.7286 28.1082 36.6285 28.3082L36.6285 32.5094L35.6277 32.5094L35.6277 26.8078L36.5284 26.8078L36.5284 27.608L36.5284 27.608C36.5284 27.508 36.6285 27.408 36.7286 27.3079C36.8286 27.2079 36.8286 27.1079 36.9287 27.0078C37.0288 26.9078 37.1289 26.9078 37.2289 26.8078C37.329 26.8078 37.5292 26.7078 37.7293 26.7078C37.8294 26.7078 37.9295 26.7078 38.0296 26.7078C38.1296 26.7078 38.1296 26.7078 38.2297 26.8078ZM43.1335 27.608L42.433 27.608C42.6331 27.9081 42.7332 28.2082 42.7332 28.6083C42.7332 28.9084 42.7332 29.2085 42.6331 29.4085C42.5331 29.6086 42.433 29.8087 42.2328 30.0087C42.0327 30.2088 41.8325 30.3088 41.6324 30.4088C41.4322 30.5089 41.132 30.5089 40.8317 30.5089C40.7317 30.5089 40.7317 30.5089 40.6316 30.5089C40.6316 30.5089 40.5315 30.5089 40.4314 30.5089C40.3314 30.5089 40.2313 30.6089 40.1312 30.7089C40.0311 30.8089 39.931 30.909 39.931 31.009C39.931 31.109 39.931 31.2091 40.0311 31.3091C40.1312 31.4091 40.2313 31.4091 40.4314 31.4091L41.132 31.4091C41.4322 31.4091 41.6324 31.4091 41.8325 31.5091C42.0327 31.6092 42.2328 31.6092 42.433 31.8092C42.6331 31.9093 42.7332 32.1093 42.8333 32.3094C42.9334 32.5094 42.9334 32.7095 42.9334 33.0096C42.9334 33.3097 42.8333 33.6098 42.7332 33.8098C42.6331 34.0099 42.433 34.31 42.1328 34.51C41.9326 34.7101 41.6324 34.8101 41.2321 34.9101C40.9318 35.0102 40.5315 35.1102 40.1312 35.1102C39.5307 35.1102 39.0303 35.0102 38.7301 34.7101C38.4299 34.41 38.2297 34.1099 38.2297 33.6098C38.2297 33.4097 38.2297 33.2096 38.3298 33.0096C38.4299 32.8095 38.53 32.7095 38.63 32.6095C38.7301 32.5094 38.8302 32.4094 38.9303 32.3094C39.0303 32.2093 39.1304 32.2093 39.2305 32.1093L39.2305 32.1093C39.0303 31.9093 38.8302 31.7092 38.8302 31.3091C38.8302 31.109 38.8302 31.009 38.9303 30.909C39.0303 30.8089 39.0303 30.7089 39.1304 30.6089C39.2305 30.5089 39.3306 30.5089 39.3306 30.4088C39.4307 30.4088 39.4307 30.3088 39.5307 30.3088L39.5307 30.3088C39.2305 30.2088 39.0303 30.0087 38.8302 29.7086C38.63 29.4085 38.53 29.0084 38.53 28.6083C38.53 28.3082 38.63 28.0081 38.7301 27.8081C38.8302 27.608 38.9303 27.408 39.1304 27.2079C39.3306 27.0078 39.5307 26.9078 39.7309 26.8078C39.931 26.7078 40.2313 26.7078 40.5315 26.7078C40.8317 26.7078 41.0319 26.7078 41.3321 26.8078L43.0335 26.8078ZM40.5315 32.4094C40.3314 32.4094 40.2313 32.4094 40.1312 32.4094C40.0311 32.4094 40.0311 32.5094 39.931 32.5094C39.831 32.6095 39.831 32.6095 39.7309 32.7095C39.6308 32.8095 39.6308 32.9096 39.6308 33.0096C39.6308 33.1096 39.5307 33.2096 39.5307 33.4097C39.5307 34.0099 39.831 34.31 40.5315 34.31C41.132 34.31 41.5323 34.2099 41.8325 34.0099C42.1328 33.8098 42.2328 33.5097 42.2328 33.2096C42.2328 32.9096 42.1328 32.7095 41.9326 32.6095C41.7324 32.5094 41.5323 32.4094 41.2321 32.4094ZM41.8325 28.6083C41.8325 28.2082 41.7324 27.9081 41.5323 27.708C41.3321 27.508 41.132 27.408 40.8317 27.408C40.5315 27.408 40.3314 27.508 40.1312 27.708C39.931 27.9081 39.831 28.2082 39.831 28.6083C39.831 29.0084 39.931 29.3085 40.1312 29.5086C40.3314 29.7086 40.5315 29.8087 40.8317 29.8087C41.132 29.8087 41.3321 29.7086 41.5323 29.5086C41.7324 29.3085 41.8325 29.0084 41.8325 28.6083ZM45.2352 32.5094L44.2344 32.5094L44.2344 26.8078L45.2352 26.8078ZM44.7348 25.4074C44.5346 25.4074 44.3345 25.3073 44.2344 25.2073C44.1343 25.1073 44.0342 24.9072 44.0342 24.7072C44.0342 24.5071 44.1343 24.3071 44.2344 24.207C44.3345 24.107 44.5346 24.007 44.7348 24.007C44.9349 24.007 45.035 24.107 45.2352 24.207C45.3352 24.3071 45.4353 24.5071 45.4353 24.7072C45.4353 24.9072 45.3352 25.1073 45.2352 25.2073C45.1351 25.4074 44.9349 25.4074 44.7348 25.4074ZM50.3391 28.7083C50.3391 28.9084 50.3391 29.2085 50.3391 29.3085C50.3391 29.5086 50.3391 29.6086 50.3391 29.8087L47.4369 29.8087C47.4369 30.5089 47.637 31.009 47.8372 31.3091C48.1374 31.6092 48.4377 31.8092 48.938 31.8092C49.1382 31.8092 49.2383 31.8092 49.4384 31.7092C49.5385 31.7092 49.7387 31.6092 49.8387 31.6092C49.9388 31.5091 50.0389 31.5091 50.0389 31.4091C50.139 31.3091 50.139 31.3091 50.139 31.3091L50.5393 32.0093C50.5393 32.0093 50.4392 32.1093 50.3391 32.2093C50.2391 32.3094 50.139 32.4094 50.0389 32.4094C49.9388 32.5094 49.7387 32.5094 49.5385 32.6095C49.3384 32.7095 49.1382 32.7095 48.838 32.7095C48.4377 32.7095 48.1374 32.6095 47.8372 32.5094C47.537 32.4094 47.3368 32.2093 47.1366 31.9093C46.9365 31.7092 46.7363 31.3091 46.6363 30.909C46.5362 30.5089 46.4361 30.1087 46.4361 29.5086C46.4361 29.0084 46.5362 28.6083 46.6363 28.2082C46.7363 27.8081 46.9365 27.508 47.1366 27.3079C47.3368 27.1079 47.537 26.9078 47.8372 26.8078C48.1374 26.7078 48.3376 26.6077 48.6378 26.6077C49.1382 26.6077 49.6386 26.8078 49.9388 27.1079C50.2391 27.508 50.3391 28.1082 50.3391 28.7083ZM48.5377 27.508C48.2375 27.508 47.9373 27.608 47.7371 27.9081C47.537 28.2082 47.4369 28.6083 47.3368 29.1084L49.4384 29.1084C49.4384 29.1084 49.4384 29.0084 49.4384 28.9084C49.4384 28.8084 49.4384 28.7083 49.4384 28.7083C49.4384 28.3082 49.3384 28.0081 49.2383 27.8081C49.1382 27.608 48.838 27.508 48.5377 27.508Z"/>
 </g>
</svg>
