<svg id="Layer_1" data-name="Layer 1" xmlns="http://www.w3.org/2000/svg" viewBox="0 0 400 89.44"><defs><style>.cls-1{fill:#ec1944;}.cls-2{fill:#fff;}</style></defs><title>OSF_Logo_Badge_Full_White</title><rect class="cls-1" x="99.09" y="155.68" width="89.44" height="189.13" rx="16.47" ry="16.47" transform="translate(344.81 -99.09) rotate(90)"/><path class="cls-2" d="M262.4,245.24a8.48,8.48,0,0,1-3.71-.82,8.24,8.24,0,0,1-2.88-2.35,11.19,11.19,0,0,1-1.86-3.72,18.77,18.77,0,0,1,0-9.94,10.64,10.64,0,0,1,1.86-3.65,8,8,0,0,1,2.88-2.26,9.21,9.21,0,0,1,7.42,0,7.93,7.93,0,0,1,2.88,2.28,10.94,10.94,0,0,1,1.87,3.67,16.93,16.93,0,0,1,.66,4.92,17.26,17.26,0,0,1-.66,5,11.4,11.4,0,0,1-1.87,3.72,8.24,8.24,0,0,1-2.88,2.35A8.48,8.48,0,0,1,262.4,245.24Zm0-4.42a3.16,3.16,0,0,0,2.82-2,12,12,0,0,0,1-5.45,11.28,11.28,0,0,0-1-5.32,3,3,0,0,0-5.64,0,11.28,11.28,0,0,0-1,5.32,12,12,0,0,0,1,5.45A3.16,3.16,0,0,0,262.4,240.82Z" transform="translate(-49.25 -205.52)"/><path class="cls-2" d="M279.41,246.18v5H274.3V227.56h4.18l.38,1.74h.1a9.33,9.33,0,0,1,2.4-1.55,6.77,6.77,0,0,1,2.75-.61,6.49,6.49,0,0,1,2.89.63,6.26,6.26,0,0,1,2.19,1.77,8.27,8.27,0,0,1,1.38,2.77,13,13,0,0,1,.47,3.6,11.45,11.45,0,0,1-.63,4,9.12,9.12,0,0,1-1.67,2.92,7.28,7.28,0,0,1-2.38,1.83,6.54,6.54,0,0,1-2.8.63,6.11,6.11,0,0,1-4.32-1.88Zm0-6.27a4.51,4.51,0,0,0,1.52.89,4.68,4.68,0,0,0,1.44.26,3,3,0,0,0,2.44-1.2,6.16,6.16,0,0,0,1-3.88q0-4.66-3.16-4.66a4.54,4.54,0,0,0-3.21,1.6Z" transform="translate(-49.25 -205.52)"/><path class="cls-2" d="M293.54,236.19a9.16,9.16,0,0,1,.75-3.79,8.58,8.58,0,0,1,2-2.84,9,9,0,0,1,2.87-1.79,9.68,9.68,0,0,1,6.87,0,6.92,6.92,0,0,1,2.54,1.74,7.26,7.26,0,0,1,1.53,2.63,9.94,9.94,0,0,1,.53,3.28c0,.47,0,.91-.07,1.33s-.1.73-.14.94H298.8a3.64,3.64,0,0,0,1.68,2.8,6.3,6.3,0,0,0,3.33.85,8.24,8.24,0,0,0,2.24-.3,11.54,11.54,0,0,0,2.21-.88l1.67,3.06a13.17,13.17,0,0,1-3.27,1.48,12.4,12.4,0,0,1-3.55.54,11.45,11.45,0,0,1-3.76-.61,8.83,8.83,0,0,1-3-1.78,8.47,8.47,0,0,1-2-2.83A9.28,9.28,0,0,1,293.54,236.19ZM306,234.31a3.44,3.44,0,0,0-.8-2.36,3.26,3.26,0,0,0-2.58-.91,4.06,4.06,0,0,0-2.47.8,3.91,3.91,0,0,0-1.42,2.47Z" transform="translate(-49.25 -205.52)"/><path class="cls-2" d="M314,227.56h4.17l.38,2.3h.14a12,12,0,0,1,2.56-1.92,6.91,6.91,0,0,1,3.39-.8,4.92,4.92,0,0,1,4.28,1.88,8.6,8.6,0,0,1,1.36,5.15v10.65h-5.12v-10a4.56,4.56,0,0,0-.55-2.54,2.26,2.26,0,0,0-2-.8,3.49,3.49,0,0,0-1.82.46,8.43,8.43,0,0,0-1.69,1.35v11.52H314Z" transform="translate(-49.25 -205.52)"/><path class="cls-2" d="M336,238.45a12,12,0,0,0,2.8,1.71,7.48,7.48,0,0,0,3,.66,4.5,4.5,0,0,0,2.59-.59,1.87,1.87,0,0,0,.82-1.6,1.69,1.69,0,0,0-.24-.91,2.4,2.4,0,0,0-.7-.68,6.9,6.9,0,0,0-1.09-.55c-.43-.18-.93-.37-1.48-.58l-2.93-1.25a9.38,9.38,0,0,1-1.82-.91,7,7,0,0,1-1.55-1.3,5.85,5.85,0,0,1-1.46-4,5.81,5.81,0,0,1,.61-2.63,6.65,6.65,0,0,1,1.7-2.16,8.22,8.22,0,0,1,2.63-1.44,10.31,10.31,0,0,1,3.37-.52,10.95,10.95,0,0,1,7.55,3l-2.6,3.23a11.26,11.26,0,0,0-2.34-1.34,6.86,6.86,0,0,0-2.61-.47,4.18,4.18,0,0,0-2.31.54,1.74,1.74,0,0,0-.82,1.52,1.66,1.66,0,0,0,1.05,1.56,24.88,24.88,0,0,0,2.68,1.12l2.74,1.18a8.7,8.7,0,0,1,3.57,2.3,5.57,5.57,0,0,1,1.31,3.86,6.26,6.26,0,0,1-.6,2.7,6.6,6.6,0,0,1-1.7,2.22,8.37,8.37,0,0,1-2.75,1.53,11.12,11.12,0,0,1-3.76.58,13.32,13.32,0,0,1-4.54-.82A12.81,12.81,0,0,1,333,242Z" transform="translate(-49.25 -205.52)"/><path class="cls-2" d="M357.18,231.56h-4.35v-3.79l4.59-.21.67-4.59h4.21v4.59h7.3v4h-7.3v6.06a3.74,3.74,0,0,0,.87,2.8,3.92,3.92,0,0,0,2.74.82,8.8,8.8,0,0,0,1.85-.18,11.39,11.39,0,0,0,1.6-.45l.9,3.69c-.76.23-1.61.44-2.55.64a14.83,14.83,0,0,1-3.08.3,9.61,9.61,0,0,1-3.48-.56,6,6,0,0,1-2.32-1.55,5.88,5.88,0,0,1-1.27-2.38,11.91,11.91,0,0,1-.38-3.1Z" transform="translate(-49.25 -205.52)"/><path class="cls-2" d="M373.08,240a4.69,4.69,0,0,1,2.63-4.42,13.11,13.11,0,0,1,3.53-1.24,35.06,35.06,0,0,1,5.22-.64,2.55,2.55,0,0,0-1-1.84,4.43,4.43,0,0,0-2.66-.67,7.78,7.78,0,0,0-2.52.44,22.9,22.9,0,0,0-2.73,1.16l-1.81-3.34a21.12,21.12,0,0,1,3.81-1.67,13.71,13.71,0,0,1,4.26-.66,8.13,8.13,0,0,1,5.71,1.92q2.08,1.91,2.08,5.88v9.88H385.4l-.38-1.95h-.14a14.11,14.11,0,0,1-2.89,1.69,8.12,8.12,0,0,1-3.24.68,6.67,6.67,0,0,1-2.36-.4,5.05,5.05,0,0,1-3.31-4.82Zm4.91-.38a1.35,1.35,0,0,0,.64,1.23,3.3,3.3,0,0,0,1.76.4,5.15,5.15,0,0,0,2.16-.47,10.15,10.15,0,0,0,1.91-1.16v-2.86a24.39,24.39,0,0,0-3.17.35,7.63,7.63,0,0,0-2,.61,2.44,2.44,0,0,0-1,.85A2.05,2.05,0,0,0,378,239.64Z" transform="translate(-49.25 -205.52)"/><path class="cls-2" d="M393.12,236.19a8.74,8.74,0,0,1,.82-3.84,8.48,8.48,0,0,1,2.19-2.84,9.8,9.8,0,0,1,3.19-1.76,11.94,11.94,0,0,1,3.79-.61,10,10,0,0,1,3.71.66,9.31,9.31,0,0,1,2.76,1.67l-2.36,3.17a6.66,6.66,0,0,0-3.83-1.36,5,5,0,0,0-3.62,1.33,4.69,4.69,0,0,0-1.39,3.58,4.59,4.59,0,0,0,4.83,4.91,6.46,6.46,0,0,0,2.51-.49,10.09,10.09,0,0,0,2-1.15l2.09,3.24a10.2,10.2,0,0,1-3.46,1.93,12.21,12.21,0,0,1-3.67.61,11.6,11.6,0,0,1-3.8-.61,9.09,9.09,0,0,1-3-1.76,7.87,7.87,0,0,1-2-2.84A9.67,9.67,0,0,1,393.12,236.19Z" transform="translate(-49.25 -205.52)"/><path class="cls-2" d="M413.27,220.43h5.11v14.09h.14l6.34-7h5.6l-6.54,7.1L431,244.82h-5.53l-4.53-7-2.54,2.68v4.35h-5.11Z" transform="translate(-49.25 -205.52)"/><path class="cls-2" d="M255.72,257.37h15v4.31h-9.85v5.25h8.39v4.32h-8.39v8.8h-5.11Z" transform="translate(-49.25 -205.52)"/><path class="cls-2" d="M273.43,271.42a9.53,9.53,0,0,1,.73-3.84,8.31,8.31,0,0,1,2-2.84A8.57,8.57,0,0,1,279,263a9.15,9.15,0,0,1,6.57,0,8.57,8.57,0,0,1,2.82,1.75,8.44,8.44,0,0,1,2,2.84,10.49,10.49,0,0,1,0,7.69,8.42,8.42,0,0,1-4.79,4.59,9.15,9.15,0,0,1-6.57,0,8.44,8.44,0,0,1-2.82-1.76,8.26,8.26,0,0,1-2-2.83A9.58,9.58,0,0,1,273.43,271.42Zm5.25,0a6.38,6.38,0,0,0,.89,3.59,3.35,3.35,0,0,0,5.33,0,7.74,7.74,0,0,0,0-7.17,3.35,3.35,0,0,0-5.33,0A6.36,6.36,0,0,0,278.68,271.42Z" transform="translate(-49.25 -205.52)"/><path class="cls-2" d="M309.89,280.05h-4.17l-.38-2.47h-.14a9.81,9.81,0,0,1-2.54,2.11,6.59,6.59,0,0,1-3.27.78,4.86,4.86,0,0,1-4.28-1.88,8.82,8.82,0,0,1-1.33-5.15V262.79h5.12v10a4.75,4.75,0,0,0,.52,2.54,2.2,2.2,0,0,0,2,.8,3.49,3.49,0,0,0,1.73-.42,6.08,6.08,0,0,0,1.65-1.56V262.79h5.11Z" transform="translate(-49.25 -205.52)"/><path class="cls-2" d="M314,262.79h4.17l.38,2.3h.14a11.62,11.62,0,0,1,2.56-1.91,6.8,6.8,0,0,1,3.39-.8,4.9,4.9,0,0,1,4.28,1.88,8.58,8.58,0,0,1,1.36,5.15v10.64h-5.12v-10a4.54,4.54,0,0,0-.55-2.54,2.23,2.23,0,0,0-2-.8,3.59,3.59,0,0,0-1.82.45,8.17,8.17,0,0,0-1.69,1.36v11.51H314Z" transform="translate(-49.25 -205.52)"/><path class="cls-2" d="M332.93,271.42a10.68,10.68,0,0,1,.63-3.79,8.73,8.73,0,0,1,1.65-2.83,7.14,7.14,0,0,1,2.35-1.8,6.28,6.28,0,0,1,2.75-.62,5.52,5.52,0,0,1,2.5.5,8.27,8.27,0,0,1,1.91,1.34l-.17-2.68v-5.88h5.12v24.39h-4.18l-.38-1.77H345a9,9,0,0,1-2.22,1.56,5.71,5.71,0,0,1-2.58.63,6.87,6.87,0,0,1-3-.63,6.35,6.35,0,0,1-2.3-1.79,8.36,8.36,0,0,1-1.48-2.83A12.7,12.7,0,0,1,332.93,271.42Zm5.25-.07a6.41,6.41,0,0,0,.87,3.76,2.89,2.89,0,0,0,2.47,1.18,3.55,3.55,0,0,0,1.6-.36,4.34,4.34,0,0,0,1.43-1.24v-7a4.1,4.1,0,0,0-2.89-1.15,3.16,3.16,0,0,0-2.45,1.18A5.39,5.39,0,0,0,338.18,271.35Z" transform="translate(-49.25 -205.52)"/><path class="cls-2" d="M353.25,275.25a5.06,5.06,0,0,1,.63-2.56,5,5,0,0,1,2-1.86,12.79,12.79,0,0,1,3.53-1.23,33.66,33.66,0,0,1,5.22-.65,2.59,2.59,0,0,0-1-1.84,4.44,4.44,0,0,0-2.66-.66,7.67,7.67,0,0,0-2.52.43,22.24,22.24,0,0,0-2.74,1.17l-1.8-3.34a20.44,20.44,0,0,1,3.81-1.67,13.66,13.66,0,0,1,4.26-.66,8.09,8.09,0,0,1,5.7,1.91c1.4,1.28,2.09,3.24,2.09,5.88v9.88h-4.17l-.39-1.95H365a13.36,13.36,0,0,1-2.88,1.69,8.15,8.15,0,0,1-3.24.68,6.55,6.55,0,0,1-2.37-.4,5.33,5.33,0,0,1-1.77-1.11,5.09,5.09,0,0,1-1.53-3.71Zm4.91-.38a1.34,1.34,0,0,0,.64,1.23,3.28,3.28,0,0,0,1.76.4,4.93,4.93,0,0,0,2.15-.47,10.22,10.22,0,0,0,1.92-1.16V272a24.39,24.39,0,0,0-3.17.35,8.34,8.34,0,0,0-2,.61,2.51,2.51,0,0,0-1,.85A2,2,0,0,0,358.16,274.87Z" transform="translate(-49.25 -205.52)"/><path class="cls-2" d="M377,266.8h-4.35V263l4.6-.21.66-4.59h4.21v4.59h7.31v4h-7.31v6.05a3.72,3.72,0,0,0,.87,2.8,3.88,3.88,0,0,0,2.75.82,8.77,8.77,0,0,0,1.84-.18,10.18,10.18,0,0,0,1.6-.45l.91,3.69c-.77.23-1.62.45-2.56.64a14.83,14.83,0,0,1-3.08.3,9.61,9.61,0,0,1-3.48-.56,5.9,5.9,0,0,1-2.31-1.54A5.74,5.74,0,0,1,377.4,276a11.48,11.48,0,0,1-.39-3.1Z" transform="translate(-49.25 -205.52)"/><path class="cls-2" d="M393.54,262.79h12v17.26h-5.11V266.8h-6.93Zm9.26-2.54a3.59,3.59,0,0,1-2.46-.83,2.87,2.87,0,0,1-.95-2.26,3,3,0,0,1,.95-2.32,3.86,3.86,0,0,1,4.91,0,3,3,0,0,1,1,2.32,2.85,2.85,0,0,1-1,2.26A3.58,3.58,0,0,1,402.8,260.25Z" transform="translate(-49.25 -205.52)"/><path class="cls-2" d="M412.26,271.42a9.53,9.53,0,0,1,.73-3.84,8.31,8.31,0,0,1,2-2.84,8.57,8.57,0,0,1,2.82-1.75,9.15,9.15,0,0,1,6.57,0,8.57,8.57,0,0,1,2.82,1.75,8.44,8.44,0,0,1,2,2.84,10.49,10.49,0,0,1,0,7.69,8.42,8.42,0,0,1-4.79,4.59,9.15,9.15,0,0,1-6.57,0A8.44,8.44,0,0,1,415,278.1a8.26,8.26,0,0,1-2-2.83A9.58,9.58,0,0,1,412.26,271.42Zm5.25,0a6.38,6.38,0,0,0,.89,3.59,3.35,3.35,0,0,0,5.33,0,7.74,7.74,0,0,0,0-7.17,3.35,3.35,0,0,0-5.33,0A6.36,6.36,0,0,0,417.51,271.42Z" transform="translate(-49.25 -205.52)"/><path class="cls-2" d="M433,262.79h4.18l.38,2.3h.14a11.39,11.39,0,0,1,2.56-1.91,6.8,6.8,0,0,1,3.39-.8,4.9,4.9,0,0,1,4.28,1.88,8.58,8.58,0,0,1,1.36,5.15v10.64h-5.12v-10a4.54,4.54,0,0,0-.55-2.54,2.26,2.26,0,0,0-2-.8,3.59,3.59,0,0,0-1.82.45,7.92,7.92,0,0,0-1.69,1.36v11.51H433Z" transform="translate(-49.25 -205.52)"/><path class="cls-2" d="M221.93,220.43H191a18.64,18.64,0,0,0-18.64,18.63v16.15a18.63,18.63,0,0,0-17.57-12.42h-14.9a3.73,3.73,0,0,1,0-7.46h26.07a1.54,1.54,0,0,0,1.42-.94l4.9-11.84a1.53,1.53,0,0,0-1.42-2.12h-31a18.63,18.63,0,0,0-18.13,14.31,30.87,30.87,0,1,0,4.16,16.65,18.59,18.59,0,0,0,14,6.3h14.9a3.73,3.73,0,0,1,0,7.46H128.68a1.54,1.54,0,0,0-1.42.94l-4.9,11.84a1.53,1.53,0,0,0,1.41,2.12h31a18.63,18.63,0,0,0,17.57-12.43v10.9a1.53,1.53,0,0,0,1.54,1.53H185.7a1.53,1.53,0,0,0,1.53-1.53V257.69h20.54a1.54,1.54,0,0,0,1.42-.94l4.9-11.84a1.53,1.53,0,0,0-1.42-2.12H187.23v-3.73a3.74,3.74,0,0,1,3.73-3.73H217a1.54,1.54,0,0,0,1.42-.94l4.9-11.84A1.53,1.53,0,0,0,221.93,220.43ZM95,265.15a14.91,14.91,0,1,1,14.9-14.91A14.92,14.92,0,0,1,95,265.15Z" transform="translate(-49.25 -205.52)"/></svg>