<svg id="Layer_1" data-name="Layer 1" xmlns="http://www.w3.org/2000/svg" width="264" height="84" viewBox="0 0 264 84"><defs><style>.cls-1{fill:#fff;}.cls-2,.cls-4{fill:#00448f;}.cls-3{fill:#cc0326;}.cls-4{fill-rule:evenodd;}</style></defs><title>logo</title><ellipse class="cls-1" cx="132" cy="42" rx="132" ry="42"/><path class="cls-2" d="M78,13V12.4c-9,1.42-17.49,3.06-25.55,5Q11.38,27.19,9.35,41c0,.12,0,0,0,0H29v1H9.38s-.16.66-.16.74c0,.27.07-.09.07.26H34.16s-.07,0-.07-.35a17.6,17.6,0,0,1,.13-2.08,10,10,0,0,1,.71-3.15c2.42-7,9.91-13,22.59-18.23A108.8,108.8,0,0,1,78,13Z"/><path class="cls-3" d="M9.48,44.56q3,13.24,43,22.81c8.06,1.95,16.64,3.59,25.67,5v-.49a122.53,122.53,0,0,1-20.6-6.25c-13.13-5.42-20.7-11.58-22.81-18.81,0,0-.21-.74-.21-.83H20V45H34.23a9.73,9.73,0,0,1,0-1H9.36Z"/><path class="cls-3" d="M229.67,37.29a9.94,9.94,0,0,1,.74,3.19,12.24,12.24,0,0,1,.09,1.35V43h24.83a9.18,9.18,0,0,0,0-1H235.85V41h19.48c0-.09,0,0,0-.12q-2-13.77-43.1-23.6c-8.1-1.91-16.65-3.59-25.67-5v.53a121.66,121.66,0,0,1,20.6,6.21Q226.08,26.91,229.67,37.29Z"/><path class="cls-2" d="M230.23,45H244.8v1H230l-.07.56c-2.11,7.28-9.73,13.57-22.81,19a120.75,120.75,0,0,1-20.6,6.21v.49c9-1.38,17.57-3.06,25.67-5,26.63-6.39,40.88-13.86,42.91-22.69a2.61,2.61,0,0,0,.07-.59H230.34S230.27,44.77,230.23,45Z"/><path class="cls-4" d="M82.91,47.9H74.25l2.17-15.1H70.15l-.37,2.69L68,47.9H59.43l2.85-20H88.7c4-.13,7,.51,8.86,1.91a5.61,5.61,0,0,1,2.35,5.66L98.11,47.9H89.46l1.8-12.41c.14-1,0-1.7-.29-2q-.52-1-5.88-.76Z"/><polygon class="cls-4" points="119.36 47.87 103.51 47.87 105.22 35.94 121.07 35.94 120.71 38.59 110.04 38.59 109.76 40.6 120.43 40.6 120.06 43.24 109.39 43.24 109.12 45.2 119.78 45.2 119.36 47.87"/><path class="cls-4" d="M137.94,47.87h-5.19l1.3-9h-3.83L130,40.49l-1.08,7.38h-5.19L125.44,36h16q3.68-.12,5.4,1.15a3.34,3.34,0,0,1,1.44,3.39l-1.07,7.38h-5.25L143,40.49c.09-.62,0-1-.17-1.21-.21-.42-1.4-.57-3.59-.46Z"/><path class="cls-4" d="M169.6,37.8a14.16,14.16,0,0,0-7.27-1.91,16.89,16.89,0,0,0-7.67,1.91C152.44,39,151.21,40.41,151,42s.6,3.1,2.51,4.32a13,13,0,0,0,7.17,1.83,15.92,15.92,0,0,0,7.74-1.83q3.36-1.83,3.71-4.32T169.6,37.8Zm-11.66,2.7a11.89,11.89,0,0,1,3.82-.55,10.55,10.55,0,0,1,3.67.55c1,.37,1.41.86,1.29,1.48q-.22,1.17-1.89,1.74a9.66,9.66,0,0,1-3.72.47,9.37,9.37,0,0,1-3.48-.64c-1-.43-1.54-.95-1.45-1.57S156.85,40.87,157.94,40.5Z"/><path class="cls-4" d="M178.61,47.87l.65-4.59h3.23a3,3,0,0,1,1.85.75,2.24,2.24,0,0,1,.78,2.27l-.24,1.57h5.25l.22-1.52a3.9,3.9,0,0,0-2-4.06,3,3,0,0,0,2.66-2.55,2.73,2.73,0,0,0-1.14-2.61,6.8,6.8,0,0,0-4.43-1.28H176l-.83,6-.86,6Zm6.46-9.06a.83.83,0,0,1,.93.75,1.28,1.28,0,0,1-1.15.82h-5.18l.22-1.57Z"/><polygon class="cls-4" points="202.96 42.4 202.18 47.87 196.82 47.87 197.59 42.46 193.28 35.79 198.46 35.79 200.88 39.09 204.17 35.79 209.18 35.79 202.96 42.4"/><path class="cls-4" d="M109.26,56a2.13,2.13,0,0,1-1.12,1.58,5.1,5.1,0,0,1-2.63.58h-3.64l.24-1.75h3.18a2.05,2.05,0,0,0,.39.06c.45,0,.7-.16.74-.47s-.26-.68-.93-1a19,19,0,0,1-2-.87,1.39,1.39,0,0,1-.9-1.48c.06-.51.45-.85,1.19-1h6.12l-.18,1.23h-3.3c-.8.21-.54.48.8.83.65.33,1.17.61,1.57.85S109.37,55.27,109.26,56Z"/><path class="cls-4" d="M124.42,52.66a7.58,7.58,0,0,0-3.88-1,9.06,9.06,0,0,0-4.12,1,3.23,3.23,0,0,0-2,2.24,2.33,2.33,0,0,0,1.35,2.3,7,7,0,0,0,3.83,1,8.57,8.57,0,0,0,4.15-1,3.28,3.28,0,0,0,2-2.3A2.27,2.27,0,0,0,124.42,52.66Zm-6.24,1.43a6.28,6.28,0,0,1,2.06-.29,5.63,5.63,0,0,1,2,.29c.53.19.77.46.7.78a1.4,1.4,0,0,1-1,.93,5.23,5.23,0,0,1-2,.25,5.12,5.12,0,0,1-1.88-.34c-.56-.23-.81-.51-.77-.84S117.6,54.28,118.18,54.09Z"/><polygon class="cls-4" points="137.95 58.17 130.46 58.17 131.37 51.64 134.18 51.64 133.51 56.45 138.19 56.45 137.95 58.17"/><path class="cls-4" d="M146.07,55.68c0,.37,0,.59.09.68a3,3,0,0,0,1.2.12h1.41l.68-4.87h2.88l-.92,6.57h-4.28a11,11,0,0,1-2.28-.16,1.77,1.77,0,0,1-1.34-.65,2.05,2.05,0,0,1-.29-1.69l.57-4.07h2.85Z"/><polygon class="cls-4" points="164.3 53.03 161.98 53.03 161.82 54.14 161.26 58.18 158.66 58.18 159.38 53.03 157.23 53.03 157.43 51.61 164.5 51.61 164.3 53.03"/><polygon class="cls-4" points="171.39 58.17 168.57 58.17 169.48 51.64 172.3 51.64 171.39 58.17"/><path class="cls-4" d="M187,52.66a7.55,7.55,0,0,0-3.88-1,9.09,9.09,0,0,0-4.12,1,3.22,3.22,0,0,0-2,2.24,2.31,2.31,0,0,0,1.34,2.3,7,7,0,0,0,3.83,1,8.61,8.61,0,0,0,4.16-1,3.33,3.33,0,0,0,2-2.3A2.28,2.28,0,0,0,187,52.66Zm-6.24,1.43a6.32,6.32,0,0,1,2.06-.29,5.63,5.63,0,0,1,2,.29c.54.19.77.46.7.78s-.44.72-1,.93a5.21,5.21,0,0,1-2,.25,5,5,0,0,1-1.88-.34q-.84-.35-.78-.84C179.89,54.55,180.2,54.28,180.78,54.09Z"/><path class="cls-4" d="M195.84,58.18h-2.78l.91-6.56h4.56a4.3,4.3,0,0,1,2.8.66,1.76,1.76,0,0,1,.82,1.71l-.59,4.19h-2.87l.58-4.19a.48.48,0,0,0-.23-.52,2.36,2.36,0,0,0-1.07-.25h-1.44Z"/></svg>