<?xml version="1.0" encoding="UTF-8"?>
<svg id="uuid-0e9955a0-5dec-4703-8cad-9b3337df2b89" data-name="Ebene 2" xmlns="http://www.w3.org/2000/svg" xmlns:xlink="http://www.w3.org/1999/xlink" viewBox="0 0 316.0464 90.6678">
  <defs>
    <style>
      .uuid-262f3fe0-f936-4778-a658-6de70fea06b5 {
        fill: #fff;
      }

      .uuid-d2d10f96-3d0e-4a95-b108-0e2bfbd80ad2 {
        fill: url(#uuid-99c2f6b8-4df0-443f-a6f3-f51d685957aa);
      }

      .uuid-90e4898b-6659-4b75-a55a-f3f3ff504e99 {
        fill: url(#uuid-aeef811f-89dd-412a-8930-f8c9804fa59b);
      }

      .uuid-99742a31-2132-41e9-90dc-404141b0d5c6 {
        fill: url(#uuid-47a99182-d899-4749-83a9-7f4e842ad9b6);
      }
    </style>
    <linearGradient id="uuid-aeef811f-89dd-412a-8930-f8c9804fa59b" data-name="Unbenannter Verlauf 21" x1=".1579" y1="79.7856" x2="104.6862" y2="19.4361" gradientUnits="userSpaceOnUse">
      <stop offset="0" stop-color="#34669a"/>
      <stop offset=".1958" stop-color="#4989aa"/>
      <stop offset=".5374" stop-color="#6cc4c7"/>
      <stop offset=".776" stop-color="#81c8c9"/>
      <stop offset="1" stop-color="#99cdcd"/>
    </linearGradient>
    <linearGradient id="uuid-47a99182-d899-4749-83a9-7f4e842ad9b6" data-name="Unbenannter Verlauf 20" x1="-4.6516" y1="41.6446" x2="86.6638" y2="-11.0763" gradientUnits="userSpaceOnUse">
      <stop offset="0" stop-color="#34669a"/>
      <stop offset=".1732" stop-color="#386b9c"/>
      <stop offset=".3809" stop-color="#4779a3"/>
      <stop offset=".6064" stop-color="#5f91af"/>
      <stop offset=".8428" stop-color="#7fb3c0"/>
      <stop offset="1" stop-color="#9acece"/>
    </linearGradient>
    <linearGradient id="uuid-99c2f6b8-4df0-443f-a6f3-f51d685957aa" data-name="Unbenannter Verlauf 18" x1="28.0164" y1="102.6675" x2="109.8865" y2="55.3998" gradientUnits="userSpaceOnUse">
      <stop offset=".0001" stop-color="#3865a0"/>
      <stop offset=".1723" stop-color="#3c6aa2"/>
      <stop offset=".3789" stop-color="#4a78a8"/>
      <stop offset=".6031" stop-color="#6090b3"/>
      <stop offset=".8382" stop-color="#80b2c1"/>
      <stop offset="1" stop-color="#9acece"/>
    </linearGradient>
  </defs>
  <g id="uuid-f0db4602-0e51-4465-ab39-d8ee7719df32" data-name="Ebene 1">
    <g>
      <g>
        <path class="uuid-90e4898b-6659-4b75-a55a-f3f3ff504e99" d="m97.6549,7.9045c-.0648.2193-.1253.4385-.1963.6577-.0701.2165-.1507.4329-.2269.6494-3.6583,10.3925-14.278,20.7052-30.3738,29.1843C47.7483,48.4626,23.9468,54.387,1.1299,54.8345c-.1656.0033-.3308.0051-.4963.0078-.1654.0026-.3309.0057-.4962.0078v21.4413c0,4.797,2.1957,9.052,5.5712,11.7407.244-.0216.4875-.0484.7313-.0716.2722-.0258.5443-.0521.8163-.0799,42.5805-4.3419,83.1345-32.1579,91.4857-62.1236.1803-.6469.3463-1.2945.4962-1.9432.1882-.8139.3569-1.6287.4962-2.4446v-5.7712c0-2.8218-.7696-5.4514-2.0796-7.6935Z"/>
        <path class="uuid-99742a31-2132-41e9-90dc-404141b0d5c6" d="m.9939,49.6853c44.2501-.8661,88.4553-22.2318,94.0739-44.5863.0502-.1999.0929-.3999.137-.5999.0419-.1901.086-.3803.1222-.5705-2.5013-2.4282-5.8597-3.9286-9.5587-3.9286H13.9664C6.2655,0,0,6.458,0,14.3957v35.3057c.1657-.0021.3312-.0016.4969-.0042s.3313-.0086.497-.0118Z"/>
        <path class="uuid-d2d10f96-3d0e-4a95-b108-0e2bfbd80ad2" d="m98.7407,39.7063c-5.8314,10.6459-15.4034,20.8867-28.1104,29.7611-13.4114,9.3664-28.9458,16.2573-44.954,20.1683-.7453.1821-1.4925.347-2.2398.5161-.7822.177-1.5642.3535-2.3481.5161h64.6798c7.7009,0,13.9664-6.457,13.9664-14.3947v-38.4571c-.1648.327-.3251.6543-.4969.9806-.16.3038-.3309.6065-.4969.9097Z"/>
      </g>
      <g>
        <g>
          <path class="uuid-262f3fe0-f936-4778-a658-6de70fea06b5" d="m136.5066,24.975c-5.5942-1.9552-11.8942-4.9965-11.8942-12.0569,0-5.3765,4.7793-10.7534,12.4368-10.7534,7.9298,0,12.3837,6.0287,12.3837,6.0287l-4.508,4.4529s-3.1505-4.2902-7.8757-4.2902c-3.2576,0-5.8104,2.0097-5.8104,4.5621,0,3.3132,2.9873,4.3448,8.2011,6.3,5.8104,2.1724,10.6438,4.7793,10.6438,11.6764s-6.0827,10.5907-13.2507,10.5907c-9.5045,0-13.9034-7.7666-13.9034-7.7666l4.8874-4.1276s3.2586,5.7028,9.016,5.7028c3.2576,0,6.6253-1.3034,6.6253-4.3994,0-3.204-2.4437-4.3448-6.9517-5.9196Z"/>
          <path class="uuid-262f3fe0-f936-4778-a658-6de70fea06b5" d="m173.9241,32.2526l4.2908,4.3448s-3.6931,4.8879-10.6448,4.8879c-7.7126,0-13.8493-5.9741-13.8493-13.523,0-7.6034,6.1368-13.5235,13.8493-13.5235,6.8976,0,10.5357,4.7793,10.5357,4.7793l-4.507,4.019s-2.1184-2.7155-6.0287-2.7155c-4.3989,0-7.224,3.4213-7.224,7.4407s2.8251,7.4402,7.224,7.4402,6.354-3.15,6.354-3.15Z"/>
          <path class="uuid-262f3fe0-f936-4778-a658-6de70fea06b5" d="m204.4999,24.052v16.7816h-6.0287v-3.2586s-2.6609,3.9103-8.4724,3.9103c-4.8334,0-9.2873-3.15-9.2873-8.6356,0-4.942,4.508-8.5264,10.1022-8.5264,4.7252,0,7.1689,1.8465,7.1689,1.8465v-1.4661c0-3.3677-3.2586-4.4539-5.5401-4.4539-3.7471,0-7.7115,1.9011-7.7115,1.9011l-2.1184-5.377s4.7793-2.3351,10.1563-2.3351c7.3862,0,11.731,3.7477,11.731,9.6132Zm-6.5172,9.015v-2.6609s-2.3356-1.3034-5.8655-1.3034c-2.0092,0-4.7793.869-4.7793,3.639,0,2.715,2.6609,3.3127,4.6702,3.3127,3.9103,0,5.9746-2.9873,5.9746-2.9873Z"/>
          <path class="uuid-262f3fe0-f936-4778-a658-6de70fea06b5" d="m211.2334,2.1644h6.5172v39.3209h-6.5172V2.1644Z"/>
          <path class="uuid-262f3fe0-f936-4778-a658-6de70fea06b5" d="m248.6508,27.8532c0,.489,0,1.4666-.0541,2.4442h-19.2253c.4885,2.281,3.1495,5.2138,7.223,5.2138,4.508,0,7.0598-2.6069,7.0598-2.6069l3.2586,4.8879s-4.0725,3.6931-10.3184,3.6931c-7.8207,0-13.8493-5.9741-13.8493-13.523s5.4851-13.5235,12.9253-13.5235c7.0608,0,12.9804,5.4856,12.9804,13.4144Zm-6.5172-2.2805c-.1081-2.227-2.1724-5.2138-6.4632-5.2138-4.1816,0-6.0827,2.9322-6.299,5.2138h12.7621Z"/>
          <path class="uuid-262f3fe0-f936-4778-a658-6de70fea06b5" d="m276.4566,2.1644h6.5172v24.6308c0,8.5048-5.7023,14.6901-14.6632,14.6901s-14.6632-6.1853-14.6632-14.6901V2.1644h6.5172v23.8027c0,5.5226,2.715,9.2225,8.146,9.2225,5.377,0,8.146-3.6999,8.146-9.2225V2.1644Z"/>
          <path class="uuid-262f3fe0-f936-4778-a658-6de70fea06b5" d="m295.7349,14.7499v3.3672s2.4437-4.019,7.7656-4.019c6.6804,0,12.5459,5.5937,12.5459,13.5235s-5.8655,13.523-12.5459,13.523c-4.0725,0-6.4081-2.2265-7.2771-3.3127v15.1518h-6.5172V14.7499h6.0287Zm.4885,16.7275s1.8471,3.5845,6.1368,3.5845c4.3999,0,7.0608-3.2046,7.0608-7.4402s-2.6609-7.4407-7.0608-7.4407c-4.2897,0-6.1368,3.5845-6.1368,3.5845v7.712Z"/>
        </g>
        <g>
          <path class="uuid-262f3fe0-f936-4778-a658-6de70fea06b5" d="m131.4118,60.7935h-7.1589v-1.6285h16.081v1.6285h-7.1579v22.1205h-1.7642v-22.1205Z"/>
          <path class="uuid-262f3fe0-f936-4778-a658-6de70fea06b5" d="m155.3705,74.8225c0,.3037,0,.3377-.0335.7083h-13.25c.1349,2.3265,2.0568,5.664,6.136,5.664,2.36,0,4.214-1.3156,5.2594-2.6302l1.1803,1.2137c-1.4834,1.7871-3.9109,3.1357-6.4397,3.1357-4.5852,0-7.8892-3.7081-7.8892-8.0914,0-4.3494,3.0008-8.0914,7.586-8.0914,4.0792,0,7.4506,3.3714,7.4506,8.0914Zm-1.8206-.91c-.0674-1.7531-1.5843-5.4622-5.63-5.4622-4.282,0-5.698,3.776-5.7654,5.4622h11.3954Z"/>
          <path class="uuid-262f3fe0-f936-4778-a658-6de70fea06b5" d="m171.4855,78.6325l1.2137,1.1458s-2.1237,3.1357-6.3048,3.1357c-4.5852,0-7.9226-3.6411-7.9226-8.0914s3.3375-8.0914,7.9226-8.0914c4.0123,0,6.137,2.8989,6.137,2.8989l-1.2477,1.1128s-1.6528-2.2926-4.8894-2.2926c-3.6746,0-6.102,2.9669-6.102,6.3723s2.4274,6.3723,6.102,6.3723c3.4054,0,5.0911-2.5623,5.0911-2.5623Z"/>
          <path class="uuid-262f3fe0-f936-4778-a658-6de70fea06b5" d="m183.9253,67.1357c2.866,0,5.7649,1.7871,5.7649,5.9677v9.8106h-1.7531v-9.5409c0-3.1697-1.854-4.5182-4.3494-4.5182-3.4054,0-4.754,3.4394-4.754,3.4394v10.6198h-1.7521v-25.488h1.7521v12.6426s1.4845-2.9329,5.0916-2.9329Z"/>
          <path class="uuid-262f3fe0-f936-4778-a658-6de70fea06b5" d="m207.8269,73.1034v9.8106h-1.7521v-9.5409c0-3.1697-1.8551-4.5182-4.3494-4.5182-3.4054,0-4.754,3.4394-4.754,3.4394v10.6198h-1.7531v-15.3737h1.5843v2.798s1.4834-3.2026,5.2594-3.2026c2.866,0,5.7649,1.7871,5.7649,5.9677Z"/>
          <path class="uuid-262f3fe0-f936-4778-a658-6de70fea06b5" d="m227.7858,74.8225c0,4.4503-3.2366,8.0914-7.8217,8.0914s-7.8217-3.6411-7.8217-8.0914,3.2366-8.0914,7.8217-8.0914,7.8217,3.6411,7.8217,8.0914Zm-1.8201,0c0-3.4723-2.1577-6.3723-6.0017-6.3723s-6.0017,2.8999-6.0017,6.3723,2.1577,6.3723,6.0017,6.3723,6.0017-2.8999,6.0017-6.3723Z"/>
          <path class="uuid-262f3fe0-f936-4778-a658-6de70fea06b5" d="m232.7066,57.4259h1.6862v25.488h-1.7531l.0669-25.488Z"/>
          <path class="uuid-262f3fe0-f936-4778-a658-6de70fea06b5" d="m254.8911,74.8225c0,4.4503-3.2366,8.0914-7.8217,8.0914s-7.8217-3.6411-7.8217-8.0914,3.2366-8.0914,7.8217-8.0914,7.8217,3.6411,7.8217,8.0914Zm-1.8201,0c0-3.4723-2.1577-6.3723-6.0017-6.3723s-6.0017,2.8999-6.0017,6.3723,2.1577,6.3723,6.0017,6.3723,6.0017-2.8999,6.0017-6.3723Z"/>
          <path class="uuid-262f3fe0-f936-4778-a658-6de70fea06b5" d="m272.927,67.1357v15.7443c0,4.8209-3.0338,7.7878-7.518,7.7878-4.5182,0-7.0466-3.1347-7.0466-3.1347l1.1797-1.2477s1.9559,2.6632,5.8668,2.6632c3.9448,0,5.7649-2.5623,5.7649-6.0006v-3.0008c-.5055.7083-2.1577,2.9669-5.5621,2.9669-4.2485,0-7.62-3.3045-7.62-8.0914s3.3714-8.0914,7.62-8.0914c4.0457,0,5.7309,3.2366,5.7309,3.2366v-2.832h1.5843Zm-1.7531,4.8888s-1.5843-3.5742-5.5621-3.5742c-3.4394,0-5.7999,2.798-5.7999,6.3723s2.3605,6.3723,5.7999,6.3723c3.9778,0,5.5621-3.5742,5.5621-3.5742v-5.5961Z"/>
          <path class="uuid-262f3fe0-f936-4778-a658-6de70fea06b5" d="m279.8047,61.2019c.7422,0,1.3486.6074,1.3486,1.3486s-.6063,1.3486-1.3486,1.3486-1.3486-.6074-1.3486-1.3486.6063-1.3486,1.3486-1.3486Zm-.8761,6.3383h1.7521v15.3737h-1.7521v-15.3737Z"/>
          <path class="uuid-262f3fe0-f936-4778-a658-6de70fea06b5" d="m300.5038,74.8225c0,.3037,0,.3377-.0329.7083h-13.25c.1349,2.3265,2.0568,5.664,6.1365,5.664,2.3595,0,4.2135-1.3156,5.2584-2.6302l1.1808,1.2137c-1.4834,1.7871-3.9109,3.1357-6.4392,3.1357-4.5852,0-7.8897-3.7081-7.8897-8.0914,0-4.3494,3.0008-8.0914,7.586-8.0914,4.0797,0,7.4501,3.3714,7.4501,8.0914Zm-1.8201-.91c-.0679-1.7531-1.5843-5.4622-5.63-5.4622-4.2815,0-5.698,3.776-5.7659,5.4622h11.396Z"/>
          <path class="uuid-262f3fe0-f936-4778-a658-6de70fea06b5" d="m305.021,78.4637s1.5514,2.7311,5.1925,2.7311c1.6862,0,4.0117-.6743,4.0117-2.6971,0-1.7531-1.888-2.2926-4.2815-2.832-3.3714-.7422-5.4622-2.0229-5.4622-4.5852,0-2.1917,2.0568-4.3494,5.4283-4.3494,3.6082,0,5.4962,2.1577,5.4962,2.1577l-1.1468,1.2806s-1.5843-1.7192-4.3494-1.7192c-2.0898,0-3.6411,1.0459-3.6411,2.6302,0,1.888,2.0229,2.4274,4.6191,3.0008,2.866.6403,5.1586,1.6512,5.1586,4.4163,0,2.9329-2.9339,4.4163-5.8328,4.4163-4.5512,0-6.574-3.2705-6.574-3.2705l1.3815-1.1797Z"/>
        </g>
      </g>
    </g>
  </g>
</svg>