<?xml version="1.0" encoding="utf-8"?>
<!-- Generator: Adobe Illustrator 18.1.0, SVG Export Plug-In . SVG Version: 6.00 Build 0)  -->
<!DOCTYPE svg PUBLIC "-//W3C//DTD SVG 1.1//EN" "http://www.w3.org/Graphics/SVG/1.1/DTD/svg11.dtd">
<svg version="1.1" id="Ebene_1" xmlns="http://www.w3.org/2000/svg" xmlns:xlink="http://www.w3.org/1999/xlink" x="0px" y="0px"
	 viewBox="0 0 841.9 595.3" enable-background="new 0 0 841.9 595.3" xml:space="preserve">
<path fill="#004691" d="M382.4,433.5c-21.6,0-40.4-3.5-56.6-10.6c-16-7-29.1-16.9-39.7-29.3c-10.6-12.4-18.3-27.2-23.7-44.1
	s-8-35-8-54.7c0-19.5,2.6-38,8-55.2s13.1-32.2,23.7-44.6c10.6-12.4,23.7-22.5,39.7-29.6c16-7.3,34.7-10.8,56.6-10.8
	c21.6,0,40.6,3.5,56.8,10.8c16.2,7.3,29.6,17.1,40.1,29.6c10.6,12.4,18.5,27.5,23.7,44.6c5.2,17.1,7.7,35.7,7.7,55.2
	s-2.6,37.8-7.7,54.7c-5.2,16.9-13.1,31.5-23.7,44.1c-10.6,12.4-24.2,22.3-40.1,29.3C423.1,429.9,404,433.5,382.4,433.5z
	 M382.4,377.8c19.3,0,33.1-7,41.6-21.4c8.5-14.3,12.7-34.7,12.7-61.7s-4.2-47.4-12.7-61.5c-8.5-14.3-22.3-21.4-41.6-21.4
	c-19,0-32.6,7-41.1,21.4c-8.5,14.3-12.7,34.7-12.7,61.5s4.2,47.4,12.7,61.7C349.8,370.5,363.7,377.8,382.4,377.8z"/>
<path fill="#004691" d="M236.4,391.2c-6.6,0-9.6-3.1-9.6-9.6v-88.5l0,0v-28.6c0-38.5-10.1-66.2-30.5-83.8
	c-20.4-17.4-48.8-26.3-85-26.3c-13.4,0-27.5,1.2-43,3.8c-15.3,2.3-30.8,6.3-46,11.5c0,11.3,1.2,20.7,3.8,28.9
	c2.3,8,6.1,16.7,11,25.6c21.4-7.3,41.3-11,60.3-11c8.7,0,16.7,0.5,23.7,1.6c7,0.9,13.1,3.1,18.1,6.1c4.9,3.1,8.7,7,11.5,12.2
	c2.8,5.2,4.2,12,4.2,20.4v6.3c-12.2-0.9-23.5-1.6-33.6-1.6c-13.9,0-27.9,1.4-41.8,4.5c-14.1,3.1-26.5,7.7-38,14.6
	c-11.3,6.8-20.7,16-27.7,27.2S3.1,329.7,3.1,346.6c0,16.7,2.8,31,8.7,42.5c5.9,11.5,13.9,20.9,24.7,28.2
	c10.6,7.3,23.2,13.1,38.3,15.7c8.5,1.4,26.5,0.9,41.3,0.9l0,0c26.1,0,43.7-7.7,52.4-17.6c6.6-7.3,8.2-13.4,12-21.4h0.5
	c0,0.9-0.2,3.1-0.2,3.1l-0.2,8.2v2.6c0,12.7,6.8,23.5,27.2,23.5h48.6v-41.1H236.4z M91.8,375.2c-5.4-2.3-10.1-5.9-13.9-10.8
	c-3.8-4.9-5.9-12-5.9-20.9c0-13.6,4.9-23.5,15-29.6c9.9-6.1,23.5-9.2,40.6-9.2c3.8,0,8.2,0.2,13.1,0.7c4.9,0.5,9.4,1.2,13.6,1.9V363
	c0,8-5.6,14.6-13.4,16c0,0,0,0-0.2,0c-5.2,0.9-10.6,1.4-15.7,1.4c-4.5,0-9.9-0.2-16-0.7C103.1,378.8,97.4,377.6,91.8,375.2z"/>
<path fill="#004691" d="M722.9,215.4c-16.7-13.9-24.4-34.5-22.8-54.5l-58.2,201.4l-59.2-201.7c-5.9-1.4-12.4-2.3-19.5-2.6
	s-13.9-0.5-20.9-0.5c-5.2,0-11.5,0.2-18.5,0.5c-7,0.2-15,1.4-23.2,3.1l101,269.8c5.9,1.4,12.2,2.3,18.8,2.6
	c6.6,0.2,12.7,0.5,17.8,0.5c4.9,0,11-0.2,18.3-0.5c7.3-0.2,14.3-0.9,20.9-2.1l76.8-201.9C743.1,227.8,732.3,223.1,722.9,215.4z"/>
<path fill="#96BE28" d="M816.1,106.9c-27.2-22.5-67.6-19-90.4,8.2c-22.5,27.2-19,67.6,8.2,90.4c27.2,22.5,67.6,19,90.4-8.2
	C847.1,170,843.3,129.4,816.1,106.9z M795.6,173.3c-9.4,11.3-26.3,12.9-37.6,3.5c-11.3-9.4-12.9-26.3-3.5-37.6
	c9.4-11.3,26.3-12.9,37.6-3.5C803.6,145.2,805,162.1,795.6,173.3z"/>
<g>
	<path fill="#004691" d="M366,457.2c0.5,0,0.9-0.2,1.6-0.2c0.5,0,1.2,0,1.6,0s1.2,0,1.6,0s0.9,0,1.6,0.2v44.1
		c-0.5,0-0.9,0.2-1.4,0.2s-0.9,0-1.6,0c-0.5,0-1.2,0-1.6,0s-0.9,0-1.4-0.2v-44.1H366z"/>
	<path fill="#004691" d="M390.7,462.6h-11.5c0-0.5-0.2-0.9-0.2-1.4c0-0.5,0-0.9,0-1.4s0-0.9,0-1.4c0-0.5,0-0.9,0.2-1.4h29.3
		c0,0.5,0.2,0.9,0.2,1.2c0,0.5,0,0.9,0,1.4s0,0.9,0,1.4c0,0.5,0,0.9-0.2,1.4H397v38.7c-0.9,0.2-1.9,0.2-3.1,0.2s-2.1,0-3.3-0.2
		L390.7,462.6L390.7,462.6z"/>
	<path fill="#004691" d="M409.4,501.3c0-0.5-0.2-1.2-0.2-1.6c0-0.5,0-1.2,0-1.6s0-1.2,0-1.6c0-0.7,0.2-1.2,0.2-1.6
		c0.5,0,1.2-0.2,1.6-0.2s1.2,0,1.6,0c0.5,0,1.2,0,1.6,0c0.5,0,1.2,0,1.6,0.2c0,0.5,0.2,1.2,0.2,1.6s0,1.2,0,1.6s0,1.2,0,1.6
		c0,0.5-0.2,1.2-0.2,1.6c-0.5,0-1.2,0.2-1.6,0.2c-0.5,0-1.2,0-1.6,0c-0.5,0-1.2,0-1.6,0S410.1,501.5,409.4,501.3z"/>
	<path fill="#004691" d="M424.7,494.7c1.4,0.5,2.8,0.9,4.2,1.2c1.4,0.2,3.3,0.5,5.4,0.5c3.3,0,5.9-0.7,7.5-2.1
		c1.6-1.4,2.6-3.3,2.6-5.6c0-1.2-0.2-2.1-0.5-3.1c-0.2-0.7-0.9-1.6-1.6-2.1c-0.7-0.5-1.6-1.2-2.6-1.6c-0.9-0.5-2.3-0.9-3.8-1.6
		l-3.5-1.4c-1.2-0.5-2.3-0.9-3.3-1.6c-0.9-0.7-1.9-1.4-2.6-2.1c-0.7-0.9-1.2-1.9-1.6-3.1s-0.7-2.6-0.7-4c0-3.8,1.2-6.6,3.8-8.7
		c2.6-2.1,6.1-3.1,10.8-3.1c1.9,0,3.8,0.2,5.6,0.5c1.9,0.2,3.3,0.7,4.7,1.2c-0.2,1.6-0.7,3.5-1.4,5.2c-1.2-0.5-2.3-0.7-3.8-1.2
		c-1.4-0.2-3.1-0.5-4.9-0.5c-2.6,0-4.5,0.5-5.9,1.6c-1.4,0.9-2.1,2.6-2.1,4.7c0,0.9,0.2,1.6,0.5,2.3s0.7,1.2,1.4,1.9
		c0.5,0.5,1.2,0.9,2.1,1.4c0.7,0.5,1.6,0.7,2.3,1.2l3.5,1.4c1.6,0.7,3.1,1.4,4.5,2.1c1.2,0.7,2.3,1.6,3.3,2.6
		c0.9,0.9,1.6,2.1,2.1,3.5c0.5,1.4,0.7,2.8,0.7,4.7c0,4.2-1.4,7.5-4.5,10.1c-2.8,2.3-7,3.8-12.2,3.8c-1.2,0-2.3,0-3.5-0.2
		c-0.9,0-1.9-0.2-2.8-0.5c-0.9-0.2-1.6-0.5-2.6-0.7c-0.7-0.2-1.6-0.5-2.6-0.7c0-0.9,0.2-1.9,0.5-2.8
		C424,496.4,424.2,495.7,424.7,494.7z"/>
	<path fill="#004691" d="M463.4,487c0,3.5,0.9,5.9,2.6,7.5c1.6,1.6,4.2,2.3,7.5,2.3c2.8,0,5.6-0.5,8.2-1.6c0.2,0.7,0.7,1.4,0.7,2.3
		c0.2,0.9,0.2,1.6,0.5,2.6c-1.4,0.5-2.8,0.9-4.5,1.2c-1.6,0.2-3.5,0.5-5.4,0.5c-2.8,0-5.4-0.5-7.3-1.2c-2.1-0.7-3.8-1.9-5.2-3.3
		c-1.4-1.4-2.3-3.3-2.8-5.2c-0.7-1.9-0.9-4.2-0.9-6.6c0-2.3,0.2-4.5,0.9-6.6c0.7-2.1,1.4-3.8,2.8-5.4c1.2-1.4,2.8-2.6,4.7-3.5
		c1.9-0.9,4-1.4,6.6-1.4c2.1,0,4,0.5,5.6,1.2c1.6,0.7,3.1,1.6,4.2,3.1c1.2,1.2,1.9,2.8,2.6,4.7c0.5,1.9,0.9,3.8,0.9,5.9
		c0,0.5,0,1.2,0,1.9s0,1.2-0.2,1.6H463.4z M478.9,482.5c0-1.2-0.2-2.3-0.5-3.3c-0.2-0.9-0.7-1.9-1.4-2.8c-0.7-0.7-1.4-1.4-2.3-1.9
		c-0.9-0.5-2.1-0.7-3.3-0.7c-2.6,0-4.5,0.7-5.6,2.3c-1.4,1.4-2.1,3.5-2.3,6.3H478.9z"/>
	<path fill="#004691" d="M493,469.8c0.5,0,0.9-0.2,1.2-0.2c0.5,0,0.9,0,1.4,0s0.9,0,1.4,0c0.5,0,0.9,0,1.2,0.2
		c0.2,0.7,0.2,1.4,0.5,2.3c0.2,0.9,0.2,1.9,0.2,2.6c0.9-1.4,2.1-2.6,3.5-3.5c1.4-0.9,3.3-1.6,5.4-1.6c0.2,0,0.7,0,0.9,0s0.7,0,0.9,0
		c0,0.5,0.2,0.7,0.2,1.2s0,0.9,0,1.2c0,0.5,0,0.9,0,1.6c0,0.5-0.2,0.9-0.2,1.6c-0.2,0-0.7-0.2-0.9-0.2s-0.7,0-0.9,0
		c-1.2,0-2.1,0.2-3.1,0.5c-0.9,0.2-1.9,0.9-2.8,1.6c-0.9,0.7-1.4,1.9-1.9,3.3s-0.7,3.1-0.7,5.2v15.7c-0.5,0-0.9,0.2-1.4,0.2
		c-0.5,0-0.9,0-1.4,0s-0.9,0-1.4,0s-1.2,0-1.6-0.2v-31.5H493z"/>
	<path fill="#004691" d="M512,469.8c0.5,0,1.2-0.2,1.9-0.2c0.7,0,1.2,0,1.6,0s1.2,0,1.6,0c0.5,0,1.2,0,1.6,0.2l8.7,26.1l8.7-26.1
		c0.5,0,0.9-0.2,1.6-0.2c0.5,0,1.2,0,1.6,0s0.9,0,1.6,0c0.5,0,1.2,0,1.6,0.2l-12.2,31.5c-0.5,0-1.2,0.2-1.6,0.2c-0.5,0-0.9,0-1.4,0
		c-0.5,0-0.9,0-1.4,0c-0.5,0-0.9,0-1.4-0.2L512,469.8z"/>
	<path fill="#004691" d="M550.3,474.5h-4c0-0.2-0.2-0.7-0.2-1.2c0-0.5,0-0.9,0-1.2c0-0.2,0-0.9,0-1.2c0-0.2,0-0.7,0.2-1.2h9.9v31.5
		c-0.5,0-0.9,0.2-1.4,0.2c-0.5,0-0.9,0-1.4,0s-0.9,0-1.4,0c-0.5,0-1.2,0-1.4-0.2v-26.8H550.3z M548.9,462.8c0-0.5-0.2-0.9-0.2-1.6
		c0-0.5,0-1.2,0-1.6c0-0.5,0-0.9,0-1.6s0-1.2,0.2-1.6c0.5,0,1.2-0.2,1.6-0.2c0.5,0,1.2,0,1.6,0s0.9,0,1.6,0c0.7,0,1.2,0,1.6,0.2
		c0,0.5,0.2,0.9,0.2,1.6s0,1.2,0,1.6c0,0.5,0,0.9,0,1.6c0,0.5,0,1.2-0.2,1.6c-0.5,0-0.9,0.2-1.6,0.2c-0.7,0-1.2,0-1.6,0
		s-0.9,0-1.6,0C550.1,463,549.6,463,548.9,462.8z"/>
	<path fill="#004691" d="M587.2,495.9c0.2,0.5,0.7,1.2,0.9,2.1c0.2,0.9,0.5,1.6,0.5,2.6c-2.3,0.9-5.2,1.4-8.2,1.4
		c-5.2,0-9.2-1.4-12-4.5c-2.8-3.1-4-7-4-12c0-2.3,0.2-4.5,0.9-6.6c0.7-2.1,1.6-3.8,2.8-5.2c1.2-1.4,2.8-2.6,4.9-3.5
		c1.9-0.9,4.2-1.2,6.8-1.2c1.6,0,3.3,0,4.5,0.2c1.4,0.2,2.6,0.5,3.8,0.9c0,0.7,0,1.4-0.2,2.3c-0.2,0.9-0.5,1.6-0.7,2.3
		c-2.1-0.7-4.2-0.9-6.8-0.9c-3.1,0-5.4,0.9-7,3.1c-1.6,2.1-2.3,4.9-2.3,8.2c0,4,0.9,6.8,2.6,8.7c1.9,1.9,4.2,2.8,7.3,2.8
		c1.2,0,2.3,0,3.5-0.2C585.1,496.6,586.2,496.4,587.2,495.9z"/>
	<path fill="#004691" d="M599.1,487c0,3.5,0.9,5.9,2.6,7.5c1.6,1.6,4.2,2.3,7.5,2.3c2.8,0,5.6-0.5,8.2-1.6c0.2,0.7,0.7,1.4,0.7,2.3
		c0.2,0.9,0.2,1.6,0.5,2.6c-1.4,0.5-2.8,0.9-4.5,1.2c-1.6,0.2-3.5,0.5-5.4,0.5c-2.8,0-5.4-0.5-7.3-1.2c-2.1-0.7-3.8-1.9-5.2-3.3
		c-1.4-1.4-2.3-3.3-2.8-5.2c-0.7-1.9-0.9-4.2-0.9-6.6c0-2.3,0.2-4.5,0.9-6.6c0.7-2.1,1.4-3.8,2.8-5.4c1.2-1.4,2.8-2.6,4.7-3.5
		c1.9-0.9,4-1.4,6.6-1.4c2.1,0,4,0.5,5.6,1.2c1.6,0.7,3.1,1.6,4.2,3.1c1.2,1.2,1.9,2.8,2.6,4.7c0.5,1.9,0.9,3.8,0.9,5.9
		c0,0.5,0,1.2,0,1.9s0,1.2-0.2,1.6H599.1z M614.9,482.5c0-1.2-0.2-2.3-0.5-3.3c-0.2-0.9-0.7-1.9-1.4-2.8c-0.7-0.7-1.4-1.4-2.3-1.9
		s-2.1-0.7-3.3-0.7c-2.6,0-4.5,0.7-5.6,2.3c-1.4,1.4-2.1,3.5-2.3,6.3H614.9z"/>
	<path fill="#004691" d="M628.2,495.7c1.2,0.5,2.3,0.7,3.8,1.2c1.4,0.2,2.6,0.5,4,0.5c0.9,0,1.9,0,2.8-0.2c0.9-0.2,1.6-0.5,2.3-0.9
		c0.7-0.5,1.2-0.9,1.6-1.4c0.5-0.7,0.5-1.2,0.5-2.1c0-0.7-0.2-1.4-0.5-2.1s-0.7-0.9-1.2-1.4c-0.5-0.5-1.2-0.7-1.9-0.9
		c-0.7-0.2-1.4-0.5-2.1-0.7l-2.1-0.7c-2.6-0.9-4.5-2.1-5.6-3.3c-1.2-1.2-1.9-2.8-1.9-4.9c0-2.8,0.9-4.9,3.1-6.6
		c2.1-1.6,4.9-2.3,8.7-2.3c1.6,0,3.1,0.2,4.7,0.5s2.8,0.7,4,1.2c0,0.7-0.2,1.6-0.5,2.3c-0.2,0.7-0.5,1.6-0.9,2.3
		c-0.9-0.2-1.9-0.7-3.3-0.9c-1.2-0.2-2.6-0.5-4-0.5c-1.4,0-2.8,0.2-4,0.7c-1.2,0.5-1.6,1.4-1.6,2.8c0,0.7,0.2,1.2,0.5,1.9
		c0.2,0.5,0.7,0.9,1.2,1.2c0.5,0.2,0.9,0.7,1.6,0.9c0.7,0.2,1.4,0.5,2.1,0.7l2.8,0.9c0.9,0.2,1.9,0.7,2.8,1.2s1.6,0.9,2.3,1.6
		s1.2,1.4,1.6,2.3c0.5,0.9,0.5,2.1,0.5,3.5c0,1.4-0.2,2.8-0.9,4.2c-0.7,1.2-1.4,2.3-2.6,3.3c-1.2,0.9-2.6,1.6-4,2.1
		c-1.4,0.5-3.3,0.7-5.4,0.7c-1.9,0-3.8-0.2-5.2-0.5c-1.4-0.2-2.8-0.7-4.2-1.2c0-0.7,0.2-1.6,0.5-2.6
		C627.8,497.3,628,496.4,628.2,495.7z"/>
	<path fill="#004691" d="M697.5,478.5c0.5,0,0.9-0.2,1.6-0.2c0.5,0,1.2,0,1.6,0c0.5,0,1.2,0,1.6,0c0.5,0,0.9,0,1.4,0.2v21.6
		c-0.9,0.5-1.9,0.7-2.8,0.9c-0.9,0.2-2.1,0.5-3.3,0.7c-1.2,0.2-2.1,0.2-3.3,0.2c-1.2,0-2.1,0.2-3.1,0.2c-3.3,0-6.3-0.5-8.9-1.6
		c-2.6-0.9-4.9-2.6-6.6-4.5c-1.9-1.9-3.3-4.2-4.2-7c-0.9-2.8-1.4-5.9-1.4-9.4s0.5-6.8,1.4-9.6c0.9-2.8,2.3-5.2,4.2-7.3
		c1.9-2.1,4-3.5,6.6-4.7s5.4-1.6,8.5-1.6c2.3,0,4.5,0.2,6.1,0.5c1.6,0.2,3.3,0.7,4.7,1.2c0,0.9-0.2,1.9-0.5,2.6
		c-0.2,0.7-0.5,1.6-0.9,2.6c-1.2-0.5-2.3-0.7-3.8-0.9s-3.1-0.5-4.9-0.5c-2.1,0-4.2,0.5-5.9,1.2c-1.9,0.7-3.3,1.9-4.5,3.5
		c-1.2,1.4-2.1,3.3-2.8,5.6c-0.7,2.1-0.9,4.7-0.9,7.5c0,2.8,0.5,5.4,1.2,7.5c0.7,2.1,1.6,4,3.1,5.4c1.4,1.4,2.8,2.3,4.7,3.1
		c1.9,0.7,3.8,0.9,5.9,0.9c1.4,0,2.3,0,3.5-0.2c0.9-0.2,1.9-0.2,2.6-0.5v-17.4H697.5z"/>
	<path fill="#004691" d="M713.2,469.8c0.5,0,0.9-0.2,1.4-0.2c0.5,0,0.9,0,1.4,0c0.5,0,0.9,0,1.2,0c0.2,0,0.7,0,1.2,0.2
		c0.2,0.7,0.2,1.4,0.5,2.3c0.2,0.9,0.2,1.9,0.2,2.6c0.5-0.7,0.9-1.4,1.4-2.1c0.5-0.7,1.2-1.2,1.9-1.9c0.7-0.5,1.6-0.9,2.6-1.2
		c0.9-0.2,2.1-0.5,3.3-0.5c2.3,0,4.5,0.5,5.6,1.4c1.4,0.9,2.3,2.3,3.1,4.2c0.5-0.7,0.9-1.4,1.4-2.1c0.7-0.7,1.2-1.4,2.1-1.9
		c0.7-0.5,1.6-0.9,2.6-1.2c0.9-0.2,2.1-0.5,3.3-0.5c3.8,0,6.3,0.9,8,3.1c1.6,2.1,2.6,5.2,2.6,9.2v20.2c-0.5,0-0.9,0.2-1.6,0.2
		c-0.5,0-1.2,0-1.6,0s-0.9,0-1.4,0c-0.5,0-0.9,0-1.4-0.2v-18.3c0-2.8-0.5-4.9-1.2-6.3c-0.9-1.4-2.3-2.1-4.2-2.1
		c-2.1,0-3.8,0.7-5.2,2.3c-1.2,1.4-1.9,3.8-1.9,6.8v17.8c-0.5,0-0.9,0.2-1.4,0.2c-0.5,0-1.2,0-1.4,0c-0.5,0-0.9,0-1.4,0
		c-0.5,0-1.2,0-1.4-0.2V483c0-2.8-0.5-4.7-1.2-6.1c-0.7-1.4-2.1-2.1-4-2.1c-0.9,0-1.9,0.2-2.8,0.7c-0.9,0.5-1.6,1.2-2.3,2.1
		c-0.7,0.9-1.2,2.1-1.6,3.5c-0.5,1.4-0.5,3.1-0.5,4.7V502c-0.5,0-0.9,0.2-1.4,0.2c-0.5,0-0.9,0-1.4,0c-0.5,0-0.9,0-1.6,0
		c-0.5,0-1.2,0-1.6-0.2v-32.2H713.2z"/>
	<path fill="#004691" d="M765.8,456.2c0.5,0,0.9-0.2,1.4-0.2c0.5,0,0.9,0,1.4,0c0.5,0,0.9,0,1.6,0c0.5,0,1.2,0,1.6,0.2v17.4
		c0.7-1.2,1.9-2.3,3.5-3.3c1.6-0.9,3.5-1.4,5.6-1.4c1.9,0,3.5,0.2,5.2,0.9c1.6,0.7,3.1,1.6,4.2,2.8c1.2,1.4,2.1,2.8,2.6,4.9
		c0.5,2.1,0.9,4.2,0.9,7c0,5.4-1.6,9.6-4.7,12.7c-3.1,3.1-7.5,4.7-13.1,4.7c-1.9,0-3.8-0.2-5.6-0.5c-1.9-0.2-3.5-0.7-4.9-1.2v-44.1
		H765.8z M771.7,496.1c0.7,0.2,1.6,0.5,2.3,0.5c0.9,0,1.6,0.2,2.6,0.2c1.4,0,2.8-0.2,4.2-0.7c1.4-0.5,2.3-1.2,3.3-2.1
		c0.9-0.9,1.6-2.1,2.3-3.8c0.5-1.4,0.9-3.3,0.9-5.4c0-3.3-0.7-6.1-1.9-8c-1.2-1.9-3.1-2.8-5.9-2.8c-0.9,0-1.9,0.2-2.8,0.5
		c-0.9,0.2-1.9,0.7-2.6,1.4c-0.7,0.7-1.4,1.6-1.9,2.8c-0.5,1.2-0.7,2.6-0.7,4V496.1z"/>
	<path fill="#004691" d="M802.4,457.2c0.5,0,0.9-0.2,1.6-0.2c0.5,0,1.2,0,1.6,0c0.5,0,1.2,0,1.6,0c0.5,0,0.9,0,1.6,0.2v18.3h18.8
		v-18.3c0.5,0,0.9-0.2,1.4-0.2c0.5,0,1.2,0,1.6,0c0.5,0,1.2,0,1.6,0c0.5,0,1.2,0,1.6,0.2v44.1c-0.5,0-0.9,0.2-1.4,0.2
		c-0.5,0-1.2,0-1.6,0c-0.5,0-1.2,0-1.6,0c-0.5,0-0.9,0-1.4-0.2v-20.4h-18.8v20.4c-0.5,0-0.9,0.2-1.4,0.2c-0.5,0-0.9,0-1.6,0
		c-0.5,0-1.2,0-1.6,0c-0.5,0-1.2,0-1.4-0.2v-44.1H802.4z"/>
</g>
</svg>
