<svg id="Ebene_1" data-name="Ebene 1" xmlns="http://www.w3.org/2000/svg" width="73.5mm" height="17.92mm" viewBox="0 0 208.36 50.8"><defs><style>.cls-1{fill:#0e3a5d;}.cls-2{fill:#e30613;}</style></defs><title>LEITWERK_Claim_RGB</title><path class="cls-1" d="M57,32.12V9.33h4.45V28.15H71.75v4Z" transform="translate(-1.42 -1.42)"/><path class="cls-1" d="M75.16,32.12V9.33h15v4H79.61v5.35h9v4h-9v5.54H90.16v4Z" transform="translate(-1.42 -1.42)"/><path class="cls-1" d="M94.19,32.12V9.33h4.45V32.12Z" transform="translate(-1.42 -1.42)"/><path class="cls-1" d="M112.41,13.3V32.12H108V13.3H102v-4h16.35v4Z" transform="translate(-1.42 -1.42)"/><path class="cls-1" d="M142.46,32.12h-3.72l-4.19-13.83-4.19,13.83h-3.71L120.57,9.33h4.64l3.52,14.37,4.16-14.37h3.32l4.17,14.37,3.55-14.37h4.64Z" transform="translate(-1.42 -1.42)"/><path class="cls-1" d="M151.65,32.12V9.33h15v4H156.09v5.35h9v4h-9v5.54h10.56v4Z" transform="translate(-1.42 -1.42)"/><path class="cls-1" d="M182.74,32.12,178.29,23H175.1v9.09h-4.45V9.33h8.93c4.63,0,7.39,3.17,7.39,7a6.14,6.14,0,0,1-4.16,6l5.08,9.83ZM179.29,13.3H175.1v6h4.19a3,3,0,1,0,0-6Z" transform="translate(-1.42 -1.42)"/><path class="cls-1" d="M204.59,32.12l-5.86-10.37-2.94,3.52v6.85h-4.45V9.33h4.45v9.92l8-9.92h5.41l-7.55,9.06,8.09,13.73Z" transform="translate(-1.42 -1.42)"/><path class="cls-2" d="M63.94,51A4.08,4.08,0,0,1,61,52.12H57V40.72h4a4.07,4.07,0,0,1,2.95,1.07c1.23,1.24,1.15,2.9,1.15,4.55S65.17,49.81,63.94,51Zm-1.19-8a2.45,2.45,0,0,0-1.93-.77h-2.1v8.29h2.1a2.48,2.48,0,0,0,1.93-.76c.6-.66.61-1.89.61-3.46S63.35,43.7,62.75,43Z" transform="translate(-1.42 -1.42)"/><path class="cls-2" d="M67.37,42.4V40.67H69.1V42.4Zm0,9.72V44h1.63v8.12Z" transform="translate(-1.42 -1.42)"/><path class="cls-2" d="M72.73,48.53A2,2,0,0,0,74.8,50.8a2.42,2.42,0,0,0,2-.83l1,1a3.84,3.84,0,0,1-3,1.26c-2,0-3.64-1.07-3.64-4.16,0-2.62,1.36-4.14,3.44-4.14S78,45.51,78,47.81v.72Zm3.43-2.24a1.68,1.68,0,0,0-1.6-1,1.7,1.7,0,0,0-1.62,1,2.65,2.65,0,0,0-.21,1.11h3.65A2.5,2.5,0,0,0,76.16,46.29Z" transform="translate(-1.42 -1.42)"/><path class="cls-2" d="M83.47,52.12V50.63l5.26-8.36h-5V40.72h7.08v1.41l-5.3,8.43h5.3v1.56Z" transform="translate(-1.42 -1.42)"/><path class="cls-2" d="M97.61,52.12V51.3a2.89,2.89,0,0,1-2.16.91,2.83,2.83,0,0,1-2-.73,3,3,0,0,1-.82-2.29V44h1.64v5a1.58,1.58,0,0,0,1.63,1.81A1.62,1.62,0,0,0,97.58,49V44h1.63v8.12Z" transform="translate(-1.42 -1.42)"/><path class="cls-2" d="M106.79,52.12l-2.28-3.75-1.2,1.36v2.39h-1.63V40.72h1.63v7L106.46,44h2l-2.82,3.19,3.17,4.93Z" transform="translate(-1.42 -1.42)"/><path class="cls-2" d="M115.27,52.12V51.3a2.89,2.89,0,0,1-2.16.91,2.83,2.83,0,0,1-2-.73,3,3,0,0,1-.82-2.29V44h1.63v5a1.58,1.58,0,0,0,1.64,1.81A1.62,1.62,0,0,0,115.24,49V44h1.63v8.12Z" transform="translate(-1.42 -1.42)"/><path class="cls-2" d="M124.28,52.12V47.17a1.58,1.58,0,0,0-1.63-1.81A1.62,1.62,0,0,0,121,47.17v4.95h-1.63V44h1.6v.82a2.89,2.89,0,0,1,2.16-.91,2.83,2.83,0,0,1,2,.73,3,3,0,0,1,.82,2.29v5.19Z" transform="translate(-1.42 -1.42)"/><path class="cls-2" d="M130.18,45.39v6.73h-1.64V45.39h-.92V44.15h.92V42.9a2.12,2.12,0,0,1,2.23-2.26h1V42h-.72a.83.83,0,0,0-.89.95v1.17h1.61v1.24Z" transform="translate(-1.42 -1.42)"/><path class="cls-2" d="M136.33,52.12a2.11,2.11,0,0,1-2.22-2.26V45.39h-.93V44.15h.93V41.68h1.63v2.47h1.57v1.24h-1.57v4.39a.82.82,0,0,0,.89.94h.68v1.4Z" transform="translate(-1.42 -1.42)"/><path class="cls-2" d="M143.42,52.12V40.72h1.73v11.4Z" transform="translate(-1.42 -1.42)"/><path class="cls-2" d="M152.69,52.12v-5a1.65,1.65,0,1,0-3.28,0v5h-1.64V40.72h1.64v4.1a2.77,2.77,0,0,1,2.09-.91,2.69,2.69,0,0,1,2.82,3v5.24Z" transform="translate(-1.42 -1.42)"/><path class="cls-2" d="M161.2,45.91a1.51,1.51,0,0,0-1.21-.55,1.67,1.67,0,0,0-1.62,1.83v4.93h-1.63V44h1.6v.88a2.69,2.69,0,0,1,2.16-1,2.5,2.5,0,0,1,1.93.76Z" transform="translate(-1.42 -1.42)"/><path class="cls-2" d="M164.9,48.53A2,2,0,0,0,167,50.8a2.42,2.42,0,0,0,2-.83l1,1a3.83,3.83,0,0,1-3,1.26c-2,0-3.65-1.07-3.65-4.16,0-2.62,1.36-4.14,3.44-4.14s3.44,1.6,3.44,3.9v.72Zm3.43-2.24a1.67,1.67,0,0,0-1.6-1,1.7,1.7,0,0,0-1.62,1,2.65,2.65,0,0,0-.21,1.11h3.65A2.5,2.5,0,0,0,168.33,46.29Z" transform="translate(-1.42 -1.42)"/><path class="cls-2" d="M176.71,45.91a1.51,1.51,0,0,0-1.22-.55,1.68,1.68,0,0,0-1.62,1.83v4.93h-1.63V44h1.6v.88a2.72,2.72,0,0,1,2.16-1,2.5,2.5,0,0,1,1.94.76Z" transform="translate(-1.42 -1.42)"/><path class="cls-2" d="M183.29,52.12V40.72H185v11.4Z" transform="translate(-1.42 -1.42)"/><path class="cls-2" d="M191.87,42.27v9.85h-1.73V42.27H187V40.72h8v1.55Z" transform="translate(-1.42 -1.42)"/><path class="cls-2" d="M26.24,19.47l3-5.13-3-5.13-3,5.13H17.36l-3-5.12-3,5.12,3,5.13-3,5.12h5.92l3,5.13,3-5.13H29.2Zm-10.74,0,1.76-1.52L19,19.45Zm6.13,0,1.76-1.52,1.75,1.52Z" transform="translate(-1.42 -1.42)"/><path class="cls-1" d="M43.61,34.65a27.41,27.41,0,0,1-4,3,8.11,8.11,0,0,1-4.42,1.2A13.36,13.36,0,0,1,31,38.13q-2.2-.74-4.71-1.77l-5.32-2.15a48.14,48.14,0,0,0-6.11-2,6.86,6.86,0,0,1,3.58-1.15,18,18,0,0,1,4.83.61c1.59.4,3.19.82,4.79,1.28s3.22.88,4.86,1.28a21.43,21.43,0,0,0,5,.58,19.27,19.27,0,0,0,2.7-.19,14.85,14.85,0,0,0,2.8-.69Z" transform="translate(-1.42 -1.42)"/><path class="cls-1" d="M25.87,37.26,23.29,36.2a16.18,16.18,0,1,1,7.39-3.49l2.41.61.77.16a18.83,18.83,0,1,0-6.5,4.37Z" transform="translate(-1.42 -1.42)"/></svg>