<?xml version="1.0" encoding="UTF-8" standalone="no"?>
<svg
   viewBox="0 0 400 400.00001"
   version="1.1"
   id="svg1075"
   sodipodi:docname="Icon-RGB-pluscloud-open-blue-dark.svg"
   inkscape:export-filename="../580a8e5/plusserver_icon_RGB_pluscloud-open_blue_dark-400x400.png"
   inkscape:export-xdpi="96"
   inkscape:export-ydpi="96"
   width="400"
   height="400"
   inkscape:version="1.2.2 (732a01da63, 2022-12-09, custom)"
   xmlns:inkscape="http://www.inkscape.org/namespaces/inkscape"
   xmlns:sodipodi="http://sodipodi.sourceforge.net/DTD/sodipodi-0.dtd"
   xmlns="http://www.w3.org/2000/svg"
   xmlns:svg="http://www.w3.org/2000/svg">
  <sodipodi:namedview
     id="namedview1077"
     pagecolor="#ffffff"
     bordercolor="#000000"
     borderopacity="0.25"
     inkscape:showpageshadow="2"
     inkscape:pageopacity="0.0"
     inkscape:pagecheckerboard="0"
     inkscape:deskcolor="#d1d1d1"
     showgrid="false"
     inkscape:zoom="1.5919118"
     inkscape:cx="186.25404"
     inkscape:cy="171.49192"
     inkscape:window-width="1870"
     inkscape:window-height="1043"
     inkscape:window-x="0"
     inkscape:window-y="0"
     inkscape:window-maximized="1"
     inkscape:current-layer="svg1075" />
  <defs
     id="defs1067">
    <style
       id="style1065">.cls-1{fill:#009bf4;}.cls-2{fill:#99d7fb;}</style>
  </defs>
  <g
     id="Icon"
     transform="matrix(3.030303,0,0,3.030303,-6.060606,-6.0606036)">
    <path
       class="cls-1"
       d="m 134,71.29 c 0,11.12 -9.03,20.21 -20.14,20.25 H 104 c -7.37,0 -13.52,5.35 -14.77,12.37 h 5.75 L 86,119.46 78.54,106.54 77.02,103.91 h 6.15 c 0.37,-2.95 1.35,-5.72 2.83,-8.16 3.67,-6.11 10.36,-10.21 18,-10.21 h 9.85 C 121.65,85.51 128,79.12 128,71.29 128,63.46 121.64,57.04 113.81,57.04 h -3.57 l 0.4,-3.36 c 0.14,-1.16 0.21,-2.29 0.21,-3.47 0,-15.26 -12.36,-27.67 -27.55,-27.67 -9.64,0 -18.7,5.15 -23.63,13.45 l -1.57,2.64 -2.6,-1.64 c -3.07,-1.93 -6.67,-2.95 -10.4,-2.95 -10.98,0 -19.91,8.97 -19.91,20 v 3 h -3 C 14.36,57.04 8,63.43 8,71.29 8,79.15 14.36,85.54 22.19,85.54 H 32 c 7.37,0 13.52,-5.35 14.77,-12.37 H 41.02 L 50,57.62 l 7.46,12.92 1.52,2.63 H 52.83 C 52.46,76.12 51.48,78.89 50,81.33 46.33,87.44 39.64,91.54 32,91.54 H 22.19 C 11.06,91.54 2,82.46 2,71.29 2,61.09 9.55,52.63 19.34,51.24 20.73,38.22 31.75,28.04 45.1,28.04 c 3.86,0 7.61,0.84 11.01,2.45 6.24,-8.67 16.41,-13.95 27.19,-13.95 18.5,0 33.55,15.1 33.55,33.67 0,0.35 0,0.71 -0.02,1.06 9.71,1.46 17.17,9.88 17.17,20.02 z"
       id="path1069" />
  </g>
  <g
     id="_"
     transform="matrix(3.030303,0,0,3.030303,-6.060606,-6.0606036)">
    <polygon
       class="cls-2"
       points="65,76.54 71,76.54 71,85.54 80,85.54 80,91.54 71,91.54 71,100.54 65,100.54 65,91.54 56,91.54 56,85.54 65,85.54 "
       id="polygon1072" />
  </g>
</svg>
