<?xml version="1.0" encoding="UTF-8"?>
<svg id="Ebene_2" data-name="Ebene 2" xmlns="http://www.w3.org/2000/svg" xmlns:xlink="http://www.w3.org/1999/xlink" viewBox="0 0 316.05 90.67">
  <defs>
    <style>
      .cls-1 {
        fill: url(#Unbenannter_Verlauf_20);
      }

      .cls-1, .cls-2, .cls-3, .cls-4 {
        stroke-width: 0px;
      }

      .cls-2 {
        fill: url(#Unbenannter_Verlauf_21);
      }

      .cls-3 {
        fill: url(#Unbenannter_Verlauf_18);
      }

      .cls-4 {
        fill: #424959;
      }
    </style>
    <linearGradient id="Unbenannter_Verlauf_21" data-name="Unbenannter Verlauf 21" x1=".16" y1="79.79" x2="104.69" y2="19.44" gradientUnits="userSpaceOnUse">
      <stop offset="0" stop-color="#486696"/>
      <stop offset=".19" stop-color="#6087a7"/>
      <stop offset=".54" stop-color="#8bc2c6"/>
      <stop offset=".88" stop-color="#a0c9ca"/>
      <stop offset="1" stop-color="#a9cccc"/>
    </linearGradient>
    <linearGradient id="Unbenannter_Verlauf_20" data-name="Unbenannter Verlauf 20" x1="-4.65" y1="41.64" x2="86.66" y2="-11.08" gradientUnits="userSpaceOnUse">
      <stop offset="0" stop-color="#486696"/>
      <stop offset=".18" stop-color="#4c6b98"/>
      <stop offset=".39" stop-color="#5a79a0"/>
      <stop offset=".61" stop-color="#7191ad"/>
      <stop offset=".85" stop-color="#91b3bf"/>
      <stop offset="1" stop-color="#a9cccd"/>
    </linearGradient>
    <linearGradient id="Unbenannter_Verlauf_18" data-name="Unbenannter Verlauf 18" x1="28.02" y1="102.67" x2="109.89" y2="55.4" gradientUnits="userSpaceOnUse">
      <stop offset="0" stop-color="#4a659d"/>
      <stop offset=".17" stop-color="#4e6a9f"/>
      <stop offset=".38" stop-color="#5c78a6"/>
      <stop offset=".61" stop-color="#7290b1"/>
      <stop offset=".85" stop-color="#91b2c1"/>
      <stop offset="1" stop-color="#a9cccd"/>
    </linearGradient>
  </defs>
  <g id="Ebene_1-2" data-name="Ebene 1">
    <g>
      <g>
        <path class="cls-2" d="M97.65,7.9c-.06.22-.13.44-.2.66-.07.22-.15.43-.23.65-3.66,10.39-14.28,20.71-30.37,29.18C47.75,48.46,23.95,54.39,1.13,54.83c-.17,0-.33,0-.5,0-.17,0-.33,0-.5,0v21.44c0,4.8,2.2,9.05,5.57,11.74.24-.02.49-.05.73-.07.27-.03.54-.05.82-.08,42.58-4.34,83.13-32.16,91.49-62.12.18-.65.35-1.29.5-1.94.19-.81.36-1.63.5-2.44v-5.77c0-2.82-.77-5.45-2.08-7.69Z"/>
        <path class="cls-1" d="M.99,49.69c44.25-.87,88.46-22.23,94.07-44.59.05-.2.09-.4.14-.6.04-.19.09-.38.12-.57-2.5-2.43-5.86-3.93-9.56-3.93H13.97C6.27,0,0,6.46,0,14.4v35.31c.17,0,.33,0,.5,0s.33,0,.5-.01Z"/>
        <path class="cls-3" d="M98.74,39.71c-5.83,10.65-15.4,20.89-28.11,29.76-13.41,9.37-28.95,16.26-44.95,20.17-.75.18-1.49.35-2.24.52-.78.18-1.56.35-2.35.52h64.68c7.7,0,13.97-6.46,13.97-14.39v-38.46c-.16.33-.33.65-.5.98-.16.3-.33.61-.5.91Z"/>
      </g>
      <g>
        <g>
          <path class="cls-4" d="M136.51,24.98c-5.59-1.96-11.89-5-11.89-12.06,0-5.38,4.78-10.75,12.44-10.75s12.38,6.03,12.38,6.03l-4.51,4.45s-3.15-4.29-7.88-4.29c-3.26,0-5.81,2.01-5.81,4.56,0,3.31,2.99,4.34,8.2,6.3,5.81,2.17,10.64,4.78,10.64,11.68s-6.08,10.59-13.25,10.59c-9.5,0-13.9-7.77-13.9-7.77l4.89-4.13s3.26,5.7,9.02,5.7c3.26,0,6.63-1.3,6.63-4.4s-2.44-4.34-6.95-5.92Z"/>
          <path class="cls-4" d="M173.92,32.25l4.29,4.34s-3.69,4.89-10.64,4.89c-7.71,0-13.85-5.97-13.85-13.52s6.14-13.52,13.85-13.52c6.9,0,10.54,4.78,10.54,4.78l-4.51,4.02s-2.12-2.72-6.03-2.72c-4.4,0-7.22,3.42-7.22,7.44s2.83,7.44,7.22,7.44,6.35-3.15,6.35-3.15Z"/>
          <path class="cls-4" d="M204.5,24.05v16.78h-6.03v-3.26s-2.66,3.91-8.47,3.91c-4.83,0-9.29-3.15-9.29-8.64,0-4.94,4.51-8.53,10.1-8.53,4.73,0,7.17,1.85,7.17,1.85v-1.47c0-3.37-3.26-4.45-5.54-4.45-3.75,0-7.71,1.9-7.71,1.9l-2.12-5.38s4.78-2.34,10.16-2.34c7.39,0,11.73,3.75,11.73,9.61ZM197.98,33.07v-2.66s-2.34-1.3-5.87-1.3c-2.01,0-4.78.87-4.78,3.64s2.66,3.31,4.67,3.31c3.91,0,5.97-2.99,5.97-2.99Z"/>
          <path class="cls-4" d="M211.23,2.16h6.52v39.32h-6.52V2.16Z"/>
          <path class="cls-4" d="M248.65,27.85c0,.49,0,1.47-.05,2.44h-19.23c.49,2.28,3.15,5.21,7.22,5.21,4.51,0,7.06-2.61,7.06-2.61l3.26,4.89s-4.07,3.69-10.32,3.69c-7.82,0-13.85-5.97-13.85-13.52s5.49-13.52,12.93-13.52,12.98,5.49,12.98,13.41ZM242.13,25.57c-.11-2.23-2.17-5.21-6.46-5.21s-6.08,2.93-6.3,5.21h12.76Z"/>
          <path class="cls-4" d="M276.46,2.16h6.52v24.63c0,8.5-5.7,14.69-14.66,14.69s-14.66-6.19-14.66-14.69V2.16h6.52v23.8c0,5.52,2.71,9.22,8.15,9.22s8.15-3.7,8.15-9.22V2.16Z"/>
          <path class="cls-4" d="M295.73,14.75v3.37s2.44-4.02,7.77-4.02c6.68,0,12.55,5.59,12.55,13.52s-5.87,13.52-12.55,13.52c-4.07,0-6.41-2.23-7.28-3.31v15.15h-6.52V14.75h6.03ZM296.22,31.48s1.85,3.58,6.14,3.58,7.06-3.2,7.06-7.44-2.66-7.44-7.06-7.44-6.14,3.58-6.14,3.58v7.71Z"/>
        </g>
        <g>
          <path class="cls-4" d="M131.41,60.79h-7.16v-1.63h16.08v1.63h-7.16v22.12h-1.76v-22.12Z"/>
          <path class="cls-4" d="M155.37,74.82c0,.3,0,.34-.03.71h-13.25c.13,2.33,2.06,5.66,6.14,5.66,2.36,0,4.21-1.32,5.26-2.63l1.18,1.21c-1.48,1.79-3.91,3.14-6.44,3.14-4.59,0-7.89-3.71-7.89-8.09s3-8.09,7.59-8.09c4.08,0,7.45,3.37,7.45,8.09ZM153.55,73.91c-.07-1.75-1.58-5.46-5.63-5.46-4.28,0-5.7,3.78-5.77,5.46h11.4Z"/>
          <path class="cls-4" d="M171.49,78.63l1.21,1.15s-2.12,3.14-6.3,3.14c-4.59,0-7.92-3.64-7.92-8.09s3.34-8.09,7.92-8.09c4.01,0,6.14,2.9,6.14,2.9l-1.25,1.11s-1.65-2.29-4.89-2.29c-3.67,0-6.1,2.97-6.1,6.37s2.43,6.37,6.1,6.37c3.41,0,5.09-2.56,5.09-2.56Z"/>
          <path class="cls-4" d="M183.93,67.14c2.87,0,5.76,1.79,5.76,5.97v9.81h-1.75v-9.54c0-3.17-1.85-4.52-4.35-4.52-3.41,0-4.75,3.44-4.75,3.44v10.62h-1.75v-25.49h1.75v12.64s1.48-2.93,5.09-2.93Z"/>
          <path class="cls-4" d="M207.83,73.1v9.81h-1.75v-9.54c0-3.17-1.86-4.52-4.35-4.52-3.41,0-4.75,3.44-4.75,3.44v10.62h-1.75v-15.37h1.58v2.8s1.48-3.2,5.26-3.2c2.87,0,5.76,1.79,5.76,5.97Z"/>
          <path class="cls-4" d="M227.79,74.82c0,4.45-3.24,8.09-7.82,8.09s-7.82-3.64-7.82-8.09,3.24-8.09,7.82-8.09,7.82,3.64,7.82,8.09ZM225.97,74.82c0-3.47-2.16-6.37-6-6.37s-6,2.9-6,6.37,2.16,6.37,6,6.37,6-2.9,6-6.37Z"/>
          <path class="cls-4" d="M232.71,57.43h1.69v25.49h-1.75l.07-25.49Z"/>
          <path class="cls-4" d="M254.89,74.82c0,4.45-3.24,8.09-7.82,8.09s-7.82-3.64-7.82-8.09,3.24-8.09,7.82-8.09,7.82,3.64,7.82,8.09ZM253.07,74.82c0-3.47-2.16-6.37-6-6.37s-6,2.9-6,6.37,2.16,6.37,6,6.37,6-2.9,6-6.37Z"/>
          <path class="cls-4" d="M272.93,67.14v15.74c0,4.82-3.03,7.79-7.52,7.79s-7.05-3.13-7.05-3.13l1.18-1.25s1.96,2.66,5.87,2.66,5.76-2.56,5.76-6v-3c-.51.71-2.16,2.97-5.56,2.97-4.25,0-7.62-3.3-7.62-8.09s3.37-8.09,7.62-8.09,5.73,3.24,5.73,3.24v-2.83h1.58ZM271.17,72.02s-1.58-3.57-5.56-3.57c-3.44,0-5.8,2.8-5.8,6.37s2.36,6.37,5.8,6.37c3.98,0,5.56-3.57,5.56-3.57v-5.6Z"/>
          <path class="cls-4" d="M279.8,61.2c.74,0,1.35.61,1.35,1.35s-.61,1.35-1.35,1.35-1.35-.61-1.35-1.35.61-1.35,1.35-1.35ZM278.93,67.54h1.75v15.37h-1.75v-15.37Z"/>
          <path class="cls-4" d="M300.5,74.82c0,.3,0,.34-.03.71h-13.25c.13,2.33,2.06,5.66,6.14,5.66,2.36,0,4.21-1.32,5.26-2.63l1.18,1.21c-1.48,1.79-3.91,3.14-6.44,3.14-4.59,0-7.89-3.71-7.89-8.09s3-8.09,7.59-8.09c4.08,0,7.45,3.37,7.45,8.09ZM298.68,73.91c-.07-1.75-1.58-5.46-5.63-5.46-4.28,0-5.7,3.78-5.77,5.46h11.4Z"/>
          <path class="cls-4" d="M305.02,78.46s1.55,2.73,5.19,2.73c1.69,0,4.01-.67,4.01-2.7,0-1.75-1.89-2.29-4.28-2.83-3.37-.74-5.46-2.02-5.46-4.59,0-2.19,2.06-4.35,5.43-4.35,3.61,0,5.5,2.16,5.5,2.16l-1.15,1.28s-1.58-1.72-4.35-1.72c-2.09,0-3.64,1.05-3.64,2.63,0,1.89,2.02,2.43,4.62,3,2.87.64,5.16,1.65,5.16,4.42,0,2.93-2.93,4.42-5.83,4.42-4.55,0-6.57-3.27-6.57-3.27l1.38-1.18Z"/>
        </g>
      </g>
    </g>
  </g>
</svg>