<?xml version="1.0" encoding="UTF-8" standalone="no"?>
<!-- Generator: Adobe Illustrator 16.0.4, SVG Export Plug-In . SVG Version: 6.00 Build 0)  -->

<svg
   xmlns:dc="http://purl.org/dc/elements/1.1/"
   xmlns:cc="http://creativecommons.org/ns#"
   xmlns:rdf="http://www.w3.org/1999/02/22-rdf-syntax-ns#"
   xmlns:svg="http://www.w3.org/2000/svg"
   xmlns="http://www.w3.org/2000/svg"
   xmlns:sodipodi="http://sodipodi.sourceforge.net/DTD/sodipodi-0.dtd"
   xmlns:inkscape="http://www.inkscape.org/namespaces/inkscape"
   version="1.1"
   id="Ebene_1"
   x="0px"
   y="0px"
   width="355.04099"
   height="172.70799"
   viewBox="0 0 355.04098 172.70799"
   enable-background="new 0 0 1190.551 841.89"
   xml:space="preserve"
   sodipodi:docname="OSBA.svg"
   inkscape:version="0.92.4 (5da689c313, 2019-01-14)"><metadata
   id="metadata1111"><rdf:RDF><cc:Work
       rdf:about=""><dc:format>image/svg+xml</dc:format><dc:type
         rdf:resource="http://purl.org/dc/dcmitype/StillImage" /><dc:title></dc:title></cc:Work></rdf:RDF></metadata><defs
   id="defs1109" /><sodipodi:namedview
   pagecolor="#ffffff"
   bordercolor="#666666"
   borderopacity="1"
   objecttolerance="10"
   gridtolerance="10"
   guidetolerance="10"
   inkscape:pageopacity="0"
   inkscape:pageshadow="2"
   inkscape:window-width="1680"
   inkscape:window-height="997"
   id="namedview1107"
   showgrid="false"
   fit-margin-top="0"
   fit-margin-left="0"
   fit-margin-right="0"
   fit-margin-bottom="0"
   inkscape:zoom="0.8399472"
   inkscape:cx="177.52051"
   inkscape:cy="86.353993"
   inkscape:window-x="1592"
   inkscape:window-y="-8"
   inkscape:window-maximized="1"
   inkscape:current-layer="Ebene_1" />
<g
   id="g1104"
   transform="translate(-417.755,-334.591)">
	<path
   d="m 574.342,475.938 c -0.173,0.52 -0.434,1.129 -0.434,1.391 0,0.521 0.521,0.869 0.956,0.869 h 4.778 c 0.957,0 1.913,-0.957 2.175,-1.74 l 5.735,-17.643 h 25.033 l 5.91,17.643 c 0.261,0.783 1.217,1.74 2.173,1.74 h 4.78 c 0.437,0 0.958,-0.348 0.958,-0.869 0,-0.262 -0.263,-0.871 -0.437,-1.391 l -19.556,-59.453 c -0.608,-1.824 -2.437,-3.041 -4.608,-3.301 -2.433,-0.262 -3.475,0 -3.475,0 -2.088,0.26 -3.911,1.477 -4.521,3.301 z m 35.985,-23.816 h -20.514 l 9.127,-27.553 1.13,-5.475 1.13,5.475 z"
   id="path964"
   inkscape:connector-curvature="0"
   style="fill:#b1c900" />
	<path
   d="m 418.191,475.938 c -0.175,0.52 -0.436,1.129 -0.436,1.391 0,0.521 0.521,0.869 0.956,0.869 h 4.78 c 0.956,0 1.912,-0.957 2.173,-1.74 l 5.736,-17.643 h 25.032 l 5.91,17.643 c 0.262,0.783 1.218,1.74 2.173,1.74 h 4.781 c 0.436,0 0.956,-0.348 0.956,-0.869 0,-0.262 -0.261,-0.871 -0.435,-1.391 L 450.26,416.485 c -0.607,-1.824 -2.435,-3.041 -4.606,-3.301 -2.435,-0.262 -3.477,0 -3.477,0 -2.086,0.26 -3.911,1.477 -4.52,3.301 z m 35.982,-23.816 H 433.66 l 9.126,-27.553 1.13,-5.475 1.13,5.475 z"
   id="path966"
   inkscape:connector-curvature="0"
   style="fill:#b1c900" />
	<path
   d="m 484.226,471.507 c -0.521,0 -0.868,-0.35 -0.868,-0.871 v -56.148 c 0,-0.521 -0.436,-0.869 -0.868,-0.869 h -6.085 c -0.522,0 -0.869,0.436 -0.869,0.869 v 55.889 c 0,4.605 2.781,7.822 7.822,7.822 h 25.118 0.869 c 0.436,0 0.87,-0.348 0.87,-0.869 v -4.955 c 0,-0.436 -0.347,-0.867 -0.87,-0.867 h -25.119 z"
   id="path968"
   inkscape:connector-curvature="0"
   style="fill:#b1c900" />
	<path
   d="m 525.493,471.507 c -0.522,0 -0.869,-0.35 -0.869,-0.871 v -56.148 c 0,-0.521 -0.436,-0.869 -0.869,-0.869 h -6.085 c -0.521,0 -0.868,0.436 -0.868,0.869 v 55.889 c 0,4.605 2.781,7.822 7.822,7.822 h 25.119 0.869 c 0.435,0 0.87,-0.348 0.87,-0.869 v -4.955 c 0,-0.436 -0.349,-0.867 -0.87,-0.867 h -25.119 z"
   id="path970"
   inkscape:connector-curvature="0"
   style="fill:#b1c900" />
	<path
   d="m 566.499,414.487 c 0,-0.434 -0.348,-0.869 -0.871,-0.869 h -6.083 c -0.435,0 -0.869,0.348 -0.869,0.869 v 62.842 c 0,0.521 0.435,0.869 0.869,0.869 h 6.083 c 0.523,0 0.871,-0.436 0.871,-0.869 z"
   id="path972"
   inkscape:connector-curvature="0"
   style="fill:#b1c900" />
	<path
   d="m 669.903,470.202 -0.174,3.824 -1.563,-3.824 -21.382,-53.455 c -0.957,-2.867 -3.824,-3.736 -7.477,-3.736 h -1.303 c -3.909,0 -6.43,3.215 -6.43,6.432 v 57.887 c 0,0.434 0.346,0.869 0.867,0.869 h 6.085 c 0.435,0 0.955,-0.348 0.955,-0.869 v -54.322 l -0.261,-4.521 2.086,4.607 20.513,51.629 c 0.957,2.955 4.085,3.912 7.909,3.912 h 1.391 c 4,0 6.693,-3.305 6.693,-6.695 v -57.451 c 0,-0.521 -0.521,-0.869 -0.956,-0.869 h -6.085 c -0.521,0 -0.869,0.436 -0.869,0.869 v 55.713 z"
   id="path974"
   inkscape:connector-curvature="0"
   style="fill:#b1c900" />
	<path
   d="m 724.733,478.198 c 0.436,0 0.87,-0.348 0.87,-0.869 v -4.955 c 0,-0.436 -0.349,-0.867 -0.87,-0.867 h -23.988 c -3.304,0 -5.477,-2.781 -5.477,-5.477 v -40.244 c 0,-2.693 2.173,-5.475 5.477,-5.475 h 23.988 c 0.436,0 0.87,-0.348 0.87,-0.869 v -4.955 c 0,-0.434 -0.349,-0.869 -0.87,-0.869 h -3.65 -21.033 c -7.996,0 -12.604,6.346 -12.604,12.604 v 39.373 c 0,6.258 4.607,12.604 12.604,12.604 h 16.166 8.517 z"
   id="path976"
   inkscape:connector-curvature="0"
   style="fill:#b1c900" />
	<path
   d="m 771.301,478.198 c 0.434,0 0.869,-0.348 0.869,-0.869 v -4.955 c 0,-0.436 -0.35,-0.867 -0.869,-0.867 h -28.51 c -0.434,0 -0.869,-0.35 -0.869,-0.871 v -22.512 h 23.295 c 0.435,0 0.869,-0.348 0.869,-0.869 v -4.953 c 0,-0.436 -0.348,-0.869 -0.869,-0.869 h -1.391 -21.904 v -20.252 c 0,-0.436 0.348,-0.869 0.869,-0.869 h 28.51 c 0.434,0 0.869,-0.348 0.869,-0.869 v -4.955 c 0,-0.434 -0.35,-0.869 -0.869,-0.869 h -29.379 c -4.952,0 -7.822,3.912 -7.822,7.822 v 48.936 c 0,4.346 3.565,7.822 7.822,7.822 h 29.379 z"
   id="path978"
   inkscape:connector-curvature="0"
   style="fill:#b1c900" />
	<path
   d="m 586.56,385.296 v -9.551 h 7.861 c 1.396,0 2.313,1.176 2.313,2.315 v 4.04 c 0,1.58 -1.248,3.196 -3.195,3.196 z m 7.935,2.829 c 1.689,0 2.792,1.433 2.792,2.791 v 4.151 c 0,1.139 -0.919,2.315 -2.314,2.315 h -8.412 v -9.257 z m 0.771,12.085 c 3.379,0 5.326,-2.681 5.326,-5.326 v -3.968 c 0,-1.616 -1.029,-3.526 -3.048,-4.187 1.542,-0.735 2.497,-2.167 2.497,-4.519 v -3.967 c 0,-2.644 -1.946,-5.326 -5.326,-5.326 h -11.094 c -0.185,0 -0.367,0.147 -0.367,0.367 v 26.559 c 0,0.183 0.147,0.367 0.367,0.367 z"
   id="path980"
   inkscape:connector-curvature="0"
   style="fill:#008ac1" />
	<path
   d="m 609.334,397.382 c -0.734,0 -1.213,-0.625 -1.213,-1.213 v -15.795 c 0,-0.184 -0.146,-0.368 -0.367,-0.368 h -2.572 c -0.182,0 -0.366,0.147 -0.366,0.368 v 15.795 c 0,2.021 1.471,4.041 4.041,4.041 7.86,0 3.415,0 6.575,0 2.571,0 4.042,-2.02 4.042,-4.041 v -15.795 c 0,-0.184 -0.147,-0.368 -0.37,-0.368 h -2.607 c -0.184,0 -0.367,0.147 -0.367,0.368 v 15.795 c 0,0.588 -0.477,1.213 -1.21,1.213 z"
   id="path982"
   inkscape:connector-curvature="0"
   style="fill:#008ac1" />
	<path
   d="m 635.965,382.835 c 0.184,0 0.367,-0.147 0.367,-0.367 v -2.094 c 0,-0.184 -0.146,-0.368 -0.367,-0.368 h -8.337 c -1.874,0 -3.749,1.066 -3.749,3.306 v 2.608 c 0,1.139 0.221,2.756 3.232,4.115 l 5.842,3.196 c 1.029,0.441 1.029,1.285 1.029,1.763 v 1.249 c 0,0.588 -0.479,1.139 -1.176,1.139 h -8.449 c -0.184,0 -0.367,0.147 -0.367,0.367 v 2.094 c 0,0.183 0.146,0.367 0.367,0.367 h 9.074 c 1.322,0 3.783,-0.588 3.783,-3.6 v -2.094 c 0,-1.322 -0.221,-2.571 -3.232,-4.114 l -5.805,-3.232 c -1.066,-0.551 -1.066,-1.25 -1.066,-1.727 v -1.432 c 0,-0.588 0.479,-1.176 1.179,-1.176 z"
   id="path984"
   inkscape:connector-curvature="0"
   style="fill:#008ac1" />
	<path
   d="m 645.261,376.554 c 0.181,0 0.367,-0.147 0.367,-0.368 v -2.902 c 0,-0.184 -0.149,-0.367 -0.367,-0.367 h -2.794 c -0.221,0 -0.367,0.183 -0.367,0.367 v 2.902 c 0,0.221 0.184,0.368 0.367,0.368 z m -3.052,23.289 c 0,0.22 0.184,0.367 0.369,0.367 h 2.57 c 0.221,0 0.367,-0.184 0.367,-0.367 v -19.469 c 0,-0.184 -0.146,-0.368 -0.367,-0.368 h -2.57 c -0.186,0 -0.369,0.147 -0.369,0.368 z"
   id="path986"
   inkscape:connector-curvature="0"
   style="fill:#008ac1" />
	<path
   d="m 661.018,382.835 c 0.735,0 1.211,0.625 1.211,1.212 v 15.796 c 0,0.183 0.149,0.367 0.37,0.367 h 2.57 c 0.184,0 0.368,-0.147 0.368,-0.367 v -15.796 c 0,-2.02 -1.471,-4.041 -4.041,-4.041 -7.86,0 -3.418,0 -6.576,0 -2.571,0 -4.041,2.021 -4.041,4.041 v 15.796 c 0,0.183 0.147,0.367 0.367,0.367 h 2.607 c 0.187,0 0.37,-0.147 0.37,-0.367 v -15.796 c 0,-0.587 0.438,-1.212 1.173,-1.212 z"
   id="path988"
   inkscape:connector-curvature="0"
   style="fill:#008ac1" />
	<path
   d="m 673.618,393.488 c 0,-0.478 0.073,-0.845 0.698,-1.066 l 8.448,-1.91 c 1.947,-0.771 1.947,-2.461 1.947,-3.673 v -3.6 c 0,-2.24 -1.763,-3.233 -3.416,-3.233 h -7.678 c -2.131,0 -3.306,1.36 -3.306,3.306 v 12.674 0.918 c 0,2.241 1.726,3.306 3.416,3.306 h 9.661 c 0.147,0 0.256,-0.147 0.256,-0.257 v -2.315 c 0,-0.146 -0.108,-0.256 -0.256,-0.256 h -8.377 c -0.696,0 -1.395,-0.404 -1.395,-1.249 v -2.645 z m 1.323,-4.151 -1.323,0.588 v -5.988 c 0,-0.698 0.441,-1.102 1.14,-1.102 h 5.767 c 0.551,0 1.139,0.33 1.139,1.028 v 2.499 c 0,0.293 0.037,1.395 -0.771,1.579 z"
   id="path990"
   inkscape:connector-curvature="0"
   style="fill:#008ac1" />
	<path
   d="m 700.836,382.835 c 0.184,0 0.367,-0.147 0.367,-0.367 v -2.094 c 0,-0.184 -0.146,-0.368 -0.367,-0.368 H 692.5 c -1.874,0 -3.749,1.066 -3.749,3.306 v 2.608 c 0,1.139 0.221,2.756 3.232,4.115 l 5.842,3.196 c 1.028,0.441 1.028,1.285 1.028,1.763 v 1.249 c 0,0.588 -0.478,1.139 -1.175,1.139 h -8.449 c -0.184,0 -0.367,0.147 -0.367,0.367 v 2.094 c 0,0.183 0.146,0.367 0.367,0.367 h 9.072 c 1.324,0 3.785,-0.588 3.785,-3.6 v -2.094 c 0,-1.322 -0.221,-2.571 -3.233,-4.114 l -5.804,-3.232 c -1.066,-0.551 -1.066,-1.25 -1.066,-1.727 v -1.432 c 0,-0.588 0.479,-1.176 1.179,-1.176 z"
   id="path992"
   inkscape:connector-curvature="0"
   style="fill:#008ac1" />
	<path
   d="m 718.211,382.835 c 0.184,0 0.367,-0.147 0.367,-0.367 v -2.094 c 0,-0.184 -0.146,-0.368 -0.367,-0.368 h -8.337 c -1.874,0 -3.749,1.066 -3.749,3.306 v 2.608 c 0,1.139 0.221,2.756 3.232,4.115 l 5.842,3.196 c 1.028,0.441 1.028,1.285 1.028,1.763 v 1.249 c 0,0.588 -0.478,1.139 -1.175,1.139 h -8.449 c -0.184,0 -0.367,0.147 -0.367,0.367 v 2.094 c 0,0.183 0.146,0.367 0.367,0.367 h 9.072 c 1.323,0 3.785,-0.588 3.785,-3.6 v -2.094 c 0,-1.322 -0.221,-2.571 -3.233,-4.114 l -5.804,-3.232 c -1.066,-0.551 -1.066,-1.25 -1.066,-1.727 v -1.432 c 0,-0.588 0.479,-1.176 1.176,-1.176 z"
   id="path994"
   inkscape:connector-curvature="0"
   style="fill:#008ac1" />
	<path
   d="m 595.472,361.884 c 3.381,0 5.327,-2.681 5.327,-5.326 v -16.641 c 0,-2.644 -1.946,-5.326 -5.327,-5.326 h -7.235 c -3.38,0 -5.327,2.682 -5.327,5.326 v 16.641 c 0,2.645 1.947,5.326 5.327,5.326 z m -6.941,-2.828 c -1.396,0 -2.315,-1.175 -2.315,-2.314 v -17.008 c 0,-1.139 0.919,-2.314 2.315,-2.314 h 6.648 c 1.395,0 2.312,1.175 2.312,2.314 v 17.008 c 0,1.139 -0.918,2.314 -2.312,2.314 z"
   id="path996"
   inkscape:connector-curvature="0"
   style="fill:#008ac1" />
	<path
   d="m 605.758,368.717 c 0,0.22 0.184,0.367 0.367,0.367 h 2.57 c 0.221,0 0.367,-0.184 0.367,-0.367 v -6.833 c 0.589,0 1.323,0 7.569,0 2.497,0 3.967,-1.983 3.967,-3.967 v -12.195 c 0,-2.241 -1.837,-4.041 -4.042,-4.041 h -6.832 c -2.572,0 -3.967,1.616 -3.967,3.967 v 23.069 z m 3.342,-23.069 c 0,-0.587 0.441,-1.139 1.139,-1.139 h 5.842 c 0.589,0 1.211,0.478 1.211,1.213 v 12.159 c 0,0.587 -0.479,1.175 -1.174,1.175 H 609.1 Z"
   id="path998"
   inkscape:connector-curvature="0"
   style="fill:#008ac1" />
	<path
   d="m 628.128,355.162 c 0,-0.477 0.073,-0.844 0.698,-1.065 l 8.447,-1.911 c 1.947,-0.771 1.947,-2.46 1.947,-3.673 v -3.6 c 0,-2.24 -1.762,-3.232 -3.416,-3.232 h -7.677 c -2.129,0 -3.308,1.359 -3.308,3.306 v 12.673 0.919 c 0,2.24 1.729,3.305 3.418,3.305 h 9.66 c 0.148,0 0.256,-0.146 0.256,-0.257 v -2.314 c 0,-0.147 -0.107,-0.257 -0.256,-0.257 h -8.375 c -0.697,0 -1.396,-0.404 -1.396,-1.249 v -2.645 z m 1.324,-4.151 -1.323,0.588 v -5.987 c 0,-0.699 0.441,-1.103 1.138,-1.103 h 5.768 c 0.551,0 1.139,0.331 1.139,1.029 v 2.498 c 0,0.294 0.037,1.396 -0.771,1.579 z"
   id="path1000"
   inkscape:connector-curvature="0"
   style="fill:#008ac1" />
	<path
   d="m 653.768,344.509 c 0.735,0 1.211,0.625 1.211,1.213 v 15.795 c 0,0.184 0.149,0.367 0.37,0.367 h 2.57 c 0.184,0 0.368,-0.146 0.368,-0.367 v -15.795 c 0,-2.021 -1.471,-4.041 -4.041,-4.041 -7.86,0 -3.416,0 -6.576,0 -2.571,0 -4.041,2.02 -4.041,4.041 v 15.795 c 0,0.184 0.147,0.367 0.367,0.367 h 2.607 c 0.187,0 0.37,-0.146 0.37,-0.367 v -15.795 c 0,-0.588 0.438,-1.213 1.173,-1.213 z"
   id="path1002"
   inkscape:connector-curvature="0"
   style="fill:#008ac1" />
	<path
   d="m 681.283,361.884 c 2.239,0 4.592,-1.359 4.592,-4.371 v -3.453 c 0,-1.653 0,-3.931 -2.646,-4.996 l -9.845,-3.93 c -1.026,-0.404 -0.918,-1.983 -0.918,-2.461 v -3.563 c 0,-1.139 0.955,-1.69 1.91,-1.69 h 10.507 c 0.184,0 0.367,-0.147 0.367,-0.367 v -2.094 c 0,-0.184 -0.146,-0.368 -0.367,-0.368 h -10.985 c -2.239,0 -4.59,1.433 -4.59,4.445 v 3.82 c 0,1.653 0.035,4.042 2.976,5.107 l 9.513,3.893 c 0.992,0.404 0.92,1.984 0.92,2.462 v 3.048 c 0,1.139 -0.957,1.69 -1.912,1.69 h -10.836 c -0.184,0 -0.367,0.147 -0.367,0.367 v 2.094 c 0,0.184 0.149,0.367 0.367,0.367 z"
   id="path1004"
   inkscape:connector-curvature="0"
   style="fill:#008ac1" />
	<path
   d="m 704.643,345.722 c 0,-2.094 -2.094,-4.041 -4.04,-4.041 h -6.684 c -2.169,0 -4.004,1.763 -4.004,4.004 v 12.232 c 0,1.984 1.284,3.967 3.967,3.967 h 6.942 c 2.533,0 3.818,-1.983 3.818,-3.967 v -12.195 z m -3.305,12.159 c 0,0.587 -0.478,1.175 -1.176,1.175 h -5.73 c -0.699,0 -1.175,-0.588 -1.175,-1.175 v -12.159 c 0,-0.735 0.588,-1.213 1.21,-1.213 h 5.695 c 0.698,0 1.176,0.588 1.176,1.176 z"
   id="path1006"
   inkscape:connector-curvature="0"
   style="fill:#008ac1" />
	<path
   d="m 713.937,359.056 c -0.733,0 -1.212,-0.624 -1.212,-1.212 v -15.795 c 0,-0.184 -0.146,-0.368 -0.367,-0.368 h -2.571 c -0.184,0 -0.367,0.147 -0.367,0.368 v 15.795 c 0,2.02 1.468,4.04 4.04,4.04 7.861,0 3.416,0 6.577,0 2.569,0 4.04,-2.02 4.04,-4.04 v -15.795 c 0,-0.184 -0.148,-0.368 -0.369,-0.368 H 721.1 c -0.184,0 -0.367,0.147 -0.367,0.368 v 15.795 c 0,0.588 -0.479,1.212 -1.213,1.212 z"
   id="path1008"
   inkscape:connector-curvature="0"
   style="fill:#008ac1" />
	<path
   d="m 738.034,344.693 c 0.184,0 0.368,-0.147 0.368,-0.367 v -2.277 c 0,-0.184 -0.147,-0.368 -0.368,-0.368 h -5.143 c -2.571,0 -4.041,2.02 -4.041,4.041 l 0.037,15.795 c 0,0.184 0.149,0.367 0.367,0.367 h 2.607 c 0.184,0 0.367,-0.146 0.367,-0.367 l 0.037,-15.942 c 0,-0.662 0.625,-0.882 0.809,-0.882 z"
   id="path1010"
   inkscape:connector-curvature="0"
   style="fill:#008ac1" />
	<path
   d="m 752.838,361.884 c 0.182,0 0.367,-0.146 0.367,-0.367 v -2.094 c 0,-0.184 -0.148,-0.367 -0.367,-0.367 h -7.677 c -0.588,0 -1.14,-0.441 -1.14,-1.139 v -12.232 c 0,-0.588 0.478,-1.176 1.174,-1.176 h 7.643 c 0.182,0 0.367,-0.147 0.367,-0.367 v -2.093 c 0,-0.184 -0.148,-0.368 -0.367,-0.368 h -0.588 -7.53 c -2.536,0 -4.005,2.02 -4.005,4.004 v 12.196 c 0,2.24 1.838,4.003 4.005,4.003 h 5.472 z"
   id="path1012"
   inkscape:connector-curvature="0"
   style="fill:#008ac1" />
	<path
   d="m 760.184,355.162 c 0,-0.477 0.074,-0.844 0.698,-1.065 l 8.448,-1.911 c 1.947,-0.771 1.947,-2.46 1.947,-3.673 v -3.6 c 0,-2.24 -1.764,-3.232 -3.417,-3.232 h -7.677 c -2.131,0 -3.306,1.359 -3.306,3.306 v 12.673 0.919 c 0,2.24 1.726,3.305 3.417,3.305 h 9.66 c 0.147,0 0.256,-0.146 0.256,-0.257 v -2.314 c 0,-0.147 -0.108,-0.257 -0.256,-0.257 h -8.375 c -0.698,0 -1.396,-0.404 -1.396,-1.249 v -2.645 z m 1.323,-4.151 -1.323,0.588 v -5.987 c 0,-0.699 0.441,-1.103 1.14,-1.103 h 5.767 c 0.551,0 1.139,0.331 1.139,1.029 v 2.498 c 0,0.294 0.037,1.396 -0.771,1.579 z"
   id="path1014"
   inkscape:connector-curvature="0"
   style="fill:#008ac1" />
	<g
   id="g1096">
		<path
   d="m 417.938,503.717 c -0.109,0 -0.183,-0.092 -0.183,-0.183 v -13.213 c 0,-0.11 0.092,-0.184 0.183,-0.184 h 5.52 c 1.681,0 2.649,1.335 2.649,2.65 v 1.975 c 0,1.169 -0.476,1.881 -1.242,2.247 1.005,0.329 1.517,1.279 1.517,2.083 v 1.974 c 0,1.316 -0.969,2.65 -2.65,2.65 h -5.794 z m 4.935,-7.42 c 0.969,0 1.59,-0.804 1.59,-1.59 v -2.01 c 0,-0.566 -0.457,-1.151 -1.151,-1.151 H 419.4 v 4.751 z m -3.473,1.407 v 4.605 h 4.185 c 0.695,0 1.151,-0.585 1.151,-1.151 v -2.065 c 0,-0.676 -0.548,-1.389 -1.389,-1.389 z"
   id="path1016"
   inkscape:connector-curvature="0"
   style="fill:#008ac1" />
		<path
   d="m 433.603,502.31 c 0.366,0 0.604,-0.311 0.604,-0.604 v -7.857 c 0,-0.11 0.091,-0.184 0.183,-0.184 h 1.297 c 0.109,0 0.183,0.092 0.183,0.184 v 7.857 c 0,1.005 -0.73,2.011 -2.01,2.011 -1.571,0 0.64,0 -3.271,0 -1.278,0 -2.01,-1.006 -2.01,-2.011 v -7.857 c 0,-0.11 0.092,-0.184 0.183,-0.184 h 1.279 c 0.109,0 0.184,0.092 0.184,0.184 v 7.857 c 0,0.293 0.237,0.604 0.602,0.604 z"
   id="path1018"
   inkscape:connector-curvature="0"
   style="fill:#008ac1" />
		<path
   d="m 440.587,495.073 c -0.365,0 -0.585,0.31 -0.585,0.603 v 7.858 c 0,0.109 -0.091,0.183 -0.183,0.183 h -1.297 c -0.11,0 -0.184,-0.092 -0.184,-0.183 v -7.858 c 0,-1.005 0.731,-2.011 2.01,-2.011 1.572,0 -0.64,0 3.271,0 1.279,0 2.01,1.006 2.01,2.011 v 7.858 c 0,0.109 -0.091,0.183 -0.183,0.183 h -1.279 c -0.108,0 -0.183,-0.092 -0.183,-0.183 v -7.858 c 0,-0.293 -0.237,-0.603 -0.603,-0.603 z"
   id="path1020"
   inkscape:connector-curvature="0"
   style="fill:#008ac1" />
		<path
   d="m 455.21,501.743 c 0,1.169 -0.695,1.974 -1.974,1.974 h -3.399 c -1.097,0 -2.011,-0.896 -2.011,-2.011 v -6.066 c 0,-0.987 0.731,-1.975 1.974,-1.975 h 3.765 v -3.344 c 0,-0.092 0.073,-0.184 0.184,-0.184 h 1.278 c 0.092,0 0.184,0.074 0.184,0.184 v 11.422 z m -5.154,-6.67 c -0.347,0 -0.585,0.292 -0.585,0.585 v 6.048 c 0,0.366 0.311,0.604 0.604,0.604 h 2.905 c 0.348,0 0.567,-0.274 0.567,-0.566 v -6.67 h -0.184 -3.307 z"
   id="path1022"
   inkscape:connector-curvature="0"
   style="fill:#008ac1" />
		<path
   d="m 459.325,501.688 c 0,0.42 0.348,0.622 0.694,0.622 h 4.166 c 0.073,0 0.129,0.055 0.129,0.127 v 1.151 c 0,0.055 -0.056,0.129 -0.129,0.129 h -4.806 c -0.84,0 -1.699,-0.53 -1.699,-1.645 v -0.458 -6.304 c 0,-0.969 0.585,-1.646 1.645,-1.646 h 3.819 c 0.822,0 1.699,0.494 1.699,1.608 v 1.791 c 0,0.604 0,1.444 -0.969,1.827 l -4.202,0.95 c -0.311,0.11 -0.348,0.293 -0.348,0.53 v 1.318 z m 3.619,-4.075 c 0.401,-0.092 0.383,-0.641 0.383,-0.786 v -1.243 c 0,-0.347 -0.292,-0.511 -0.566,-0.511 h -2.869 c -0.348,0 -0.566,0.2 -0.566,0.548 v 2.979 l 0.658,-0.293 z"
   id="path1024"
   inkscape:connector-curvature="0"
   style="fill:#008ac1" />
		<path
   d="m 469.141,495.073 c -0.347,0 -0.584,0.292 -0.584,0.585 v 0.712 c 0,0.237 0,0.585 0.529,0.858 l 2.888,1.609 c 1.498,0.767 1.608,1.388 1.608,2.046 v 1.042 c 0,1.498 -1.225,1.791 -1.883,1.791 h -4.514 c -0.109,0 -0.183,-0.092 -0.183,-0.183 v -1.042 c 0,-0.109 0.092,-0.183 0.183,-0.183 h 4.203 c 0.348,0 0.585,-0.274 0.585,-0.566 v -0.622 c 0,-0.237 0,-0.657 -0.512,-0.877 l -2.905,-1.59 c -1.499,-0.676 -1.609,-1.48 -1.609,-2.047 v -1.297 c 0,-1.114 0.933,-1.646 1.864,-1.646 h 4.149 c 0.108,0 0.182,0.092 0.182,0.184 v 1.041 c 0,0.11 -0.092,0.184 -0.182,0.184 h -3.819 z"
   id="path1026"
   inkscape:connector-curvature="0"
   style="fill:#008ac1" />
		<path
   d="m 481.004,503.168 c -0.164,0.512 -0.695,0.677 -1.353,0.677 -0.658,0 -1.188,-0.165 -1.353,-0.677 l -3.052,-9.265 c -0.055,-0.165 0.037,-0.238 0.238,-0.238 h 1.041 c 0.273,0 0.494,0.22 0.549,0.439 l 2.411,7.675 0.221,0.896 0.182,-0.896 2.34,-7.675 c 0.055,-0.22 0.273,-0.439 0.548,-0.439 h 1.041 c 0.202,0 0.293,0.073 0.238,0.238 z"
   id="path1028"
   inkscape:connector-curvature="0"
   style="fill:#008ac1" />
		<path
   d="m 487.367,501.688 c 0,0.42 0.347,0.622 0.694,0.622 h 4.167 c 0.073,0 0.127,0.055 0.127,0.127 v 1.151 c 0,0.055 -0.054,0.129 -0.127,0.129 h -4.807 c -0.841,0 -1.699,-0.53 -1.699,-1.645 v -0.458 -6.304 c 0,-0.969 0.585,-1.646 1.645,-1.646 h 3.819 c 0.822,0 1.7,0.494 1.7,1.608 v 1.791 c 0,0.604 0,1.444 -0.969,1.827 l -4.204,0.95 c -0.311,0.11 -0.347,0.293 -0.347,0.53 v 1.318 z m 3.618,-4.075 c 0.402,-0.092 0.384,-0.641 0.384,-0.786 v -1.243 c 0,-0.347 -0.292,-0.511 -0.566,-0.511 h -2.869 c -0.347,0 -0.566,0.2 -0.566,0.548 v 2.979 l 0.657,-0.293 z"
   id="path1030"
   inkscape:connector-curvature="0"
   style="fill:#008ac1" />
		<path
   d="m 497.275,495.164 c -0.092,0 -0.402,0.109 -0.402,0.438 l -0.019,7.932 c 0,0.109 -0.091,0.183 -0.183,0.183 h -1.298 c -0.109,0 -0.183,-0.092 -0.183,-0.183 l -0.018,-7.858 c 0,-1.005 0.73,-2.011 2.01,-2.011 h 2.559 c 0.109,0 0.183,0.092 0.183,0.184 v 1.133 c 0,0.11 -0.092,0.183 -0.183,0.183 h -2.466 z"
   id="path1032"
   inkscape:connector-curvature="0"
   style="fill:#008ac1" />
		<path
   d="m 501.461,490.321 c 0,-0.11 0.092,-0.184 0.184,-0.184 h 1.278 c 0.11,0 0.184,0.092 0.184,0.184 v 3.344 c 0.292,0 0.657,0 3.765,0 1.242,0 1.973,0.987 1.973,1.975 v 6.066 c 0,1.115 -0.913,2.011 -2.01,2.011 h -3.399 c -1.278,0 -1.974,-0.805 -1.974,-1.974 v -11.422 z m 1.664,11.422 c 0,0.292 0.22,0.566 0.567,0.566 h 2.905 c 0.292,0 0.604,-0.237 0.604,-0.604 v -6.048 c 0,-0.293 -0.238,-0.585 -0.585,-0.585 h -3.491 z"
   id="path1034"
   inkscape:connector-curvature="0"
   style="fill:#008ac1" />
		<path
   d="m 516.194,495.693 c 0,-0.42 -0.347,-0.62 -0.694,-0.62 h -3.91 c -0.073,0 -0.128,-0.056 -0.128,-0.129 v -1.151 c 0,-0.055 0.055,-0.128 0.128,-0.128 h 4.55 c 0.841,0 1.699,0.531 1.699,1.646 v 0.456 6.306 c 0,0.968 -0.585,1.645 -1.645,1.645 h -3.637 c -0.822,0 -1.699,-0.493 -1.699,-1.608 v -1.846 c 0,-0.604 0,-1.443 0.969,-1.828 l 4.021,-1.077 c 0.311,-0.129 0.347,-0.256 0.347,-0.494 v -1.172 z m -3.436,3.911 c -0.384,0.165 -0.384,0.64 -0.384,0.785 v 1.408 c 0,0.347 0.293,0.512 0.566,0.512 h 2.687 c 0.348,0 0.566,-0.201 0.566,-0.548 v -3.145 l -0.529,0.274 z"
   id="path1036"
   inkscape:connector-curvature="0"
   style="fill:#008ac1" />
		<path
   d="m 522.556,495.073 c -0.365,0 -0.585,0.31 -0.585,0.603 v 7.858 c 0,0.109 -0.091,0.183 -0.182,0.183 h -1.298 c -0.109,0 -0.183,-0.092 -0.183,-0.183 v -7.858 c 0,-1.005 0.731,-2.011 2.01,-2.011 1.571,0 -0.64,0 3.271,0 1.279,0 2.01,1.006 2.01,2.011 v 7.858 c 0,0.109 -0.091,0.183 -0.183,0.183 h -1.279 c -0.109,0 -0.183,-0.092 -0.183,-0.183 v -7.858 c 0,-0.293 -0.237,-0.603 -0.603,-0.603 z"
   id="path1038"
   inkscape:connector-curvature="0"
   style="fill:#008ac1" />
		<path
   d="m 537.179,501.743 c 0,1.169 -0.694,1.974 -1.974,1.974 h -3.398 c -1.097,0 -2.011,-0.896 -2.011,-2.011 v -6.066 c 0,-0.987 0.731,-1.975 1.974,-1.975 h 3.765 v -3.344 c 0,-0.092 0.073,-0.184 0.183,-0.184 h 1.279 c 0.092,0 0.183,0.074 0.183,0.184 v 11.422 z m -5.153,-6.67 c -0.347,0 -0.585,0.292 -0.585,0.585 v 6.048 c 0,0.366 0.311,0.604 0.604,0.604 h 2.905 c 0.348,0 0.567,-0.274 0.567,-0.566 v -6.67 h -0.184 -3.307 z"
   id="path1040"
   inkscape:connector-curvature="0"
   style="fill:#008ac1" />
		<path
   d="m 550.542,495.511 c 0.11,0 0.184,0.092 0.184,0.183 v 1.042 c 0,0.11 -0.092,0.183 -0.184,0.183 h -2.924 v 6.616 c 0,0.109 -0.091,0.183 -0.182,0.183 h -1.298 c -0.11,0 -0.183,-0.092 -0.183,-0.183 v -11.403 c 0,-0.987 0.73,-1.993 1.991,-1.993 h 3.327 c 0.109,0 0.182,0.092 0.182,0.184 v 1.041 c 0,0.11 -0.091,0.184 -0.182,0.184 h -3.071 c -0.347,0 -0.585,0.292 -0.585,0.585 v 3.38 h 2.925 z"
   id="path1042"
   inkscape:connector-curvature="0"
   style="fill:#008ac1" />
		<path
   d="m 557.929,502.31 c 0.365,0 0.603,-0.311 0.603,-0.604 v -7.857 c 0,-0.11 0.092,-0.184 0.183,-0.184 h 1.297 c 0.11,0 0.184,0.092 0.184,0.184 v 7.857 c 0,1.005 -0.731,2.011 -2.01,2.011 -1.572,0 0.639,0 -3.271,0 -1.279,0 -2.01,-1.006 -2.01,-2.011 v -7.857 c 0,-0.11 0.091,-0.184 0.183,-0.184 h 1.279 c 0.109,0 0.183,0.092 0.183,0.184 v 7.857 c 0,0.293 0.237,0.604 0.603,0.604 z m -3.491,-10.363 c -0.091,0 -0.183,-0.073 -0.183,-0.183 v -1.443 c 0,-0.092 0.073,-0.184 0.183,-0.184 h 1.279 c 0.11,0 0.183,0.092 0.183,0.184 v 1.443 c 0,0.109 -0.091,0.183 -0.183,0.183 z m 2.961,0 c -0.092,0 -0.183,-0.073 -0.183,-0.183 v -1.443 c 0,-0.092 0.183,-0.184 0.183,-0.184 h 1.279 c 0.109,0 0.183,0.092 0.183,0.184 v 1.443 c 0,0.109 -0.092,0.183 -0.183,0.183 z"
   id="path1044"
   inkscape:connector-curvature="0"
   style="fill:#008ac1" />
		<path
   d="m 564.767,495.164 c -0.092,0 -0.402,0.109 -0.402,0.438 l -0.019,7.932 c 0,0.109 -0.092,0.183 -0.183,0.183 h -1.298 c -0.109,0 -0.183,-0.092 -0.183,-0.183 l -0.018,-7.858 c 0,-1.005 0.73,-2.011 2.01,-2.011 h 2.559 c 0.109,0 0.182,0.092 0.182,0.184 v 1.133 c 0,0.11 -0.091,0.183 -0.182,0.183 h -2.466 z"
   id="path1046"
   inkscape:connector-curvature="0"
   style="fill:#008ac1" />
		<path
   d="m 581.961,501.743 c 0,1.169 -0.694,1.974 -1.974,1.974 h -3.398 c -1.097,0 -2.011,-0.896 -2.011,-2.011 v -6.066 c 0,-0.987 0.73,-1.975 1.974,-1.975 h 3.765 v -3.344 c 0,-0.092 0.073,-0.184 0.183,-0.184 h 1.279 c 0.092,0 0.183,0.074 0.183,0.184 v 11.422 z m -5.153,-6.67 c -0.348,0 -0.585,0.292 -0.585,0.585 v 6.048 c 0,0.366 0.311,0.604 0.604,0.604 h 2.905 c 0.348,0 0.566,-0.274 0.566,-0.566 v -6.67 h -0.183 -3.307 z"
   id="path1048"
   inkscape:connector-curvature="0"
   style="fill:#008ac1" />
		<path
   d="m 584.852,491.947 c -0.091,0 -0.183,-0.073 -0.183,-0.183 v -1.443 c 0,-0.092 0.073,-0.184 0.183,-0.184 h 1.39 c 0.109,0 0.183,0.092 0.183,0.184 v 1.443 c 0,0.109 -0.092,0.183 -0.183,0.183 z m -0.127,1.902 c 0,-0.11 0.091,-0.184 0.182,-0.184 h 1.28 c 0.108,0 0.182,0.092 0.182,0.184 v 9.686 c 0,0.091 -0.073,0.183 -0.182,0.183 h -1.28 c -0.091,0 -0.182,-0.074 -0.182,-0.183 z"
   id="path1050"
   inkscape:connector-curvature="0"
   style="fill:#008ac1" />
		<path
   d="m 596.219,505.215 c 0,1.225 -0.747,2.084 -2.082,2.084 h -4.148 c -0.072,0 -0.127,-0.056 -0.127,-0.129 v -1.151 c 0,-0.055 0.055,-0.127 0.127,-0.127 h 3.894 c 0.329,0 0.675,-0.274 0.675,-0.677 v -1.498 h -3.454 c -1.241,0 -1.973,-0.987 -1.973,-1.974 v -6.067 c 0,-1.115 0.913,-2.011 2.01,-2.011 h 3.088 c 1.263,0 1.991,1.006 1.991,1.993 v 9.557 z m -1.662,-9.539 c 0,-0.365 -0.311,-0.603 -0.603,-0.603 h -2.576 c -0.293,0 -0.604,0.237 -0.604,0.603 v 6.049 c 0,0.292 0.237,0.585 0.585,0.585 h 3.197 v -6.634 z"
   id="path1052"
   inkscape:connector-curvature="0"
   style="fill:#008ac1" />
		<path
   d="m 599.11,491.947 c -0.09,0 -0.182,-0.073 -0.182,-0.183 v -1.443 c 0,-0.092 0.072,-0.184 0.182,-0.184 h 1.391 c 0.107,0 0.182,0.092 0.182,0.184 v 1.443 c 0,0.109 -0.092,0.183 -0.182,0.183 z m -0.127,1.902 c 0,-0.11 0.092,-0.184 0.182,-0.184 h 1.279 c 0.111,0 0.184,0.092 0.184,0.184 v 9.686 c 0,0.091 -0.072,0.183 -0.184,0.183 h -1.279 c -0.09,0 -0.182,-0.074 -0.182,-0.183 z"
   id="path1054"
   inkscape:connector-curvature="0"
   style="fill:#008ac1" />
		<path
   d="m 605.051,494.944 v 6.762 c 0,0.311 0.236,0.604 0.604,0.604 h 1.699 0.184 c 0.109,0 0.182,0.091 0.182,0.183 v 1.042 c 0,0.109 -0.092,0.183 -0.182,0.183 h -2.176 c -0.949,0 -1.973,-0.749 -1.973,-1.974 v -10.929 c 0,-0.11 0.055,-0.219 0.182,-0.256 l 1.299,-0.402 c 0.145,-0.054 0.182,0.092 0.182,0.184 v 3.198 h 2.266 c 0.109,0 0.184,0.09 0.184,0.182 v 1.043 c 0,0.108 -0.092,0.182 -0.184,0.182 h -2.267 z"
   id="path1056"
   inkscape:connector-curvature="0"
   style="fill:#008ac1" />
		<path
   d="m 615.104,495.693 c 0,-0.42 -0.348,-0.62 -0.695,-0.62 h -3.91 c -0.072,0 -0.129,-0.056 -0.129,-0.129 v -1.151 c 0,-0.055 0.057,-0.128 0.129,-0.128 h 4.551 c 0.84,0 1.699,0.531 1.699,1.646 v 0.456 6.306 c 0,0.968 -0.584,1.645 -1.645,1.645 h -3.637 c -0.82,0 -1.699,-0.493 -1.699,-1.608 v -1.846 c 0,-0.604 0,-1.443 0.969,-1.828 l 4.02,-1.077 c 0.311,-0.129 0.348,-0.256 0.348,-0.494 v -1.172 z m -3.436,3.911 c -0.383,0.165 -0.383,0.64 -0.383,0.785 v 1.408 c 0,0.347 0.291,0.512 0.564,0.512 h 2.688 c 0.348,0 0.566,-0.201 0.566,-0.548 v -3.145 l -0.531,0.274 z"
   id="path1058"
   inkscape:connector-curvature="0"
   style="fill:#008ac1" />
		<path
   d="m 622.491,502.31 c 0.109,0 0.184,0.091 0.184,0.183 v 1.042 c 0,0.109 -0.094,0.183 -0.184,0.183 h -0.184 -1.352 c -1.059,0 -1.645,-0.677 -1.645,-1.645 v -11.751 c 0,-0.092 0.072,-0.184 0.182,-0.184 h 1.279 c 0.092,0 0.184,0.074 0.184,0.184 v 11.805 c 0,0.11 0.074,0.184 0.182,0.184 h 1.354 z"
   id="path1060"
   inkscape:connector-curvature="0"
   style="fill:#008ac1" />
		<path
   d="m 626.182,501.688 c 0,0.42 0.348,0.622 0.695,0.622 h 4.166 c 0.074,0 0.127,0.055 0.127,0.127 v 1.151 c 0,0.055 -0.053,0.129 -0.127,0.129 h -4.805 c -0.842,0 -1.701,-0.53 -1.701,-1.645 v -0.458 -6.304 c 0,-0.969 0.586,-1.646 1.645,-1.646 h 3.82 c 0.822,0 1.699,0.494 1.699,1.608 v 1.791 c 0,0.604 0,1.444 -0.969,1.827 l -4.203,0.95 c -0.311,0.11 -0.348,0.293 -0.348,0.53 v 1.318 z m 3.619,-4.075 c 0.402,-0.092 0.385,-0.641 0.385,-0.786 v -1.243 c 0,-0.347 -0.293,-0.511 -0.566,-0.511 h -2.869 c -0.348,0 -0.568,0.2 -0.568,0.548 v 2.979 l 0.658,-0.293 z"
   id="path1062"
   inkscape:connector-curvature="0"
   style="fill:#008ac1" />
		<path
   d="m 640.12,503.717 c -0.109,0 -0.182,-0.092 -0.182,-0.183 v -1.042 c 0,-0.109 0.09,-0.183 0.182,-0.183 h 5.391 c 0.477,0 0.951,-0.274 0.951,-0.841 v -1.517 c 0,-0.237 0.035,-1.024 -0.457,-1.225 l -4.734,-1.937 c -1.461,-0.53 -1.479,-1.718 -1.479,-2.541 v -1.9 c 0,-1.498 1.168,-2.212 2.283,-2.212 h 5.465 c 0.109,0 0.184,0.092 0.184,0.184 v 1.041 c 0,0.11 -0.094,0.184 -0.184,0.184 h -5.227 c -0.475,0 -0.949,0.274 -0.949,0.841 v 1.772 c 0,0.237 -0.057,1.022 0.455,1.224 l 4.898,1.956 c 1.316,0.529 1.316,1.663 1.316,2.484 v 1.718 c 0,1.499 -1.17,2.176 -2.285,2.176 h -5.628 z"
   id="path1064"
   inkscape:connector-curvature="0"
   style="fill:#008ac1" />
		<path
   d="m 657.465,501.743 c 0,0.986 -0.639,1.974 -1.9,1.974 h -3.453 c -1.334,0 -1.975,-0.987 -1.975,-1.974 v -6.085 c 0,-1.116 0.914,-1.993 1.992,-1.993 h 3.326 c 0.967,0 2.01,0.969 2.01,2.011 z m -1.644,-6.085 c 0,-0.293 -0.238,-0.585 -0.586,-0.585 h -2.832 c -0.311,0 -0.602,0.237 -0.602,0.603 v 6.049 c 0,0.292 0.236,0.585 0.584,0.585 h 2.85 c 0.348,0 0.586,-0.293 0.586,-0.585 z"
   id="path1066"
   inkscape:connector-curvature="0"
   style="fill:#008ac1" />
		<path
   d="m 664.961,502.31 c 0.365,0 0.604,-0.311 0.604,-0.604 v -7.857 c 0,-0.11 0.09,-0.184 0.182,-0.184 h 1.299 c 0.107,0 0.182,0.092 0.182,0.184 v 7.857 c 0,1.005 -0.73,2.011 -2.01,2.011 -1.572,0 0.639,0 -3.271,0 -1.279,0 -2.01,-1.006 -2.01,-2.011 v -7.857 c 0,-0.11 0.092,-0.184 0.182,-0.184 h 1.281 c 0.109,0 0.182,0.092 0.182,0.184 v 7.857 c 0,0.293 0.238,0.604 0.604,0.604 z"
   id="path1068"
   inkscape:connector-curvature="0"
   style="fill:#008ac1" />
		<path
   d="m 674.833,503.168 c -0.164,0.512 -0.693,0.677 -1.352,0.677 -0.659,0 -1.188,-0.165 -1.352,-0.677 l -3.053,-9.265 c -0.055,-0.165 0.035,-0.238 0.236,-0.238 h 1.043 c 0.273,0 0.492,0.22 0.547,0.439 l 2.414,7.675 0.219,0.896 0.182,-0.896 2.34,-7.675 c 0.055,-0.22 0.273,-0.439 0.547,-0.439 h 1.043 c 0.201,0 0.293,0.073 0.238,0.238 z"
   id="path1070"
   inkscape:connector-curvature="0"
   style="fill:#008ac1" />
		<path
   d="m 681.196,501.688 c 0,0.42 0.348,0.622 0.695,0.622 h 4.166 c 0.072,0 0.127,0.055 0.127,0.127 v 1.151 c 0,0.055 -0.055,0.129 -0.127,0.129 h -4.807 c -0.84,0 -1.699,-0.53 -1.699,-1.645 v -0.458 -6.304 c 0,-0.969 0.584,-1.646 1.645,-1.646 h 3.818 c 0.822,0 1.699,0.494 1.699,1.608 v 1.791 c 0,0.604 0,1.444 -0.967,1.827 l -4.203,0.95 c -0.311,0.11 -0.348,0.293 -0.348,0.53 v 1.318 z m 3.619,-4.075 c 0.402,-0.092 0.383,-0.641 0.383,-0.786 v -1.243 c 0,-0.347 -0.293,-0.511 -0.566,-0.511 h -2.869 c -0.346,0 -0.566,0.2 -0.566,0.548 v 2.979 l 0.658,-0.293 z"
   id="path1072"
   inkscape:connector-curvature="0"
   style="fill:#008ac1" />
		<path
   d="m 691.102,495.164 c -0.09,0 -0.402,0.109 -0.402,0.438 l -0.018,7.932 c 0,0.109 -0.092,0.183 -0.182,0.183 h -1.299 c -0.109,0 -0.182,-0.092 -0.182,-0.183 l -0.02,-7.858 c 0,-1.005 0.73,-2.011 2.012,-2.011 h 2.557 c 0.111,0 0.184,0.092 0.184,0.184 v 1.133 c 0,0.11 -0.092,0.183 -0.184,0.183 h -2.466 z"
   id="path1074"
   inkscape:connector-curvature="0"
   style="fill:#008ac1" />
		<path
   d="m 700.735,495.693 c 0,-0.42 -0.346,-0.62 -0.693,-0.62 h -3.91 c -0.074,0 -0.129,-0.056 -0.129,-0.129 v -1.151 c 0,-0.055 0.055,-0.128 0.129,-0.128 h 4.549 c 0.842,0 1.701,0.531 1.701,1.646 v 0.456 6.306 c 0,0.968 -0.586,1.645 -1.646,1.645 H 697.1 c -0.822,0 -1.699,-0.493 -1.699,-1.608 v -1.846 c 0,-0.604 0,-1.443 0.967,-1.828 l 4.021,-1.077 c 0.309,-0.129 0.346,-0.256 0.346,-0.494 z m -3.838,-3.746 c -0.09,0 -0.182,-0.073 -0.182,-0.183 v -1.443 c 0,-0.092 0.072,-0.184 0.182,-0.184 h 1.281 c 0.109,0 0.182,0.092 0.182,0.184 v 1.443 c 0,0.109 -0.092,0.183 -0.182,0.183 z m 0.402,7.657 c -0.383,0.165 -0.383,0.64 -0.383,0.785 v 1.408 c 0,0.347 0.291,0.512 0.566,0.512 h 2.686 c 0.348,0 0.566,-0.201 0.566,-0.548 v -3.145 l -0.529,0.274 z m 2.559,-7.657 c -0.09,0 -0.182,-0.073 -0.182,-0.183 v -1.443 c 0,-0.092 0.072,-0.184 0.182,-0.184 h 1.279 c 0.111,0 0.184,0.092 0.184,0.184 v 1.443 c 0,0.109 -0.092,0.183 -0.184,0.183 z"
   id="path1076"
   inkscape:connector-curvature="0"
   style="fill:#008ac1" />
		<path
   d="m 707.098,495.073 c -0.365,0 -0.584,0.31 -0.584,0.603 v 7.858 c 0,0.109 -0.092,0.183 -0.184,0.183 h -1.297 c -0.109,0 -0.182,-0.092 -0.182,-0.183 v -7.858 c 0,-1.005 0.729,-2.011 2.01,-2.011 1.572,0 -0.641,0 3.271,0 1.277,0 2.01,1.006 2.01,2.011 v 7.858 c 0,0.109 -0.092,0.183 -0.184,0.183 h -1.279 c -0.109,0 -0.182,-0.092 -0.182,-0.183 v -7.858 c 0,-0.293 -0.238,-0.603 -0.604,-0.603 z"
   id="path1078"
   inkscape:connector-curvature="0"
   style="fill:#008ac1" />
		<path
   d="m 715.034,491.947 c -0.092,0 -0.184,-0.073 -0.184,-0.183 v -1.443 c 0,-0.092 0.074,-0.184 0.184,-0.184 h 1.389 c 0.109,0 0.182,0.092 0.182,0.184 v 1.443 c 0,0.109 -0.092,0.183 -0.182,0.183 z m -0.129,1.902 c 0,-0.11 0.092,-0.184 0.184,-0.184 h 1.279 c 0.109,0 0.182,0.092 0.182,0.184 v 9.686 c 0,0.091 -0.072,0.183 -0.182,0.183 h -1.279 c -0.092,0 -0.184,-0.074 -0.184,-0.183 z"
   id="path1080"
   inkscape:connector-curvature="0"
   style="fill:#008ac1" />
		<path
   d="m 720.973,494.944 v 6.762 c 0,0.311 0.236,0.604 0.604,0.604 h 1.699 0.184 c 0.107,0 0.182,0.091 0.182,0.183 v 1.042 c 0,0.109 -0.092,0.183 -0.182,0.183 h -2.176 c -0.951,0 -1.973,-0.749 -1.973,-1.974 v -10.929 c 0,-0.11 0.055,-0.219 0.182,-0.256 l 1.299,-0.402 c 0.145,-0.054 0.182,0.092 0.182,0.184 v 3.198 h 2.266 c 0.109,0 0.184,0.09 0.184,0.182 v 1.043 c 0,0.108 -0.092,0.182 -0.184,0.182 h -2.267 z"
   id="path1082"
   inkscape:connector-curvature="0"
   style="fill:#008ac1" />
		<path
   d="m 731.026,495.693 c 0,-0.42 -0.346,-0.62 -0.693,-0.62 h -3.912 c -0.072,0 -0.127,-0.056 -0.127,-0.129 v -1.151 c 0,-0.055 0.055,-0.128 0.127,-0.128 h 4.551 c 0.842,0 1.701,0.531 1.701,1.646 v 0.456 6.306 c 0,0.968 -0.586,1.645 -1.646,1.645 h -3.635 c -0.822,0 -1.701,-0.493 -1.701,-1.608 v -1.846 c 0,-0.604 0,-1.443 0.969,-1.828 l 4.021,-1.077 c 0.309,-0.129 0.346,-0.256 0.346,-0.494 v -1.172 z m -3.838,-3.746 c -0.09,0 -0.182,-0.073 -0.182,-0.183 v -1.443 c 0,-0.092 0.072,-0.184 0.182,-0.184 h 1.279 c 0.111,0 0.184,0.092 0.184,0.184 v 1.443 c 0,0.109 -0.092,0.183 -0.184,0.183 z m 0.402,7.657 c -0.383,0.165 -0.383,0.64 -0.383,0.785 v 1.408 c 0,0.347 0.291,0.512 0.566,0.512 h 2.686 c 0.348,0 0.566,-0.201 0.566,-0.548 v -3.145 l -0.529,0.274 z m 2.559,-7.657 c -0.09,0 -0.182,-0.073 -0.182,-0.183 v -1.443 c 0,-0.092 0.072,-0.184 0.182,-0.184 h 1.279 c 0.111,0 0.184,0.092 0.184,0.184 v 1.443 c 0,0.109 -0.092,0.183 -0.184,0.183 z"
   id="path1084"
   inkscape:connector-curvature="0"
   style="fill:#008ac1" />
		<path
   d="m 736.803,494.944 v 6.762 c 0,0.311 0.238,0.604 0.604,0.604 h 1.699 0.184 c 0.109,0 0.182,0.091 0.182,0.183 v 1.042 c 0,0.109 -0.092,0.183 -0.182,0.183 h -2.176 c -0.949,0 -1.973,-0.749 -1.973,-1.974 v -10.929 c 0,-0.11 0.055,-0.219 0.182,-0.256 l 1.299,-0.402 c 0.145,-0.054 0.182,0.092 0.182,0.184 v 3.198 h 2.266 c 0.111,0 0.184,0.09 0.184,0.182 v 1.043 c 0,0.108 -0.092,0.182 -0.184,0.182 h -2.267 z"
   id="path1086"
   inkscape:connector-curvature="0"
   style="fill:#008ac1" />
		<path
   d="m 748.676,501.688 c 0,0.42 0.348,0.622 0.695,0.622 h 4.166 c 0.072,0 0.127,0.055 0.127,0.127 v 1.151 c 0,0.055 -0.055,0.129 -0.127,0.129 h -4.807 c -0.84,0 -1.699,-0.53 -1.699,-1.645 v -0.458 -6.304 c 0,-0.969 0.584,-1.646 1.645,-1.646 h 3.818 c 0.822,0 1.699,0.494 1.699,1.608 v 1.791 c 0,0.604 0,1.444 -0.967,1.827 l -4.203,0.95 c -0.311,0.11 -0.348,0.293 -0.348,0.53 v 1.318 z m 3.619,-4.075 c 0.4,-0.092 0.383,-0.641 0.383,-0.786 v -1.243 c 0,-0.347 -0.293,-0.511 -0.566,-0.511 h -2.869 c -0.348,0 -0.566,0.2 -0.566,0.548 v 2.979 l 0.658,-0.293 z"
   id="path1088"
   inkscape:connector-curvature="0"
   style="fill:#008ac1" />
		<path
   d="m 756.665,503.717 c -0.09,0 -0.182,-0.074 -0.182,-0.183 v -1.443 c 0,-0.092 0.072,-0.184 0.182,-0.184 h 1.391 c 0.107,0 0.182,0.092 0.182,0.184 v 1.443 c 0,0.109 -0.092,0.183 -0.182,0.183 z"
   id="path1090"
   inkscape:connector-curvature="0"
   style="fill:#008ac1" />
		<path
   d="m 765.735,503.826 c -0.438,-0.055 -0.822,-0.329 -0.949,-0.713 -4.148,-12.609 -4.203,-12.737 -4.203,-12.792 0,-0.11 0.109,-0.184 0.201,-0.184 h 1.061 c 0.201,0 0.4,0.202 0.455,0.366 0.037,0.092 0.111,0.201 3.656,10.91 l 0.164,0.969 0.164,-0.969 c 3.545,-10.709 3.619,-10.818 3.654,-10.91 0.057,-0.164 0.258,-0.366 0.457,-0.366 h 1.061 c 0.092,0 0.201,0.074 0.201,0.184 0,0.055 -0.055,0.183 -4.203,12.792 -0.127,0.384 -0.512,0.658 -0.949,0.713 0,0 -0.129,0.019 -0.385,0.019 -0.239,0 -0.385,-0.019 -0.385,-0.019 z"
   id="path1092"
   inkscape:connector-curvature="0"
   style="fill:#008ac1" />
		<path
   d="m 771.223,503.717 c -0.092,0 -0.184,-0.074 -0.184,-0.183 v -1.443 c 0,-0.092 0.074,-0.184 0.184,-0.184 h 1.389 c 0.109,0 0.184,0.092 0.184,0.184 v 1.443 c 0,0.109 -0.094,0.183 -0.184,0.183 z"
   id="path1094"
   inkscape:connector-curvature="0"
   style="fill:#008ac1" />
	</g>
	<path
   d="m 430.893,400.283 c -6.969,0 -10.729,-5.527 -10.729,-10.728 v -43.916 c 0,-5.201 3.76,-10.728 10.729,-10.728 h 26.228 c 6.969,0 10.728,5.527 10.728,10.728 v 43.916 c 0,5.201 -3.759,10.728 -10.728,10.728 z m 3.195,-56.413 c -2.527,0 -4.091,2.123 -4.091,4.089 v 39.186 c 0,1.966 1.563,4.089 4.091,4.089 h 19.838 c 2.526,0 4.09,-2.123 4.09,-4.089 v -39.186 c 0,-1.966 -1.563,-4.089 -4.09,-4.089 z"
   id="path1098"
   inkscape:connector-curvature="0"
   style="fill:#008ac1" />
	<path
   d="m 479.887,400.283 c -1.291,0 -2.158,-1.069 -2.158,-2.069 v -4.91 c 0,-1.295 1.098,-2.069 2.158,-2.069 h 25.564 c 1.497,0 3.108,-0.833 3.108,-2.661 v -7.23 c 0,-1.819 -0.159,-3.745 -1.336,-4.236 l -22.326,-8.99 0.01,-0.032 c -7.66,-2.786 -7.66,-8.681 -7.66,-12.985 v -8.747 c 0,-7.923 6.115,-11.531 11.797,-11.531 h 25.78 c 1.277,0 2.068,1.074 2.068,2.069 v 4.91 c 0,1.278 -1.074,2.069 -2.068,2.069 h -24.619 c -1.591,0 -3.197,0.823 -3.197,2.661 v 8.569 c 0,1.172 0,3.612 1.365,4.068 l 23.079,9.097 c 6.958,2.749 6.958,8.513 6.958,12.722 v 7.944 c 0,7.799 -6.162,11.352 -11.888,11.352 h -26.635 z"
   id="path1100"
   inkscape:connector-curvature="0"
   style="fill:#008ac1" />
	<path
   d="m 529.979,400.283 c -1.352,0 -2.159,-1.052 -2.159,-2.069 v -61.323 c 0,-1.295 1.098,-2.069 2.159,-2.069 h 26.672 c 8.823,0 13.584,6.999 13.584,13.583 v 9.104 c 0,4.772 -2.053,8.587 -5.357,9.958 l -1.098,0.455 1.135,0.353 c 4.114,1.28 6.57,4.763 6.57,9.319 v 9.104 c 0,6.585 -4.761,13.583 -13.584,13.583 h -27.922 z m 7.96,-9.048 h 19.337 c 2.446,0 4.09,-2.114 4.09,-4.089 v -9.551 c 0,-2.482 -2.007,-5.162 -5.25,-5.162 h -18.177 z m 0,-27.849 h 16.034 c 3.789,0 6.054,-3.124 6.054,-6.143 v -9.283 c 0,-1.975 -1.607,-4.089 -4,-4.089 h -18.088 z"
   id="path1102"
   inkscape:connector-curvature="0"
   style="fill:#008ac1" />
</g>
</svg>