<?xml version="1.0" encoding="UTF-8" standalone="no"?>
<!-- Created with Inkscape (http://www.inkscape.org/) -->

<svg
   xmlns:i="http://ns.adobe.com/AdobeIllustrator/10.0/"
   xmlns:dc="http://purl.org/dc/elements/1.1/"
   xmlns:cc="http://creativecommons.org/ns#"
   xmlns:rdf="http://www.w3.org/1999/02/22-rdf-syntax-ns#"
   xmlns:svg="http://www.w3.org/2000/svg"
   xmlns="http://www.w3.org/2000/svg"
   xmlns:sodipodi="http://sodipodi.sourceforge.net/DTD/sodipodi-0.dtd"
   xmlns:inkscape="http://www.inkscape.org/namespaces/inkscape"
   width="716.66107"
   height="272.74768"
   id="svg3424"
   sodipodi:version="0.32"
   inkscape:version="0.48.5 r10040"
   sodipodi:docname="linuxhotel-oslern.svg"
   inkscape:output_extension="org.inkscape.output.svg.inkscape"
   version="1.1"
   inkscape:export-filename="/home/iw/gmbh/marketing/logo/linuxhotel-oslern-220x84.png"
   inkscape:export-xdpi="27.629999"
   inkscape:export-ydpi="27.629999">
  <defs
     id="defs3426">
    <inkscape:perspective
       sodipodi:type="inkscape:persp3d"
       inkscape:vp_x="0 : 526.18109 : 1"
       inkscape:vp_y="0 : 1000 : 0"
       inkscape:vp_z="744.09448 : 526.18109 : 1"
       inkscape:persp3d-origin="372.04724 : 350.78739 : 1"
       id="perspective3432" />
  </defs>
  <sodipodi:namedview
     id="base"
     pagecolor="#ffffff"
     bordercolor="#666666"
     borderopacity="1.0"
     inkscape:pageopacity="0.0"
     inkscape:pageshadow="2"
     inkscape:zoom="0.5"
     inkscape:cx="348.43607"
     inkscape:cy="13.851042"
     inkscape:document-units="px"
     inkscape:current-layer="layer1"
     showgrid="false"
     inkscape:window-width="1600"
     inkscape:window-height="853"
     inkscape:window-x="-2"
     inkscape:window-y="177"
     inkscape:window-maximized="1"
     fit-margin-top="0"
     fit-margin-left="0"
     fit-margin-right="0"
     fit-margin-bottom="0" />
  <metadata
     id="metadata3429">
    <rdf:RDF>
      <cc:Work
         rdf:about="">
        <dc:format>image/svg+xml</dc:format>
        <dc:type
           rdf:resource="http://purl.org/dc/dcmitype/StillImage" />
        <dc:title></dc:title>
      </cc:Work>
    </rdf:RDF>
  </metadata>
  <g
     inkscape:label="Ebene 1"
     inkscape:groupmode="layer"
     id="layer1"
     transform="translate(-15.95516,-238.84546)">
    <g
       id="g3004"
       transform="matrix(0.95534849,0,0,0.92667216,16.712422,27.514023)">
      <g
         i:extraneous="self"
         id="g3028"
         transform="matrix(4.3388251,0,0,4.3388251,15.95516,238.84112)">
        <g
           id="Ebene_1"
           i:layer="yes"
           i:dimmedPercent="50"
           i:rgbTrio="#4F008000FFFF">
          <g
             id="g3031">
            <circle
               d="m 103.691,21.936001 c 0,12.114366 -9.820638,21.934999 -21.935003,21.934999 -12.114366,0 -21.935,-9.820633 -21.935,-21.934999 0,-12.1143659 9.820634,-21.93499964 21.935,-21.93499964 12.114365,0 21.935003,9.82063374 21.935003,21.93499964 z"
               i:knockout="Off"
               cx="81.755997"
               cy="21.936001"
               r="21.934999"
               id="circle3033"
               sodipodi:cx="81.755997"
               sodipodi:cy="21.936001"
               sodipodi:rx="21.934999"
               sodipodi:ry="21.934999"
               style="opacity:0.65;fill:#c7ce86" />
            <g
               id="g3035">
              <path
                 inkscape:connector-curvature="0"
                 id="path2247_1_"
                 d="m 68.413,0.23 3.172,5.883 c 3.781,-0.117 6.083,1.459 6.765,3.481 8.643,0.075 10.389,4.461 11.354,9.831 2.52,-2.176 4.656,-4.495 6.615,-6.636 0.646,1.18 0.842,2.285 0.787,3.534 2.363,0.059 4.342,0.55 5.096,1.145 -5.201,5.229 -11.1,8.376 -18.576,11.168 -2.821,2.04 -3.715,3.324 -5.205,5.47 -0.267,0.472 -0.234,1.156 -0.191,1.762 -0.659,-0.022 -0.969,0.063 -1.295,0.47 l -4.646,-0.065 c 1.726,-1.589 2.155,-1.801 4.546,-1.759 0.847,-1.199 1.845,-2.398 2.432,-3.167 0.316,-0.454 0.581,-1.232 0.316,-1.338 -2.917,1.808 -7.41,3.968 -8.107,5.85 -0.696,-0.281 -1.278,0.225 -1.411,0.451 l -2.72,0.028 c -0.399,0.755 0.162,1.605 0.463,1.928 -0.396,-0.055 -0.696,-0.094 -1.091,-0.752 -0.715,-1.9 1.13,-2.917 3.874,-3 1.089,-1.398 4.399,-2.527 6.956,-5.376 -5.105,-2.629 -6.428,-5.04 -7.296,-11.897 -1.013,-1.038 -2.796,-2.398 -2.584,-8.347 L 61.972,4.39 69.404,6.723 68.413,0.23 z"
                 style="fill:#3a4c56" />
              <path
                 inkscape:connector-curvature="0"
                 d="m 68.571,8.243 0.736,1.218 c -0.011,3.587 -0.199,4.772 3.329,7.21 -1.722,15.836 15.086,12.098 26.891,1.057 l -4.012,-0.052 0.297,-2.231 c -1.602,1.611 -2.02,2.286 -3.08,3.551 -1.275,1.517 -3.156,2.027 -4.771,3.727 C 89.449,14.456 83.861,9.987 77.4,12.011 76.723,9.057 75.242,7.432 70.955,7.562 L 70.674,8.388 68.571,8.243 z"
                 id="path3038"
                 style="fill:#ffffff" />
              <path
                 inkscape:connector-curvature="0"
                 id="path2239_1_"
                 ry="6.751411"
                 rx="6.751411"
                 cy="478.49225"
                 cx="308.31442"
                 type="arc"
                 d="m 73.162,10.125 c 0,0.684 -0.542,1.237 -1.21,1.237 -0.668,0 -1.208,-0.554 -1.208,-1.237 0,-0.682 0.54,-1.236 1.208,-1.236 0.668,0 1.21,0.554 1.21,1.236 l 0,0 z"
                 style="fill:#202d33" />
            </g>
            <path
               inkscape:connector-curvature="0"
               i:knockout="Off"
               d="m 106.352,53.515 -8.469,0 0,-1.514 2.126,0 0,-10.053 c 0,-2.163 -0.504,-2.846 -1.982,-2.846 -1.405,0 -1.981,0.359 -4.36,2.593 l 0,10.306 2.127,0 0,1.514 -8.468,0 0,-1.514 2.126,0 0,-20.834 -2.559,0 0,-1.153 5.189,-1.405 1.584,0 0,11.178 c 2.343,-2.378 3.605,-3.026 5.874,-3.026 3.028,0 4.684,1.585 4.684,4.504 l 0,10.738 2.128,0 0,1.512 z"
               id="path3041"
               style="fill:#92a834" />
            <path
               inkscape:connector-curvature="0"
               i:knockout="Off"
               d="m 108.652,45.371 c 0,-5.008 3.496,-8.611 8.324,-8.611 4.829,0 8.359,3.604 8.359,8.611 0,4.974 -3.53,8.612 -8.359,8.612 -4.828,0 -8.324,-3.638 -8.324,-8.612 z m 4.577,0 c 0,4.001 1.551,6.812 3.748,6.812 2.199,0 3.748,-2.811 3.748,-6.812 0,-4.035 -1.549,-6.846 -3.748,-6.846 -2.198,0 -3.748,2.81 -3.748,6.846 z"
               id="path3043"
               style="fill:#92a834" />
            <path
               inkscape:connector-curvature="0"
               i:knockout="Off"
               d="m 137.693,52.001 c -1.838,1.478 -2.919,1.982 -4.324,1.982 -2.234,0 -3.747,-1.477 -3.747,-3.638 l 0,-10.956 -2.38,0 0,-1.153 2.38,-0.612 0,-5.153 4.106,0 0,5.081 3.712,0 0,1.837 -3.712,0 0,10.234 0,1.009 c 0,0.468 0.469,0.901 1.01,0.901 0.684,0 1.08,-0.145 2.198,-0.83 l 0.757,1.298 z"
               id="path3045"
               style="fill:#92a834" />
            <path
               inkscape:connector-curvature="0"
               i:knockout="Off"
               d="m 154.8,51.569 c -3.531,1.982 -4.793,2.414 -7.314,2.414 -4.829,0 -8.037,-3.423 -8.037,-8.539 0,-5.226 3.28,-8.685 8.253,-8.685 4.18,0 6.954,2.595 6.954,6.559 l 0,1.369 -10.774,0 c 0,4.468 2.019,7.243 5.261,7.243 1.335,0 2.053,-0.289 4.829,-1.946 l 0.828,1.585 z m -4.612,-8.72 0,-0.865 c 0,-2.162 -1.046,-3.675 -2.521,-3.675 -1.91,0 -3.424,1.802 -3.748,4.541 l 6.269,0 0,-0.001 z"
               id="path3047"
               style="fill:#92a834" />
            <path
               inkscape:connector-curvature="0"
               i:knockout="Off"
               d="m 165.174,53.515 -8.467,0 0,-1.514 2.126,0 0,-20.834 -2.415,0 0,-1.153 5.188,-1.405 1.441,0 0,23.393 2.126,0 0,1.513 0.001,0 z"
               id="path3049"
               style="fill:#92a834" />
            <g
               i:knockout="Off"
               id="g3051">
              <path
                 inkscape:connector-curvature="0"
                 i:knockout="Off"
                 d="m 8.76,53.482 -8.473,0 0,-1.513 2.127,0 0,-22.495 -2.414,0 0,-1.154 5.19,-1.406 1.442,0 0,25.055 2.128,0 0,1.513 z"
                 id="path3053"
                 style="fill:#274147" />
              <path
                 inkscape:connector-curvature="0"
                 i:knockout="Off"
                 d="m 20.655,53.482 -8.471,0 0,-1.513 2.126,0 0,-12.618 -2.38,0 0,-1.154 5.192,-1.406 1.406,0 0,15.178 2.126,0 0,1.513 0.001,0 z M 16.258,28.031 c 1.405,0 2.56,1.153 2.56,2.56 0,1.442 -1.154,2.56 -2.56,2.56 -1.406,0 -2.56,-1.118 -2.56,-2.56 0,-1.406 1.155,-2.56 2.56,-2.56 z"
                 id="path3055"
                 style="fill:#274147" />
              <path
                 inkscape:connector-curvature="0"
                 i:knockout="Off"
                 d="m 43.331,53.482 -8.471,0 0,-1.513 2.126,0 0,-10.058 c 0,-2.164 -0.47,-2.849 -1.948,-2.849 -1.405,0 -2.018,0.361 -4.359,2.596 l 0,10.311 2.089,0 0,1.513 -8.472,0 0,-1.513 2.127,0 0,-12.618 -2.524,0 0,-1.154 5.194,-1.406 1.586,0 0,2.956 c 2.342,-2.379 3.568,-3.028 5.838,-3.028 3.066,0 4.688,1.586 4.688,4.506 l 0,10.744 2.127,0 0,1.513 -10e-4,0 z"
                 id="path3057"
                 style="fill:#274147" />
              <path
                 inkscape:connector-curvature="0"
                 i:knockout="Off"
                 d="m 66.044,52.474 -5.193,1.297 -1.549,0 0,-3.028 c -2.415,2.524 -3.641,3.209 -5.841,3.209 -3.101,0 -4.721,-1.586 -4.721,-4.651 l 0,-9.95 -2.562,0 0,-1.154 5.192,-1.406 1.586,0 0,11.789 c 0,2.055 0.649,2.956 2.127,2.956 1.407,0 2.307,-0.577 4.218,-2.631 l 0,-9.554 -1.84,0 0,-1.297 4.76,-1.262 1.298,0 0,14.492 2.524,0 0,1.19 10e-4,0 z"
                 id="path3059"
                 style="fill:#274147" />
              <path
                 inkscape:connector-curvature="0"
                 i:knockout="Off"
                 d="m 83.959,53.482 -7.39,0 0,-1.513 1.296,0 -2.595,-4.291 -3.353,4.291 1.875,0 0,1.513 -5.589,0 0,-1.513 1.551,0 4.542,-5.913 -4.398,-7.391 -1.332,0 0,-1.514 7.569,0 0,1.514 -1.478,0 2.343,3.895 2.991,-3.894 -1.477,0 0,-1.514 5.192,0 0,1.514 -1.55,0 -4.184,5.48 4.649,7.823 1.336,0 0,1.513 0.002,0 z"
                 id="path3061"
                 style="fill:#274147" />
            </g>
          </g>
        </g>
      </g>
      <text
         sodipodi:linespacing="125%"
         transform="scale(1.0540749,0.94869919)"
         id="text2563"
         y="531.88129"
         x="28.64748"
         style="font-size:35.46121597px;font-style:normal;font-variant:normal;font-weight:normal;font-stretch:normal;text-align:justify;line-height:125%;writing-mode:lr-tb;text-anchor:start;fill:#000000;fill-opacity:1;stroke:none;font-family:DejaVu Sans;-inkscape-font-specification:DejaVu Sans"
         xml:space="preserve"><tspan
           style="font-size:35.46121597px;font-style:normal;font-variant:normal;font-weight:normal;font-stretch:normal;text-align:justify;line-height:125%;writing-mode:lr-tb;text-anchor:start;font-family:DejaVu Sans;-inkscape-font-specification:DejaVu Sans"
           y="531.88129"
           x="28.64748"
           id="tspan2565"
           sodipodi:role="line">Schulungen bei den OpenSource'lern</tspan></text>
    </g>
  </g>
</svg>
