<svg id="Ebene_1" data-name="Ebene 1" xmlns="http://www.w3.org/2000/svg" viewBox="0 0 168.02 84.34"><defs><style>.cls-1{fill:#fff;}.cls-2{fill:red;}.cls-3{fill:#fc0;}</style></defs><g id="Background"><rect class="cls-1" x="0.01" y="0.34" width="168" height="84"/></g><g id="Name"><path d="M61.77,4.59a3.41,3.41,0,0,1-.15,1,2.57,2.57,0,0,1-.4.77,2.3,2.3,0,0,1-.6.52,2.8,2.8,0,0,1-.69.29h0a2.26,2.26,0,0,1,.83.31,2.6,2.6,0,0,1,.67.57,2.55,2.55,0,0,1,.46.82,2.84,2.84,0,0,1,.17,1,3.06,3.06,0,0,1-.23,1.23,2.52,2.52,0,0,1-.71,1,3.53,3.53,0,0,1-1.23.64,6.12,6.12,0,0,1-1.76.23H55.81V1.66H58a6.24,6.24,0,0,1,1.72.21,3.1,3.1,0,0,1,1.18.58,2.14,2.14,0,0,1,.66.91A3.23,3.23,0,0,1,61.77,4.59Zm-1.45.07a1.68,1.68,0,0,0-.56-1.3A2.55,2.55,0,0,0,58,2.83h-.76V6.74H58a2.48,2.48,0,0,0,1.75-.56A2,2,0,0,0,60.32,4.66Zm.21,5.23a1.84,1.84,0,0,0-.6-1.46,2.54,2.54,0,0,0-1.72-.53h-1v4h.89A2.84,2.84,0,0,0,60,11.36a1.92,1.92,0,0,0,.54-1.49Zm8.82,3.17H68.14v-.9h0a1.86,1.86,0,0,1-.21.28,2.14,2.14,0,0,1-.42.37,3.54,3.54,0,0,1-.62.3,2.44,2.44,0,0,1-.8.13,2.82,2.82,0,0,1-1-.15,1.86,1.86,0,0,1-.72-.51,2.58,2.58,0,0,1-.45-.89,5.25,5.25,0,0,1-.15-1.36V5.15H65.1v5.08a2.39,2.39,0,0,0,.33,1.43,1.2,1.2,0,0,0,1,.42,1.68,1.68,0,0,0,1-.29,3.36,3.36,0,0,0,.62-.57v-6h1.33Zm6.36,0V8a2.41,2.41,0,0,0-.34-1.44,1.22,1.22,0,0,0-1-.44,1.56,1.56,0,0,0-1,.3,3.1,3.1,0,0,0-.62.58V13H71.39V5.15h1.22V6h0a1.46,1.46,0,0,1,.21-.28,1.88,1.88,0,0,1,.43-.37,3,3,0,0,1,.62-.3A2.16,2.16,0,0,1,74.7,5a2.82,2.82,0,0,1,1,.15,1.67,1.67,0,0,1,.72.51,2.44,2.44,0,0,1,.46.89,4.79,4.79,0,0,1,.17,1.36V13Zm3-3.83a5.66,5.66,0,0,1,.31-2,3.66,3.66,0,0,1,.81-1.3A2.8,2.8,0,0,1,81,5.23,4.09,4.09,0,0,1,82.2,5a2.46,2.46,0,0,1,.66.06,1.53,1.53,0,0,1,.46.14V1.41l1.29-.15V13H83.39v-.83h0c0,.06-.1.15-.18.27a2.9,2.9,0,0,1-.36.34,2.13,2.13,0,0,1-.58.3,2.79,2.79,0,0,1-.81.12A2.76,2.76,0,0,1,80.4,13a2.35,2.35,0,0,1-.88-.71,3.7,3.7,0,0,1-.6-1.25,6.82,6.82,0,0,1-.25-1.85Zm3.08,2.83a2.1,2.1,0,0,0,.56-.08,2.14,2.14,0,0,0,.43-.21,2.66,2.66,0,0,0,.31-.26,2.11,2.11,0,0,0,.19-.23V6.41a1.59,1.59,0,0,0-.42-.19,1.54,1.54,0,0,0-.6-.09,2.35,2.35,0,0,0-.87.16,1.58,1.58,0,0,0-.7.52,2.6,2.6,0,0,0-.47.94,5.14,5.14,0,0,0-.17,1.41,5.88,5.88,0,0,0,.14,1.38,2.48,2.48,0,0,0,.39.88A1.47,1.47,0,0,0,81.79,12.06Zm9.93-4.25a6.46,6.46,0,0,1,0,.88,2.15,2.15,0,0,1-.06.65h-4a3.52,3.52,0,0,0,.6,2.06,1.88,1.88,0,0,0,1.54.66,2.57,2.57,0,0,0,.62-.08,4.19,4.19,0,0,0,.49-.2l.34-.23.21-.18.49.93-.24.24a2.83,2.83,0,0,1-.45.32,4.12,4.12,0,0,1-.69.27,4.2,4.2,0,0,1-1,.11A3.83,3.83,0,0,1,88.23,13a2.62,2.62,0,0,1-1-.77,3.62,3.62,0,0,1-.65-1.32A6.53,6.53,0,0,1,86.35,9a6.19,6.19,0,0,1,.24-1.82,3.52,3.52,0,0,1,.65-1.26,2.49,2.49,0,0,1,1-.73A2.79,2.79,0,0,1,89.41,5a2.26,2.26,0,0,1,1.67.71A3.19,3.19,0,0,1,91.72,7.81ZM89.22,6a1.31,1.31,0,0,0-1.14.6,3.21,3.21,0,0,0-.49,1.71h2.88a1,1,0,0,0,0-.24V7.76a2.09,2.09,0,0,0-.33-1.27A1.09,1.09,0,0,0,89.22,6Zm7.68.71a3.64,3.64,0,0,0-.48-.4,1.44,1.44,0,0,0-.9-.26,1.19,1.19,0,0,0-.81.25.78.78,0,0,0-.28.59,1.07,1.07,0,0,0,.26.74,3.9,3.9,0,0,0,.78.61l.49.3a4.76,4.76,0,0,1,1.27,1A2.13,2.13,0,0,1,97.69,11,2.15,2.15,0,0,1,97,12.57a2.52,2.52,0,0,1-1.87.64,3.28,3.28,0,0,1-1.47-.33,2.6,2.6,0,0,1-.45-.28l-.3-.29.64-1.06.24.23c.11.09.22.18.34.26a3.55,3.55,0,0,0,.44.21,2.25,2.25,0,0,0,.58.08,1.39,1.39,0,0,0,.9-.27.81.81,0,0,0,.32-.64,1.51,1.51,0,0,0-.08-.48,1,1,0,0,0-.22-.37,2.17,2.17,0,0,0-.36-.32l-.49-.29-.5-.31a4.84,4.84,0,0,1-1.16-1A2.12,2.12,0,0,1,93.18,7a2.08,2.08,0,0,1,.17-.82,1.83,1.83,0,0,1,.49-.64,2.34,2.34,0,0,1,.73-.43,2.5,2.5,0,0,1,.9-.15,2.63,2.63,0,0,1,.79.09,2.35,2.35,0,0,1,.57.23,2.14,2.14,0,0,1,.39.28,2,2,0,0,1,.26.24Zm6.5,6.3V8a2.6,2.6,0,0,0-.28-1.4,1,1,0,0,0-.9-.43,1.49,1.49,0,0,0-.59.09,1.51,1.51,0,0,0-.45.2,1.49,1.49,0,0,0-.35.27c-.09.1-.18.19-.24.27V13H99.25V5.15h1.22V6h0c.06-.08.14-.19.25-.32a2.3,2.3,0,0,1,.41-.36,2.62,2.62,0,0,1,.58-.29,2.33,2.33,0,0,1,.74-.11,2,2,0,0,1,1.91,1,2.1,2.1,0,0,1,.31-.35,2.24,2.24,0,0,1,.46-.35,2.55,2.55,0,0,1,.59-.25,2.26,2.26,0,0,1,.73-.1c1.6,0,2.4.93,2.4,2.8V13h-1.33V8a2.21,2.21,0,0,0-.35-1.4,1.24,1.24,0,0,0-1-.43,1.54,1.54,0,0,0-.93.27,4.07,4.07,0,0,0-.58.52V13Zm8.8,0h-1.33V5.15h1.33Zm-.65-9.8a.86.86,0,0,1-.66-.27,1,1,0,0,1-.25-.69.89.89,0,0,1,.25-.62.92.92,0,0,1,1.3,0,1,1,0,0,1,.25.67,1,1,0,0,1-.25.69A.84.84,0,0,1,111.55,3.24Zm7,9.8V8a2.41,2.41,0,0,0-.34-1.44,1.22,1.22,0,0,0-1-.44,1.56,1.56,0,0,0-1,.3,3.1,3.1,0,0,0-.62.58V13h-1.33V5.15h1.21V6h0a1.46,1.46,0,0,1,.21-.28,1.88,1.88,0,0,1,.43-.37,3,3,0,0,1,.62-.3,2.16,2.16,0,0,1,.83-.13,2.82,2.82,0,0,1,1,.15,1.67,1.67,0,0,1,.72.51,2.31,2.31,0,0,1,.47.89,5.17,5.17,0,0,1,.16,1.36V13Zm4.65,0h-1.33V5.15h1.33Zm-.65-9.8a.86.86,0,0,1-.66-.27,1,1,0,0,1-.25-.69.9.9,0,0,1,1.55-.67,1,1,0,0,1,.24.67,1,1,0,0,1-.24.69.87.87,0,0,1-.63.27Zm6.1,3.5a3.64,3.64,0,0,0-.48-.4,1.44,1.44,0,0,0-.9-.26,1.19,1.19,0,0,0-.81.25.78.78,0,0,0-.28.59,1.07,1.07,0,0,0,.26.74,3.9,3.9,0,0,0,.78.61l.49.3a4.76,4.76,0,0,1,1.27,1,2.13,2.13,0,0,1,.46,1.42,2.15,2.15,0,0,1-.65,1.58,2.61,2.61,0,0,1-1.87.64,3.28,3.28,0,0,1-1.47-.33,2.43,2.43,0,0,1-.46-.22l-.3-.29.64-1.06.24.23c.11.09.22.18.34.26a3.55,3.55,0,0,0,.44.21,2.25,2.25,0,0,0,.58.08,1.39,1.39,0,0,0,.9-.27.81.81,0,0,0,.32-.64,1.51,1.51,0,0,0-.08-.48,1,1,0,0,0-.22-.37,2.17,2.17,0,0,0-.36-.32l-.5-.35-.5-.31a4.84,4.84,0,0,1-1.16-1A2,2,0,0,1,125,7a2.08,2.08,0,0,1,.17-.82,1.83,1.83,0,0,1,.49-.64,2.34,2.34,0,0,1,.73-.43,2.5,2.5,0,0,1,.9-.15,2.63,2.63,0,0,1,.79.09,2.35,2.35,0,0,1,.57.23,2.14,2.14,0,0,1,.39.28,2,2,0,0,1,.26.24Zm5.73-.51h-1.73v4.43a2.15,2.15,0,0,0,.21,1.14.86.86,0,0,0,.73.31,1.75,1.75,0,0,0,.51-.08l.31-.15.18,1.07a2.38,2.38,0,0,1-.39.2,2.18,2.18,0,0,1-.84.14,2,2,0,0,1-1.53-.57,2.82,2.82,0,0,1-.51-1.88V6.23h-1V5.34l1-.19.14-2.21h1.19V5.15h1.89Zm6.46,1.58v.88a2.18,2.18,0,0,1-.06.65h-4a3.67,3.67,0,0,0,.6,2.06,1.88,1.88,0,0,0,1.54.66,2.72,2.72,0,0,0,.63-.08,2.55,2.55,0,0,0,.48-.2l.35-.23.21-.18.49.93-.25.24a2.36,2.36,0,0,1-.44.32,4.12,4.12,0,0,1-.69.27,4.2,4.2,0,0,1-1,.11,3.88,3.88,0,0,1-1.35-.24,2.62,2.62,0,0,1-1-.77,3.88,3.88,0,0,1-.65-1.32A7.29,7.29,0,0,1,135.47,9a6.19,6.19,0,0,1,.24-1.82,3.69,3.69,0,0,1,.65-1.26,2.59,2.59,0,0,1,1-.73A2.79,2.79,0,0,1,138.53,5a2.23,2.23,0,0,1,1.77.71,3.15,3.15,0,0,1,.55,2.15ZM138.34,6a1.33,1.33,0,0,0-1.13.6,3.22,3.22,0,0,0-.5,1.71h2.88V7.76a2.09,2.09,0,0,0-.33-1.27,1.12,1.12,0,0,0-.91-.46Zm7.75.28a.6.6,0,0,0-.21-.08,1.72,1.72,0,0,0-1.44.29,2,2,0,0,0-.51.73V13H142.6V5.15h1.22V6.22h0a2.43,2.43,0,0,1,.22-.46,1.13,1.13,0,0,1,.33-.39,1.08,1.08,0,0,1,.46-.27,1.8,1.8,0,0,1,.65-.1,1.19,1.19,0,0,1,.46,0l.27.08ZM148.74,13h-1.33V5.15h1.33Zm-.66-9.8a.84.84,0,0,1-.65-.27,1,1,0,0,1-.25-.69.92.92,0,0,1,.25-.67.92.92,0,0,1,1.3,0,1,1,0,0,1,.24.67,1,1,0,0,1-.24.69.91.91,0,0,1-.64.27Zm8.23,9.8H155.1v-.88h0a1.86,1.86,0,0,1-.21.28,2.14,2.14,0,0,1-.42.37,3.54,3.54,0,0,1-.62.3,2.44,2.44,0,0,1-.8.13,3.09,3.09,0,0,1-1-.15,1.86,1.86,0,0,1-.72-.51,2.5,2.5,0,0,1-.45-.89,5.22,5.22,0,0,1-.16-1.36V5.15h1.34v5.08a2.34,2.34,0,0,0,.32,1.41,1.19,1.19,0,0,0,1,.42,1.68,1.68,0,0,0,1-.29,2.85,2.85,0,0,0,.63-.57v-6h1.33Zm6.19,0V8a2.6,2.6,0,0,0-.28-1.4,1,1,0,0,0-.9-.43,1.49,1.49,0,0,0-.59.09,1.51,1.51,0,0,0-.45.2,2.17,2.17,0,0,0-.29.24,1.55,1.55,0,0,0-.24.27V13h-1.34V5.15h1.22V6h0c.06-.08.14-.19.25-.32a2.3,2.3,0,0,1,.41-.36,2.62,2.62,0,0,1,.58-.29,2.08,2.08,0,0,1,.74-.11,2,2,0,0,1,1.91,1,1.73,1.73,0,0,1,.31-.35,2.24,2.24,0,0,1,.46-.35,2.55,2.55,0,0,1,.59-.25,2.26,2.26,0,0,1,.73-.1c1.6,0,2.4.93,2.4,2.8V13h-1.33V8a2.21,2.21,0,0,0-.35-1.4,1.24,1.24,0,0,0-1-.43,1.54,1.54,0,0,0-.93.27,3.54,3.54,0,0,0-.58.52,1.1,1.1,0,0,0,.05.39,1.3,1.3,0,0,1,0,.44V13ZM58.86,22.83H57.24v6.83H55.91V22.83H55v-.89l1-.18V20.18a3,3,0,0,1,.18-1.11,2.05,2.05,0,0,1,.48-.75,1.71,1.71,0,0,1,.69-.43,2.38,2.38,0,0,1,.84-.13,2,2,0,0,1,.72.11,2.87,2.87,0,0,1,.4.18L59,19.16a1,1,0,0,0-.28-.14,1,1,0,0,0-.45-.08.87.87,0,0,0-.72.3,1.77,1.77,0,0,0-.25,1.08v1.42H59Zm6.84,6.83H64.48v-.89h0a1.94,1.94,0,0,1-.21.29,3.62,3.62,0,0,1-.42.36,2.37,2.37,0,0,1-.62.3,2.46,2.46,0,0,1-.81.14,3,3,0,0,1-.94-.16,1.74,1.74,0,0,1-.72-.5,2.19,2.19,0,0,1-.45-.9,4.82,4.82,0,0,1-.16-1.36v-5.2h1.34v5.08a2.34,2.34,0,0,0,.32,1.41,1.19,1.19,0,0,0,1,.42,1.55,1.55,0,0,0,1-.29,3.72,3.72,0,0,0,.63-.56V21.74h1.33ZM62.43,19.47a.88.88,0,0,1-.23.61.83.83,0,0,1-.56.23.79.79,0,0,1-.56-.23.83.83,0,0,1-.23-.61.81.81,0,0,1,.23-.61.75.75,0,0,1,.56-.23.79.79,0,0,1,.56.23A.81.81,0,0,1,62.43,19.47Zm2.53,0a.88.88,0,0,1-.23.61.81.81,0,0,1-1.12,0,.88.88,0,0,1-.23-.61.81.81,0,0,1,.23-.61.79.79,0,0,1,1.12,0,.83.83,0,0,1,.26.61Zm6.25,3.44a.6.6,0,0,0-.21-.08,1.71,1.71,0,0,0-1.42.28,1.93,1.93,0,0,0-.51.74v5.81H67.74v-7.9H69v1.07h0a2.35,2.35,0,0,1,.22-.45,1.29,1.29,0,0,1,.33-.4,1.6,1.6,0,0,1,.45-.32,1.8,1.8,0,0,1,.65-.1,1.44,1.44,0,0,1,.46.05l.27.08ZM87,18.28,84.25,29.66H83l-1.72-7.14c-.13-.5-.23-1-.32-1.39a8.62,8.62,0,0,1-.15-1h0a4.9,4.9,0,0,1-.13,1c-.09.42-.19.87-.31,1.36l-1.82,7.17H77.25L74.55,18.3h1.53l1.42,6.92c.11.52.21,1,.29,1.48a9.37,9.37,0,0,1,.14,1.08h0a8.12,8.12,0,0,1,.17-1.1l.34-1.5,1.68-6.88h1.37l1.64,6.92c.12.52.23,1,.33,1.48a6.39,6.39,0,0,1,.16,1.08h0a8.53,8.53,0,0,1,.22-1.12c.08-.49.18-1,.29-1.52l1.43-6.85Zm2.59,11.38H88.25v-7.9h1.33Zm-.66-9.81a1,1,0,0,1-.66-.26A1,1,0,0,1,88,18.9a1,1,0,0,1,.24-.68.87.87,0,0,1,.66-.26.82.82,0,0,1,.64.26.94.94,0,0,1,.25.68,1,1,0,0,1-.25.69.88.88,0,0,1-.64.24Zm6.17,3.08a.6.6,0,0,0-.21-.08,1.74,1.74,0,0,0-1.43.28,2,2,0,0,0-.5.74v5.79H91.62v-7.9h1.22v1.07h0a3.1,3.1,0,0,1,.21-.45,1.6,1.6,0,0,1,.33-.4,1.47,1.47,0,0,1,.47-.27,1.61,1.61,0,0,1,.65-.1,1.63,1.63,0,0,1,.49.05l.28.08Zm4.69-.08H98.05v4.37a2.1,2.1,0,0,0,.22,1.15.83.83,0,0,0,.72.29,1.75,1.75,0,0,0,.51-.08l.31-.15L100,29.5a2.42,2.42,0,0,1-.39.21,2.18,2.18,0,0,1-.84.14,2,2,0,0,1-1.53-.57,2.83,2.83,0,0,1-.51-1.89V22.83h-1v-.89l1-.2.15-2.21h1.18v2.21H100Zm4.92.51a3.72,3.72,0,0,0-.48-.41,1.45,1.45,0,0,0-.9-.25,1.18,1.18,0,0,0-.81.24.81.81,0,0,0-.28.6,1.11,1.11,0,0,0,.26.73,3.61,3.61,0,0,0,.78.62l.49.29a4.76,4.76,0,0,1,1.27,1,2.32,2.32,0,0,1-.19,3,2.56,2.56,0,0,1-1.87.65,4,4,0,0,1-.84-.1c-.21-.07-.43-.14-.63-.23a2.66,2.66,0,0,1-.45-.29c-.12-.11-.22-.2-.3-.29l.64-1.05.24.23.34.25a2.53,2.53,0,0,0,.44.21,2.27,2.27,0,0,0,.58.1,1.38,1.38,0,0,0,.9-.26.82.82,0,0,0,.32-.64,1.57,1.57,0,0,0-.08-.49,1,1,0,0,0-.22-.37,2.11,2.11,0,0,0-.36-.31l-.49-.33-.5-.31a4.84,4.84,0,0,1-1.16-1A2.12,2.12,0,0,1,101,23.6a1.88,1.88,0,0,1,.18-.81,1.69,1.69,0,0,1,.48-.64,2.07,2.07,0,0,1,.73-.43,2.31,2.31,0,0,1,.9-.16,2.63,2.63,0,0,1,.79.09,2.35,2.35,0,0,1,.57.23,2.14,2.14,0,0,1,.39.28l.26.24Zm6.75-.07-.16-.15a2.34,2.34,0,0,0-.27-.2,1.92,1.92,0,0,0-.39-.17,1.58,1.58,0,0,0-.53-.07,2,2,0,0,0-.8.15,1.67,1.67,0,0,0-.64.51,2.72,2.72,0,0,0-.43.89,5,5,0,0,0-.16,1.34,6.66,6.66,0,0,0,.14,1.47,3.23,3.23,0,0,0,.39.94,1.48,1.48,0,0,0,.6.51,2,2,0,0,0,.79.15,1.68,1.68,0,0,0,.93-.21,4,4,0,0,0,.46-.35l.54.92-.24.24a1.56,1.56,0,0,1-.4.27,3.1,3.1,0,0,1-.6.23,3.75,3.75,0,0,1-.82.09,3.66,3.66,0,0,1-1.23-.22,2.45,2.45,0,0,1-1-.71,3.35,3.35,0,0,1-.64-1.26,6.46,6.46,0,0,1-.25-2,5.19,5.19,0,0,1,.3-1.92,3.71,3.71,0,0,1,.77-1.28,2.91,2.91,0,0,1,1.06-.71,3.43,3.43,0,0,1,1.18-.22,3,3,0,0,1,.78.08,3.1,3.1,0,0,1,.58.21,1.66,1.66,0,0,1,.39.26l.26.24Zm6.27,6.37V24.55a2.34,2.34,0,0,0-.34-1.44,1.21,1.21,0,0,0-1-.43,1.68,1.68,0,0,0-1,.29,3.1,3.1,0,0,0-.62.58v6.11h-1.33V18l1.33-.14v4.69h0a1.39,1.39,0,0,1,.21-.27,1.7,1.7,0,0,1,.38-.33,2.86,2.86,0,0,1,1.47-.42,2.08,2.08,0,0,1,1.64.68,3.24,3.24,0,0,1,.61,2.24v5.21Zm2.86-2a2.4,2.4,0,0,1,.26-1.15,2.13,2.13,0,0,1,.71-.75,2.9,2.9,0,0,1,1-.41,6,6,0,0,1,1.27-.12h.41v-.76a2,2,0,0,0-.35-1.38,1.25,1.25,0,0,0-1-.38,1.76,1.76,0,0,0-1,.25,4.61,4.61,0,0,0-.63.46l-.56-.89a3.17,3.17,0,0,1,.34-.3,2.6,2.6,0,0,1,.5-.31,3.27,3.27,0,0,1,1.53-.35,2.38,2.38,0,0,1,1.84.68,3.13,3.13,0,0,1,.63,2.17V29a5,5,0,0,0,.07.65h-1.27V28.8h0a1.38,1.38,0,0,1-.2.33,1.56,1.56,0,0,1-.33.35,2.2,2.2,0,0,1-.47.27,1.84,1.84,0,0,1-.66.12,2.12,2.12,0,0,1-.83-.17,2,2,0,0,1-.68-.46,2.13,2.13,0,0,1-.44-.7A2.39,2.39,0,0,1,120.58,27.66Zm2.41,1a1.62,1.62,0,0,0,.49-.08,1.65,1.65,0,0,0,.37-.2,1.24,1.24,0,0,0,.26-.25l.19-.24V26.18h-.42a2.94,2.94,0,0,0-1.45.33,1,1,0,0,0-.5.95,1.4,1.4,0,0,0,.28.92A1,1,0,0,0,123,28.66Zm8-5.87h-1.61v6.87H128V22.83h-1v-.89l1-.18V20.18a3,3,0,0,1,.18-1.11,2.32,2.32,0,0,1,.47-.75,1.71,1.71,0,0,1,.7-.43,2.36,2.36,0,0,1,.83-.13,2,2,0,0,1,.73.11,2.76,2.76,0,0,1,.39.18l-.3,1.11a1,1,0,0,0-.28-.14,1,1,0,0,0-.44-.08.87.87,0,0,0-.72.3,1.7,1.7,0,0,0-.25,1.08v1.42h1.78Zm4.69,0h-1.79v4.37a2.2,2.2,0,0,0,.22,1.15.84.84,0,0,0,.72.3,1.75,1.75,0,0,0,.51-.08l.31-.15.19,1.07-.4.21a2.18,2.18,0,0,1-.84.14,2,2,0,0,1-1.53-.57,2.83,2.83,0,0,1-.51-1.89V22.83h-.95v-.89l.95-.2.15-2.21h1.18v2.21h1.9ZM61.06,46.23H59.84v-.89h0a1.42,1.42,0,0,1-.21.29,1.82,1.82,0,0,1-.42.36,2.77,2.77,0,0,1-.62.31,2.45,2.45,0,0,1-.81.13,2.73,2.73,0,0,1-.94-.16,1.74,1.74,0,0,1-.72-.5,2.34,2.34,0,0,1-.45-.89,4.82,4.82,0,0,1-.16-1.36V38.33h1.33v5.09a2.34,2.34,0,0,0,.33,1.41,1.19,1.19,0,0,0,1,.42,1.68,1.68,0,0,0,1-.29,3.42,3.42,0,0,0,.63-.57V38.33h1.33Zm6.35,0V41.15a2.4,2.4,0,0,0-.33-1.44,1.22,1.22,0,0,0-1-.44,1.56,1.56,0,0,0-1,.3,4.27,4.27,0,0,0-.63.57v6.09H63.1v-7.9h1.22v.89h0a1.58,1.58,0,0,1,.22-.29,2.36,2.36,0,0,1,.42-.36,3.64,3.64,0,0,1,.63-.3,2.08,2.08,0,0,1,.82-.13,2.82,2.82,0,0,1,1,.15,1.71,1.71,0,0,1,.72.5,2.48,2.48,0,0,1,.46.9,4.79,4.79,0,0,1,.17,1.36v5.18Zm3-3.83a5.45,5.45,0,0,1,.32-2,3.63,3.63,0,0,1,.8-1.3,2.8,2.8,0,0,1,1.12-.7,3.8,3.8,0,0,1,1.25-.2,3.64,3.64,0,0,1,.66,0,2.44,2.44,0,0,1,.46.14V34.6l1.33-.15V46.23H75.1v-.84h0a1.59,1.59,0,0,1-.18.27,1.71,1.71,0,0,1-.36.35,2.39,2.39,0,0,1-.57.3,2.79,2.79,0,0,1-.81.12,2.55,2.55,0,0,1-1.06-.22,2.35,2.35,0,0,1-.88-.71,3.45,3.45,0,0,1-.6-1.25,6.47,6.47,0,0,1-.27-1.85Zm3.13,2.85a1.77,1.77,0,0,0,.56-.09,1.64,1.64,0,0,0,.69-.5,1.37,1.37,0,0,0,.19-.23V39.6a1.62,1.62,0,0,0-.42-.2,1.74,1.74,0,0,0-.6-.08,2.12,2.12,0,0,0-.86.16,1.51,1.51,0,0,0-.7.52,2.48,2.48,0,0,0-.47.93,4.85,4.85,0,0,0-.17,1.42,5.27,5.27,0,0,0,.14,1.37,2.61,2.61,0,0,0,.38.89,1.47,1.47,0,0,0,1.22.64Zm12.11-4.83,3.85,5.81H87.7l-3.29-5.16h-.85v5.16H82.12V34.88h1.44v5h.87l3.17-5h1.6Zm6.21,4a1.18,1.18,0,0,0,.14.69.59.59,0,0,0,.48.2h.31l.19-.07.11,1-.36.13a2.81,2.81,0,0,1-.71.08A1.56,1.56,0,0,1,90.93,46a2,2,0,0,1-.41-1.47v-9.9l1.34-.15Zm3.76,1.84H94.25v-7.9h1.33ZM95,36.46a.86.86,0,0,1-.66-.27,1,1,0,0,1-.25-.69.9.9,0,0,1,1.55-.67,1,1,0,0,1,.25.67,1,1,0,0,1-.25.69.86.86,0,0,1-.68.24Zm6.84,9.8V41.15a2.6,2.6,0,0,0-.28-1.4,1,1,0,0,0-.9-.43,2,2,0,0,0-.59.08,1.85,1.85,0,0,0-.45.21,1.49,1.49,0,0,0-.35.27l-.24.26v6.09H97.63v-7.9h1.21v.89h0a1.91,1.91,0,0,1,.24-.32,2,2,0,0,1,.41-.36,2.1,2.1,0,0,1,.58-.29,2.08,2.08,0,0,1,.74-.11,2,2,0,0,1,1.91,1,2.1,2.1,0,0,1,.31-.35,1.93,1.93,0,0,1,.46-.35,2.63,2.63,0,0,1,.6-.25,2.2,2.2,0,0,1,.72-.1q2.4,0,2.4,2.79v5.3h-1.33V41.15a2.21,2.21,0,0,0-.35-1.4,1.21,1.21,0,0,0-1-.43,1.54,1.54,0,0,0-.93.27,3.54,3.54,0,0,0-.58.52v6.12Zm7-2a2.16,2.16,0,0,1,1-1.91,3.35,3.35,0,0,1,1-.41,6,6,0,0,1,1.27-.12h.41v-.76a2,2,0,0,0-.35-1.38,1.25,1.25,0,0,0-1-.38,1.69,1.69,0,0,0-1,.26,4.53,4.53,0,0,0-.63.45l-.56-.89a3.17,3.17,0,0,1,.34-.3,3.76,3.76,0,0,1,.5-.31,2.75,2.75,0,0,1,.68-.24,3,3,0,0,1,.85-.1,2.4,2.4,0,0,1,1.85.67,3.12,3.12,0,0,1,.62,2.17v4.61a1.46,1.46,0,0,0,.07.65h-1.27V45.4h0a1.68,1.68,0,0,1-.2.34,1.52,1.52,0,0,1-.33.34,2,2,0,0,1-.47.28,2.12,2.12,0,0,1-.66.11,2.15,2.15,0,0,1-.83-.16,2,2,0,0,1-.68-.47,2.19,2.19,0,0,1-.44-.69,2.28,2.28,0,0,1-.2-.92Zm2.39,1.06a1.36,1.36,0,0,0,.49-.08,1.62,1.62,0,0,0,.37-.19,2.23,2.23,0,0,0,.27-.26l.18-.24V42.78h-.42a3.18,3.18,0,0,0-1.45.33,1,1,0,0,0-.49,1,1.36,1.36,0,0,0,.27.91,1,1,0,0,0,.75.27Zm8-5.36a3.64,3.64,0,0,0-.48-.4,1.42,1.42,0,0,0-.91-.26,1.06,1.06,0,0,0-.8.25.74.74,0,0,0-.28.59,1,1,0,0,0,.25.73,3.61,3.61,0,0,0,.78.62l.5.3a4.35,4.35,0,0,1,1.26,1,2.14,2.14,0,0,1,.47,1.42,2.19,2.19,0,0,1-.65,1.58,2.61,2.61,0,0,1-1.87.64,3.39,3.39,0,0,1-.84-.1,4.88,4.88,0,0,1-.64-.23,2.66,2.66,0,0,1-.45-.29,3.83,3.83,0,0,1-.29-.28l.64-1.06.24.23a2.1,2.1,0,0,0,.33.26,2.28,2.28,0,0,0,.45.2,1.84,1.84,0,0,0,.57.09,1.4,1.4,0,0,0,.91-.27.81.81,0,0,0,.31-.64,1.61,1.61,0,0,0-.07-.49,1.25,1.25,0,0,0-.22-.37,1.85,1.85,0,0,0-.37-.31l-.49-.33-.49-.31a4.84,4.84,0,0,1-1.16-1,2.12,2.12,0,0,1-.42-1.35,1.75,1.75,0,0,1,.17-.82,2,2,0,0,1,.48-.64,2.39,2.39,0,0,1,.74-.43,2.73,2.73,0,0,1,.89-.15,2.63,2.63,0,0,1,.79.09,2,2,0,0,1,.57.23,1.8,1.8,0,0,1,.4.28,1.88,1.88,0,0,1,.25.24Zm6.79-.1-.15-.14a1.31,1.31,0,0,0-.28-.2,1.36,1.36,0,0,0-.39-.17,1.59,1.59,0,0,0-.53-.08,1.85,1.85,0,0,0-.8.16,1.64,1.64,0,0,0-.64.5,2.67,2.67,0,0,0-.43.9,5.06,5.06,0,0,0-.15,1.34,6.51,6.51,0,0,0,.14,1.46,2.68,2.68,0,0,0,.39,1,1.56,1.56,0,0,0,.6.51,2.09,2.09,0,0,0,.78.16,1.78,1.78,0,0,0,.93-.22,5.3,5.3,0,0,0,.45-.34l.54.92-.24.24a2.8,2.8,0,0,1-.4.27,2.54,2.54,0,0,1-.6.22,3.74,3.74,0,0,1-2-.12,2.55,2.55,0,0,1-1-.71,3.68,3.68,0,0,1-.68-1.28,6.77,6.77,0,0,1-.24-2,5.72,5.72,0,0,1,.29-1.93,3.47,3.47,0,0,1,.78-1.27,2.72,2.72,0,0,1,1.06-.71,3.12,3.12,0,0,1,1.17-.22,3,3,0,0,1,.79.08,2.27,2.27,0,0,1,.57.2,1.76,1.76,0,0,1,.4.27,1.88,1.88,0,0,1,.25.24Zm6.27,6.37V41.15a2.34,2.34,0,0,0-.34-1.44,1.18,1.18,0,0,0-1-.44,1.56,1.56,0,0,0-1,.3,4.27,4.27,0,0,0-.63.57v6.09H128V34.6l1.33-.15v4.69h0a2.56,2.56,0,0,1,.2-.26,1.75,1.75,0,0,1,.39-.33,2.46,2.46,0,0,1,1.43-.41,2.1,2.1,0,0,1,1.65.67,3.36,3.36,0,0,1,.6,2.24v5.18Zm8.85,0H139.9v-.89h0a1.42,1.42,0,0,1-.21.29,1.82,1.82,0,0,1-.42.36,2.77,2.77,0,0,1-.62.31,2.44,2.44,0,0,1-.8.13,2.79,2.79,0,0,1-.95-.16,1.62,1.62,0,0,1-.71-.5,2.52,2.52,0,0,1-.46-.89,5.25,5.25,0,0,1-.15-1.36V38.33h1.33v5.09a2.41,2.41,0,0,0,.32,1.41,1.2,1.2,0,0,0,1,.42,1.68,1.68,0,0,0,1-.29,3.36,3.36,0,0,0,.62-.57V38.33h1.33Zm5.42-6.81H144.8V43.8a2.15,2.15,0,0,0,.21,1.14.88.88,0,0,0,.73.31,1.48,1.48,0,0,0,.51-.09l.31-.14.18,1.06a1.47,1.47,0,0,1-.39.21,2.18,2.18,0,0,1-.84.14,2,2,0,0,1-1.52-.57,2.82,2.82,0,0,1-.51-1.88V39.42h-1v-.89l1-.2.15-2.2h1.18v2.2h1.89Zm5.92-.23-3.19,5.87h3.41l-.12,1.13h-5v-.85l3.29-5.93h-3.11V38.33h4.74Z" transform="translate(0.01 -0.66)"/></g><g id="Adler-und-Saeulenelement"><path d="M19.49,12.13a8.39,8.39,0,0,0,.06-1V10.5c2.75,0,5.17-2,5.17-4.3a4.16,4.16,0,0,0-1.21-2.54l.3-.06a4.65,4.65,0,0,1,1.54,3.17c0,2.74-2.73,5.28-5.86,5.34M16.71,2.59a1.86,1.86,0,0,0-.34-.82c0-.28.12-.55.57-.33-.24.25-.05.69-.05.69s.49-.23.39-.56c.74.18.21,1.17-.57,1M16.07,4a2.89,2.89,0,0,0-.57-1.15,1.58,1.58,0,0,0-1.19-.63,2.76,2.76,0,0,0-.93.23,2.4,2.4,0,0,1-.29-.77c0-.2.34-.4,1-.4,1.43,0,2.28.64,2.28,1.72a2.68,2.68,0,0,1-.29,1m3.67,18.39a.66.66,0,0,1,.34.06,19.33,19.33,0,0,0,2.06,3.32h0a14.89,14.89,0,0,1,2.21-.21h0a.32.32,0,0,1,.25.06.4.4,0,0,1,.08.28,1.48,1.48,0,0,1-.19.71A2,2,0,0,0,23,26.17a2.76,2.76,0,0,0-.64.1h-.12l.43.44c.67.67,1.25,1.25,1.25,1.63a1,1,0,0,1-.43.67A3.76,3.76,0,0,0,22,26.83H22v.94c0,1.34-.14,1.55-.6,1.55h-.25a2.28,2.28,0,0,0,.36-1.5v-.63a5.81,5.81,0,0,1,.05-.72v-.1h-.08a7.32,7.32,0,0,0-.93-.09,2,2,0,0,0-1.44.37,1.15,1.15,0,0,1-.44-.66c0-.28.18-.31.4-.31h.38a10.66,10.66,0,0,0,1.6.1h.06v-.05A10.55,10.55,0,0,0,19.25,23c.09-.32.17-.53.49-.53M11.2,25.66v.05h.06a10.66,10.66,0,0,0,1.6-.1h.37c.23,0,.41,0,.41.31a1.15,1.15,0,0,1-.44.66,2,2,0,0,0-1.44-.37,7.47,7.47,0,0,0-.94.09h-.07v.1a4.28,4.28,0,0,1,.06.72v.63a2.21,2.21,0,0,0,.37,1.5,1,1,0,0,1-.25,0c-.47,0-.6-.21-.6-1.55v-.94h-.06a3.69,3.69,0,0,0-1.45,2.18,1.06,1.06,0,0,1-.44-.67c0-.38.58-1,1.25-1.63l.39-.39V26.2H9.89a2.31,2.31,0,0,0-.64-.1,2,2,0,0,0-1.52.56,1.61,1.61,0,0,1-.2-.71.41.41,0,0,1,.08-.29.4.4,0,0,1,.26-.06h0a16.36,16.36,0,0,1,2.21.21h0a19.33,19.33,0,0,0,2.06-3.32.66.66,0,0,1,.34-.06c.31,0,.4.21.49.53a10.59,10.59,0,0,0-1.77,2.7M6.92,6.79A4.65,4.65,0,0,1,8.47,3.66h.29A4.12,4.12,0,0,0,7.58,6.25c0,2.3,2.46,4.31,5.25,4.31,0,.2,0,.41,0,.62a8.39,8.39,0,0,0,.06,1C9.73,12.18,7,9.6,7,6.84m21.14,4.82c1.41,2.24,2.52,2.2,4.19,2.2a12.27,12.27,0,0,1-2.73-3.11L27,6.6a6.06,6.06,0,0,0-1.9-3.36,3.56,3.56,0,0,0,.78-.39C24.18,2.85,22.5,2,21.58,2a.86.86,0,0,0-1,.7.49.49,0,0,0,0,.12c0,.52.57,1,1.57,1a5.9,5.9,0,0,0,.84,0,3.86,3.86,0,0,1,1,2.39C24,8,21.83,9.4,19.64,9.4h-.36a5,5,0,0,1-.86-2.06c0-1.44.94-2.62.94-4a2.59,2.59,0,0,0-.65-1.68,2.57,2.57,0,0,0,.63-.8,1.79,1.79,0,0,1-.61.07C17.68.93,16.83.66,16,.66c-.47,0-.6.15-.6.29a.24.24,0,0,0,0,.12,5.44,5.44,0,0,0-.54-.15,4.22,4.22,0,0,0-.79-.07c-1,0-1.37.43-1.37.79a3.11,3.11,0,0,0,.51,1.3,2.89,2.89,0,0,1,1.11-.28c.54,0,1,.51,1.27,1.11a5.29,5.29,0,0,1-.8.06A6.12,6.12,0,0,1,13,3.43h0a1.72,1.72,0,0,0,.83.7,10.44,10.44,0,0,0,2,.41.92.92,0,0,1-.39.44H15.3a9.3,9.3,0,0,1-1.93-.57h0c0,.38,1,1.22,1.87,1.55A9.74,9.74,0,0,0,13.1,9.33h-.41c-2.19,0-4.36-1.41-4.36-3.22a4,4,0,0,1,1-2.39,7.53,7.53,0,0,0,.83.08c1,0,1.53-.53,1.57-1A.87.87,0,0,0,10.82,2h-.09c-.92,0-2.59.85-4.28.85a3.56,3.56,0,0,0,.78.39A6.14,6.14,0,0,0,5.31,6.6L2.73,10.74A12.51,12.51,0,0,1,0,13.85c1.67,0,2.78,0,4.2-2.2L5.51,9.53a5.23,5.23,0,0,0,.37.8L3.24,14.55A12.14,12.14,0,0,1,.5,17.66c1.67,0,2.78,0,4.2-2.2L7,11.83c.17.19.35.36.53.53l-3.2,5.13A12.11,12.11,0,0,1,1.59,20.6c1.67,0,2.78,0,4.19-2.2l3.12-5c.21.13.42.26.64.38l-3.81,6.1A12.14,12.14,0,0,1,3,23c1.67,0,2.78,0,4.2-2.2l3.92-6.28.71.25-4.46,7.1A12.11,12.11,0,0,1,4.63,25c1.67,0,2.78,0,4.2-2.2l4.72-7.57h.15a3.89,3.89,0,0,1,.21,1.17c0,2.38-1.56,4.48-3.43,6.1a1.81,1.81,0,0,0,.52.07,5.51,5.51,0,0,0,.81-.05A18.2,18.2,0,0,1,10,25.43a13.31,13.31,0,0,0-2.09-.19c-.61,0-.68.36-.68.67a1.63,1.63,0,0,0,.56,1.25c.11-.29.34-.67,1.47-.67h.11C9,26.87,8,27.66,8,28.37a1.25,1.25,0,0,0,1.13,1.12,2.41,2.41,0,0,1,0-.38A2.85,2.85,0,0,1,10,27.49a1.22,1.22,0,0,0,0,.27c0,1.29.11,1.88.93,1.88a1.29,1.29,0,0,0,.77-.29,1.74,1.74,0,0,1-.56-1.59v-.63a4.86,4.86,0,0,0,0-.54,3.42,3.42,0,0,1,.64,0s1.16-.09,1.44.51c.31-.29.77-.69.77-1.14s-.14-.64-.74-.64c-.23,0-.94.14-1.53.14a14.46,14.46,0,0,1,1.49-2.15,1.73,1.73,0,0,0,.56.87,6.15,6.15,0,0,1,1.09-2.93A14,14,0,0,1,15,23.76c0,3.2-.77,5.56-2.4,6a1.4,1.4,0,0,0,1.12.7c.6,0,.93-.67,1.26-1.31.17.47.65,1.62,1.13,1.62s1-1.15,1.13-1.62c.33.64.65,1.31,1.25,1.31a1.39,1.39,0,0,0,1.13-.7c-1.63-.45-2.4-2.81-2.4-6a15.48,15.48,0,0,1,.2-2.55,6,6,0,0,1,1.09,2.93,1.69,1.69,0,0,0,.57-.87,14.46,14.46,0,0,1,1.49,2.15c-.6,0-1.31-.14-1.54-.14-.59,0-.73.34-.73.64a2.36,2.36,0,0,0,.77,1.14c.28-.6,1.44-.51,1.44-.51a3.42,3.42,0,0,1,.64,0,4.86,4.86,0,0,0,0,.54v.63a1.74,1.74,0,0,1-.56,1.59,1.31,1.31,0,0,0,.78.29c.81,0,.93-.59.93-1.88a1.22,1.22,0,0,0,0-.27,2.93,2.93,0,0,1,.89,1.62,1.21,1.21,0,0,1,0,.38,1.25,1.25,0,0,0,1.14-1.12c0-.67-1-1.5-1.37-1.87h0c1.13,0,1.36.38,1.47.67A1.59,1.59,0,0,0,25,25.88c0-.31-.07-.67-.68-.67a13.31,13.31,0,0,0-2.09.19,20.08,20.08,0,0,1-1.84-2.91,5.51,5.51,0,0,0,.81.05,1.81,1.81,0,0,0,.52-.07c-1.87-1.62-3.43-3.72-3.43-6.1a3.85,3.85,0,0,1,.22-1.17h.14l4.73,7.57C24.82,25,25.93,25,27.61,25a12.14,12.14,0,0,1-2.74-3.11l-4.43-7.1.7-.25,3.93,6.28C26.48,23,27.59,23,29.27,23a11.8,11.8,0,0,1-2.74-3.11l-3.81-6.1.63-.38,3.12,5c1.42,2.24,2.53,2.2,4.2,2.2A12.27,12.27,0,0,1,28,17.49l-3.2-5.13c.19-.17.37-.35.54-.53l2.27,3.64c1.39,2.24,2.5,2.19,4.18,2.19A11.84,11.84,0,0,1,29,14.54L26.4,10.33a6.33,6.33,0,0,0,.36-.8Z" transform="translate(0.01 -0.66)"/><path d="M45.52,29.66H40.68V2h4.84Z" transform="translate(0.01 -0.66)"/><path class="cls-2" d="M45.52,57.3H40.68V29.66h4.84Z" transform="translate(0.01 -0.66)"/><path class="cls-3" d="M45.52,85H40.68V57.3h4.84Z" transform="translate(0.01 -0.66)"/></g></svg>