<?xml version="1.0" encoding="UTF-8" standalone="no"?>
<svg
   id="Front"
   width="89mm"
   height="59mm"
   version="1.1"
   sodipodi:docname="front.svg"
   inkscape:version="1.2.1 (9c6d41e410, 2022-07-14)"
   xmlns:inkscape="http://www.inkscape.org/namespaces/inkscape"
   xmlns:sodipodi="http://sodipodi.sourceforge.net/DTD/sodipodi-0.dtd"
   xmlns="http://www.w3.org/2000/svg"
   xmlns:svg="http://www.w3.org/2000/svg"
   xmlns:rdf="http://www.w3.org/1999/02/22-rdf-syntax-ns#"
   xmlns:cc="http://creativecommons.org/ns#"
   xmlns:dc="http://purl.org/dc/elements/1.1/">
  <defs
     id="defs113" />
  <metadata
     id="metadata44">
    <rdf:RDF>
      <cc:Work
         rdf:about="">
        <dc:format>image/svg+xml</dc:format>
        <dc:type
           rdf:resource="http://purl.org/dc/dcmitype/StillImage" />
      </cc:Work>
    </rdf:RDF>
  </metadata>
  <sodipodi:namedview
     pagecolor="#ffffff"
     bordercolor="#666666"
     borderopacity="1"
     objecttolerance="10"
     gridtolerance="10"
     guidetolerance="10"
     inkscape:pageopacity="1"
     inkscape:pageshadow="2"
     inkscape:window-width="1920"
     inkscape:window-height="1051"
     id="namedview42"
     showgrid="false"
     showguides="false"
     inkscape:zoom="1.9966907"
     inkscape:cx="275.7062"
     inkscape:cy="84.139221"
     inkscape:window-x="0"
     inkscape:window-y="0"
     inkscape:window-maximized="1"
     inkscape:current-layer="g12035"
     inkscape:pagecheckerboard="false"
     units="mm"
     inkscape:document-units="mm"
     inkscape:showpageshadow="2"
     inkscape:deskcolor="#d1d1d1" />
  <g
     id="g12035"
     transform="scale(1.0470588)"
     inkscape:label="Front">
    <g
       id="g34071"
       style="display:inline"
       sodipodi:insensitive="true"
       inkscape:label="Circle">
      <path
         inkscape:connector-curvature="0"
         id="path5359"
         d="m 297.96716,112.07559 c -0.15244,-0.54568 -0.29636,-1.09504 -0.46405,-1.63419 -0.57268,-1.84114 -1.23334,-3.64311 -1.97718,-5.40174 -0.74384,-1.75863 -1.57121,-3.4739 -2.47637,-5.140159 -0.90523,-1.66626 -1.88823,-3.28386 -2.94493,-4.8479 -1.05663,-1.56404 -2.18667,-3.07411 -3.38493,-4.52608 -0.6994,-0.84745 -1.46979,-1.63072 -2.21481,-2.43733 h -5.0141 c 0.39931,0.38312 0.79133,0.77363 1.17906,1.16847 0.0513,0.0521 0.10239,0.10435 0.15341,0.15672 0.0215,0.0221 0.0423,0.0453 0.0638,0.0675 0.10183,0.10467 0.21303,0.19902 0.31403,0.30453 0.13262,0.13852 0.25192,0.29061 0.38315,0.43058 0.11966,0.12755 0.2425,0.25211 0.36083,0.38094 0.007,0.006 0.0118,0.0126 0.018,0.0189 0.24935,0.27167 0.4784,0.56159 0.72228,0.83829 0.39764,0.45054 0.81455,0.8821 1.19805,1.34639 0.10294,0.12463 0.19368,0.26036 0.29559,0.38596 0.0111,0.0137 0.0236,0.0264 0.0347,0.0401 0.034,0.0417 0.0673,0.0837 0.10094,0.12549 0.34765,0.43177 0.68977,0.86841 1.02453,1.3107 0.007,0.006 0.0104,0.013 0.0152,0.0195 0.12596,0.16646 0.23799,0.3435 0.36201,0.51144 0.20637,0.27971 0.43167,0.54256 0.63306,0.82658 0.20644,0.29127 0.38731,0.60333 0.58842,0.89909 0.13753,0.20198 0.28824,0.39403 0.42328,0.5979 0.0229,0.0341 0.0451,0.0684 0.0672,0.10262 0.31272,0.47443 0.61913,0.9534 0.91749,1.43786 0.0208,0.0335 0.0381,0.0691 0.0582,0.10263 0.0575,0.0938 0.12339,0.18073 0.18017,0.27496 0.22925,0.38033 0.42696,0.783869 0.64755,1.170699 0.29261,0.51154 0.60117,1.01278 0.87791,1.53435 0.0975,0.18372 0.18398,0.37393 0.27937,0.55886 0.0589,0.11496 0.12853,0.22252 0.1869,0.33799 0.0719,0.14242 0.12998,0.29407 0.20076,0.43728 0.17518,0.35285 0.36034,0.69982 0.52818,1.05692 0.37975,0.80793 0.74016,1.62649 1.08144,2.45518 0.34135,0.82873 0.66322,1.66763 0.96492,2.51598 0.12242,0.34427 0.22675,0.69676 0.34245,1.04409 0.0187,0.0566 0.0437,0.11185 0.0624,0.16844 0.0194,0.0595 0.0326,0.12007 0.052,0.1796 0.12831,0.39391 0.26738,0.78296 0.3871,1.18073 z"
         style="fill:#50c3a5;fill-opacity:1;stroke-width:0.285564"
         inkscape:label="Mail Circle End" />
      <path
         inkscape:connector-curvature="0"
         id="path5355"
         d="m 298.87959,140.08734 c 0.24046,-1.09491 0.44233,-2.25271 0.58902,-3.20671 0.14869,-0.97322 0.27389,-1.95433 0.37427,-2.94264 0.10038,-0.98831 0.17622,-1.98399 0.22704,-2.98616 0.0506,-1.00217 0.0764,-2.01096 0.0764,-3.02575 0,-1.0148 -0.0257,-2.02304 -0.0764,-3.0252 -0.0506,-1.00216 -0.12666,-1.99784 -0.22704,-2.98615 -0.10038,-0.98831 -0.22558,-1.96943 -0.37427,-2.94266 -0.1487,-0.97322 -0.51702,-2.89579 -0.51702,-2.89579 -1.2383,-0.006 -2.47665,-4e-4 -3.71497,-4e-4 0.10488,0.47499 0.20304,0.94966 0.29559,1.42913 0,0.0171 0.007,0.0342 0.01,0.0513 0.0869,0.45193 0.16804,0.90569 0.24381,1.36145 0.008,0.0507 0.0173,0.10145 0.0257,0.15227 0.0706,0.43207 0.13587,0.86583 0.19632,1.3012 0.008,0.0616 0.0173,0.12302 0.0256,0.18462 0.0541,0.39964 0.10329,0.80075 0.14891,1.20305 0.0125,0.10951 0.0257,0.21882 0.0374,0.32851 0.0402,0.3717 0.0752,0.74497 0.10766,1.11884 0.0111,0.12443 0.0229,0.24845 0.0326,0.37312 0.0291,0.36731 0.0534,0.73616 0.0758,1.10545 0.008,0.12841 0.0173,0.2562 0.0243,0.38485 0.0215,0.39782 0.0367,0.7969 0.0499,1.19691 0,0.0983 0.008,0.19607 0.0111,0.29448 0.0132,0.50037 0.0208,1.00232 0.0208,1.50591 0,0.50359 -0.007,1.00554 -0.0208,1.50591 0,0.0984 -0.008,0.19619 -0.0111,0.29449 -0.0125,0.40001 -0.0284,0.79908 -0.0499,1.19691 -0.007,0.12865 -0.0166,0.25643 -0.0243,0.38484 -0.0222,0.3693 -0.0464,0.73815 -0.0758,1.10545 -0.01,0.12468 -0.0222,0.24869 -0.0326,0.37313 -0.0326,0.37386 -0.0679,0.74714 -0.10766,1.11883 -0.0118,0.1097 -0.0249,0.21901 -0.0374,0.32851 -0.0458,0.4023 -0.0948,0.80341 -0.14891,1.20305 -0.008,0.0616 -0.0173,0.12308 -0.0256,0.18462 -0.0603,0.43537 -0.12575,0.86914 -0.19632,1.30121 -0.008,0.0508 -0.0173,0.1015 -0.0257,0.15226 -0.0758,0.45577 -0.15695,0.90953 -0.24381,1.36145 0,0.0171 -0.007,0.0342 -0.01,0.0513 -0.0925,0.47947 -0.19071,0.98343 -0.29559,1.45841 1.21318,0.006 3.64297,0 3.64297,0 z"
         style="display:inline;fill:#0f5fe1;fill-opacity:1;stroke-width:0.285564"
         sodipodi:nodetypes="ccscscssccccccccccccccccsccssscsccccccccc"
         inkscape:label="Phone Circle End" />
      <path
         inkscape:connector-curvature="0"
         id="path5351"
         d="m 284.24888,168.04619 c 0.8368,-0.89444 1.69066,-1.77361 2.47082,-2.719 1.19826,-1.45197 2.3283,-2.96204 3.38493,-4.52608 1.0567,-1.56404 2.0397,-3.18164 2.94493,-4.8479 0.90516,-1.66626 1.73253,-3.38153 2.47637,-5.14016 0.74384,-1.75863 1.4045,-3.56059 1.97718,-5.40173 0.13878,-0.4462 0.25538,-0.90185 0.3837,-1.35253 h -3.69168 c -0.26093,0.86682 -0.54218,1.72452 -0.84387,2.57286 -0.3017,0.84835 -0.62357,1.68725 -0.96485,2.51598 -0.34135,0.82869 -0.70176,1.64726 -1.08151,2.45519 -0.37969,0.80791 -0.77816,1.60503 -1.19521,2.39104 -0.55604,1.04794 -1.14418,2.07601 -1.76414,3.08265 -0.29837,0.48446 -0.60478,0.96342 -0.9175,1.43785 -0.0229,0.0342 -0.0451,0.0685 -0.0672,0.10263 -0.64013,0.96656 -1.30883,1.91222 -2.00671,2.835 -0.007,0.006 -0.0104,0.013 -0.0153,0.0195 -0.33483,0.44229 -0.67694,0.87893 -1.0246,1.3107 -0.034,0.0418 -0.0672,0.0838 -0.10093,0.1255 -0.72367,0.89345 -1.47368,1.76452 -2.25052,2.61079 -0.007,0.006 -0.0118,0.0125 -0.018,0.019 -0.36789,0.40035 -0.74231,0.79419 -1.12165,1.18353 -0.0513,0.0523 -0.10218,0.10457 -0.15334,0.15673 -0.38773,0.39483 -0.77975,0.78535 -1.17912,1.16848 z"
         style="fill:#0f5fe1;fill-opacity:1;stroke-width:0.285564"
         inkscape:label="vCard Domain Circle End" />
      <path
         inkscape:connector-curvature="0"
         id="path5347"
         d="m 188.62973,144.05879 c 0.12837,0.45068 0.24495,0.90633 0.38373,1.35253 0.57266,1.84114 1.23336,3.6431 1.9772,5.40173 0.74384,1.75863 1.57121,3.4739 2.47638,5.14016 0.90516,1.66626 1.88823,3.28386 2.94488,4.8479 1.05664,1.56404 2.18666,3.07411 3.38494,4.52608 0.78021,0.94539 1.634,1.82456 2.4708,2.719 h 4.34816 c -0.39932,-0.38313 -0.79134,-0.77365 -1.17907,-1.16848 -0.0512,-0.0521 -0.10236,-0.10436 -0.15337,-0.15672 -0.37935,-0.38935 -0.75379,-0.78319 -1.12162,-1.18353 -0.006,-0.006 -0.012,-0.0126 -0.0179,-0.019 -0.77684,-0.84627 -1.52686,-1.71734 -2.25049,-2.61079 -0.0338,-0.0417 -0.0673,-0.0837 -0.10095,-0.12549 -0.34765,-0.43178 -0.68977,-0.86843 -1.02458,-1.3107 -0.005,-0.006 -0.0101,-0.013 -0.015,-0.0195 -0.69792,-0.92279 -1.36656,-1.86844 -2.00675,-2.83501 -0.0226,-0.0341 -0.0449,-0.0684 -0.0675,-0.10262 -0.31272,-0.47442 -0.61911,-0.9534 -0.91748,-1.43786 -0.61998,-1.00663 -1.20812,-2.03471 -1.76415,-3.08264 -0.41704,-0.78601 -0.8155,-1.58313 -1.19524,-2.39105 -0.37974,-0.80793 -0.74018,-1.62649 -1.08146,-2.45518 -0.3413,-0.82873 -0.6632,-1.66763 -0.9649,-2.51598 -0.30169,-0.84835 -0.58292,-1.70605 -0.84386,-2.57287 z"
         style="fill:#0f5fe1;fill-opacity:1;stroke-width:0.285564"
         inkscape:label="vCard Domain Circle" />
      <path
         inkscape:connector-curvature="0"
         id="path5343"
         d="m 187.56556,116.07348 c -1.9e-4,7e-4 -2.9e-4,0.002 -5.7e-4,0.003 -0.19581,0.9569 -0.36888,1.92257 -0.51759,2.8958 -0.1487,0.97322 -0.27332,1.95434 -0.37368,2.94265 -0.10037,0.98831 -0.1762,1.98398 -0.227,2.98615 -0.0508,1.00217 -0.0764,2.01041 -0.0764,3.0252 0,1.01479 0.0257,2.02359 0.0764,3.02576 0.0508,1.00216 0.12663,1.99784 0.227,2.98614 0.10036,0.98831 0.22498,1.96944 0.37368,2.94266 0.14871,0.97322 0.32178,1.93889 0.51759,2.8958 0.0196,0.0957 0.0457,0.18891 0.0658,0.28445 h 3.23882 c -0.10485,-0.47498 -0.20304,-0.95226 -0.29561,-1.43172 -0.003,-0.0171 -0.007,-0.0342 -0.0101,-0.0513 -0.0868,-0.45194 -0.16798,-0.90569 -0.24373,-1.36145 -0.008,-0.0507 -0.0173,-0.10146 -0.0257,-0.15227 -0.0706,-0.43208 -0.13581,-0.86584 -0.19633,-1.30121 -0.009,-0.0616 -0.0173,-0.12302 -0.0256,-0.18462 -0.0542,-0.39964 -0.10331,-0.80074 -0.14892,-1.20305 -0.0125,-0.1095 -0.0256,-0.21881 -0.0374,-0.32851 -0.0399,-0.3717 -0.0751,-0.74497 -0.10766,-1.11883 -0.0109,-0.12444 -0.0229,-0.24846 -0.0329,-0.37313 -0.0295,-0.36731 -0.0536,-0.73616 -0.0759,-1.10544 -0.008,-0.12842 -0.0177,-0.2562 -0.0245,-0.38485 -0.0212,-0.39782 -0.0369,-0.7969 -0.0496,-1.19691 -0.003,-0.0983 -0.009,-0.19607 -0.0112,-0.29449 -0.0133,-0.50044 -0.0206,-1.00238 -0.0206,-1.50598 0,-0.50359 0.007,-1.00553 0.0206,-1.5059 0.003,-0.0984 0.008,-0.19619 0.0112,-0.29449 0.0128,-0.40001 0.0284,-0.79909 0.0496,-1.19691 0.007,-0.12865 0.0168,-0.25643 0.0245,-0.38485 0.0222,-0.36928 0.0464,-0.73813 0.0759,-1.10544 0.01,-0.12468 0.0221,-0.2487 0.0329,-0.37313 0.0325,-0.37386 0.0677,-0.74713 0.10765,-1.11883 0.0118,-0.1097 0.0249,-0.21901 0.0374,-0.32851 0.0456,-0.40231 0.0947,-0.80341 0.14891,-1.20306 0.008,-0.0616 0.0171,-0.12307 0.0257,-0.18461 0.0605,-0.43537 0.12576,-0.86914 0.19634,-1.30121 0.008,-0.0508 0.0172,-0.1015 0.0256,-0.15227 0.0758,-0.45576 0.15693,-0.90952 0.24373,-1.36145 0.003,-0.0171 0.007,-0.0342 0.01,-0.0513 0.0926,-0.47947 0.19076,-0.95674 0.29561,-1.43172 z"
         style="fill:#0f5fe1;fill-opacity:1;stroke-width:0.285564"
         inkscape:label="Phone Circle" />
      <path
         inkscape:connector-curvature="0"
         id="Rounded_Rectangle_2"
         d="m 202.01165,88.088191 c -0.74496,0.80661 -1.51541,1.58988 -2.21479,2.43733 -1.19828,1.45197 -2.3283,2.96204 -3.38494,4.52608 -1.05665,1.56404 -2.03972,3.18164 -2.94488,4.8479 -0.90517,1.666259 -1.73254,3.381529 -2.47638,5.140159 -0.74384,1.75863 -1.40454,3.5606 -1.9772,5.40174 -0.16769,0.53915 -0.31158,1.08851 -0.46404,1.63419 h 3.36207 c 0.26094,-0.86682 0.54217,-1.72452 0.84387,-2.57287 0.30169,-0.84835 0.6236,-1.68725 0.96489,-2.51598 0.34128,-0.82869 0.70173,-1.64725 1.08147,-2.45518 0.37973,-0.80792 0.77819,-1.60504 1.19524,-2.39105 0.55602,-1.04794 1.14416,-2.07601 1.76414,-3.082639 0.29838,-0.48446 0.60476,-0.96344 0.91748,-1.43786 0.0225,-0.0342 0.0449,-0.0685 0.0675,-0.10263 0.6402,-0.96657 1.30884,-1.91222 2.00677,-2.835 0.005,-0.006 0.0101,-0.013 0.015,-0.0195 0.33481,-0.44228 0.67692,-0.87892 1.02457,-1.3107 0.0337,-0.0418 0.0672,-0.0838 0.10095,-0.12549 0.72363,-0.89345 1.47364,-1.76452 2.25049,-2.61079 0.006,-0.006 0.012,-0.0126 0.0179,-0.0189 0.36784,-0.40034 0.74229,-0.79418 1.12162,-1.18353 0.051,-0.0523 0.10216,-0.10456 0.15338,-0.15672 0.38773,-0.39484 0.77975,-0.78535 1.17907,-1.16848 z"
         style="fill:#50c3a5;fill-opacity:1;stroke-width:0.285564"
         inkscape:label="Mail Circle" />
    </g>
    <g
       id="g12514"
       transform="matrix(0.27992832,0,0,0.27992832,-3.6299567,4.3103311)"
       inkscape:label="Logos">
      <g
         transform="matrix(0.86216666,0,0,0.86216666,423.15201,-223.84874)"
         id="g2619">
        <path
           style="fill:#b1c900"
           inkscape:connector-curvature="0"
           d="m 574.342,475.938 c -0.173,0.52 -0.434,1.129 -0.434,1.391 0,0.521 0.521,0.869 0.956,0.869 h 4.778 c 0.957,0 1.913,-0.957 2.175,-1.74 l 5.735,-17.643 h 25.033 l 5.91,17.643 c 0.261,0.783 1.217,1.74 2.173,1.74 h 4.78 c 0.437,0 0.958,-0.348 0.958,-0.869 0,-0.262 -0.263,-0.871 -0.437,-1.391 l -19.556,-59.453 c -0.608,-1.824 -2.437,-3.041 -4.608,-3.301 -2.433,-0.262 -3.475,0 -3.475,0 -2.088,0.26 -3.911,1.477 -4.521,3.301 z m 35.985,-23.816 h -20.514 l 9.127,-27.553 1.13,-5.475 1.13,5.475 z"
           id="path2479" />
        <path
           style="fill:#b1c900"
           inkscape:connector-curvature="0"
           d="m 418.191,475.938 c -0.175,0.52 -0.436,1.129 -0.436,1.391 0,0.521 0.521,0.869 0.956,0.869 h 4.78 c 0.956,0 1.912,-0.957 2.173,-1.74 l 5.736,-17.643 h 25.032 l 5.91,17.643 c 0.262,0.783 1.218,1.74 2.173,1.74 h 4.781 c 0.436,0 0.956,-0.348 0.956,-0.869 0,-0.262 -0.261,-0.871 -0.435,-1.391 L 450.26,416.485 c -0.607,-1.824 -2.435,-3.041 -4.606,-3.301 -2.435,-0.262 -3.477,0 -3.477,0 -2.086,0.26 -3.911,1.477 -4.52,3.301 z m 35.982,-23.816 H 433.66 l 9.126,-27.553 1.13,-5.475 1.13,5.475 z"
           id="path2481" />
        <path
           style="fill:#b1c900"
           inkscape:connector-curvature="0"
           d="m 484.226,471.507 c -0.521,0 -0.868,-0.35 -0.868,-0.871 v -56.148 c 0,-0.521 -0.436,-0.869 -0.868,-0.869 h -6.085 c -0.522,0 -0.869,0.436 -0.869,0.869 v 55.889 c 0,4.605 2.781,7.822 7.822,7.822 h 25.118 0.869 c 0.436,0 0.87,-0.348 0.87,-0.869 v -4.955 c 0,-0.436 -0.347,-0.867 -0.87,-0.867 h -25.119 z"
           id="path2483" />
        <path
           style="fill:#b1c900"
           inkscape:connector-curvature="0"
           d="m 525.493,471.507 c -0.522,0 -0.869,-0.35 -0.869,-0.871 v -56.148 c 0,-0.521 -0.436,-0.869 -0.869,-0.869 h -6.085 c -0.521,0 -0.868,0.436 -0.868,0.869 v 55.889 c 0,4.605 2.781,7.822 7.822,7.822 h 25.119 0.869 c 0.435,0 0.87,-0.348 0.87,-0.869 v -4.955 c 0,-0.436 -0.349,-0.867 -0.87,-0.867 h -25.119 z"
           id="path2485" />
        <path
           style="fill:#b1c900"
           inkscape:connector-curvature="0"
           d="m 566.499,414.487 c 0,-0.434 -0.348,-0.869 -0.871,-0.869 h -6.083 c -0.435,0 -0.869,0.348 -0.869,0.869 v 62.842 c 0,0.521 0.435,0.869 0.869,0.869 h 6.083 c 0.523,0 0.871,-0.436 0.871,-0.869 z"
           id="path2487" />
        <path
           style="fill:#b1c900"
           inkscape:connector-curvature="0"
           d="m 669.903,470.202 -0.174,3.824 -1.563,-3.824 -21.382,-53.455 c -0.957,-2.867 -3.824,-3.736 -7.477,-3.736 h -1.303 c -3.909,0 -6.43,3.215 -6.43,6.432 v 57.887 c 0,0.434 0.346,0.869 0.867,0.869 h 6.085 c 0.435,0 0.955,-0.348 0.955,-0.869 v -54.322 l -0.261,-4.521 2.086,4.607 20.513,51.629 c 0.957,2.955 4.085,3.912 7.909,3.912 h 1.391 c 4,0 6.693,-3.305 6.693,-6.695 v -57.451 c 0,-0.521 -0.521,-0.869 -0.956,-0.869 h -6.085 c -0.521,0 -0.869,0.436 -0.869,0.869 v 55.713 z"
           id="path2489" />
        <path
           style="fill:#b1c900"
           inkscape:connector-curvature="0"
           d="m 724.733,478.198 c 0.436,0 0.87,-0.348 0.87,-0.869 v -4.955 c 0,-0.436 -0.349,-0.867 -0.87,-0.867 h -23.988 c -3.304,0 -5.477,-2.781 -5.477,-5.477 v -40.244 c 0,-2.693 2.173,-5.475 5.477,-5.475 h 23.988 c 0.436,0 0.87,-0.348 0.87,-0.869 v -4.955 c 0,-0.434 -0.349,-0.869 -0.87,-0.869 h -3.65 -21.033 c -7.996,0 -12.604,6.346 -12.604,12.604 v 39.373 c 0,6.258 4.607,12.604 12.604,12.604 h 16.166 8.517 z"
           id="path2491" />
        <path
           style="fill:#b1c900"
           inkscape:connector-curvature="0"
           d="m 771.301,478.198 c 0.434,0 0.869,-0.348 0.869,-0.869 v -4.955 c 0,-0.436 -0.35,-0.867 -0.869,-0.867 h -28.51 c -0.434,0 -0.869,-0.35 -0.869,-0.871 v -22.512 h 23.295 c 0.435,0 0.869,-0.348 0.869,-0.869 v -4.953 c 0,-0.436 -0.348,-0.869 -0.869,-0.869 h -1.391 -21.904 v -20.252 c 0,-0.436 0.348,-0.869 0.869,-0.869 h 28.51 c 0.434,0 0.869,-0.348 0.869,-0.869 v -4.955 c 0,-0.434 -0.35,-0.869 -0.869,-0.869 h -29.379 c -4.952,0 -7.822,3.912 -7.822,7.822 v 48.936 c 0,4.346 3.565,7.822 7.822,7.822 h 29.379 z"
           id="path2493" />
        <path
           style="fill:#008ac1"
           inkscape:connector-curvature="0"
           d="m 586.56,385.296 v -9.551 h 7.861 c 1.396,0 2.313,1.176 2.313,2.315 v 4.04 c 0,1.58 -1.248,3.196 -3.195,3.196 z m 7.935,2.829 c 1.689,0 2.792,1.433 2.792,2.791 v 4.151 c 0,1.139 -0.919,2.315 -2.314,2.315 h -8.412 v -9.257 z m 0.771,12.085 c 3.379,0 5.326,-2.681 5.326,-5.326 v -3.968 c 0,-1.616 -1.029,-3.526 -3.048,-4.187 1.542,-0.735 2.497,-2.167 2.497,-4.519 v -3.967 c 0,-2.644 -1.946,-5.326 -5.326,-5.326 h -11.094 c -0.185,0 -0.367,0.147 -0.367,0.367 v 26.559 c 0,0.183 0.147,0.367 0.367,0.367 z"
           id="path2495" />
        <path
           style="fill:#008ac1"
           inkscape:connector-curvature="0"
           d="m 609.334,397.382 c -0.734,0 -1.213,-0.625 -1.213,-1.213 v -15.795 c 0,-0.184 -0.146,-0.368 -0.367,-0.368 h -2.572 c -0.182,0 -0.366,0.147 -0.366,0.368 v 15.795 c 0,2.021 1.471,4.041 4.041,4.041 7.86,0 3.415,0 6.575,0 2.571,0 4.042,-2.02 4.042,-4.041 v -15.795 c 0,-0.184 -0.147,-0.368 -0.37,-0.368 h -2.607 c -0.184,0 -0.367,0.147 -0.367,0.368 v 15.795 c 0,0.588 -0.477,1.213 -1.21,1.213 z"
           id="path2497" />
        <path
           style="fill:#008ac1"
           inkscape:connector-curvature="0"
           d="m 635.965,382.835 c 0.184,0 0.367,-0.147 0.367,-0.367 v -2.094 c 0,-0.184 -0.146,-0.368 -0.367,-0.368 h -8.337 c -1.874,0 -3.749,1.066 -3.749,3.306 v 2.608 c 0,1.139 0.221,2.756 3.232,4.115 l 5.842,3.196 c 1.029,0.441 1.029,1.285 1.029,1.763 v 1.249 c 0,0.588 -0.479,1.139 -1.176,1.139 h -8.449 c -0.184,0 -0.367,0.147 -0.367,0.367 v 2.094 c 0,0.183 0.146,0.367 0.367,0.367 h 9.074 c 1.322,0 3.783,-0.588 3.783,-3.6 v -2.094 c 0,-1.322 -0.221,-2.571 -3.232,-4.114 l -5.805,-3.232 c -1.066,-0.551 -1.066,-1.25 -1.066,-1.727 v -1.432 c 0,-0.588 0.479,-1.176 1.179,-1.176 z"
           id="path2499" />
        <path
           style="fill:#008ac1"
           inkscape:connector-curvature="0"
           d="m 645.261,376.554 c 0.181,0 0.367,-0.147 0.367,-0.368 v -2.902 c 0,-0.184 -0.149,-0.367 -0.367,-0.367 h -2.794 c -0.221,0 -0.367,0.183 -0.367,0.367 v 2.902 c 0,0.221 0.184,0.368 0.367,0.368 z m -3.052,23.289 c 0,0.22 0.184,0.367 0.369,0.367 h 2.57 c 0.221,0 0.367,-0.184 0.367,-0.367 v -19.469 c 0,-0.184 -0.146,-0.368 -0.367,-0.368 h -2.57 c -0.186,0 -0.369,0.147 -0.369,0.368 z"
           id="path2501" />
        <path
           style="fill:#008ac1"
           inkscape:connector-curvature="0"
           d="m 661.018,382.835 c 0.735,0 1.211,0.625 1.211,1.212 v 15.796 c 0,0.183 0.149,0.367 0.37,0.367 h 2.57 c 0.184,0 0.368,-0.147 0.368,-0.367 v -15.796 c 0,-2.02 -1.471,-4.041 -4.041,-4.041 -7.86,0 -3.418,0 -6.576,0 -2.571,0 -4.041,2.021 -4.041,4.041 v 15.796 c 0,0.183 0.147,0.367 0.367,0.367 h 2.607 c 0.187,0 0.37,-0.147 0.37,-0.367 v -15.796 c 0,-0.587 0.438,-1.212 1.173,-1.212 z"
           id="path2503" />
        <path
           style="fill:#008ac1"
           inkscape:connector-curvature="0"
           d="m 673.618,393.488 c 0,-0.478 0.073,-0.845 0.698,-1.066 l 8.448,-1.91 c 1.947,-0.771 1.947,-2.461 1.947,-3.673 v -3.6 c 0,-2.24 -1.763,-3.233 -3.416,-3.233 h -7.678 c -2.131,0 -3.306,1.36 -3.306,3.306 v 12.674 0.918 c 0,2.241 1.726,3.306 3.416,3.306 h 9.661 c 0.147,0 0.256,-0.147 0.256,-0.257 v -2.315 c 0,-0.146 -0.108,-0.256 -0.256,-0.256 h -8.377 c -0.696,0 -1.395,-0.404 -1.395,-1.249 v -2.645 z m 1.323,-4.151 -1.323,0.588 v -5.988 c 0,-0.698 0.441,-1.102 1.14,-1.102 h 5.767 c 0.551,0 1.139,0.33 1.139,1.028 v 2.499 c 0,0.293 0.037,1.395 -0.771,1.579 z"
           id="path2505" />
        <path
           style="fill:#008ac1"
           inkscape:connector-curvature="0"
           d="m 700.836,382.835 c 0.184,0 0.367,-0.147 0.367,-0.367 v -2.094 c 0,-0.184 -0.146,-0.368 -0.367,-0.368 H 692.5 c -1.874,0 -3.749,1.066 -3.749,3.306 v 2.608 c 0,1.139 0.221,2.756 3.232,4.115 l 5.842,3.196 c 1.028,0.441 1.028,1.285 1.028,1.763 v 1.249 c 0,0.588 -0.478,1.139 -1.175,1.139 h -8.449 c -0.184,0 -0.367,0.147 -0.367,0.367 v 2.094 c 0,0.183 0.146,0.367 0.367,0.367 h 9.072 c 1.324,0 3.785,-0.588 3.785,-3.6 v -2.094 c 0,-1.322 -0.221,-2.571 -3.233,-4.114 l -5.804,-3.232 c -1.066,-0.551 -1.066,-1.25 -1.066,-1.727 v -1.432 c 0,-0.588 0.479,-1.176 1.179,-1.176 z"
           id="path2507" />
        <path
           style="fill:#008ac1"
           inkscape:connector-curvature="0"
           d="m 718.211,382.835 c 0.184,0 0.367,-0.147 0.367,-0.367 v -2.094 c 0,-0.184 -0.146,-0.368 -0.367,-0.368 h -8.337 c -1.874,0 -3.749,1.066 -3.749,3.306 v 2.608 c 0,1.139 0.221,2.756 3.232,4.115 l 5.842,3.196 c 1.028,0.441 1.028,1.285 1.028,1.763 v 1.249 c 0,0.588 -0.478,1.139 -1.175,1.139 h -8.449 c -0.184,0 -0.367,0.147 -0.367,0.367 v 2.094 c 0,0.183 0.146,0.367 0.367,0.367 h 9.072 c 1.323,0 3.785,-0.588 3.785,-3.6 v -2.094 c 0,-1.322 -0.221,-2.571 -3.233,-4.114 l -5.804,-3.232 c -1.066,-0.551 -1.066,-1.25 -1.066,-1.727 v -1.432 c 0,-0.588 0.479,-1.176 1.176,-1.176 z"
           id="path2509" />
        <path
           style="fill:#008ac1"
           inkscape:connector-curvature="0"
           d="m 595.472,361.884 c 3.381,0 5.327,-2.681 5.327,-5.326 v -16.641 c 0,-2.644 -1.946,-5.326 -5.327,-5.326 h -7.235 c -3.38,0 -5.327,2.682 -5.327,5.326 v 16.641 c 0,2.645 1.947,5.326 5.327,5.326 z m -6.941,-2.828 c -1.396,0 -2.315,-1.175 -2.315,-2.314 v -17.008 c 0,-1.139 0.919,-2.314 2.315,-2.314 h 6.648 c 1.395,0 2.312,1.175 2.312,2.314 v 17.008 c 0,1.139 -0.918,2.314 -2.312,2.314 z"
           id="path2511" />
        <path
           style="fill:#008ac1"
           inkscape:connector-curvature="0"
           d="m 605.758,368.717 c 0,0.22 0.184,0.367 0.367,0.367 h 2.57 c 0.221,0 0.367,-0.184 0.367,-0.367 v -6.833 c 0.589,0 1.323,0 7.569,0 2.497,0 3.967,-1.983 3.967,-3.967 v -12.195 c 0,-2.241 -1.837,-4.041 -4.042,-4.041 h -6.832 c -2.572,0 -3.967,1.616 -3.967,3.967 v 23.069 z m 3.342,-23.069 c 0,-0.587 0.441,-1.139 1.139,-1.139 h 5.842 c 0.589,0 1.211,0.478 1.211,1.213 v 12.159 c 0,0.587 -0.479,1.175 -1.174,1.175 H 609.1 Z"
           id="path2513" />
        <path
           style="fill:#008ac1"
           inkscape:connector-curvature="0"
           d="m 628.128,355.162 c 0,-0.477 0.073,-0.844 0.698,-1.065 l 8.447,-1.911 c 1.947,-0.771 1.947,-2.46 1.947,-3.673 v -3.6 c 0,-2.24 -1.762,-3.232 -3.416,-3.232 h -7.677 c -2.129,0 -3.308,1.359 -3.308,3.306 v 12.673 0.919 c 0,2.24 1.729,3.305 3.418,3.305 h 9.66 c 0.148,0 0.256,-0.146 0.256,-0.257 v -2.314 c 0,-0.147 -0.107,-0.257 -0.256,-0.257 h -8.375 c -0.697,0 -1.396,-0.404 -1.396,-1.249 v -2.645 z m 1.324,-4.151 -1.323,0.588 v -5.987 c 0,-0.699 0.441,-1.103 1.138,-1.103 h 5.768 c 0.551,0 1.139,0.331 1.139,1.029 v 2.498 c 0,0.294 0.037,1.396 -0.771,1.579 z"
           id="path2515" />
        <path
           style="fill:#008ac1"
           inkscape:connector-curvature="0"
           d="m 653.768,344.509 c 0.735,0 1.211,0.625 1.211,1.213 v 15.795 c 0,0.184 0.149,0.367 0.37,0.367 h 2.57 c 0.184,0 0.368,-0.146 0.368,-0.367 v -15.795 c 0,-2.021 -1.471,-4.041 -4.041,-4.041 -7.86,0 -3.416,0 -6.576,0 -2.571,0 -4.041,2.02 -4.041,4.041 v 15.795 c 0,0.184 0.147,0.367 0.367,0.367 h 2.607 c 0.187,0 0.37,-0.146 0.37,-0.367 v -15.795 c 0,-0.588 0.438,-1.213 1.173,-1.213 z"
           id="path2517" />
        <path
           style="fill:#008ac1"
           inkscape:connector-curvature="0"
           d="m 681.283,361.884 c 2.239,0 4.592,-1.359 4.592,-4.371 v -3.453 c 0,-1.653 0,-3.931 -2.646,-4.996 l -9.845,-3.93 c -1.026,-0.404 -0.918,-1.983 -0.918,-2.461 v -3.563 c 0,-1.139 0.955,-1.69 1.91,-1.69 h 10.507 c 0.184,0 0.367,-0.147 0.367,-0.367 v -2.094 c 0,-0.184 -0.146,-0.368 -0.367,-0.368 h -10.985 c -2.239,0 -4.59,1.433 -4.59,4.445 v 3.82 c 0,1.653 0.035,4.042 2.976,5.107 l 9.513,3.893 c 0.992,0.404 0.92,1.984 0.92,2.462 v 3.048 c 0,1.139 -0.957,1.69 -1.912,1.69 h -10.836 c -0.184,0 -0.367,0.147 -0.367,0.367 v 2.094 c 0,0.184 0.149,0.367 0.367,0.367 z"
           id="path2519" />
        <path
           style="fill:#008ac1"
           inkscape:connector-curvature="0"
           d="m 704.643,345.722 c 0,-2.094 -2.094,-4.041 -4.04,-4.041 h -6.684 c -2.169,0 -4.004,1.763 -4.004,4.004 v 12.232 c 0,1.984 1.284,3.967 3.967,3.967 h 6.942 c 2.533,0 3.818,-1.983 3.818,-3.967 v -12.195 z m -3.305,12.159 c 0,0.587 -0.478,1.175 -1.176,1.175 h -5.73 c -0.699,0 -1.175,-0.588 -1.175,-1.175 v -12.159 c 0,-0.735 0.588,-1.213 1.21,-1.213 h 5.695 c 0.698,0 1.176,0.588 1.176,1.176 z"
           id="path2521" />
        <path
           style="fill:#008ac1"
           inkscape:connector-curvature="0"
           d="m 713.937,359.056 c -0.733,0 -1.212,-0.624 -1.212,-1.212 v -15.795 c 0,-0.184 -0.146,-0.368 -0.367,-0.368 h -2.571 c -0.184,0 -0.367,0.147 -0.367,0.368 v 15.795 c 0,2.02 1.468,4.04 4.04,4.04 7.861,0 3.416,0 6.577,0 2.569,0 4.04,-2.02 4.04,-4.04 v -15.795 c 0,-0.184 -0.148,-0.368 -0.369,-0.368 H 721.1 c -0.184,0 -0.367,0.147 -0.367,0.368 v 15.795 c 0,0.588 -0.479,1.212 -1.213,1.212 z"
           id="path2523" />
        <path
           style="fill:#008ac1"
           inkscape:connector-curvature="0"
           d="m 738.034,344.693 c 0.184,0 0.368,-0.147 0.368,-0.367 v -2.277 c 0,-0.184 -0.147,-0.368 -0.368,-0.368 h -5.143 c -2.571,0 -4.041,2.02 -4.041,4.041 l 0.037,15.795 c 0,0.184 0.149,0.367 0.367,0.367 h 2.607 c 0.184,0 0.367,-0.146 0.367,-0.367 l 0.037,-15.942 c 0,-0.662 0.625,-0.882 0.809,-0.882 z"
           id="path2525" />
        <path
           style="fill:#008ac1"
           inkscape:connector-curvature="0"
           d="m 752.838,361.884 c 0.182,0 0.367,-0.146 0.367,-0.367 v -2.094 c 0,-0.184 -0.148,-0.367 -0.367,-0.367 h -7.677 c -0.588,0 -1.14,-0.441 -1.14,-1.139 v -12.232 c 0,-0.588 0.478,-1.176 1.174,-1.176 h 7.643 c 0.182,0 0.367,-0.147 0.367,-0.367 v -2.093 c 0,-0.184 -0.148,-0.368 -0.367,-0.368 h -0.588 -7.53 c -2.536,0 -4.005,2.02 -4.005,4.004 v 12.196 c 0,2.24 1.838,4.003 4.005,4.003 h 5.472 z"
           id="path2527" />
        <path
           style="fill:#008ac1"
           inkscape:connector-curvature="0"
           d="m 760.184,355.162 c 0,-0.477 0.074,-0.844 0.698,-1.065 l 8.448,-1.911 c 1.947,-0.771 1.947,-2.46 1.947,-3.673 v -3.6 c 0,-2.24 -1.764,-3.232 -3.417,-3.232 h -7.677 c -2.131,0 -3.306,1.359 -3.306,3.306 v 12.673 0.919 c 0,2.24 1.726,3.305 3.417,3.305 h 9.66 c 0.147,0 0.256,-0.146 0.256,-0.257 v -2.314 c 0,-0.147 -0.108,-0.257 -0.256,-0.257 h -8.375 c -0.698,0 -1.396,-0.404 -1.396,-1.249 v -2.645 z m 1.323,-4.151 -1.323,0.588 v -5.987 c 0,-0.699 0.441,-1.103 1.14,-1.103 h 5.767 c 0.551,0 1.139,0.331 1.139,1.029 v 2.498 c 0,0.294 0.037,1.396 -0.771,1.579 z"
           id="path2529" />
        <g
           id="g2611">
          <path
             style="fill:#008ac1"
             inkscape:connector-curvature="0"
             d="m 417.938,503.717 c -0.109,0 -0.183,-0.092 -0.183,-0.183 v -13.213 c 0,-0.11 0.092,-0.184 0.183,-0.184 h 5.52 c 1.681,0 2.649,1.335 2.649,2.65 v 1.975 c 0,1.169 -0.476,1.881 -1.242,2.247 1.005,0.329 1.517,1.279 1.517,2.083 v 1.974 c 0,1.316 -0.969,2.65 -2.65,2.65 h -5.794 z m 4.935,-7.42 c 0.969,0 1.59,-0.804 1.59,-1.59 v -2.01 c 0,-0.566 -0.457,-1.151 -1.151,-1.151 H 419.4 v 4.751 z m -3.473,1.407 v 4.605 h 4.185 c 0.695,0 1.151,-0.585 1.151,-1.151 v -2.065 c 0,-0.676 -0.548,-1.389 -1.389,-1.389 z"
             id="path2531" />
          <path
             style="fill:#008ac1"
             inkscape:connector-curvature="0"
             d="m 433.603,502.31 c 0.366,0 0.604,-0.311 0.604,-0.604 v -7.857 c 0,-0.11 0.091,-0.184 0.183,-0.184 h 1.297 c 0.109,0 0.183,0.092 0.183,0.184 v 7.857 c 0,1.005 -0.73,2.011 -2.01,2.011 -1.571,0 0.64,0 -3.271,0 -1.278,0 -2.01,-1.006 -2.01,-2.011 v -7.857 c 0,-0.11 0.092,-0.184 0.183,-0.184 h 1.279 c 0.109,0 0.184,0.092 0.184,0.184 v 7.857 c 0,0.293 0.237,0.604 0.602,0.604 z"
             id="path2533" />
          <path
             style="fill:#008ac1"
             inkscape:connector-curvature="0"
             d="m 440.587,495.073 c -0.365,0 -0.585,0.31 -0.585,0.603 v 7.858 c 0,0.109 -0.091,0.183 -0.183,0.183 h -1.297 c -0.11,0 -0.184,-0.092 -0.184,-0.183 v -7.858 c 0,-1.005 0.731,-2.011 2.01,-2.011 1.572,0 -0.64,0 3.271,0 1.279,0 2.01,1.006 2.01,2.011 v 7.858 c 0,0.109 -0.091,0.183 -0.183,0.183 h -1.279 c -0.108,0 -0.183,-0.092 -0.183,-0.183 v -7.858 c 0,-0.293 -0.237,-0.603 -0.603,-0.603 z"
             id="path2535" />
          <path
             style="fill:#008ac1"
             inkscape:connector-curvature="0"
             d="m 455.21,501.743 c 0,1.169 -0.695,1.974 -1.974,1.974 h -3.399 c -1.097,0 -2.011,-0.896 -2.011,-2.011 v -6.066 c 0,-0.987 0.731,-1.975 1.974,-1.975 h 3.765 v -3.344 c 0,-0.092 0.073,-0.184 0.184,-0.184 h 1.278 c 0.092,0 0.184,0.074 0.184,0.184 v 11.422 z m -5.154,-6.67 c -0.347,0 -0.585,0.292 -0.585,0.585 v 6.048 c 0,0.366 0.311,0.604 0.604,0.604 h 2.905 c 0.348,0 0.567,-0.274 0.567,-0.566 v -6.67 h -0.184 -3.307 z"
             id="path2537" />
          <path
             style="fill:#008ac1"
             inkscape:connector-curvature="0"
             d="m 459.325,501.688 c 0,0.42 0.348,0.622 0.694,0.622 h 4.166 c 0.073,0 0.129,0.055 0.129,0.127 v 1.151 c 0,0.055 -0.056,0.129 -0.129,0.129 h -4.806 c -0.84,0 -1.699,-0.53 -1.699,-1.645 v -0.458 -6.304 c 0,-0.969 0.585,-1.646 1.645,-1.646 h 3.819 c 0.822,0 1.699,0.494 1.699,1.608 v 1.791 c 0,0.604 0,1.444 -0.969,1.827 l -4.202,0.95 c -0.311,0.11 -0.348,0.293 -0.348,0.53 v 1.318 z m 3.619,-4.075 c 0.401,-0.092 0.383,-0.641 0.383,-0.786 v -1.243 c 0,-0.347 -0.292,-0.511 -0.566,-0.511 h -2.869 c -0.348,0 -0.566,0.2 -0.566,0.548 v 2.979 l 0.658,-0.293 z"
             id="path2539" />
          <path
             style="fill:#008ac1"
             inkscape:connector-curvature="0"
             d="m 469.141,495.073 c -0.347,0 -0.584,0.292 -0.584,0.585 v 0.712 c 0,0.237 0,0.585 0.529,0.858 l 2.888,1.609 c 1.498,0.767 1.608,1.388 1.608,2.046 v 1.042 c 0,1.498 -1.225,1.791 -1.883,1.791 h -4.514 c -0.109,0 -0.183,-0.092 -0.183,-0.183 v -1.042 c 0,-0.109 0.092,-0.183 0.183,-0.183 h 4.203 c 0.348,0 0.585,-0.274 0.585,-0.566 v -0.622 c 0,-0.237 0,-0.657 -0.512,-0.877 l -2.905,-1.59 c -1.499,-0.676 -1.609,-1.48 -1.609,-2.047 v -1.297 c 0,-1.114 0.933,-1.646 1.864,-1.646 h 4.149 c 0.108,0 0.182,0.092 0.182,0.184 v 1.041 c 0,0.11 -0.092,0.184 -0.182,0.184 h -3.819 z"
             id="path2541" />
          <path
             style="fill:#008ac1"
             inkscape:connector-curvature="0"
             d="m 481.004,503.168 c -0.164,0.512 -0.695,0.677 -1.353,0.677 -0.658,0 -1.188,-0.165 -1.353,-0.677 l -3.052,-9.265 c -0.055,-0.165 0.037,-0.238 0.238,-0.238 h 1.041 c 0.273,0 0.494,0.22 0.549,0.439 l 2.411,7.675 0.221,0.896 0.182,-0.896 2.34,-7.675 c 0.055,-0.22 0.273,-0.439 0.548,-0.439 h 1.041 c 0.202,0 0.293,0.073 0.238,0.238 z"
             id="path2543" />
          <path
             style="fill:#008ac1"
             inkscape:connector-curvature="0"
             d="m 487.367,501.688 c 0,0.42 0.347,0.622 0.694,0.622 h 4.167 c 0.073,0 0.127,0.055 0.127,0.127 v 1.151 c 0,0.055 -0.054,0.129 -0.127,0.129 h -4.807 c -0.841,0 -1.699,-0.53 -1.699,-1.645 v -0.458 -6.304 c 0,-0.969 0.585,-1.646 1.645,-1.646 h 3.819 c 0.822,0 1.7,0.494 1.7,1.608 v 1.791 c 0,0.604 0,1.444 -0.969,1.827 l -4.204,0.95 c -0.311,0.11 -0.347,0.293 -0.347,0.53 v 1.318 z m 3.618,-4.075 c 0.402,-0.092 0.384,-0.641 0.384,-0.786 v -1.243 c 0,-0.347 -0.292,-0.511 -0.566,-0.511 h -2.869 c -0.347,0 -0.566,0.2 -0.566,0.548 v 2.979 l 0.657,-0.293 z"
             id="path2545" />
          <path
             style="fill:#008ac1"
             inkscape:connector-curvature="0"
             d="m 497.275,495.164 c -0.092,0 -0.402,0.109 -0.402,0.438 l -0.019,7.932 c 0,0.109 -0.091,0.183 -0.183,0.183 h -1.298 c -0.109,0 -0.183,-0.092 -0.183,-0.183 l -0.018,-7.858 c 0,-1.005 0.73,-2.011 2.01,-2.011 h 2.559 c 0.109,0 0.183,0.092 0.183,0.184 v 1.133 c 0,0.11 -0.092,0.183 -0.183,0.183 h -2.466 z"
             id="path2547" />
          <path
             style="fill:#008ac1"
             inkscape:connector-curvature="0"
             d="m 501.461,490.321 c 0,-0.11 0.092,-0.184 0.184,-0.184 h 1.278 c 0.11,0 0.184,0.092 0.184,0.184 v 3.344 c 0.292,0 0.657,0 3.765,0 1.242,0 1.973,0.987 1.973,1.975 v 6.066 c 0,1.115 -0.913,2.011 -2.01,2.011 h -3.399 c -1.278,0 -1.974,-0.805 -1.974,-1.974 v -11.422 z m 1.664,11.422 c 0,0.292 0.22,0.566 0.567,0.566 h 2.905 c 0.292,0 0.604,-0.237 0.604,-0.604 v -6.048 c 0,-0.293 -0.238,-0.585 -0.585,-0.585 h -3.491 z"
             id="path2549" />
          <path
             style="fill:#008ac1"
             inkscape:connector-curvature="0"
             d="m 516.194,495.693 c 0,-0.42 -0.347,-0.62 -0.694,-0.62 h -3.91 c -0.073,0 -0.128,-0.056 -0.128,-0.129 v -1.151 c 0,-0.055 0.055,-0.128 0.128,-0.128 h 4.55 c 0.841,0 1.699,0.531 1.699,1.646 v 0.456 6.306 c 0,0.968 -0.585,1.645 -1.645,1.645 h -3.637 c -0.822,0 -1.699,-0.493 -1.699,-1.608 v -1.846 c 0,-0.604 0,-1.443 0.969,-1.828 l 4.021,-1.077 c 0.311,-0.129 0.347,-0.256 0.347,-0.494 v -1.172 z m -3.436,3.911 c -0.384,0.165 -0.384,0.64 -0.384,0.785 v 1.408 c 0,0.347 0.293,0.512 0.566,0.512 h 2.687 c 0.348,0 0.566,-0.201 0.566,-0.548 v -3.145 l -0.529,0.274 z"
             id="path2551" />
          <path
             style="fill:#008ac1"
             inkscape:connector-curvature="0"
             d="m 522.556,495.073 c -0.365,0 -0.585,0.31 -0.585,0.603 v 7.858 c 0,0.109 -0.091,0.183 -0.182,0.183 h -1.298 c -0.109,0 -0.183,-0.092 -0.183,-0.183 v -7.858 c 0,-1.005 0.731,-2.011 2.01,-2.011 1.571,0 -0.64,0 3.271,0 1.279,0 2.01,1.006 2.01,2.011 v 7.858 c 0,0.109 -0.091,0.183 -0.183,0.183 h -1.279 c -0.109,0 -0.183,-0.092 -0.183,-0.183 v -7.858 c 0,-0.293 -0.237,-0.603 -0.603,-0.603 z"
             id="path2553" />
          <path
             style="fill:#008ac1"
             inkscape:connector-curvature="0"
             d="m 537.179,501.743 c 0,1.169 -0.694,1.974 -1.974,1.974 h -3.398 c -1.097,0 -2.011,-0.896 -2.011,-2.011 v -6.066 c 0,-0.987 0.731,-1.975 1.974,-1.975 h 3.765 v -3.344 c 0,-0.092 0.073,-0.184 0.183,-0.184 h 1.279 c 0.092,0 0.183,0.074 0.183,0.184 v 11.422 z m -5.153,-6.67 c -0.347,0 -0.585,0.292 -0.585,0.585 v 6.048 c 0,0.366 0.311,0.604 0.604,0.604 h 2.905 c 0.348,0 0.567,-0.274 0.567,-0.566 v -6.67 h -0.184 -3.307 z"
             id="path2555" />
          <path
             style="fill:#008ac1"
             inkscape:connector-curvature="0"
             d="m 550.542,495.511 c 0.11,0 0.184,0.092 0.184,0.183 v 1.042 c 0,0.11 -0.092,0.183 -0.184,0.183 h -2.924 v 6.616 c 0,0.109 -0.091,0.183 -0.182,0.183 h -1.298 c -0.11,0 -0.183,-0.092 -0.183,-0.183 v -11.403 c 0,-0.987 0.73,-1.993 1.991,-1.993 h 3.327 c 0.109,0 0.182,0.092 0.182,0.184 v 1.041 c 0,0.11 -0.091,0.184 -0.182,0.184 h -3.071 c -0.347,0 -0.585,0.292 -0.585,0.585 v 3.38 h 2.925 z"
             id="path2557" />
          <path
             style="fill:#008ac1"
             inkscape:connector-curvature="0"
             d="m 557.929,502.31 c 0.365,0 0.603,-0.311 0.603,-0.604 v -7.857 c 0,-0.11 0.092,-0.184 0.183,-0.184 h 1.297 c 0.11,0 0.184,0.092 0.184,0.184 v 7.857 c 0,1.005 -0.731,2.011 -2.01,2.011 -1.572,0 0.639,0 -3.271,0 -1.279,0 -2.01,-1.006 -2.01,-2.011 v -7.857 c 0,-0.11 0.091,-0.184 0.183,-0.184 h 1.279 c 0.109,0 0.183,0.092 0.183,0.184 v 7.857 c 0,0.293 0.237,0.604 0.603,0.604 z m -3.491,-10.363 c -0.091,0 -0.183,-0.073 -0.183,-0.183 v -1.443 c 0,-0.092 0.073,-0.184 0.183,-0.184 h 1.279 c 0.11,0 0.183,0.092 0.183,0.184 v 1.443 c 0,0.109 -0.091,0.183 -0.183,0.183 z m 2.961,0 c -0.092,0 -0.183,-0.073 -0.183,-0.183 v -1.443 c 0,-0.092 0.183,-0.184 0.183,-0.184 h 1.279 c 0.109,0 0.183,0.092 0.183,0.184 v 1.443 c 0,0.109 -0.092,0.183 -0.183,0.183 z"
             id="path2559" />
          <path
             style="fill:#008ac1"
             inkscape:connector-curvature="0"
             d="m 564.767,495.164 c -0.092,0 -0.402,0.109 -0.402,0.438 l -0.019,7.932 c 0,0.109 -0.092,0.183 -0.183,0.183 h -1.298 c -0.109,0 -0.183,-0.092 -0.183,-0.183 l -0.018,-7.858 c 0,-1.005 0.73,-2.011 2.01,-2.011 h 2.559 c 0.109,0 0.182,0.092 0.182,0.184 v 1.133 c 0,0.11 -0.091,0.183 -0.182,0.183 h -2.466 z"
             id="path2561" />
          <path
             style="fill:#008ac1"
             inkscape:connector-curvature="0"
             d="m 581.961,501.743 c 0,1.169 -0.694,1.974 -1.974,1.974 h -3.398 c -1.097,0 -2.011,-0.896 -2.011,-2.011 v -6.066 c 0,-0.987 0.73,-1.975 1.974,-1.975 h 3.765 v -3.344 c 0,-0.092 0.073,-0.184 0.183,-0.184 h 1.279 c 0.092,0 0.183,0.074 0.183,0.184 v 11.422 z m -5.153,-6.67 c -0.348,0 -0.585,0.292 -0.585,0.585 v 6.048 c 0,0.366 0.311,0.604 0.604,0.604 h 2.905 c 0.348,0 0.566,-0.274 0.566,-0.566 v -6.67 h -0.183 -3.307 z"
             id="path2563" />
          <path
             style="fill:#008ac1"
             inkscape:connector-curvature="0"
             d="m 584.852,491.947 c -0.091,0 -0.183,-0.073 -0.183,-0.183 v -1.443 c 0,-0.092 0.073,-0.184 0.183,-0.184 h 1.39 c 0.109,0 0.183,0.092 0.183,0.184 v 1.443 c 0,0.109 -0.092,0.183 -0.183,0.183 z m -0.127,1.902 c 0,-0.11 0.091,-0.184 0.182,-0.184 h 1.28 c 0.108,0 0.182,0.092 0.182,0.184 v 9.686 c 0,0.091 -0.073,0.183 -0.182,0.183 h -1.28 c -0.091,0 -0.182,-0.074 -0.182,-0.183 z"
             id="path2565" />
          <path
             style="fill:#008ac1"
             inkscape:connector-curvature="0"
             d="m 596.219,505.215 c 0,1.225 -0.747,2.084 -2.082,2.084 h -4.148 c -0.072,0 -0.127,-0.056 -0.127,-0.129 v -1.151 c 0,-0.055 0.055,-0.127 0.127,-0.127 h 3.894 c 0.329,0 0.675,-0.274 0.675,-0.677 v -1.498 h -3.454 c -1.241,0 -1.973,-0.987 -1.973,-1.974 v -6.067 c 0,-1.115 0.913,-2.011 2.01,-2.011 h 3.088 c 1.263,0 1.991,1.006 1.991,1.993 v 9.557 z m -1.662,-9.539 c 0,-0.365 -0.311,-0.603 -0.603,-0.603 h -2.576 c -0.293,0 -0.604,0.237 -0.604,0.603 v 6.049 c 0,0.292 0.237,0.585 0.585,0.585 h 3.197 v -6.634 z"
             id="path2567" />
          <path
             style="fill:#008ac1"
             inkscape:connector-curvature="0"
             d="m 599.11,491.947 c -0.09,0 -0.182,-0.073 -0.182,-0.183 v -1.443 c 0,-0.092 0.072,-0.184 0.182,-0.184 h 1.391 c 0.107,0 0.182,0.092 0.182,0.184 v 1.443 c 0,0.109 -0.092,0.183 -0.182,0.183 z m -0.127,1.902 c 0,-0.11 0.092,-0.184 0.182,-0.184 h 1.279 c 0.111,0 0.184,0.092 0.184,0.184 v 9.686 c 0,0.091 -0.072,0.183 -0.184,0.183 h -1.279 c -0.09,0 -0.182,-0.074 -0.182,-0.183 z"
             id="path2569" />
          <path
             style="fill:#008ac1"
             inkscape:connector-curvature="0"
             d="m 605.051,494.944 v 6.762 c 0,0.311 0.236,0.604 0.604,0.604 h 1.699 0.184 c 0.109,0 0.182,0.091 0.182,0.183 v 1.042 c 0,0.109 -0.092,0.183 -0.182,0.183 h -2.176 c -0.949,0 -1.973,-0.749 -1.973,-1.974 v -10.929 c 0,-0.11 0.055,-0.219 0.182,-0.256 l 1.299,-0.402 c 0.145,-0.054 0.182,0.092 0.182,0.184 v 3.198 h 2.266 c 0.109,0 0.184,0.09 0.184,0.182 v 1.043 c 0,0.108 -0.092,0.182 -0.184,0.182 h -2.267 z"
             id="path2571" />
          <path
             style="fill:#008ac1"
             inkscape:connector-curvature="0"
             d="m 615.104,495.693 c 0,-0.42 -0.348,-0.62 -0.695,-0.62 h -3.91 c -0.072,0 -0.129,-0.056 -0.129,-0.129 v -1.151 c 0,-0.055 0.057,-0.128 0.129,-0.128 h 4.551 c 0.84,0 1.699,0.531 1.699,1.646 v 0.456 6.306 c 0,0.968 -0.584,1.645 -1.645,1.645 h -3.637 c -0.82,0 -1.699,-0.493 -1.699,-1.608 v -1.846 c 0,-0.604 0,-1.443 0.969,-1.828 l 4.02,-1.077 c 0.311,-0.129 0.348,-0.256 0.348,-0.494 v -1.172 z m -3.436,3.911 c -0.383,0.165 -0.383,0.64 -0.383,0.785 v 1.408 c 0,0.347 0.291,0.512 0.564,0.512 h 2.688 c 0.348,0 0.566,-0.201 0.566,-0.548 v -3.145 l -0.531,0.274 z"
             id="path2573" />
          <path
             style="fill:#008ac1"
             inkscape:connector-curvature="0"
             d="m 622.491,502.31 c 0.109,0 0.184,0.091 0.184,0.183 v 1.042 c 0,0.109 -0.094,0.183 -0.184,0.183 h -0.184 -1.352 c -1.059,0 -1.645,-0.677 -1.645,-1.645 v -11.751 c 0,-0.092 0.072,-0.184 0.182,-0.184 h 1.279 c 0.092,0 0.184,0.074 0.184,0.184 v 11.805 c 0,0.11 0.074,0.184 0.182,0.184 h 1.354 z"
             id="path2575" />
          <path
             style="fill:#008ac1"
             inkscape:connector-curvature="0"
             d="m 626.182,501.688 c 0,0.42 0.348,0.622 0.695,0.622 h 4.166 c 0.074,0 0.127,0.055 0.127,0.127 v 1.151 c 0,0.055 -0.053,0.129 -0.127,0.129 h -4.805 c -0.842,0 -1.701,-0.53 -1.701,-1.645 v -0.458 -6.304 c 0,-0.969 0.586,-1.646 1.645,-1.646 h 3.82 c 0.822,0 1.699,0.494 1.699,1.608 v 1.791 c 0,0.604 0,1.444 -0.969,1.827 l -4.203,0.95 c -0.311,0.11 -0.348,0.293 -0.348,0.53 v 1.318 z m 3.619,-4.075 c 0.402,-0.092 0.385,-0.641 0.385,-0.786 v -1.243 c 0,-0.347 -0.293,-0.511 -0.566,-0.511 h -2.869 c -0.348,0 -0.568,0.2 -0.568,0.548 v 2.979 l 0.658,-0.293 z"
             id="path2577" />
          <path
             style="fill:#008ac1"
             inkscape:connector-curvature="0"
             d="m 640.12,503.717 c -0.109,0 -0.182,-0.092 -0.182,-0.183 v -1.042 c 0,-0.109 0.09,-0.183 0.182,-0.183 h 5.391 c 0.477,0 0.951,-0.274 0.951,-0.841 v -1.517 c 0,-0.237 0.035,-1.024 -0.457,-1.225 l -4.734,-1.937 c -1.461,-0.53 -1.479,-1.718 -1.479,-2.541 v -1.9 c 0,-1.498 1.168,-2.212 2.283,-2.212 h 5.465 c 0.109,0 0.184,0.092 0.184,0.184 v 1.041 c 0,0.11 -0.094,0.184 -0.184,0.184 h -5.227 c -0.475,0 -0.949,0.274 -0.949,0.841 v 1.772 c 0,0.237 -0.057,1.022 0.455,1.224 l 4.898,1.956 c 1.316,0.529 1.316,1.663 1.316,2.484 v 1.718 c 0,1.499 -1.17,2.176 -2.285,2.176 h -5.628 z"
             id="path2579" />
          <path
             style="fill:#008ac1"
             inkscape:connector-curvature="0"
             d="m 657.465,501.743 c 0,0.986 -0.639,1.974 -1.9,1.974 h -3.453 c -1.334,0 -1.975,-0.987 -1.975,-1.974 v -6.085 c 0,-1.116 0.914,-1.993 1.992,-1.993 h 3.326 c 0.967,0 2.01,0.969 2.01,2.011 z m -1.644,-6.085 c 0,-0.293 -0.238,-0.585 -0.586,-0.585 h -2.832 c -0.311,0 -0.602,0.237 -0.602,0.603 v 6.049 c 0,0.292 0.236,0.585 0.584,0.585 h 2.85 c 0.348,0 0.586,-0.293 0.586,-0.585 z"
             id="path2581" />
          <path
             style="fill:#008ac1"
             inkscape:connector-curvature="0"
             d="m 664.961,502.31 c 0.365,0 0.604,-0.311 0.604,-0.604 v -7.857 c 0,-0.11 0.09,-0.184 0.182,-0.184 h 1.299 c 0.107,0 0.182,0.092 0.182,0.184 v 7.857 c 0,1.005 -0.73,2.011 -2.01,2.011 -1.572,0 0.639,0 -3.271,0 -1.279,0 -2.01,-1.006 -2.01,-2.011 v -7.857 c 0,-0.11 0.092,-0.184 0.182,-0.184 h 1.281 c 0.109,0 0.182,0.092 0.182,0.184 v 7.857 c 0,0.293 0.238,0.604 0.604,0.604 z"
             id="path2583" />
          <path
             style="fill:#008ac1"
             inkscape:connector-curvature="0"
             d="m 674.833,503.168 c -0.164,0.512 -0.693,0.677 -1.352,0.677 -0.659,0 -1.188,-0.165 -1.352,-0.677 l -3.053,-9.265 c -0.055,-0.165 0.035,-0.238 0.236,-0.238 h 1.043 c 0.273,0 0.492,0.22 0.547,0.439 l 2.414,7.675 0.219,0.896 0.182,-0.896 2.34,-7.675 c 0.055,-0.22 0.273,-0.439 0.547,-0.439 h 1.043 c 0.201,0 0.293,0.073 0.238,0.238 z"
             id="path2585" />
          <path
             style="fill:#008ac1"
             inkscape:connector-curvature="0"
             d="m 681.196,501.688 c 0,0.42 0.348,0.622 0.695,0.622 h 4.166 c 0.072,0 0.127,0.055 0.127,0.127 v 1.151 c 0,0.055 -0.055,0.129 -0.127,0.129 h -4.807 c -0.84,0 -1.699,-0.53 -1.699,-1.645 v -0.458 -6.304 c 0,-0.969 0.584,-1.646 1.645,-1.646 h 3.818 c 0.822,0 1.699,0.494 1.699,1.608 v 1.791 c 0,0.604 0,1.444 -0.967,1.827 l -4.203,0.95 c -0.311,0.11 -0.348,0.293 -0.348,0.53 v 1.318 z m 3.619,-4.075 c 0.402,-0.092 0.383,-0.641 0.383,-0.786 v -1.243 c 0,-0.347 -0.293,-0.511 -0.566,-0.511 h -2.869 c -0.346,0 -0.566,0.2 -0.566,0.548 v 2.979 l 0.658,-0.293 z"
             id="path2587" />
          <path
             style="fill:#008ac1"
             inkscape:connector-curvature="0"
             d="m 691.102,495.164 c -0.09,0 -0.402,0.109 -0.402,0.438 l -0.018,7.932 c 0,0.109 -0.092,0.183 -0.182,0.183 h -1.299 c -0.109,0 -0.182,-0.092 -0.182,-0.183 l -0.02,-7.858 c 0,-1.005 0.73,-2.011 2.012,-2.011 h 2.557 c 0.111,0 0.184,0.092 0.184,0.184 v 1.133 c 0,0.11 -0.092,0.183 -0.184,0.183 h -2.466 z"
             id="path2589" />
          <path
             style="fill:#008ac1"
             inkscape:connector-curvature="0"
             d="m 700.735,495.693 c 0,-0.42 -0.346,-0.62 -0.693,-0.62 h -3.91 c -0.074,0 -0.129,-0.056 -0.129,-0.129 v -1.151 c 0,-0.055 0.055,-0.128 0.129,-0.128 h 4.549 c 0.842,0 1.701,0.531 1.701,1.646 v 0.456 6.306 c 0,0.968 -0.586,1.645 -1.646,1.645 H 697.1 c -0.822,0 -1.699,-0.493 -1.699,-1.608 v -1.846 c 0,-0.604 0,-1.443 0.967,-1.828 l 4.021,-1.077 c 0.309,-0.129 0.346,-0.256 0.346,-0.494 z m -3.838,-3.746 c -0.09,0 -0.182,-0.073 -0.182,-0.183 v -1.443 c 0,-0.092 0.072,-0.184 0.182,-0.184 h 1.281 c 0.109,0 0.182,0.092 0.182,0.184 v 1.443 c 0,0.109 -0.092,0.183 -0.182,0.183 z m 0.402,7.657 c -0.383,0.165 -0.383,0.64 -0.383,0.785 v 1.408 c 0,0.347 0.291,0.512 0.566,0.512 h 2.686 c 0.348,0 0.566,-0.201 0.566,-0.548 v -3.145 l -0.529,0.274 z m 2.559,-7.657 c -0.09,0 -0.182,-0.073 -0.182,-0.183 v -1.443 c 0,-0.092 0.072,-0.184 0.182,-0.184 h 1.279 c 0.111,0 0.184,0.092 0.184,0.184 v 1.443 c 0,0.109 -0.092,0.183 -0.184,0.183 z"
             id="path2591" />
          <path
             style="fill:#008ac1"
             inkscape:connector-curvature="0"
             d="m 707.098,495.073 c -0.365,0 -0.584,0.31 -0.584,0.603 v 7.858 c 0,0.109 -0.092,0.183 -0.184,0.183 h -1.297 c -0.109,0 -0.182,-0.092 -0.182,-0.183 v -7.858 c 0,-1.005 0.729,-2.011 2.01,-2.011 1.572,0 -0.641,0 3.271,0 1.277,0 2.01,1.006 2.01,2.011 v 7.858 c 0,0.109 -0.092,0.183 -0.184,0.183 h -1.279 c -0.109,0 -0.182,-0.092 -0.182,-0.183 v -7.858 c 0,-0.293 -0.238,-0.603 -0.604,-0.603 z"
             id="path2593" />
          <path
             style="fill:#008ac1"
             inkscape:connector-curvature="0"
             d="m 715.034,491.947 c -0.092,0 -0.184,-0.073 -0.184,-0.183 v -1.443 c 0,-0.092 0.074,-0.184 0.184,-0.184 h 1.389 c 0.109,0 0.182,0.092 0.182,0.184 v 1.443 c 0,0.109 -0.092,0.183 -0.182,0.183 z m -0.129,1.902 c 0,-0.11 0.092,-0.184 0.184,-0.184 h 1.279 c 0.109,0 0.182,0.092 0.182,0.184 v 9.686 c 0,0.091 -0.072,0.183 -0.182,0.183 h -1.279 c -0.092,0 -0.184,-0.074 -0.184,-0.183 z"
             id="path2595" />
          <path
             style="fill:#008ac1"
             inkscape:connector-curvature="0"
             d="m 720.973,494.944 v 6.762 c 0,0.311 0.236,0.604 0.604,0.604 h 1.699 0.184 c 0.107,0 0.182,0.091 0.182,0.183 v 1.042 c 0,0.109 -0.092,0.183 -0.182,0.183 h -2.176 c -0.951,0 -1.973,-0.749 -1.973,-1.974 v -10.929 c 0,-0.11 0.055,-0.219 0.182,-0.256 l 1.299,-0.402 c 0.145,-0.054 0.182,0.092 0.182,0.184 v 3.198 h 2.266 c 0.109,0 0.184,0.09 0.184,0.182 v 1.043 c 0,0.108 -0.092,0.182 -0.184,0.182 h -2.267 z"
             id="path2597" />
          <path
             style="fill:#008ac1"
             inkscape:connector-curvature="0"
             d="m 731.026,495.693 c 0,-0.42 -0.346,-0.62 -0.693,-0.62 h -3.912 c -0.072,0 -0.127,-0.056 -0.127,-0.129 v -1.151 c 0,-0.055 0.055,-0.128 0.127,-0.128 h 4.551 c 0.842,0 1.701,0.531 1.701,1.646 v 0.456 6.306 c 0,0.968 -0.586,1.645 -1.646,1.645 h -3.635 c -0.822,0 -1.701,-0.493 -1.701,-1.608 v -1.846 c 0,-0.604 0,-1.443 0.969,-1.828 l 4.021,-1.077 c 0.309,-0.129 0.346,-0.256 0.346,-0.494 v -1.172 z m -3.838,-3.746 c -0.09,0 -0.182,-0.073 -0.182,-0.183 v -1.443 c 0,-0.092 0.072,-0.184 0.182,-0.184 h 1.279 c 0.111,0 0.184,0.092 0.184,0.184 v 1.443 c 0,0.109 -0.092,0.183 -0.184,0.183 z m 0.402,7.657 c -0.383,0.165 -0.383,0.64 -0.383,0.785 v 1.408 c 0,0.347 0.291,0.512 0.566,0.512 h 2.686 c 0.348,0 0.566,-0.201 0.566,-0.548 v -3.145 l -0.529,0.274 z m 2.559,-7.657 c -0.09,0 -0.182,-0.073 -0.182,-0.183 v -1.443 c 0,-0.092 0.072,-0.184 0.182,-0.184 h 1.279 c 0.111,0 0.184,0.092 0.184,0.184 v 1.443 c 0,0.109 -0.092,0.183 -0.184,0.183 z"
             id="path2599" />
          <path
             style="fill:#008ac1"
             inkscape:connector-curvature="0"
             d="m 736.803,494.944 v 6.762 c 0,0.311 0.238,0.604 0.604,0.604 h 1.699 0.184 c 0.109,0 0.182,0.091 0.182,0.183 v 1.042 c 0,0.109 -0.092,0.183 -0.182,0.183 h -2.176 c -0.949,0 -1.973,-0.749 -1.973,-1.974 v -10.929 c 0,-0.11 0.055,-0.219 0.182,-0.256 l 1.299,-0.402 c 0.145,-0.054 0.182,0.092 0.182,0.184 v 3.198 h 2.266 c 0.111,0 0.184,0.09 0.184,0.182 v 1.043 c 0,0.108 -0.092,0.182 -0.184,0.182 h -2.267 z"
             id="path2601" />
          <path
             style="fill:#008ac1"
             inkscape:connector-curvature="0"
             d="m 748.676,501.688 c 0,0.42 0.348,0.622 0.695,0.622 h 4.166 c 0.072,0 0.127,0.055 0.127,0.127 v 1.151 c 0,0.055 -0.055,0.129 -0.127,0.129 h -4.807 c -0.84,0 -1.699,-0.53 -1.699,-1.645 v -0.458 -6.304 c 0,-0.969 0.584,-1.646 1.645,-1.646 h 3.818 c 0.822,0 1.699,0.494 1.699,1.608 v 1.791 c 0,0.604 0,1.444 -0.967,1.827 l -4.203,0.95 c -0.311,0.11 -0.348,0.293 -0.348,0.53 v 1.318 z m 3.619,-4.075 c 0.4,-0.092 0.383,-0.641 0.383,-0.786 v -1.243 c 0,-0.347 -0.293,-0.511 -0.566,-0.511 h -2.869 c -0.348,0 -0.566,0.2 -0.566,0.548 v 2.979 l 0.658,-0.293 z"
             id="path2603" />
          <path
             style="fill:#008ac1"
             inkscape:connector-curvature="0"
             d="m 756.665,503.717 c -0.09,0 -0.182,-0.074 -0.182,-0.183 v -1.443 c 0,-0.092 0.072,-0.184 0.182,-0.184 h 1.391 c 0.107,0 0.182,0.092 0.182,0.184 v 1.443 c 0,0.109 -0.092,0.183 -0.182,0.183 z"
             id="path2605" />
          <path
             style="fill:#008ac1"
             inkscape:connector-curvature="0"
             d="m 765.735,503.826 c -0.438,-0.055 -0.822,-0.329 -0.949,-0.713 -4.148,-12.609 -4.203,-12.737 -4.203,-12.792 0,-0.11 0.109,-0.184 0.201,-0.184 h 1.061 c 0.201,0 0.4,0.202 0.455,0.366 0.037,0.092 0.111,0.201 3.656,10.91 l 0.164,0.969 0.164,-0.969 c 3.545,-10.709 3.619,-10.818 3.654,-10.91 0.057,-0.164 0.258,-0.366 0.457,-0.366 h 1.061 c 0.092,0 0.201,0.074 0.201,0.184 0,0.055 -0.055,0.183 -4.203,12.792 -0.127,0.384 -0.512,0.658 -0.949,0.713 0,0 -0.129,0.019 -0.385,0.019 -0.239,0 -0.385,-0.019 -0.385,-0.019 z"
             id="path2607" />
          <path
             style="fill:#008ac1"
             inkscape:connector-curvature="0"
             d="m 771.223,503.717 c -0.092,0 -0.184,-0.074 -0.184,-0.183 v -1.443 c 0,-0.092 0.074,-0.184 0.184,-0.184 h 1.389 c 0.109,0 0.184,0.092 0.184,0.184 v 1.443 c 0,0.109 -0.094,0.183 -0.184,0.183 z"
             id="path2609" />
        </g>
        <path
           style="fill:#008ac1"
           inkscape:connector-curvature="0"
           d="m 430.893,400.283 c -6.969,0 -10.729,-5.527 -10.729,-10.728 v -43.916 c 0,-5.201 3.76,-10.728 10.729,-10.728 h 26.228 c 6.969,0 10.728,5.527 10.728,10.728 v 43.916 c 0,5.201 -3.759,10.728 -10.728,10.728 z m 3.195,-56.413 c -2.527,0 -4.091,2.123 -4.091,4.089 v 39.186 c 0,1.966 1.563,4.089 4.091,4.089 h 19.838 c 2.526,0 4.09,-2.123 4.09,-4.089 v -39.186 c 0,-1.966 -1.563,-4.089 -4.09,-4.089 z"
           id="path2613" />
        <path
           style="fill:#008ac1"
           inkscape:connector-curvature="0"
           d="m 479.887,400.283 c -1.291,0 -2.158,-1.069 -2.158,-2.069 v -4.91 c 0,-1.295 1.098,-2.069 2.158,-2.069 h 25.564 c 1.497,0 3.108,-0.833 3.108,-2.661 v -7.23 c 0,-1.819 -0.159,-3.745 -1.336,-4.236 l -22.326,-8.99 0.01,-0.032 c -7.66,-2.786 -7.66,-8.681 -7.66,-12.985 v -8.747 c 0,-7.923 6.115,-11.531 11.797,-11.531 h 25.78 c 1.277,0 2.068,1.074 2.068,2.069 v 4.91 c 0,1.278 -1.074,2.069 -2.068,2.069 h -24.619 c -1.591,0 -3.197,0.823 -3.197,2.661 v 8.569 c 0,1.172 0,3.612 1.365,4.068 l 23.079,9.097 c 6.958,2.749 6.958,8.513 6.958,12.722 v 7.944 c 0,7.799 -6.162,11.352 -11.888,11.352 h -26.635 z"
           id="path2615" />
        <path
           style="fill:#008ac1"
           inkscape:connector-curvature="0"
           d="m 529.979,400.283 c -1.352,0 -2.159,-1.052 -2.159,-2.069 v -61.323 c 0,-1.295 1.098,-2.069 2.159,-2.069 h 26.672 c 8.823,0 13.584,6.999 13.584,13.583 v 9.104 c 0,4.772 -2.053,8.587 -5.357,9.958 l -1.098,0.455 1.135,0.353 c 4.114,1.28 6.57,4.763 6.57,9.319 v 9.104 c 0,6.585 -4.761,13.583 -13.584,13.583 h -27.922 z m 7.96,-9.048 h 19.337 c 2.446,0 4.09,-2.114 4.09,-4.089 v -9.551 c 0,-2.482 -2.007,-5.162 -5.25,-5.162 h -18.177 z m 0,-27.849 h 16.034 c 3.789,0 6.054,-3.124 6.054,-6.143 v -9.283 c 0,-1.975 -1.607,-4.089 -4,-4.089 h -18.088 z"
           id="path2617" />
      </g>
    </g>
    <rect
       style="fill:#ececec;stroke-width:0.282856"
       y="0"
       x="-4.2228635e-07"
       id="rect6"
       height="212.97263"
       width="38.543961"
       class="cls-1"
       inkscape:label="Sidebar Left" />
    <g
       id="g48328"
       transform="matrix(1.5813454,0,0,1.5813454,210.84074,95.649625)"
       inkscape:label="QR Code">
         <path d="M0 0h7v7h-7zM9 0h1v1h-1zM12 0h1v1h1v2h-1v1h-1v1h-1v-2h-1v-1h2zM18 0h3v3h-3v3h-1v-4h1zM22 0h1v1h-1zM26 0h3v2h-1v-1h-2zM30 0h1v1h1v1h1v2h-2v-1h-1v1h-1v1h-2v3h-1v-2h-1v-1h-1v-2h1v-1h1v1h-1v1h1v-1h1v1h1v-1h1v-1h1zM34 0h7v7h-7zM1 1v5h5v-5zM8 1h1v1h-1zM15 1h1v1h-1zM35 1v5h5v-5zM2 2h3v3h-3zM36 2h3v3h-3zM14 3h2v3h-1v2h-2v-1h-1v-2h1v2h1v-2h1v-1h-1zM21 3h2v1h-1v1h-1zM19 4h1v1h-1zM8 5h1v3h-1zM29 5h3v1h-1v1h1v-1h1v1h-1v2h-1v-1h-1v1h-1v-2h-1v-1h1zM10 6h1v3h-1zM16 6h1v1h1v-1h1v1h-1v1h-2zM20 6h1v1h1v-1h1v2h-1v1h1v-1h2v1h-1v1h-2v1h-2v-2h-1v1h-1v2h-1v1h-1v-2h-1v1h-1v-2h-1v-1h-1v-1h1v1h1v1h3v-1h1v-1h2zM24 6h1v1h-1zM29 6v1h1v-1zM4 8h4v2h-1v-1h-2v2h-2v-1h1zM27 8h1v1h1v1h1v-1h1v2h-1v2h-2v-2h-1v3h-2v2h-1v-3h-1v-1h-1v-1h2v-1h2v-1h1zM34 8h2v1h-1v1h1v-1h2v1h-1v1h-1v1h-2v-1h-1v2h-1v-1h-1v-1h1v-1h2zM39 8h1v1h-1zM0 9h1v1h-1zM11 9h1v1h1v1h-2v2h1v-1h1v1h-1v2h-7v-2h-1v-1h1v-1h1v-1h1v1h-1v1h-1v1h1v-1h1v1h-1v1h3v-1h-1v-1h1v-2h2zM39 10h2v1h-1v2h1v14h-1v-2h-1v1h-1v-1h-1v-1h-1v-1h-1v-1h-2v-2h-2v-1h-1v-1h-1v1h-1v4h-1v-1h-1v-1h1v-1h-1v-1h-1v-3h1v3h1v-2h2v-1h-2v-2h1v1h2v-2h2v2h1v-2h1v1h1v-1h2v1h-1v1h-3v2h2v-1h1v-1h1v-1h1v-1h1zM0 11h1v1h-1zM2 11h1v2h-2v-1h1zM25 11v1h-1v1h2v-2zM37 11h1v1h-1zM20 12h1v1h1v1h1v2h-1v-1h-1v-1h-1zM13 13h2v1h-1v1h-1zM18 13h1v2h2v1h-1v1h1v1h-2v-2h-1v-1h-2v1h-1v-2h3zM0 14h2v2h1v2h-2v-3h-1zM39 14v1h-1v2h-1v-1h-1v1h1v1h-1v2h-1v-2h-2v2h1v1h2v-1h1v-1h1v2h-2v1h1v1h1v-1h1v2h1v-10zM4 15h1v3h-1zM6 16h1v1h-1zM8 16h5v1h1v5h-1v-3h-1v-1h-1v2h-2v-1h-1v-1h-1v-1h1zM16 16h2v1h-1v1h2v2h1v-1h1v-1h1v1h-1v1h1v1h-3v1h-1v2h-1v-3h1v-2h-1v1h-1v3h-1v-4h1v-1h-1v-1h1zM23 16h1v3h-1zM30 16v1h1v2h1v-3zM8 17v1h1v1h1v-2zM38 17h1v1h-1zM5 18h2v1h-2zM2 19h1v2h1v2h-2v6h-1v-1h-1v-1h1v-1h-1v-6h2zM6 20h3v1h-1v2h-2v-1h-1v-1h1zM11 20h1v2h-1zM23 20h2v1h-2zM1 21v1h1v-1zM6 21v1h1v-1zM22 21h1v3h1v1h1v-2h-1v-1h1v1h1v2h-1v1h-2v-1h-1v-1h-1v-2h1zM29 21h2v3h-1v1h-1v1h-1v2h-1v-4h1v-1h2v-1h-1zM9 22h2v1h-1v1h-1v1h1v-1h1v1h-1v1h-3v-1h-2v-1h3v-1h1zM12 22h1v1h1v1h-2zM32 23h2v2h-1v2h1v1h1v1h-2v-1h-3v1h-1v-3h1v1h2v-2h-1v-1h1zM14 24h3v2h1v2h2v-2h1v3h-2v1h-1v1h-1v-1h-1v-1h-2v1h-3v-1h1v-1h2v-2h2v-1h-2zM18 24h2v1h-2zM12 25h1v2h-1zM34 25h3v1h-3zM3 26h1v1h-1zM6 26h1v1h-1zM22 26h1v1h-1zM25 26h1v1h-1zM7 27h4v1h-1v2h-1v-1h-1v-1h-1zM15 27v1h2v-1zM23 27h1v1h2v1h-1v1h-1v-1h-2v-1h1zM37 27h1v1h-1zM39 27h1v2h-1zM5 28h2v1h-1v1h-3v-1h2zM0 29h1v1h-1zM7 29h1v1h1v1h-1v2h-3v-1h-1v-1h1v1h2v-1h-1v-1h1zM26 29h1v2h-1v1h-3v1h-1v-1h-2v-2h1v1h2v-1h1v1h1v-1h1zM28 29h1v1h1v-1h3v1h1v2h1v-1h1v-1h-1v-1h2v2h-1v1h1v-1h1v-1h1v1h-1v3h-1v1h1v1h-1v1h-1v1h-1v-1h-2v1h1v1h-1v1h1v-1h2v1h1v1h-2v-1h-1v1h-2v-4h-2v-1h-2v-1h-1v1h-1v-2h-1v-1h1v-1h2v1h1v-2h-1zM40 29h1v2h-1zM2 30h1v2h1v1h-4v-1h2zM10 30h1v2h-1zM15 30h1v1h-1zM30 30v1h1v1h-1v1h-1v1h1v1h1v-3h2v-1h-1v-1zM12 31h3v3h1v-2h4v1h-2v1h-1v1h-2v1h-1v1h-2v-1h-1v1h-1v-3h-1v3h-1v-4h2v1h1v1h1v1h1v-1h1v-1h-2v-1h1v-1h-1zM39 32h1v1h-1zM21 33h1v2h1v3h1v1h1v1h-2v-1h-3v-1h2v-2h-1zM33 33v3h3v-3zM40 33h1v3h-1zM0 34h7v7h-7zM18 34h1v1h-1zM34 34h1v1h-1zM1 35v5h5v-5zM19 35h1v1h1v1h-5v-1h3zM2 36h3v3h-3zM24 36h2v1h-2zM39 36h1v1h-1zM9 37h1v2h-1zM11 37h1v1h-1zM14 37h1v2h1v1h-2zM27 37h2v1h-1v1h-1zM37 37h2v1h-1v1h-1zM40 37h1v3h-1v1h-2v-1h1v-2h1zM17 38h1v1h-1zM30 38h1v1h-1zM10 39h3v2h-1v-1h-2zM18 39h2v1h1v1h-2v-1h-1zM26 39h1v1h-1zM28 39h2v2h-1v-1h-1zM17 40h1v1h-1zM25 40h1v1h-1z" fill="#000" transform="translate(0,0) scale(1)"/>
    </g>
    <g
       id="Name"
       transform="matrix(0.28556429,0,0,0.28556429,1.2941971e-5,-0.27467058)">
      <g
         id="g19518"
         style="display:inline"
         transform="translate(-22.069298,-8.8743928)"
         inkscape:label="Name Text Group">
        <text
           id="Graphic_Designer"
           data-name="Graphic Designer"
           class="cls-8"
           transform="scale(0.99819656,1.0018067)"
           style="font-size:35.6742px;font-family:Raleway-MediumItalic, Raleway;fill:#50c3a5;fill-opacity:1;stroke-width:1.108"
           x="186.60307"
           y="209.05812"
           inkscape:label="Role"><tspan
             style="font-style:normal;font-variant:normal;font-weight:normal;font-stretch:normal;font-size:35.6742px;font-family:Lato;-inkscape-font-specification:Lato;fill:#50c3a5;fill-opacity:1;stroke-width:1.108"
             id="tspan10947">CTO </tspan></text>
        <text
           id="Johnny_Smith"
           data-name="Johnny Smith"
           class="cls-9"
           transform="scale(0.99819657,1.0018067)"
           style="font-style:normal;font-variant:normal;font-weight:normal;font-stretch:normal;font-size:44.5927px;font-family:comfortaa;-inkscape-font-specification:comfortaa;fill:#3e3a38;stroke-width:1.108"
           inkscape:label="Name"
           x="185.8004"
           y="157.67213"><tspan
             style="font-style:normal;font-variant:normal;font-weight:normal;font-stretch:normal;font-size:44.5927px;font-family:Lato;-inkscape-font-specification:Lato;fill:#7d7d82;fill-opacity:1;stroke-width:1.108"
             id="tspan2339">Kurt Garloff</tspan></text>
      </g>
      <path
         d="m 106.67876,167.21969 c -0.87053,-6.26116 -3.41517,-11.8192 -9.107145,-12.58929 -2.94643,3.21429 -7.198665,5.2567 -11.886164,5.2567 -4.6875,0 -8.93973,-2.04241 -11.88616,-5.2567 -5.69196,0.77009 -8.23661,6.32813 -9.10714,12.58929 4.65401,6.5625 12.32143,10.8817 20.9933,10.8817 8.671884,0 16.339299,-4.3192 20.993309,-10.8817 z m -8.136165,-23.40402 c 0,-7.09821 -5.758935,-12.85714 -12.857144,-12.85714 -7.09821,0 -12.85714,5.75893 -12.85714,12.85714 0,7.09822 5.75893,12.85714 12.85714,12.85714 7.098209,0 12.857144,-5.75892 12.857144,-12.85714 z m 17.142865,8.57143 c 0,16.5067 -13.39286,30 -30.000009,30 -16.57366,0 -30,-13.45982 -30,-30 0,-16.57366 13.42634,-30 30,-30 16.573669,0 30.000009,13.42634 30.000009,30 z"
         id="path2-0"
         style="display:inline;fill:#7d7d82;fill-opacity:1;stroke-width:0.0334821"
         inkscape:label="Name Icon" />
    </g>
    <g
       id="g46058"
       inkscape:label="Line Endings">
      <path
         inkscape:connector-curvature="0"
         id="path5361"
         d="m 297.96718,112.07559 23.29267,7.8e-4 V 88.088181 h -31.85627 -4.89867 c 0.74502,0.80661 1.51541,1.58988 2.21481,2.43733 1.19826,1.45197 2.3283,2.96204 3.38493,4.52608 1.0567,1.56404 2.0397,3.18164 2.94493,4.8479 0.90516,1.666259 1.73253,3.381529 2.47637,5.140159 0.74384,1.75863 1.4045,3.5606 1.97718,5.40174 0.16617,0.54056 0.46405,1.6342 0.46405,1.6342 z"
         style="fill:#ececec;fill-opacity:1;stroke-width:0.285564"
         sodipodi:nodetypes="cccccsscscc" />
      <path
         inkscape:connector-curvature="0"
         id="path5357"
         d="m 298.87961,140.08766 h 22.38024 v -24.01178 h -22.30793 c 0,0 0.36831,1.92291 0.51708,2.89613 0.1487,0.97322 0.2739,1.95434 0.37421,2.94265 0.10038,0.98831 0.17622,1.98399 0.22703,2.98616 0.0506,1.00216 0.0764,2.0104 0.0764,3.02519 0,1.01479 -0.0257,2.02359 -0.0764,3.02575 -0.0506,1.00217 -0.12665,1.99785 -0.22703,2.98616 -0.10031,0.98831 -0.22551,1.96942 -0.37421,2.94265 -0.14877,0.97323 -0.32124,1.93889 -0.51708,2.8958 -0.0215,0.10471 -0.0499,0.20672 -0.0719,0.31122 z"
         style="fill:#ececec;fill-opacity:1;stroke-width:0.285564"
         sodipodi:nodetypes="cccccccscccccc" />
      <path
         inkscape:connector-curvature="0"
         id="path5353"
         d="m 284.2489,168.04619 c 12.33698,0 24.67397,0 37.01095,0 v -23.98822 h -23.37302 c 0,0 -0.24492,0.90713 -0.3837,1.35333 -0.57268,1.84114 -1.23334,3.6431 -1.97718,5.40173 -0.74384,1.75863 -1.57121,3.4739 -2.47637,5.14016 -0.90523,1.66626 -1.88823,3.28386 -2.94493,4.8479 -1.05663,1.56404 -2.18667,3.07411 -3.38493,4.52608 -0.78016,0.94539 -1.63402,1.82456 -2.47082,2.719 z"
         style="fill:#ececec;fill-opacity:1;stroke-width:0.285564"
         sodipodi:nodetypes="ccccssssssc" />
    </g>
    <path
       inkscape:connector-curvature="0"
       id="path5349"
       d="m 188.62973,144.05879 h -9.91722 v -0.0803 H 43.583456 v 24.06772 h 151.977344 6.70686 c -0.8368,-0.89444 -1.69059,-1.77361 -2.4708,-2.719 -1.19828,-1.45197 -2.3283,-2.96204 -3.38494,-4.52608 -1.05665,-1.56404 -2.03972,-3.18164 -2.94488,-4.8479 -0.90517,-1.66626 -1.73254,-3.38153 -2.47638,-5.14016 -0.74384,-1.75863 -1.40454,-3.56059 -1.9772,-5.40173 -0.13878,-0.4462 -0.25536,-0.90185 -0.38373,-1.35253 z"
       style="fill:#ececec;fill-opacity:1;stroke-width:0.285564"
       sodipodi:nodetypes="cccccccssssssc"
       inkscape:label="vCard Domain Bar" />
    <text
       y="159.68739"
       x="48.518406"
       id="user_mailservice.com_www.yourwebsite.com-5"
       data-name="user@mailservice.com www.yourwebsite.com"
       class="cls-4"
       transform="scale(1.0021791,0.99782563)"
       style="font-style:normal;font-variant:normal;font-weight:normal;font-stretch:normal;font-size:10.1873px;font-family:comfortaa;-inkscape-font-specification:'comfortaa, Normal';font-variant-ligatures:normal;font-variant-caps:normal;font-variant-numeric:normal;font-feature-settings:normal;text-align:start;writing-mode:lr-tb;text-anchor:start;display:inline;fill:#3e3a38;stroke-width:0.327971"
       inkscape:label="vCard Domain Text"><tspan
         style="font-style:normal;font-variant:normal;font-weight:normal;font-stretch:normal;font-size:10.1873px;font-family:Lato;-inkscape-font-specification:Lato;stroke-width:0.327971"
         sodipodi:role="line"
         id="tspan11043-1"
         x="48.518406"
         y="159.68739">https://sovereigncloudstack.github.io/garloff</tspan></text>
    <rect
       id="Rounded_Rectangle_2-2"
       data-name="Rounded Rectangle 2"
       class="cls-5"
       y="143.97856"
       width="38.543961"
       height="24.067644"
       style="fill:#0f5fe1;fill-opacity:1;stroke-width:0.269096"
       x="-4.2228635e-07"
       inkscape:label="vCard Icon Bar" />
    <path
       d="m 22.683944,156.01236 c -1.18241,0 -2.14174,-0.95932 -2.14174,-2.14173 0,-1.18242 0.95933,-2.14174 2.14174,-2.14174 1.1824,0 2.14173,0.95932 2.14173,2.14174 0,1.18241 -0.95933,2.14173 -2.14173,2.14173 z m 5.35432,0.71391 h 1.96326 c 0.0948,0 0.17848,0.0837 0.17848,0.17848 v 1.07087 c 0,0.0948 -0.0837,0.17848 -0.17848,0.17848 h -1.96326 v 1.96325 c 0,0.0948 -0.0837,0.17847 -0.17847,0.17847 h -1.07087 c -0.0948,0 -0.17848,-0.0837 -0.17848,-0.17847 v -1.96325 h -1.96325 c -0.0948,0 -0.17847,-0.0837 -0.17847,-0.17848 v -1.07087 c 0,-0.0948 0.0837,-0.17848 0.17847,-0.17848 h 1.96325 v -1.96325 c 0,-0.0948 0.0837,-0.17848 0.17848,-0.17848 h 1.07087 c 0.0948,0 0.17847,0.0837 0.17847,0.17848 z m -4.10498,1.24935 c 0,0.39042 0.32349,0.7139 0.71391,0.7139 h 1.42782 v 1.32744 c -0.27328,0.20078 -0.6191,0.27886 -0.95372,0.27886 h -4.8747 c -0.89239,0 -1.48916,-0.53543 -1.48916,-1.44454 0,-1.26051 0.29561,-3.19587 1.92978,-3.19587 0.0892,0 0.15061,0.039 0.21752,0.0948 0.5466,0.41831 1.07646,0.68045 1.77921,0.68045 0.70274,0 1.23261,-0.26214 1.7792,-0.68045 0.0669,-0.0558 0.12828,-0.0948 0.21752,-0.0948 0.47407,0 0.89239,0.17847 1.2103,0.53543 h -1.24377 c -0.39042,0 -0.71391,0.32349 -0.71391,0.71391 z"
       id="path2-8"
       style="fill:#ffffff;stroke-width:0.00557741"
       inkscape:label="vCard Icon" />
    <rect
       id="Rounded_Rectangle_2-3"
       data-name="Rounded Rectangle 2"
       class="cls-5"
       y="116.04665"
       width="38.543961"
       height="24.041088"
       style="fill:#0f5fe1;fill-opacity:1;stroke-width:0.269096"
       x="-4.2228635e-07"
       inkscape:label="Phone Icon Bar" />
    <path
       inkscape:connector-curvature="0"
       id="path5345"
       d="m 187.56556,116.07348 h -8.85305 v -0.0267 H 43.583456 v 24.04094 H 178.71251 v -0.0268 h 8.91831 c -0.02,-0.0955 -0.0462,-0.18875 -0.0658,-0.28445 -0.19581,-0.9569 -0.36888,-1.92257 -0.51758,-2.8958 -0.14871,-0.97322 -0.27333,-1.95434 -0.37369,-2.94265 -0.10037,-0.98831 -0.1762,-1.98399 -0.227,-2.98615 -0.0508,-1.00217 -0.0764,-2.01097 -0.0764,-3.02576 0,-1.01479 0.0257,-2.02303 0.0764,-3.02519 0.0508,-1.00217 0.12663,-1.99785 0.227,-2.98616 0.10036,-0.98831 0.22498,-1.96943 0.37369,-2.94265 0.1487,-0.97322 0.32177,-1.9389 0.51758,-2.89579 1.9e-4,-7e-4 2.8e-4,-0.002 5.7e-4,-0.003 z"
       style="fill:#ececec;fill-opacity:1;stroke-width:0.285564"
       sodipodi:nodetypes="cccccccccsssscssccc"
       inkscape:label="Phone Bar" />
    <path
       d="m 30.179203,131.37669 c 0,0.29201 -0.129784,0.85981 -0.251457,1.12749 -0.170342,0.39747 -0.624583,0.65703 -0.989603,0.85982 -0.478578,0.25957 -0.965266,0.41368 -1.508734,0.41368 -0.754368,0 -1.435733,-0.30823 -2.125209,-0.55969 -0.494801,-0.17845 -0.973378,-0.39746 -1.419509,-0.67325 -1.378952,-0.85171 -3.041806,-2.51456 -3.893512,-3.89351 -0.27579,-0.44613 -0.494799,-0.92471 -0.673252,-1.41951 -0.251456,-0.68948 -0.559692,-1.37084 -0.559692,-2.12521 0,-0.54347 0.154117,-1.03016 0.413685,-1.50874 0.202787,-0.36501 0.462355,-0.81926 0.859817,-0.98959 0.26768,-0.12168 0.835483,-0.25146 1.127496,-0.25146 0.05678,0 0.11356,0 0.17034,0.0243 0.170342,0.0568 0.348795,0.45424 0.429909,0.61647 0.259568,0.46235 0.511024,0.93282 0.778703,1.38706 0.129784,0.2109 0.373128,0.47047 0.373128,0.72192 0,0.49481 -1.468179,1.21673 -1.468179,1.65475 0,0.21901 0.202788,0.50291 0.316348,0.69759 0.819261,1.47629 1.841307,2.49833 3.317597,3.31759 0.194675,0.11356 0.478577,0.31635 0.697588,0.31635 0.438019,0 1.159942,-1.46818 1.654742,-1.46818 0.251456,0 0.511023,0.24334 0.721921,0.37313 0.454246,0.26768 0.924707,0.51913 1.387064,0.7787 0.162231,0.0811 0.559693,0.25957 0.616472,0.42991 0.02432,0.0568 0.02432,0.11356 0.02432,0.17034 z"
       id="path1254"
       style="fill:#ffffff;stroke-width:0.00811145"
       inkscape:label="Phone Icon" />
    <text
       y="132.4492"
       x="48.94627"
       id="phone"
       data-name="phone"
       class="cls-4"
       transform="scale(1.0021791,0.99782563)"
       style="font-style:normal;font-variant:normal;font-weight:normal;font-stretch:normal;font-size:10.1873px;font-family:comfortaa;-inkscape-font-specification:'comfortaa, Normal';font-variant-ligatures:normal;font-variant-caps:normal;font-variant-numeric:normal;font-feature-settings:normal;text-align:start;writing-mode:lr-tb;text-anchor:start;display:inline;fill:#3e3a38;stroke-width:0.327971"
       inkscape:label="Phone Text"><tspan
         style="font-style:normal;font-variant:normal;font-weight:normal;font-stretch:normal;font-size:10.1873px;font-family:Lato;-inkscape-font-specification:Lato;stroke-width:0.327971"
         sodipodi:role="line"
         id="tspan11043-1-7"
         x="48.94627"
         y="132.4492">+49-30-206539-201</tspan></text>
    <rect
       id="Rounded_Rectangle_2-4"
       data-name="Rounded Rectangle 2"
       class="cls-5"
       y="88.088181"
       width="38.543961"
       height="24.067644"
       style="fill:#50c3a5;fill-opacity:1;stroke-width:0.269096"
       x="-4.2228635e-07"
       inkscape:label="Mail Icon Bar" />
    <path
       d="m 30.180019,98.528458 v 5.061112 c 0,0.56093 -0.45894,1.01987 -1.01986,1.01987 h -9.38283 c -0.56093,0 -1.01987,-0.45894 -1.01987,-1.01987 v -5.061112 c 0.19123,0.21035 0.40795,0.3952 0.64379,0.55455 1.05812,0.72029 2.12899,1.440572 3.16798,2.199102 0.53543,0.39521 1.19835,0.87964 1.89314,0.87964 h 0.0127 c 0.69479,0 1.35771,-0.48443 1.89315,-0.87964 1.03899,-0.75215 2.10985,-1.478812 3.17434,-2.199102 0.22948,-0.15935 0.4462,-0.3442 0.63742,-0.55455 z m 0,-1.87402 c 0,0.71391 -0.52905,1.35771 -1.08998,1.74653 -0.99438,0.68842 -1.99513,1.37683 -2.98313,2.071622 -0.41432,0.28684 -1.11548,0.87326 -1.63179,0.87326 h -0.0128 c -0.5163,0 -1.21747,-0.58642 -1.63179,-0.87326 -0.988,-0.694792 -1.98875,-1.383202 -2.97675,-2.071622 -0.45257,-0.30596 -1.09636,-1.02624 -1.09636,-1.6063 0,-0.62467 0.33783,-1.1601 1.01986,-1.1601 h 9.38283 c 0.55456,0 1.01987,0.45894 1.01987,1.01987 z"
       id="path2-9"
       style="fill:#ffffff;stroke-width:0.00637419"
       inkscape:label="Mail Icon" />
    <path
       inkscape:connector-curvature="0"
       id="path5341"
       d="M 202.01165,88.088191 H 195.5608 43.583455 V 112.1559 H 178.71251 v -0.0803 h 9.83691 c 0.15246,-0.54568 0.29635,-1.09504 0.46404,-1.63419 0.57266,-1.84114 1.23336,-3.64311 1.9772,-5.40174 0.74384,-1.75863 1.57121,-3.4739 2.47638,-5.140159 0.90516,-1.66626 1.88823,-3.28386 2.94488,-4.8479 1.05664,-1.56404 2.18666,-3.07411 3.38494,-4.52608 0.69938,-0.84745 1.46983,-1.63072 2.21479,-2.43733 z"
       style="fill:#ececec;fill-opacity:1;stroke-width:0.285564"
       sodipodi:nodetypes="cccccccssssssc"
       inkscape:label="Mail Bar"
       sodipodi:insensitive="true" />
    <text
       y="104.43738"
       x="48.599903"
       id="mail"
       data-name="mail"
       class="cls-4"
       transform="scale(1.0021791,0.99782563)"
       style="font-style:normal;font-variant:normal;font-weight:normal;font-stretch:normal;font-size:10.1873px;font-family:comfortaa;-inkscape-font-specification:'comfortaa, Normal';font-variant-ligatures:normal;font-variant-caps:normal;font-variant-numeric:normal;font-feature-settings:normal;text-align:start;writing-mode:lr-tb;text-anchor:start;display:inline;fill:#3e3a38;stroke-width:0.327971"
       inkscape:label="Mail Text"><tspan
         style="font-style:normal;font-variant:normal;font-weight:normal;font-stretch:normal;font-size:10.1873px;font-family:Lato;-inkscape-font-specification:Lato;stroke-width:0.327971"
         sodipodi:role="line"
         id="tspan11043"
         x="48.599903"
         y="104.43738">garloff@osb-alliance.com</tspan></text>
  </g>
</svg>
